<?xml version="1.0" encoding="utf-8"?>
<!-- Generator: Adobe Illustrator 25.2.0, SVG Export Plug-In . SVG Version: 6.00 Build 0)  -->
<svg version="1.1" id="Layer_1" xmlns="http://www.w3.org/2000/svg" xmlns:xlink="http://www.w3.org/1999/xlink" x="0px" y="0px"
	 viewBox="0 0 595.28 841.89" style="enable-background:new 0 0 595.28 841.89;" xml:space="preserve">
<style type="text/css">
	.st0{stroke:#000000;stroke-miterlimit:10;}
	.st1{stroke:#000000;stroke-width:0.5;stroke-miterlimit:10;stroke-dasharray:1;}
</style>
<g>
	<path class="st0" d="M510.24,270.74c-4.02-32.55-5.63-27.33-5.63-27.33c-61.89,12.06-155.92,0-155.92,0s-4.42,21.3-4.02,27.33
		c0,0,62.26,8.44,82.77,7.64L510.24,270.74z"/>
	<path class="st0" d="M344.65,271.04c0,0-18.26,26.82-24.59,87.4c-4.98,47.64-8.65,82.04-9.99,94.57c-0.36,3.4-0.56,5.19-0.56,5.19
		s47.32,29.54,116.04,19.29c0,0-2.84-38.28,1.9-73.24V278.88L344.65,271.04z"/>
	<path class="st1" d="M425.23,472.08c0,0-19.27-0.31-40.07-0.01s-46.72-8.74-46.72-8.74s-19.92-7.51-28.19-12.04"/>
	<g>
		<path d="M352.36,271.8c-1.93,9.1-3.46,18.3-4.76,27.52c-1.29,9.22-2.28,18.49-2.95,27.78c0.59-9.3,1.49-18.58,2.71-27.82
			c1.21-9.24,2.66-18.45,4.51-27.59L352.36,271.8z"/>
	</g>
	<g>
		<path d="M367.54,273.92c0.79,2.21,1.44,4.45,2,6.72c0.55,2.27,1,4.56,1.34,6.87c0.34,2.31,0.51,4.64,0.56,6.97
			c0.03,2.33-0.15,4.66-0.51,6.96c0.32-2.31,0.46-4.63,0.39-6.96c-0.09-2.32-0.3-4.64-0.68-6.93c-0.38-2.29-0.86-4.57-1.45-6.81
			c-0.6-2.24-1.28-4.47-2.1-6.63L367.54,273.92z"/>
	</g>
	<g>
		<path d="M387.52,275.99c-3.03,3.66-5.08,8.11-6.56,12.65c-1.45,4.57-2.28,9.33-2.53,14.13c-0.1,2.4-0.11,4.8-0.07,7.21l0.04,7.22
			c-0.01,4.81,0.03,9.62-0.18,14.43c0.17-4.81,0.09-9.62,0.06-14.43l-0.1-7.22c-0.06-2.4-0.07-4.81,0.01-7.22
			c0.21-4.82,1-9.61,2.42-14.23c1.46-4.59,3.46-9.07,6.55-12.87L387.52,275.99z"/>
	</g>
	<g>
		<path d="M391.84,276.16l0.04-0.54l0.02-0.14l0.01-0.08c0-0.02,0-0.03,0.02-0.07l0.02-0.05c-0.06-0.02,0.27-0.2,0.31-0.1
			c0.07,0.01,0.15,0.16,0.14,0.14l0.01,0.03c0.03,0.17,0.02,0.22,0.03,0.32l0.01,1.07l-0.01,2.12l-0.06,4.23l-0.16,8.46l-0.17,8.46
			l-0.06,4.23l-0.01,2.12l0.01,0.53l0.01,0.13l0.01,0.06c-0.02,0.01,0-0.03,0-0.05l0.03-0.26l0.06-1.06l-0.05,1.06l-0.02,0.26
			c-0.01,0.02,0.01,0.05-0.04,0.06c-0.01-0.03-0.01-0.05-0.01-0.07l-0.01-0.13l-0.02-0.53l-0.02-2.12l0-4.23l0.04-8.46l0.04-8.46
			l0-4.23l-0.02-2.11l-0.03-1.05l-0.02-0.2l0.01,0.01c-0.02-0.02,0.06,0.12,0.13,0.13c0.04,0.09,0.36-0.08,0.3-0.1l0.02-0.03
			c0.01-0.02,0-0.01,0-0.01l-0.01,0.05l-0.01,0.12l-0.03,0.52L391.84,276.16z"/>
	</g>
	<g>
		<path d="M358.84,273.24c-1.06,1.53-2.03,3.14-2.94,4.78c-0.91,1.64-1.76,3.31-2.5,5.03c-1.48,3.43-2.65,7.07-2.79,10.84
			c0.06-3.78,1.15-7.45,2.56-10.94c0.71-1.75,1.53-3.45,2.4-5.12c0.88-1.67,1.82-3.3,2.86-4.89L358.84,273.24z"/>
	</g>
	<g>
		<path d="M348.63,271.78c-0.54,3.77-1.1,7.53-1.71,11.29c-0.3,1.88-0.62,3.76-0.96,5.63c-0.37,1.86-0.65,3.76-1.3,5.55
			c0.62-1.8,0.85-3.7,1.18-5.57c0.3-1.88,0.58-3.76,0.84-5.64c0.53-3.77,1.01-7.54,1.46-11.32L348.63,271.78z"/>
	</g>
	<g>
		<path d="M403.49,277.71c-1.51,9.79-2.89,19.6-4.09,29.43c-0.6,4.92-1.15,9.84-1.6,14.77c-0.45,4.93-0.85,9.87-0.89,14.83
			c0-4.96,0.36-9.9,0.76-14.84c0.41-4.94,0.92-9.87,1.48-14.79c1.12-9.85,2.41-19.67,3.84-29.48L403.49,277.71z"/>
	</g>
	<g>
		<path d="M410.72,278.37c1,3.85,1.9,7.72,2.69,11.62c0.4,1.95,0.75,3.9,1.05,5.87c0.29,1.96,0.55,3.94,0.54,5.93
			c-0.04-1.99-0.33-3.96-0.67-5.91c-0.34-1.96-0.73-3.9-1.17-5.84c-0.87-3.87-1.86-7.72-2.93-11.54L410.72,278.37z"/>
	</g>
	<g>
		<path d="M422.77,278.47c-1.02,4.73-1.93,9.49-2.73,14.26c-0.8,4.78-1.49,9.57-2.02,14.38c-0.54,4.81-0.84,9.65-0.9,14.49
			l-0.32,14.53l0.19-14.54c0.02-4.85,0.28-9.7,0.78-14.52c0.48-4.82,1.14-9.63,1.9-14.42c0.76-4.79,1.62-9.56,2.61-14.31
			L422.77,278.47z"/>
	</g>
	<g>
		<path d="M440.92,389.79l-33.42,17.68l-0.06-0.15l26.69-7.26c8.9-2.41,17.8-4.81,26.74-7.09l0.84-0.2c0.14-0.03,0.28-0.07,0.43-0.1
			l0.06-0.01c0.01,0,0.02,0,0.04,0c-0.01,0.01,0.07-0.04,0.12,0.11c-0.07,0.16-0.07,0.08-0.1,0.12l-0.05,0.03l-0.2,0.09
			c-0.54,0.21-1.08,0.4-1.63,0.59l-3.27,1.13l-6.54,2.25c-4.36,1.51-8.7,3.04-13.03,4.63c-4.33,1.59-8.64,3.23-12.89,4.99
			c-2.13,0.89-4.24,1.8-6.31,2.82c-1.03,0.51-2.06,1.04-3.04,1.63c-0.49,0.3-0.98,0.61-1.43,0.97c-0.44,0.36-0.91,0.74-1.13,1.28
			c0.21-0.55,0.68-0.93,1.12-1.29c0.45-0.36,0.94-0.67,1.43-0.98c0.98-0.6,2-1.14,3.04-1.66c2.06-1.03,4.17-1.96,6.3-2.86
			c4.25-1.8,8.56-3.44,12.88-5.04c4.32-1.6,8.67-3.14,13.02-4.66l6.53-2.26l3.26-1.14c0.54-0.19,1.09-0.38,1.62-0.59l0.19-0.08
			l0.04-0.02c0,0.02,0.04-0.07-0.01,0.06c0.04,0.14,0.11,0.09,0.07,0.1c0,0,0,0-0.01,0l-0.05,0.01c-0.13,0.02-0.28,0.06-0.42,0.09
			l-0.84,0.2c-8.93,2.29-17.82,4.74-26.73,7.11l-26.71,7.2l-0.73,0.2l0.67-0.35L440.92,389.79z"/>
	</g>
	<g>
		<path d="M363.33,273.5c-0.66,5.02-1.29,10.05-1.88,15.08c-0.29,2.52-0.57,5.04-0.81,7.56c-0.23,2.52-0.49,5.05-0.5,7.58
			c-0.05-2.54,0.14-5.07,0.31-7.6c0.18-2.53,0.4-5.05,0.63-7.58c0.46-5.05,0.96-10.09,1.5-15.14L363.33,273.5z"/>
	</g>
	<g>
		<path d="M378.57,275.44c-1.06,2.46-2.05,4.96-2.94,7.49c-0.44,1.27-0.86,2.55-1.21,3.84c-0.35,1.29-0.68,2.6-0.82,3.94
			c0.08-1.35,0.34-2.67,0.64-3.99c0.3-1.32,0.65-2.62,1.04-3.91c0.77-2.59,1.64-5.13,2.6-7.67L378.57,275.44z"/>
	</g>
	<g>
		<path d="M417.91,278.92c0.11,1.75,0.16,3.49,0.15,5.24c-0.01,0.87-0.04,1.75-0.1,2.62c-0.07,0.87-0.16,1.75-0.43,2.58
			c0.21-0.85,0.23-1.72,0.24-2.59c0-0.87-0.03-1.73-0.09-2.6c-0.12-1.73-0.29-3.46-0.52-5.17L417.91,278.92z"/>
	</g>
	<g>
		<path d="M346.86,271.91c-1.89,4.14-3.58,8.41-4.86,12.79c-0.61,2.19-1.15,4.43-1.25,6.71l-0.29,6.86l0.1-6.87
			c0.04-2.31,0.52-4.58,1.08-6.8c1.16-4.45,2.74-8.77,4.54-13L346.86,271.91z"/>
	</g>
	<g>
		<path d="M407.13,278.07c0.22,4.39,0.34,8.78,0.33,13.17c-0.01,2.2-0.04,4.39-0.14,6.58c-0.11,2.19-0.25,4.38-0.56,6.56
			c0.25-2.18,0.33-4.37,0.38-6.56c0.04-2.19,0.01-4.38-0.05-6.57c-0.12-4.38-0.36-8.76-0.7-13.12L407.13,278.07z"/>
	</g>
	<path class="st0" d="M510.24,271.04c0,0,18.26,26.82,24.59,87.4c4.98,47.64,8.65,82.04,9.99,94.57c0.36,3.4,0.56,5.19,0.56,5.19
		s-47.32,29.54-116.04,19.29c0,0,2.84-38.28-1.9-73.24V278.88L510.24,271.04z"/>
	<path class="st1" d="M429.66,472.08c0,0,19.27-0.31,40.07-0.01s46.72-8.74,46.72-8.74s19.92-7.51,28.19-12.04"/>
	<g>
		<path d="M503.02,271.7c1.85,9.14,3.3,18.35,4.51,27.59c1.21,9.24,2.11,18.52,2.71,27.82c-0.68-9.29-1.66-18.56-2.95-27.78
			c-1.29-9.22-2.83-18.42-4.76-27.52L503.02,271.7z"/>
	</g>
	<g>
		<path d="M488.95,273.27c-0.82,2.16-1.5,4.39-2.1,6.63c-0.59,2.25-1.08,4.52-1.45,6.81c-0.38,2.29-0.59,4.61-0.68,6.93
			c-0.07,2.33,0.07,4.65,0.39,6.96c-0.36-2.3-0.54-4.63-0.51-6.96c0.05-2.33,0.22-4.66,0.56-6.97c0.34-2.31,0.78-4.6,1.34-6.87
			c0.56-2.27,1.2-4.51,2-6.72L488.95,273.27z"/>
	</g>
	<g>
		<path d="M467.73,275.65c3.09,3.8,5.09,8.28,6.55,12.87c1.42,4.62,2.21,9.41,2.42,14.23c0.07,2.41,0.07,4.82,0.01,7.22l-0.1,7.22
			c-0.04,4.81-0.11,9.62,0.06,14.43c-0.21-4.81-0.18-9.62-0.18-14.43l0.04-7.22c0.04-2.41,0.03-4.81-0.07-7.21
			c-0.25-4.79-1.08-9.56-2.53-14.13c-1.48-4.53-3.54-8.99-6.56-12.65L467.73,275.65z"/>
	</g>
	<g>
		<path d="M462.54,276.18l-0.03-0.52l-0.01-0.12l-0.01-0.05c0-0.01,0-0.01,0,0.01l0.02,0.03c-0.06,0.01,0.26,0.19,0.3,0.1
			c0.07-0.01,0.14-0.15,0.13-0.13l0.01-0.01l-0.02,0.2l-0.03,1.05l-0.02,2.11l0,4.23l0.04,8.46l0.04,8.46l0,4.23l-0.02,2.12
			l-0.02,0.53l-0.01,0.13c0,0.02,0,0.04-0.01,0.07c-0.05-0.01-0.02-0.04-0.04-0.06l-0.02-0.26l-0.05-1.06l0.06,1.06l0.03,0.26
			c0,0.02,0.02,0.05,0,0.05l0.01-0.06l0.01-0.13l0.01-0.53l-0.01-2.12l-0.06-4.23l-0.17-8.46l-0.16-8.46l-0.06-4.23l-0.01-2.12
			l0.01-1.07c0.01-0.1,0-0.15,0.03-0.32l0.01-0.03c-0.02,0.02,0.06-0.13,0.14-0.14c0.04-0.09,0.37,0.09,0.31,0.1l0.02,0.05
			c0.01,0.04,0.02,0.05,0.02,0.07l0.01,0.08l0.02,0.14l0.04,0.54L462.54,276.18z"/>
	</g>
	<g>
		<path d="M496.13,272.13c1.04,1.59,1.98,3.22,2.86,4.89c0.88,1.67,1.69,3.37,2.4,5.12c1.41,3.48,2.5,7.16,2.56,10.94
			c-0.14-3.77-1.31-7.41-2.79-10.84c-0.75-1.72-1.6-3.39-2.5-5.03c-0.91-1.63-1.89-3.25-2.94-4.78L496.13,272.13z"/>
	</g>
	<g>
		<path d="M506.76,271.72c0.46,3.78,0.94,7.55,1.46,11.32c0.26,1.88,0.54,3.77,0.84,5.64c0.33,1.87,0.56,3.77,1.18,5.57
			c-0.66-1.79-0.93-3.69-1.3-5.55c-0.34-1.87-0.66-3.75-0.96-5.63c-0.61-3.76-1.17-7.52-1.71-11.29L506.76,271.72z"/>
	</g>
	<g>
		<path d="M451.89,276.96c1.43,9.81,2.72,19.63,3.84,29.48c0.56,4.92,1.06,9.85,1.48,14.79c0.4,4.94,0.76,9.88,0.76,14.84
			c-0.04-4.96-0.44-9.9-0.89-14.83c-0.46-4.93-1-9.86-1.6-14.77c-1.2-9.83-2.58-19.65-4.09-29.43L451.89,276.96z"/>
	</g>
	<g>
		<path d="M444.1,277.74c-1.07,3.82-2.06,7.67-2.93,11.54c-0.44,1.94-0.83,3.88-1.17,5.84c-0.33,1.96-0.63,3.92-0.67,5.91
			c0-1.99,0.25-3.97,0.54-5.93c0.3-1.97,0.65-3.92,1.05-5.87c0.79-3.9,1.69-7.77,2.69-11.62L444.1,277.74z"/>
	</g>
	<g>
		<path d="M432.6,278.36c0.99,4.75,1.85,9.52,2.61,14.31c0.76,4.79,1.41,9.59,1.9,14.42c0.5,4.82,0.75,9.67,0.78,14.52l0.19,14.54
			l-0.32-14.53c-0.07-4.85-0.36-9.68-0.9-14.49c-0.52-4.81-1.22-9.61-2.02-14.38c-0.8-4.77-1.7-9.54-2.73-14.26L432.6,278.36z"/>
	</g>
	<g>
		<path d="M492.3,272.23c0.54,5.04,1.05,10.09,1.5,15.14c0.22,2.53,0.45,5.05,0.63,7.58c0.17,2.53,0.36,5.06,0.31,7.6
			c-0.01-2.53-0.27-5.06-0.5-7.58c-0.24-2.52-0.52-5.04-0.81-7.56c-0.58-5.03-1.21-10.06-1.88-15.08L492.3,272.23z"/>
	</g>
	<g>
		<path d="M477.01,274.23c0.96,2.53,1.83,5.08,2.6,7.67c0.39,1.29,0.74,2.59,1.04,3.91c0.29,1.31,0.56,2.64,0.64,3.99
			c-0.14-1.34-0.47-2.65-0.82-3.94c-0.36-1.29-0.77-2.57-1.21-3.84c-0.88-2.53-1.87-5.04-2.94-7.49L477.01,274.23z"/>
	</g>
	<g>
		<path d="M458.52,275.86c-0.23,1.71-0.41,3.44-0.52,5.17c-0.06,0.87-0.09,1.73-0.09,2.6c0.01,0.87,0.03,1.74,0.24,2.59
			c-0.27-0.83-0.36-1.71-0.43-2.58c-0.06-0.87-0.09-1.74-0.1-2.62c-0.01-1.75,0.04-3.49,0.15-5.24L458.52,275.86z"/>
	</g>
	<g>
		<path d="M508.72,271.6c1.79,4.24,3.37,8.56,4.54,13c0.56,2.22,1.04,4.49,1.08,6.8l0.1,6.87l-0.29-6.86
			c-0.1-2.28-0.64-4.51-1.25-6.71c-1.27-4.38-2.97-8.65-4.86-12.79L508.72,271.6z"/>
	</g>
	<g>
		<path d="M448.58,277.15c-0.34,4.36-0.59,8.74-0.7,13.12c-0.06,2.19-0.09,4.38-0.05,6.57c0.04,2.19,0.13,4.38,0.38,6.56
			c-0.31-2.17-0.46-4.36-0.56-6.56c-0.11-2.19-0.14-4.39-0.14-6.58c-0.01-4.39,0.11-8.78,0.33-13.17L448.58,277.15z"/>
	</g>
	<g>
		<path d="M438.11,278.34c-0.23,1.71-0.41,3.44-0.52,5.17c-0.06,0.87-0.09,1.73-0.09,2.6c0.01,0.87,0.03,1.74,0.24,2.59
			c-0.27-0.83-0.36-1.71-0.43-2.58c-0.06-0.87-0.09-1.74-0.1-2.62c-0.01-1.75,0.04-3.49,0.15-5.24L438.11,278.34z"/>
	</g>
	<g>
		<path d="M398.23,277.09c0.11,1.75,0.16,3.49,0.15,5.24c-0.01,0.87-0.04,1.75-0.1,2.62c-0.07,0.87-0.16,1.75-0.43,2.58
			c0.21-0.85,0.23-1.72,0.24-2.59c0-0.87-0.03-1.73-0.09-2.6c-0.12-1.73-0.29-3.46-0.52-5.17L398.23,277.09z"/>
	</g>
	<g>
		<path d="M352.11,244.52l-0.75,6.63c-0.24,2.21-0.48,4.42-0.66,6.63c-0.21,2.21-0.36,4.42-0.45,6.64
			c-0.03,1.11-0.06,2.22-0.01,3.32c0.02,1.11,0.12,2.21,0.37,3.3c-0.66-2.14-0.72-4.41-0.74-6.63c0.02-2.23,0.17-4.46,0.34-6.68
			c0.22-2.22,0.46-4.43,0.78-6.63C351.3,248.9,351.67,246.7,352.11,244.52z"/>
	</g>
	<g>
		<path d="M358.64,247.69l-0.85,5.37c-0.28,1.79-0.57,3.58-0.8,5.37c-0.27,1.79-0.48,3.59-0.65,5.39c-0.17,1.8-0.31,3.6-0.25,5.42
			c-0.26-1.8-0.22-3.63-0.13-5.45c0.09-1.82,0.31-3.62,0.54-5.43c0.27-1.8,0.56-3.59,0.92-5.37
			C357.77,251.21,358.16,249.44,358.64,247.69z"/>
	</g>
	<g>
		<path d="M362.96,246.18c0.47,4.06,0.69,8.14,0.83,12.22c0.04,2.04,0.07,4.09,0,6.13c-0.12,2.03-0.11,4.13-0.82,6.06l0.19-0.74
			c0.04-0.25,0.06-0.5,0.1-0.76c0.08-0.5,0.07-1.01,0.1-1.52c0.04-1.02,0.06-2.03,0.05-3.05c-0.01-2.04-0.03-4.07-0.11-6.11
			C363.21,254.34,363.01,250.26,362.96,246.18z"/>
	</g>
	<g>
		<path d="M368.48,273.1c-0.37-1.24-0.62-2.51-0.81-3.79c-0.19-1.28-0.29-2.58-0.34-3.87c-0.01-1.3,0.03-2.6,0.2-3.89
			c0.19-1.29,0.48-2.56,0.96-3.76c-0.28,1.26-0.47,2.53-0.58,3.8c-0.08,1.28-0.12,2.56-0.08,3.84c0.02,1.28,0.12,2.56,0.23,3.84
			C368.16,270.54,368.31,271.82,368.48,273.1z"/>
	</g>
	<g>
		<path d="M375.91,247.69c0.07,2.17,0.09,4.34,0.06,6.5c-0.03,2.17-0.12,4.33-0.22,6.5c-0.14,2.16-0.29,4.33-0.56,6.49
			c-0.14,1.08-0.3,2.15-0.51,3.22c-0.12,0.53-0.24,1.06-0.4,1.58c-0.17,0.51-0.33,1.05-0.67,1.48c0.3-0.45,0.43-0.99,0.56-1.51
			c0.12-0.52,0.21-1.06,0.28-1.59c0.16-1.07,0.28-2.14,0.37-3.22c0.19-2.15,0.34-4.31,0.45-6.47c0.14-2.16,0.22-4.32,0.33-6.48
			L375.91,247.69z"/>
	</g>
	<g>
		<path d="M387.34,248.74c-0.46,0.95-0.87,1.93-1.25,2.91c-0.4,0.98-0.77,1.96-1.11,2.96c-0.68,1.99-1.3,4.01-1.75,6.06
			c-0.46,2.05-0.76,4.13-0.9,6.23c-0.08,2.1,0.03,4.2,0.44,6.28c-0.58-2.04-0.84-4.16-0.82-6.29c0.06-2.13,0.36-4.24,0.79-6.32
			c0.49-2.07,1.11-4.1,1.87-6.08C385.39,252.5,386.28,250.57,387.34,248.74z"/>
	</g>
	<g>
		<path d="M391.96,248.74c0.24,1.07,0.39,2.16,0.5,3.26c0.12,1.09,0.18,2.19,0.2,3.29c0.04,2.2-0.07,4.4-0.44,6.57l-0.01-3.28
			l-0.05-3.27C392.13,253.11,392.04,250.94,391.96,248.74z"/>
	</g>
	<g>
		<path d="M396.31,247.69c0.16,2.12,0.28,4.25,0.37,6.37c0.09,2.13,0.13,4.25,0.18,6.38c0.01,2.13,0.03,4.25-0.03,6.38
			c-0.08,2.12-0.09,4.27-0.52,6.36c0.18-1.05,0.13-2.12,0.15-3.18c0.01-1.06,0-2.12-0.01-3.19l-0.09-6.37l-0.06-6.38
			C396.28,251.94,396.29,249.81,396.31,247.69z"/>
	</g>
	<g>
		<path d="M389.52,275.29c-0.37-0.34-0.67-0.73-0.96-1.13c-0.29-0.4-0.53-0.83-0.75-1.28c-0.21-0.45-0.39-0.91-0.49-1.41
			c-0.1-0.49-0.15-1.01,0.01-1.49c0.05,0.49,0.2,0.94,0.36,1.38c0.17,0.44,0.36,0.88,0.57,1.3
			C388.67,273.54,389.13,274.39,389.52,275.29z"/>
	</g>
	<g>
		<path d="M400.08,275.82c0.47-1.07,0.83-2.13,1.12-3.23c0.14-0.55,0.27-1.1,0.38-1.66c0.12-0.56,0.19-1.12,0.3-1.7
			c0.19,1.15,0.09,2.35-0.2,3.49c-0.15,0.57-0.36,1.12-0.62,1.65C400.8,274.89,400.49,275.4,400.08,275.82z"/>
	</g>
	<g>
		<path d="M408.52,248.74c-0.51,2.17-0.86,4.37-1.17,6.58c-0.29,2.2-0.55,4.41-0.66,6.64c-0.16,2.22-0.22,4.44-0.19,6.66
			c0,2.23,0.13,4.45,0.27,6.68c-0.14-1.11-0.32-2.21-0.43-3.32c-0.09-1.11-0.19-2.23-0.22-3.34c-0.11-2.23-0.04-4.47,0.08-6.71
			c0.16-2.23,0.41-4.46,0.78-6.66C407.35,253.05,407.84,250.87,408.52,248.74z"/>
	</g>
	<g>
		<path d="M415,249.65c-0.34,2.05-0.63,4.1-0.89,6.16c-0.25,2.06-0.48,4.12-0.6,6.18c-0.3,4.13-0.31,8.28,0.28,12.39
			c-0.51-2.02-0.75-4.1-0.87-6.18c-0.1-2.08-0.03-4.17,0.08-6.25c0.17-2.08,0.39-4.15,0.72-6.2
			C414.07,253.7,414.46,251.65,415,249.65z"/>
	</g>
	<g>
		<path d="M420.88,249.65c0.19,2.19,0.33,4.39,0.42,6.59c0.09,2.2,0.12,4.4,0.13,6.6c-0.03,2.2-0.07,4.41-0.25,6.61
			c-0.1,1.1-0.21,2.2-0.39,3.29c-0.1,0.54-0.21,1.09-0.37,1.62c-0.16,0.52-0.34,1.08-0.74,1.47c0.37-0.42,0.5-0.97,0.62-1.5
			c0.12-0.53,0.19-1.08,0.25-1.62c0.13-1.09,0.2-2.18,0.25-3.28c0.1-2.19,0.14-4.39,0.14-6.58c0.03-2.2,0-4.39-0.01-6.59
			L420.88,249.65z"/>
	</g>
	<g>
		<path d="M430.37,250.4c0.29,1.09,0.49,2.2,0.67,3.31c0.18,1.11,0.31,2.23,0.4,3.36c0.08,1.12,0.14,2.25,0.09,3.38
			c-0.04,1.13-0.12,2.26-0.4,3.36c0.07-1.13,0.05-2.24,0.01-3.36c-0.05-1.12-0.12-2.23-0.2-3.35L430.37,250.4z"/>
	</g>
	<g>
		<path d="M437.38,250.4c-0.24,1.07-0.42,2.14-0.58,3.22c-0.17,1.08-0.31,2.16-0.42,3.24c-0.23,2.16-0.37,4.34-0.37,6.51
			c-0.05,2.17,0.07,4.35,0.3,6.51l0.18,1.62l0.27,1.61c0.13,1.08,0.42,2.14,0.63,3.21c-0.63-2.09-1.2-4.22-1.46-6.4
			c-0.3-2.17-0.43-4.37-0.41-6.56C435.58,258.98,436.11,254.59,437.38,250.4z"/>
	</g>
	<g>
		<path d="M443.03,250.4c0.57,2.02,1.08,4.06,1.51,6.12c0.44,2.05,0.8,4.13,1.1,6.21c0.25,2.09,0.5,4.19,0.37,6.31
			c-0.23,2.12-0.66,4.15-1.03,6.23l0.32-3.13c0.11-1.04,0.28-2.09,0.32-3.11c0.04-2.07-0.2-4.16-0.48-6.23
			c-0.26-2.08-0.62-4.14-0.98-6.2C443.8,254.53,443.42,252.46,443.03,250.4z"/>
	</g>
	<g>
		<path d="M451.64,250.4c-0.76,3.26-1.58,6.5-2.15,9.79c-0.3,1.63-0.55,3.29-0.55,4.94c0.04,1.66,0.12,3.34,0.11,5.02
			c-0.2-1.67-0.38-3.32-0.5-5c-0.08-1.7,0.17-3.38,0.44-5.04c0.32-1.65,0.68-3.29,1.13-4.91
			C450.57,253.58,451.06,251.97,451.64,250.4z"/>
	</g>
	<g>
		<path d="M457.97,249.65c0.31,1.82,0.55,3.66,0.76,5.5c0.21,1.84,0.36,3.68,0.51,5.53c0.1,1.85,0.2,3.7,0.2,5.55
			c-0.01,1.85-0.05,3.72-0.44,5.53c0.18-1.84,0.12-3.68,0.05-5.53c-0.08-1.84-0.17-3.68-0.32-5.52L457.97,249.65z"/>
	</g>
	<g>
		<path d="M464.28,249.65c-0.36,1.35-0.68,2.69-0.94,4.04c-0.14,0.67-0.25,1.35-0.36,2.03l-0.31,2.06
			c-0.18-1.39-0.08-2.81,0.19-4.19c0.14-0.69,0.32-1.37,0.55-2.03C463.64,250.9,463.91,250.25,464.28,249.65z"/>
	</g>
	<g>
		<path d="M470.76,248.74c0.58,1.85,1.04,3.74,1.45,5.64c0.4,1.9,0.72,3.82,0.99,5.74c0.22,1.93,0.42,3.87,0.46,5.81
			c0.03,1.94-0.03,3.9-0.34,5.82c0.18-3.88-0.11-7.73-0.62-11.56c-0.23-1.92-0.55-3.83-0.87-5.73
			C471.5,252.55,471.14,250.64,470.76,248.74z"/>
	</g>
	<g>
		<path d="M481.29,247.69c0,4.05-0.14,8.09-0.15,12.13c-0.04,2.02-0.03,4.04,0.04,6.05c-0.02,2.02,0.65,3.94,1.03,5.94
			c-0.57-1.92-1.35-3.85-1.41-5.91c-0.16-2.03-0.15-4.05-0.16-6.08c0.04-2.02,0.09-4.05,0.2-6.07
			C480.95,251.72,481.08,249.7,481.29,247.69z"/>
	</g>
	<g>
		<path d="M489.75,271.8l-0.16-6.4c-0.04-1.06-0.09-2.12-0.18-3.18c-0.06-0.53-0.11-1.05-0.22-1.57c-0.08-0.53-0.24-1.02-0.47-1.51
			c0.65,0.88,0.87,1.98,1.07,3.03c0.18,1.06,0.25,2.14,0.3,3.21C490.14,267.53,490.06,269.67,489.75,271.8z"/>
	</g>
	<g>
		<path d="M493.34,246.78c0.06,3.77-0.02,7.52,0.02,11.28c-0.01,1.88,0.01,3.76,0.07,5.63c0.02,0.94,0.06,1.88,0.14,2.81
			c0.1,0.92,0.12,1.89,0.55,2.73c-0.29-0.38-0.41-0.86-0.52-1.31c-0.11-0.46-0.19-0.93-0.27-1.39c-0.13-0.94-0.21-1.88-0.29-2.82
			c-0.13-1.88-0.16-3.77-0.18-5.65c0.02-1.88,0.04-3.77,0.12-5.65C493.06,250.54,493.16,248.66,493.34,246.78z"/>
	</g>
	<g>
		<path d="M498.45,244.52c0.8,3.74,1.34,7.52,1.82,11.31c0.2,1.9,0.4,3.8,0.5,5.71c0.08,1.91,0.16,3.84-0.16,5.73
			c0.12-1.91-0.06-3.81-0.22-5.7c-0.18-1.9-0.38-3.79-0.61-5.68C499.35,252.1,498.84,248.32,498.45,244.52z"/>
	</g>
	<g>
		<path d="M504.19,244.52c0.38,2.12,0.73,4.24,1.03,6.37c0.31,2.13,0.56,4.26,0.83,6.4c0.22,2.14,0.45,4.28,0.59,6.43
			c0.07,1.07,0.13,2.15,0.15,3.23c0.01,0.54,0,1.08-0.02,1.62c-0.04,0.53-0.02,1.1-0.26,1.59c0.2-0.5,0.14-1.06,0.14-1.59
			c-0.02-0.54-0.06-1.07-0.1-1.6c-0.08-1.07-0.18-2.14-0.29-3.2c-0.22-2.13-0.45-4.27-0.71-6.4l-0.71-6.4
			C504.6,248.8,504.39,246.66,504.19,244.52z"/>
	</g>
</g>
<g>
	<path class="st0" d="M248.15,270.74c-4.02-32.55-5.63-27.33-5.63-27.33c-61.89,12.06-155.92,0-155.92,0s-4.42,21.3-4.02,27.33
		c0,0,62.26,8.44,82.77,7.64L248.15,270.74z"/>
	<path class="st0" d="M82.56,271.04c0,0-18.26,26.82-24.59,87.4c-4.98,47.64-8.65,82.04-9.99,94.57c-0.36,3.4-0.56,5.19-0.56,5.19
		s47.32,29.54,116.04,19.29c0,0-2.84-38.28,1.9-73.24V278.88L82.56,271.04z"/>
	<path class="st1" d="M163.14,472.08c0,0-19.27-0.31-40.07-0.01s-46.72-8.74-46.72-8.74s-19.92-7.51-28.19-12.04"/>
	<g>
		<path d="M90.27,271.8c-1.93,9.1-3.46,18.3-4.76,27.52c-1.29,9.22-2.28,18.49-2.95,27.78c0.59-9.3,1.49-18.58,2.71-27.82
			c1.21-9.24,2.66-18.45,4.51-27.59L90.27,271.8z"/>
	</g>
	<g>
		<path d="M105.45,273.92c0.79,2.21,1.44,4.45,2,6.72c0.55,2.27,1,4.56,1.34,6.87c0.34,2.31,0.51,4.64,0.56,6.97
			c0.03,2.33-0.15,4.66-0.51,6.96c0.32-2.31,0.46-4.63,0.39-6.96c-0.09-2.32-0.3-4.64-0.68-6.93c-0.38-2.29-0.86-4.57-1.45-6.81
			c-0.6-2.24-1.28-4.47-2.1-6.63L105.45,273.92z"/>
	</g>
	<g>
		<path d="M125.43,275.99c-3.03,3.66-5.08,8.11-6.56,12.65c-1.45,4.57-2.28,9.33-2.53,14.13c-0.1,2.4-0.11,4.8-0.07,7.21l0.04,7.22
			c-0.01,4.81,0.03,9.62-0.18,14.43c0.17-4.81,0.09-9.62,0.06-14.43l-0.1-7.22c-0.06-2.4-0.07-4.81,0.01-7.22
			c0.21-4.82,1-9.61,2.42-14.23c1.46-4.59,3.46-9.07,6.55-12.87L125.43,275.99z"/>
	</g>
	<g>
		<path d="M129.76,276.16l0.04-0.54l0.02-0.14l0.01-0.08c0-0.02,0-0.03,0.02-0.07l0.02-0.05c-0.06-0.02,0.27-0.2,0.31-0.1
			c0.07,0.01,0.15,0.16,0.14,0.14l0.01,0.03c0.03,0.17,0.02,0.22,0.03,0.32l0.01,1.07l-0.01,2.12l-0.06,4.23l-0.16,8.46l-0.17,8.46
			l-0.06,4.23l-0.01,2.12l0.01,0.53l0.01,0.13l0.01,0.06c-0.02,0.01,0-0.03,0-0.05l0.03-0.26l0.06-1.06l-0.05,1.06l-0.02,0.26
			c-0.01,0.02,0.01,0.05-0.04,0.06c-0.01-0.03-0.01-0.05-0.01-0.07l-0.01-0.13l-0.02-0.53l-0.02-2.12l0-4.23l0.04-8.46l0.04-8.46
			l0-4.23l-0.02-2.11l-0.03-1.05l-0.02-0.2l0.01,0.01c-0.02-0.02,0.06,0.12,0.13,0.13c0.04,0.09,0.36-0.08,0.3-0.1l0.02-0.03
			c0.01-0.02,0-0.01,0-0.01l-0.01,0.05l-0.01,0.12l-0.03,0.52L129.76,276.16z"/>
	</g>
	<g>
		<path d="M96.76,273.24c-1.06,1.53-2.03,3.14-2.94,4.78c-0.91,1.64-1.76,3.31-2.5,5.03c-1.48,3.43-2.65,7.07-2.79,10.84
			c0.06-3.78,1.15-7.45,2.56-10.94c0.71-1.75,1.53-3.45,2.4-5.12c0.88-1.67,1.82-3.3,2.86-4.89L96.76,273.24z"/>
	</g>
	<g>
		<path d="M86.54,271.78c-0.54,3.77-1.1,7.53-1.71,11.29c-0.3,1.88-0.62,3.76-0.96,5.63c-0.37,1.86-0.65,3.76-1.3,5.55
			c0.62-1.8,0.85-3.7,1.18-5.57c0.3-1.88,0.58-3.76,0.84-5.64c0.53-3.77,1.01-7.54,1.46-11.32L86.54,271.78z"/>
	</g>
	<g>
		<path d="M141.4,277.71c-1.51,9.79-2.89,19.6-4.09,29.43c-0.6,4.92-1.15,9.84-1.6,14.77c-0.45,4.93-0.85,9.87-0.89,14.83
			c0-4.96,0.36-9.9,0.76-14.84c0.41-4.94,0.92-9.87,1.48-14.79c1.12-9.85,2.41-19.67,3.84-29.48L141.4,277.71z"/>
	</g>
	<g>
		<path d="M148.63,278.37c1,3.85,1.9,7.72,2.69,11.62c0.4,1.95,0.75,3.9,1.05,5.87c0.29,1.96,0.55,3.94,0.54,5.93
			c-0.04-1.99-0.33-3.96-0.67-5.91c-0.34-1.96-0.73-3.9-1.17-5.84c-0.87-3.87-1.86-7.72-2.93-11.54L148.63,278.37z"/>
	</g>
	<g>
		<path d="M160.69,278.47c-1.02,4.73-1.93,9.49-2.73,14.26c-0.8,4.78-1.49,9.57-2.02,14.38c-0.54,4.81-0.84,9.65-0.9,14.49
			l-0.32,14.53l0.19-14.54c0.02-4.85,0.28-9.7,0.78-14.52c0.48-4.82,1.14-9.63,1.9-14.42c0.76-4.79,1.62-9.56,2.61-14.31
			L160.69,278.47z"/>
	</g>
	<g>
		<path d="M178.83,389.79l-33.42,17.68l-0.06-0.15l26.69-7.26c8.9-2.41,17.8-4.81,26.74-7.09l0.84-0.2c0.14-0.03,0.28-0.07,0.43-0.1
			l0.06-0.01c0.01,0,0.02,0,0.04,0c-0.01,0.01,0.07-0.04,0.12,0.11c-0.07,0.16-0.07,0.08-0.1,0.12l-0.05,0.03l-0.2,0.09
			c-0.54,0.21-1.08,0.4-1.63,0.59l-3.27,1.13l-6.54,2.25c-4.36,1.51-8.7,3.04-13.03,4.63c-4.33,1.59-8.64,3.23-12.89,4.99
			c-2.13,0.89-4.24,1.8-6.31,2.82c-1.03,0.51-2.06,1.04-3.04,1.63c-0.49,0.3-0.98,0.61-1.43,0.97c-0.44,0.36-0.91,0.74-1.13,1.28
			c0.21-0.55,0.68-0.93,1.12-1.29c0.45-0.36,0.94-0.67,1.43-0.98c0.98-0.6,2-1.14,3.04-1.66c2.06-1.03,4.17-1.96,6.3-2.86
			c4.25-1.8,8.56-3.44,12.88-5.04c4.32-1.6,8.67-3.14,13.02-4.66l6.53-2.26l3.26-1.14c0.54-0.19,1.09-0.38,1.62-0.59l0.19-0.08
			l0.04-0.02c0,0.02,0.04-0.07-0.01,0.06c0.04,0.14,0.11,0.09,0.07,0.1c0,0,0,0-0.01,0l-0.05,0.01c-0.13,0.02-0.28,0.06-0.42,0.09
			l-0.84,0.2c-8.93,2.29-17.82,4.74-26.73,7.11l-26.71,7.2l-0.73,0.2l0.67-0.35L178.83,389.79z"/>
	</g>
	<g>
		<path d="M101.24,273.5c-0.66,5.02-1.29,10.05-1.88,15.08c-0.29,2.52-0.57,5.04-0.81,7.56c-0.23,2.52-0.49,5.05-0.5,7.58
			c-0.05-2.54,0.14-5.07,0.31-7.6c0.18-2.53,0.4-5.05,0.63-7.58c0.46-5.05,0.96-10.09,1.5-15.14L101.24,273.5z"/>
	</g>
	<g>
		<path d="M116.48,275.44c-1.06,2.46-2.05,4.96-2.94,7.49c-0.44,1.27-0.86,2.55-1.21,3.84c-0.35,1.29-0.68,2.6-0.82,3.94
			c0.08-1.35,0.34-2.67,0.64-3.99c0.3-1.32,0.65-2.62,1.04-3.91c0.77-2.59,1.64-5.13,2.6-7.67L116.48,275.44z"/>
	</g>
	<g>
		<path d="M155.82,278.92c0.11,1.75,0.16,3.49,0.15,5.24c-0.01,0.87-0.04,1.75-0.1,2.62c-0.07,0.87-0.16,1.75-0.43,2.58
			c0.21-0.85,0.23-1.72,0.24-2.59c0-0.87-0.03-1.73-0.09-2.6c-0.12-1.73-0.29-3.46-0.52-5.17L155.82,278.92z"/>
	</g>
	<g>
		<path d="M84.77,271.91c-1.89,4.14-3.58,8.41-4.86,12.79c-0.61,2.19-1.15,4.43-1.25,6.71l-0.29,6.86l0.1-6.87
			c0.04-2.31,0.52-4.58,1.08-6.8c1.16-4.45,2.74-8.77,4.54-13L84.77,271.91z"/>
	</g>
	<g>
		<path d="M145.05,278.07c0.22,4.39,0.34,8.78,0.33,13.17c-0.01,2.2-0.04,4.39-0.14,6.58c-0.11,2.19-0.25,4.38-0.56,6.56
			c0.25-2.18,0.33-4.37,0.38-6.56c0.04-2.19,0.01-4.38-0.05-6.57c-0.12-4.38-0.36-8.76-0.7-13.12L145.05,278.07z"/>
	</g>
	<path class="st0" d="M248.15,271.04c0,0,18.26,26.82,24.59,87.4c4.98,47.64,8.65,82.04,9.99,94.57c0.36,3.4,0.56,5.19,0.56,5.19
		s-47.32,29.54-116.04,19.29c0,0,2.84-38.28-1.9-73.24V278.88L248.15,271.04z"/>
	<path class="st1" d="M167.57,472.08c0,0,19.27-0.31,40.07-0.01s46.72-8.74,46.72-8.74s19.92-7.51,28.19-12.04"/>
	<g>
		<path d="M240.93,271.7c1.85,9.14,3.3,18.35,4.51,27.59c1.21,9.24,2.11,18.52,2.71,27.82c-0.68-9.29-1.66-18.56-2.95-27.78
			c-1.29-9.22-2.83-18.42-4.76-27.52L240.93,271.7z"/>
	</g>
	<g>
		<path d="M226.86,273.27c-0.82,2.16-1.5,4.39-2.1,6.63c-0.59,2.25-1.08,4.52-1.45,6.81c-0.38,2.29-0.59,4.61-0.68,6.93
			c-0.07,2.33,0.07,4.65,0.39,6.96c-0.36-2.3-0.54-4.63-0.51-6.96c0.05-2.33,0.22-4.66,0.56-6.97c0.34-2.31,0.78-4.6,1.34-6.87
			c0.56-2.27,1.2-4.51,2-6.72L226.86,273.27z"/>
	</g>
	<g>
		<path d="M205.65,275.65c3.09,3.8,5.09,8.28,6.55,12.87c1.42,4.62,2.21,9.41,2.42,14.23c0.07,2.41,0.07,4.82,0.01,7.22l-0.1,7.22
			c-0.04,4.81-0.11,9.62,0.06,14.43c-0.21-4.81-0.18-9.62-0.18-14.43l0.04-7.22c0.04-2.41,0.03-4.81-0.07-7.21
			c-0.25-4.79-1.08-9.56-2.53-14.13c-1.48-4.53-3.54-8.99-6.56-12.65L205.65,275.65z"/>
	</g>
	<g>
		<path d="M200.46,276.18l-0.03-0.52l-0.01-0.12l-0.01-0.05c0-0.01,0-0.01,0,0.01l0.02,0.03c-0.06,0.01,0.26,0.19,0.3,0.1
			c0.07-0.01,0.14-0.15,0.13-0.13l0.01-0.01l-0.02,0.2l-0.03,1.05l-0.02,2.11l0,4.23l0.04,8.46l0.04,8.46l0,4.23l-0.02,2.12
			l-0.02,0.53l-0.01,0.13c0,0.02,0,0.04-0.01,0.07c-0.05-0.01-0.02-0.04-0.04-0.06l-0.02-0.26l-0.05-1.06l0.06,1.06l0.03,0.26
			c0,0.02,0.02,0.05,0,0.05l0.01-0.06l0.01-0.13l0.01-0.53l-0.01-2.12l-0.06-4.23l-0.17-8.46l-0.16-8.46l-0.06-4.23l-0.01-2.12
			l0.01-1.07c0.01-0.1,0-0.15,0.03-0.32l0.01-0.03c-0.02,0.02,0.06-0.13,0.14-0.14c0.04-0.09,0.37,0.09,0.31,0.1l0.02,0.05
			c0.01,0.04,0.02,0.05,0.02,0.07l0.01,0.08l0.02,0.14l0.04,0.54L200.46,276.18z"/>
	</g>
	<g>
		<path d="M234.04,272.13c1.04,1.59,1.98,3.22,2.86,4.89c0.88,1.67,1.69,3.37,2.4,5.12c1.41,3.48,2.5,7.16,2.56,10.94
			c-0.14-3.77-1.31-7.41-2.79-10.84c-0.75-1.72-1.6-3.39-2.5-5.03c-0.91-1.63-1.89-3.25-2.94-4.78L234.04,272.13z"/>
	</g>
	<g>
		<path d="M244.67,271.72c0.46,3.78,0.94,7.55,1.46,11.32c0.26,1.88,0.54,3.77,0.84,5.64c0.33,1.87,0.56,3.77,1.18,5.57
			c-0.66-1.79-0.93-3.69-1.3-5.55c-0.34-1.87-0.66-3.75-0.96-5.63c-0.61-3.76-1.17-7.52-1.71-11.29L244.67,271.72z"/>
	</g>
	<g>
		<path d="M189.8,276.96c1.43,9.81,2.72,19.63,3.84,29.48c0.56,4.92,1.06,9.85,1.48,14.79c0.4,4.94,0.76,9.88,0.76,14.84
			c-0.04-4.96-0.44-9.9-0.89-14.83c-0.46-4.93-1-9.86-1.6-14.77c-1.2-9.83-2.58-19.65-4.09-29.43L189.8,276.96z"/>
	</g>
	<g>
		<path d="M182.01,277.74c-1.07,3.82-2.06,7.67-2.93,11.54c-0.44,1.94-0.83,3.88-1.17,5.84c-0.33,1.96-0.63,3.92-0.67,5.91
			c0-1.99,0.25-3.97,0.54-5.93c0.3-1.97,0.65-3.92,1.05-5.87c0.79-3.9,1.69-7.77,2.69-11.62L182.01,277.74z"/>
	</g>
	<g>
		<path d="M170.52,278.36c0.99,4.75,1.85,9.52,2.61,14.31c0.76,4.79,1.41,9.59,1.9,14.42c0.5,4.82,0.75,9.67,0.78,14.52l0.19,14.54
			l-0.32-14.53c-0.07-4.85-0.36-9.68-0.9-14.49c-0.52-4.81-1.22-9.61-2.02-14.38c-0.8-4.77-1.7-9.54-2.73-14.26L170.52,278.36z"/>
	</g>
	<g>
		<path d="M230.21,272.23c0.54,5.04,1.05,10.09,1.5,15.14c0.22,2.53,0.45,5.05,0.63,7.58c0.17,2.53,0.36,5.06,0.31,7.6
			c-0.01-2.53-0.27-5.06-0.5-7.58c-0.24-2.52-0.52-5.04-0.81-7.56c-0.58-5.03-1.21-10.06-1.88-15.08L230.21,272.23z"/>
	</g>
	<g>
		<path d="M214.92,274.23c0.96,2.53,1.83,5.08,2.6,7.67c0.39,1.29,0.74,2.59,1.04,3.91c0.29,1.31,0.56,2.64,0.64,3.99
			c-0.14-1.34-0.47-2.65-0.82-3.94c-0.36-1.29-0.77-2.57-1.21-3.84c-0.88-2.53-1.87-5.04-2.94-7.49L214.92,274.23z"/>
	</g>
	<g>
		<path d="M196.44,275.86c-0.23,1.71-0.41,3.44-0.52,5.17c-0.06,0.87-0.09,1.73-0.09,2.6c0.01,0.87,0.03,1.74,0.24,2.59
			c-0.27-0.83-0.36-1.71-0.43-2.58c-0.06-0.87-0.09-1.74-0.1-2.62c-0.01-1.75,0.04-3.49,0.15-5.24L196.44,275.86z"/>
	</g>
	<g>
		<path d="M246.63,271.6c1.79,4.24,3.37,8.56,4.54,13c0.56,2.22,1.04,4.49,1.08,6.8l0.1,6.87l-0.29-6.86
			c-0.1-2.28-0.64-4.51-1.25-6.71c-1.27-4.38-2.97-8.65-4.86-12.79L246.63,271.6z"/>
	</g>
	<g>
		<path d="M186.5,277.15c-0.34,4.36-0.59,8.74-0.7,13.12c-0.06,2.19-0.09,4.38-0.05,6.57c0.04,2.19,0.13,4.38,0.38,6.56
			c-0.31-2.17-0.46-4.36-0.56-6.56c-0.11-2.19-0.14-4.39-0.14-6.58c-0.01-4.39,0.11-8.78,0.33-13.17L186.5,277.15z"/>
	</g>
	<g>
		<path d="M176.02,278.34c-0.23,1.71-0.41,3.44-0.52,5.17c-0.06,0.87-0.09,1.73-0.09,2.6c0.01,0.87,0.03,1.74,0.24,2.59
			c-0.27-0.83-0.36-1.71-0.43-2.58c-0.06-0.87-0.09-1.74-0.1-2.62c-0.01-1.75,0.04-3.49,0.15-5.24L176.02,278.34z"/>
	</g>
	<g>
		<path d="M136.14,277.09c0.11,1.75,0.16,3.49,0.15,5.24c-0.01,0.87-0.04,1.75-0.1,2.62c-0.07,0.87-0.16,1.75-0.43,2.58
			c0.21-0.85,0.23-1.72,0.24-2.59c0-0.87-0.03-1.73-0.09-2.6c-0.12-1.73-0.29-3.46-0.52-5.17L136.14,277.09z"/>
	</g>
	<path class="st0" d="M84.43,271.04c0,0-20.12,47.02-22.99,76.55l-2.42,1.94"/>
	<path class="st0" d="M246.29,271.09c0,0,20.12,47.02,22.99,76.55l2.42,1.94"/>
	<g>
		<path d="M90.02,244.52l-0.75,6.63c-0.24,2.21-0.48,4.42-0.66,6.63c-0.21,2.21-0.36,4.42-0.45,6.64c-0.03,1.11-0.06,2.22-0.01,3.32
			c0.02,1.11,0.12,2.21,0.37,3.3c-0.66-2.14-0.72-4.41-0.74-6.63c0.02-2.23,0.17-4.46,0.34-6.68c0.22-2.22,0.46-4.43,0.78-6.63
			C89.21,248.9,89.59,246.7,90.02,244.52z"/>
	</g>
	<g>
		<path d="M96.55,247.69l-0.85,5.37c-0.28,1.79-0.57,3.58-0.8,5.37c-0.27,1.79-0.48,3.59-0.65,5.39c-0.17,1.8-0.31,3.6-0.25,5.42
			c-0.26-1.8-0.22-3.63-0.13-5.45c0.09-1.82,0.31-3.62,0.54-5.43c0.27-1.8,0.56-3.59,0.92-5.37
			C95.68,251.21,96.07,249.44,96.55,247.69z"/>
	</g>
	<g>
		<path d="M100.87,246.18c0.47,4.06,0.69,8.14,0.83,12.22c0.04,2.04,0.07,4.09,0,6.13c-0.12,2.03-0.11,4.13-0.82,6.06l0.19-0.74
			c0.04-0.25,0.06-0.5,0.1-0.76c0.08-0.5,0.07-1.01,0.1-1.52c0.04-1.02,0.06-2.03,0.05-3.05c-0.01-2.04-0.03-4.07-0.11-6.11
			C101.12,254.34,100.93,250.26,100.87,246.18z"/>
	</g>
	<g>
		<path d="M106.39,273.1c-0.37-1.24-0.62-2.51-0.81-3.79c-0.19-1.28-0.29-2.58-0.34-3.87c-0.01-1.3,0.03-2.6,0.2-3.89
			c0.19-1.29,0.48-2.56,0.96-3.76c-0.28,1.26-0.47,2.53-0.58,3.8c-0.08,1.28-0.12,2.56-0.08,3.84c0.02,1.28,0.12,2.56,0.23,3.84
			C106.07,270.54,106.22,271.82,106.39,273.1z"/>
	</g>
	<g>
		<path d="M113.82,247.69c0.07,2.17,0.09,4.34,0.06,6.5c-0.03,2.17-0.12,4.33-0.22,6.5c-0.14,2.16-0.29,4.33-0.56,6.49
			c-0.14,1.08-0.3,2.15-0.51,3.22c-0.12,0.53-0.24,1.06-0.4,1.58c-0.17,0.51-0.33,1.05-0.67,1.48c0.3-0.45,0.43-0.99,0.56-1.51
			c0.12-0.52,0.21-1.06,0.28-1.59c0.16-1.07,0.28-2.14,0.37-3.22c0.19-2.15,0.34-4.31,0.45-6.47c0.14-2.16,0.22-4.32,0.33-6.48
			L113.82,247.69z"/>
	</g>
	<g>
		<path d="M125.25,248.74c-0.46,0.95-0.87,1.93-1.25,2.91c-0.4,0.98-0.77,1.96-1.11,2.96c-0.68,1.99-1.3,4.01-1.75,6.06
			c-0.46,2.05-0.76,4.13-0.9,6.23c-0.08,2.1,0.03,4.2,0.44,6.28c-0.58-2.04-0.84-4.16-0.82-6.29c0.06-2.13,0.36-4.24,0.79-6.32
			c0.49-2.07,1.11-4.1,1.87-6.08C123.3,252.5,124.19,250.57,125.25,248.74z"/>
	</g>
	<g>
		<path d="M129.87,248.74c0.24,1.07,0.39,2.16,0.5,3.26c0.12,1.09,0.18,2.19,0.2,3.29c0.04,2.2-0.07,4.4-0.44,6.57l-0.01-3.28
			l-0.05-3.27C130.04,253.11,129.95,250.94,129.87,248.74z"/>
	</g>
	<g>
		<path d="M134.22,247.69c0.16,2.12,0.28,4.25,0.37,6.37c0.09,2.13,0.13,4.25,0.18,6.38c0.01,2.13,0.03,4.25-0.03,6.38
			c-0.08,2.12-0.09,4.27-0.52,6.36c0.18-1.05,0.13-2.12,0.15-3.18c0.01-1.06,0-2.12-0.01-3.19l-0.09-6.37l-0.06-6.38
			C134.19,251.94,134.2,249.81,134.22,247.69z"/>
	</g>
	<g>
		<path d="M127.44,275.29c-0.37-0.34-0.67-0.73-0.96-1.13c-0.29-0.4-0.53-0.83-0.75-1.28c-0.21-0.45-0.39-0.91-0.49-1.41
			c-0.1-0.49-0.15-1.01,0.01-1.49c0.05,0.49,0.2,0.94,0.36,1.38c0.17,0.44,0.36,0.88,0.57,1.3
			C126.59,273.54,127.04,274.39,127.44,275.29z"/>
	</g>
	<g>
		<path d="M137.99,275.82c0.47-1.07,0.83-2.13,1.12-3.23c0.14-0.55,0.27-1.1,0.38-1.66c0.12-0.56,0.19-1.12,0.31-1.7
			c0.19,1.15,0.09,2.35-0.2,3.49c-0.15,0.57-0.36,1.12-0.62,1.65C138.71,274.89,138.4,275.4,137.99,275.82z"/>
	</g>
	<g>
		<path d="M146.43,248.74c-0.51,2.17-0.86,4.37-1.17,6.58c-0.29,2.2-0.55,4.41-0.66,6.64c-0.16,2.22-0.22,4.44-0.19,6.66
			c0,2.23,0.13,4.45,0.27,6.68c-0.14-1.11-0.32-2.21-0.43-3.32c-0.09-1.11-0.19-2.23-0.22-3.34c-0.11-2.23-0.04-4.47,0.08-6.71
			c0.16-2.23,0.41-4.46,0.78-6.66C145.26,253.05,145.75,250.87,146.43,248.74z"/>
	</g>
	<g>
		<path d="M152.91,249.65c-0.34,2.05-0.63,4.1-0.89,6.16c-0.25,2.06-0.48,4.12-0.6,6.18c-0.3,4.13-0.31,8.28,0.28,12.39
			c-0.51-2.02-0.75-4.1-0.87-6.18c-0.1-2.08-0.03-4.17,0.08-6.25c0.17-2.08,0.39-4.15,0.72-6.2
			C151.98,253.7,152.37,251.65,152.91,249.65z"/>
	</g>
	<g>
		<path d="M158.79,249.65c0.19,2.19,0.33,4.39,0.42,6.59c0.09,2.2,0.12,4.4,0.13,6.6c-0.03,2.2-0.07,4.41-0.25,6.61
			c-0.1,1.1-0.21,2.2-0.39,3.29c-0.1,0.54-0.21,1.09-0.37,1.62c-0.16,0.52-0.34,1.08-0.74,1.47c0.37-0.42,0.5-0.97,0.62-1.5
			c0.12-0.53,0.19-1.08,0.25-1.62c0.13-1.09,0.2-2.18,0.25-3.28c0.1-2.19,0.14-4.39,0.14-6.58c0.03-2.2,0-4.39-0.01-6.59
			L158.79,249.65z"/>
	</g>
	<g>
		<path d="M168.28,250.4c0.29,1.09,0.49,2.2,0.67,3.31c0.18,1.11,0.31,2.23,0.4,3.36c0.08,1.12,0.14,2.25,0.09,3.38
			c-0.04,1.13-0.12,2.26-0.4,3.36c0.07-1.13,0.05-2.24,0.01-3.36c-0.05-1.12-0.12-2.23-0.2-3.35L168.28,250.4z"/>
	</g>
	<g>
		<path d="M175.29,250.4c-0.24,1.07-0.42,2.14-0.58,3.22c-0.17,1.08-0.31,2.16-0.42,3.24c-0.23,2.16-0.37,4.34-0.37,6.51
			c-0.05,2.17,0.07,4.35,0.3,6.51l0.18,1.62l0.27,1.61c0.13,1.08,0.42,2.14,0.63,3.21c-0.63-2.09-1.2-4.22-1.46-6.4
			c-0.3-2.17-0.43-4.37-0.41-6.56C173.49,258.98,174.02,254.59,175.29,250.4z"/>
	</g>
	<g>
		<path d="M180.94,250.4c0.57,2.02,1.08,4.06,1.51,6.12c0.44,2.05,0.8,4.13,1.1,6.21c0.25,2.09,0.5,4.19,0.37,6.31
			c-0.23,2.12-0.66,4.15-1.03,6.23l0.32-3.13c0.11-1.04,0.28-2.09,0.32-3.11c0.04-2.07-0.2-4.16-0.48-6.23
			c-0.26-2.08-0.62-4.14-0.98-6.2C181.71,254.53,181.34,252.46,180.94,250.4z"/>
	</g>
	<g>
		<path d="M189.56,250.4c-0.76,3.26-1.58,6.5-2.15,9.79c-0.3,1.63-0.55,3.29-0.55,4.94c0.04,1.66,0.12,3.34,0.11,5.02
			c-0.2-1.67-0.38-3.32-0.5-5c-0.08-1.7,0.17-3.38,0.44-5.04c0.32-1.65,0.68-3.29,1.13-4.91
			C188.48,253.58,188.97,251.97,189.56,250.4z"/>
	</g>
	<g>
		<path d="M195.88,249.65c0.31,1.82,0.55,3.66,0.76,5.5c0.21,1.84,0.36,3.68,0.51,5.53c0.1,1.85,0.2,3.7,0.2,5.55
			c-0.01,1.85-0.05,3.72-0.44,5.53c0.18-1.84,0.12-3.68,0.05-5.53c-0.08-1.84-0.17-3.68-0.32-5.52L195.88,249.65z"/>
	</g>
	<g>
		<path d="M202.19,249.65c-0.36,1.35-0.68,2.69-0.94,4.04c-0.14,0.67-0.25,1.35-0.36,2.03l-0.31,2.06
			c-0.18-1.39-0.08-2.81,0.19-4.19c0.14-0.69,0.32-1.37,0.55-2.03C201.55,250.9,201.82,250.25,202.19,249.65z"/>
	</g>
	<g>
		<path d="M208.67,248.74c0.58,1.85,1.04,3.74,1.45,5.64c0.4,1.9,0.72,3.82,0.99,5.74c0.22,1.93,0.42,3.87,0.46,5.81
			c0.03,1.94-0.03,3.9-0.34,5.82c0.18-3.88-0.11-7.73-0.62-11.56c-0.23-1.92-0.55-3.83-0.87-5.73
			C209.41,252.55,209.05,250.64,208.67,248.74z"/>
	</g>
	<g>
		<path d="M219.2,247.69c0,4.05-0.14,8.09-0.15,12.13c-0.04,2.02-0.03,4.04,0.04,6.05c-0.02,2.02,0.65,3.94,1.03,5.94
			c-0.57-1.92-1.35-3.85-1.41-5.91c-0.16-2.03-0.15-4.05-0.16-6.08c0.04-2.02,0.09-4.05,0.2-6.07
			C218.86,251.72,218.99,249.7,219.2,247.69z"/>
	</g>
	<g>
		<path d="M227.66,271.8l-0.16-6.4c-0.04-1.06-0.09-2.12-0.18-3.18c-0.06-0.53-0.11-1.05-0.22-1.57c-0.08-0.53-0.24-1.02-0.47-1.51
			c0.65,0.88,0.87,1.98,1.07,3.03c0.18,1.06,0.25,2.14,0.3,3.21C228.05,267.53,227.97,269.67,227.66,271.8z"/>
	</g>
	<g>
		<path d="M231.25,246.78c0.06,3.77-0.02,7.52,0.02,11.28c-0.01,1.88,0.01,3.76,0.07,5.63c0.02,0.94,0.06,1.88,0.14,2.81
			c0.1,0.92,0.12,1.89,0.55,2.73c-0.29-0.38-0.41-0.86-0.52-1.31c-0.11-0.46-0.19-0.93-0.27-1.39c-0.13-0.94-0.21-1.88-0.29-2.82
			c-0.13-1.88-0.16-3.77-0.18-5.65c0.02-1.88,0.04-3.77,0.12-5.65C230.97,250.54,231.07,248.66,231.25,246.78z"/>
	</g>
	<g>
		<path d="M236.36,244.52c0.8,3.74,1.34,7.52,1.82,11.31c0.2,1.9,0.4,3.8,0.5,5.71c0.08,1.91,0.16,3.84-0.16,5.73
			c0.12-1.91-0.06-3.81-0.22-5.7c-0.18-1.9-0.38-3.79-0.61-5.68C237.26,252.1,236.75,248.32,236.36,244.52z"/>
	</g>
	<g>
		<path d="M242.1,244.52c0.38,2.12,0.73,4.24,1.03,6.37c0.31,2.13,0.56,4.26,0.83,6.4c0.22,2.14,0.45,4.28,0.59,6.43
			c0.07,1.07,0.13,2.15,0.15,3.23c0.01,0.54,0,1.08-0.02,1.62c-0.04,0.53-0.02,1.1-0.26,1.59c0.2-0.5,0.14-1.06,0.14-1.59
			c-0.02-0.54-0.06-1.07-0.1-1.6c-0.08-1.07-0.18-2.14-0.29-3.2c-0.22-2.13-0.45-4.27-0.71-6.4l-0.71-6.4
			C242.51,248.8,242.3,246.66,242.1,244.52z"/>
	</g>
	<polyline class="st0" points="151.96,257.78 152.91,258.01 152.91,268.03 151.03,268.03 	"/>
	<polyline class="st0" points="182.36,257.78 181.41,258.01 181.41,268.03 183.29,268.03 	"/>
	<path class="st0" d="M151.11,262.91c0,0,7.43,1.4,15.09,15.39c0,0,9.05-14.19,17.09-15.39"/>
	<path class="st0" d="M165.36,278.88c0,0-6.42,11.76-14.71,12.36c-8.29,0.6-16.43-0.39-9.49-5.02
		C148.09,281.59,165.36,278.88,165.36,278.88z"/>
	<path class="st0" d="M166.1,278.75c0,0,6.42,11.76,14.71,12.36c8.29,0.6,16.43-0.39,9.49-5.02
		C183.37,281.46,166.1,278.75,166.1,278.75z"/>
	<path class="st0" d="M165.36,281.02c0,0-5.6,5.31-2.8,23.36s-16.12,28.9-16.12,28.9"/>
	<path class="st0" d="M166.19,280.13c0,0,5.6,5.31,2.8,23.36s16.12,28.9,16.12,28.9"/>
</g>
</svg>
