<?xml version="1.0" encoding="utf-8"?>
<!-- Generator: Adobe Illustrator 25.2.0, SVG Export Plug-In . SVG Version: 6.00 Build 0)  -->
<svg version="1.1" id="Layer_1" xmlns="http://www.w3.org/2000/svg" xmlns:xlink="http://www.w3.org/1999/xlink" x="0px" y="0px"
	 viewBox="0 0 595.28 841.89" style="enable-background:new 0 0 595.28 841.89;" xml:space="preserve">
<style type="text/css">
	.st0{stroke:#000000;stroke-miterlimit:10;}
	.st1{stroke:#000000;stroke-width:0.75;stroke-miterlimit:10;}
	.st2{stroke:#000000;stroke-miterlimit:10;stroke-dasharray:1;}
</style>
<path class="st0" d="M37.47,143.54"/>
<g>
	<path class="st0" d="M223.65,171.18c-4.02-32.55-5.63-27.33-5.63-27.33c-61.89,12.06-155.92,0-155.92,0s-4.42,21.3-4.02,27.33
		c0,0,62.26,8.44,82.77,7.64L223.65,171.18z"/>
	<path class="st0" d="M58.06,171.48c0,0-18.54,27.41-20.49,88.29c-1.6,49.9,3.34,86.41,2,98.94c-0.36,3.4-2.3,370.62-2.3,370.62
		s20.16,10.25,88.88,0c0,0,9.97-389.67,14.71-424.63V179.31L58.06,171.48z"/>
	<g>
		<path d="M65.76,172.24c-1.93,9.1-3.46,18.3-4.76,27.52c-1.29,9.22-2.28,18.49-2.95,27.78c0.59-9.3,1.49-18.58,2.71-27.82
			c1.21-9.24,2.66-18.45,4.51-27.59L65.76,172.24z"/>
	</g>
	<g>
		<path d="M80.95,174.35c0.79,2.21,1.44,4.45,2,6.72c0.55,2.27,1,4.56,1.34,6.87c0.34,2.31,0.51,4.64,0.56,6.97
			c0.03,2.33-0.15,4.66-0.51,6.96c0.32-2.31,0.46-4.63,0.39-6.96c-0.09-2.32-0.3-4.64-0.68-6.93c-0.38-2.29-0.86-4.57-1.45-6.81
			c-0.6-2.24-1.28-4.47-2.1-6.63L80.95,174.35z"/>
	</g>
	<g>
		<path d="M100.93,176.42c-3.03,3.66-5.08,8.11-6.56,12.65c-1.45,4.57-2.28,9.33-2.53,14.13c-0.1,2.4-0.11,4.8-0.07,7.21l0.04,7.22
			c-0.01,4.81,0.03,9.62-0.18,14.43c0.17-4.81,0.09-9.62,0.06-14.43l-0.1-7.22c-0.06-2.4-0.07-4.81,0.01-7.22
			c0.21-4.82,1-9.61,2.42-14.23c1.46-4.59,3.46-9.07,6.55-12.87L100.93,176.42z"/>
	</g>
	<g>
		<path d="M105.25,176.59l0.04-0.54l0.02-0.14l0.01-0.08c0-0.02,0-0.03,0.02-0.07l0.02-0.05c-0.06-0.02,0.27-0.2,0.31-0.1
			c0.07,0.01,0.15,0.16,0.14,0.14l0.01,0.03c0.03,0.17,0.02,0.22,0.03,0.32l0.01,1.07l-0.01,2.12l-0.06,4.23l-0.16,8.46l-0.17,8.46
			l-0.06,4.23l-0.01,2.12l0.01,0.53l0.01,0.13l0.01,0.06c-0.02,0.01,0-0.03,0-0.05l0.03-0.26l0.06-1.06l-0.05,1.06l-0.02,0.26
			c-0.01,0.02,0.01,0.05-0.04,0.06c-0.01-0.03-0.01-0.05-0.01-0.07l-0.01-0.13l-0.02-0.53l-0.02-2.12l0-4.23l0.04-8.46l0.04-8.46
			l0-4.23l-0.02-2.11l-0.03-1.05l-0.02-0.2l0.01,0.01c-0.02-0.02,0.06,0.12,0.13,0.13c0.04,0.09,0.36-0.08,0.3-0.1l0.02-0.03
			c0.01-0.02,0-0.01,0-0.01l-0.01,0.05l-0.01,0.12l-0.03,0.52L105.25,176.59z"/>
	</g>
	<g>
		<path d="M72.25,173.68c-1.06,1.53-2.03,3.14-2.94,4.78c-0.91,1.64-1.76,3.31-2.5,5.03c-1.48,3.43-2.65,7.07-2.79,10.84
			c0.06-3.78,1.15-7.45,2.56-10.94c0.71-1.75,1.53-3.45,2.4-5.12c0.88-1.67,1.82-3.3,2.86-4.89L72.25,173.68z"/>
	</g>
	<g>
		<path d="M62.04,172.22c-0.54,3.77-1.1,7.53-1.71,11.29c-0.3,1.88-0.62,3.76-0.96,5.63c-0.37,1.86-0.65,3.76-1.3,5.55
			c0.62-1.8,0.85-3.7,1.18-5.57c0.3-1.88,0.58-3.76,0.84-5.64c0.53-3.77,1.01-7.54,1.46-11.32L62.04,172.22z"/>
	</g>
	<g>
		<path d="M116.9,178.15c-1.51,9.79-2.89,19.6-4.09,29.43c-0.6,4.92-1.15,9.84-1.6,14.77c-0.45,4.93-0.85,9.87-0.89,14.83
			c0-4.96,0.36-9.9,0.76-14.84c0.41-4.94,0.92-9.87,1.48-14.79c1.12-9.85,2.41-19.67,3.84-29.48L116.9,178.15z"/>
	</g>
	<g>
		<path d="M124.13,178.8c1,3.85,1.9,7.72,2.69,11.62c0.4,1.95,0.75,3.9,1.05,5.87c0.29,1.96,0.55,3.94,0.54,5.93
			c-0.04-1.99-0.33-3.96-0.67-5.91c-0.34-1.96-0.73-3.9-1.17-5.84c-0.87-3.87-1.86-7.72-2.93-11.54L124.13,178.8z"/>
	</g>
	<g>
		<path d="M136.18,178.9c-1.02,4.73-1.93,9.49-2.73,14.26c-0.8,4.78-1.49,9.57-2.02,14.38c-0.54,4.81-0.84,9.65-0.9,14.49
			l-0.32,14.53l0.19-14.54c0.02-4.85,0.28-9.7,0.78-14.52c0.48-4.82,1.14-9.63,1.9-14.42c0.76-4.79,1.62-9.56,2.61-14.31
			L136.18,178.9z"/>
	</g>
	<g>
		<path d="M154.33,290.23l-33.42,17.68l-0.06-0.15l26.69-7.26c8.9-2.41,17.8-4.81,26.74-7.09l0.84-0.2c0.14-0.03,0.28-0.07,0.43-0.1
			l0.06-0.01c0.01,0,0.02,0,0.04,0c-0.01,0.01,0.07-0.04,0.12,0.11c-0.07,0.16-0.07,0.08-0.1,0.12l-0.05,0.03l-0.2,0.09
			c-0.54,0.21-1.08,0.4-1.63,0.59l-3.27,1.13l-6.54,2.25c-4.36,1.51-8.7,3.04-13.03,4.63c-4.33,1.59-8.64,3.23-12.89,4.99
			c-2.13,0.89-4.24,1.8-6.31,2.82c-1.03,0.51-2.06,1.04-3.04,1.63c-0.49,0.3-0.98,0.61-1.43,0.97c-0.44,0.36-0.91,0.74-1.13,1.28
			c0.21-0.55,0.68-0.93,1.12-1.29c0.45-0.36,0.94-0.67,1.43-0.98c0.98-0.6,2-1.14,3.04-1.66c2.06-1.03,4.17-1.96,6.3-2.86
			c4.25-1.8,8.56-3.44,12.88-5.04c4.32-1.6,8.67-3.14,13.02-4.66l6.53-2.26l3.26-1.14c0.54-0.19,1.09-0.38,1.62-0.59l0.19-0.08
			l0.04-0.02c0,0.02,0.04-0.07-0.01,0.06c0.04,0.14,0.11,0.09,0.07,0.1c0,0,0,0-0.01,0l-0.05,0.01c-0.13,0.02-0.28,0.06-0.42,0.09
			l-0.84,0.2c-8.93,2.29-17.82,4.74-26.73,7.11l-26.71,7.2l-0.73,0.2l0.67-0.35L154.33,290.23z"/>
	</g>
	<g>
		<path d="M76.74,173.93c-0.66,5.02-1.29,10.05-1.88,15.08c-0.29,2.52-0.57,5.04-0.81,7.56c-0.23,2.52-0.49,5.05-0.5,7.58
			c-0.05-2.54,0.14-5.07,0.31-7.6c0.18-2.53,0.4-5.05,0.63-7.58c0.46-5.05,0.96-10.09,1.5-15.14L76.74,173.93z"/>
	</g>
	<g>
		<path d="M91.98,175.87c-1.06,2.46-2.05,4.96-2.94,7.49c-0.44,1.27-0.86,2.55-1.21,3.84c-0.35,1.29-0.68,2.6-0.82,3.94
			c0.08-1.35,0.34-2.67,0.64-3.99c0.3-1.32,0.65-2.62,1.04-3.91c0.77-2.59,1.64-5.13,2.6-7.67L91.98,175.87z"/>
	</g>
	<g>
		<path d="M131.32,179.35c0.11,1.75,0.16,3.49,0.15,5.24c-0.01,0.87-0.04,1.75-0.1,2.62c-0.07,0.87-0.16,1.75-0.43,2.58
			c0.21-0.85,0.23-1.72,0.24-2.59c0-0.87-0.03-1.73-0.09-2.6c-0.12-1.73-0.29-3.46-0.52-5.17L131.32,179.35z"/>
	</g>
	<g>
		<path d="M120.54,178.51c0.22,4.39,0.34,8.78,0.33,13.17c-0.01,2.2-0.04,4.39-0.14,6.58c-0.11,2.19-0.25,4.38-0.56,6.56
			c0.25-2.18,0.33-4.37,0.38-6.56c0.04-2.19,0.01-4.38-0.05-6.57c-0.12-4.38-0.36-8.76-0.7-13.12L120.54,178.51z"/>
	</g>
	<g>
		<path d="M216.43,172.13c1.85,9.14,3.3,18.35,4.51,27.59c1.21,9.24,2.11,18.52,2.71,27.82c-0.68-9.29-1.66-18.56-2.95-27.78
			c-1.29-9.22-2.83-18.42-4.76-27.52L216.43,172.13z"/>
	</g>
	<g>
		<path d="M202.36,173.7c-0.82,2.16-1.5,4.39-2.1,6.63c-0.59,2.25-1.08,4.52-1.45,6.81c-0.38,2.29-0.59,4.61-0.68,6.93
			c-0.07,2.33,0.07,4.65,0.39,6.96c-0.36-2.3-0.54-4.63-0.51-6.96c0.05-2.33,0.22-4.66,0.56-6.97c0.34-2.31,0.78-4.6,1.34-6.87
			c0.56-2.27,1.2-4.51,2-6.72L202.36,173.7z"/>
	</g>
	<g>
		<path d="M181.14,176.09c3.09,3.8,5.09,8.28,6.55,12.87c1.42,4.62,2.21,9.41,2.42,14.23c0.07,2.41,0.07,4.82,0.01,7.22l-0.1,7.22
			c-0.04,4.81-0.11,9.62,0.06,14.43c-0.21-4.81-0.18-9.62-0.18-14.43l0.04-7.22c0.04-2.41,0.03-4.81-0.07-7.21
			c-0.25-4.79-1.08-9.56-2.53-14.13c-1.48-4.53-3.54-8.99-6.56-12.65L181.14,176.09z"/>
	</g>
	<g>
		<path d="M175.95,176.61l-0.03-0.52l-0.01-0.12l-0.01-0.05c0-0.01,0-0.01,0,0.01l0.02,0.03c-0.06,0.01,0.26,0.19,0.3,0.1
			c0.07-0.01,0.14-0.15,0.13-0.13l0.01-0.01l-0.02,0.2l-0.03,1.05l-0.02,2.11l0,4.23l0.04,8.46l0.04,8.46l0,4.23l-0.02,2.12
			l-0.02,0.53l-0.01,0.13c0,0.02,0,0.04-0.01,0.07c-0.05-0.01-0.02-0.04-0.04-0.06l-0.02-0.26l-0.05-1.06l0.06,1.06l0.03,0.26
			c0,0.02,0.02,0.05,0,0.05l0.01-0.06l0.01-0.13l0.01-0.53l-0.01-2.12l-0.06-4.23l-0.17-8.46l-0.16-8.46l-0.06-4.23l-0.01-2.12
			l0.01-1.07c0.01-0.1,0-0.15,0.03-0.32l0.01-0.03c-0.02,0.02,0.06-0.13,0.14-0.14c0.04-0.09,0.37,0.09,0.31,0.1l0.02,0.05
			c0.01,0.04,0.02,0.05,0.02,0.07l0.01,0.08l0.02,0.14l0.04,0.54L175.95,176.61z"/>
	</g>
	<g>
		<path d="M209.54,172.57c1.04,1.59,1.98,3.22,2.86,4.89c0.88,1.67,1.69,3.37,2.4,5.12c1.41,3.48,2.5,7.16,2.56,10.94
			c-0.14-3.77-1.31-7.41-2.79-10.84c-0.75-1.72-1.6-3.39-2.5-5.03c-0.91-1.63-1.89-3.25-2.94-4.78L209.54,172.57z"/>
	</g>
	<g>
		<path d="M220.16,172.15c0.46,3.78,0.94,7.55,1.46,11.32c0.26,1.88,0.54,3.77,0.84,5.64c0.33,1.87,0.56,3.77,1.18,5.57
			c-0.66-1.79-0.93-3.69-1.3-5.55c-0.34-1.87-0.66-3.75-0.96-5.63c-0.61-3.76-1.17-7.52-1.71-11.29L220.16,172.15z"/>
	</g>
	<g>
		<path d="M165.3,177.4c1.43,9.81,2.72,19.63,3.84,29.48c0.56,4.92,1.06,9.85,1.48,14.79c0.4,4.94,0.76,9.88,0.76,14.84
			c-0.04-4.96-0.44-9.9-0.89-14.83c-0.46-4.93-1-9.86-1.6-14.77c-1.2-9.83-2.58-19.65-4.09-29.43L165.3,177.4z"/>
	</g>
	<g>
		<path d="M157.51,178.18c-1.07,3.82-2.06,7.67-2.93,11.54c-0.44,1.94-0.83,3.88-1.17,5.84c-0.33,1.96-0.63,3.92-0.67,5.91
			c0-1.99,0.25-3.97,0.54-5.93c0.3-1.97,0.65-3.92,1.05-5.87c0.79-3.9,1.69-7.77,2.69-11.62L157.51,178.18z"/>
	</g>
	<g>
		<path d="M146.01,178.8c0.99,4.75,1.85,9.52,2.61,14.31c0.76,4.79,1.41,9.59,1.9,14.42c0.5,4.82,0.75,9.67,0.78,14.52l0.19,14.54
			l-0.32-14.53c-0.07-4.85-0.36-9.68-0.9-14.49c-0.52-4.81-1.22-9.61-2.02-14.38c-0.8-4.77-1.7-9.54-2.73-14.26L146.01,178.8z"/>
	</g>
	<g>
		<path d="M205.71,172.66c0.54,5.04,1.05,10.09,1.5,15.14c0.22,2.53,0.45,5.05,0.63,7.58c0.17,2.53,0.36,5.06,0.31,7.6
			c-0.01-2.53-0.27-5.06-0.5-7.58c-0.24-2.52-0.52-5.04-0.81-7.56c-0.58-5.03-1.21-10.06-1.88-15.08L205.71,172.66z"/>
	</g>
	<g>
		<path d="M190.42,174.67c0.96,2.53,1.83,5.08,2.6,7.67c0.39,1.29,0.74,2.59,1.04,3.91c0.29,1.31,0.56,2.64,0.64,3.99
			c-0.14-1.34-0.47-2.65-0.82-3.94c-0.36-1.29-0.77-2.57-1.21-3.84c-0.88-2.53-1.87-5.04-2.94-7.49L190.42,174.67z"/>
	</g>
	<g>
		<path d="M171.93,176.29c-0.23,1.71-0.41,3.44-0.52,5.17c-0.06,0.87-0.09,1.73-0.09,2.6c0.01,0.87,0.03,1.74,0.24,2.59
			c-0.27-0.83-0.36-1.71-0.43-2.58c-0.06-0.87-0.09-1.74-0.1-2.62c-0.01-1.75,0.04-3.49,0.15-5.24L171.93,176.29z"/>
	</g>
	<g>
		<path d="M222.12,172.03c1.79,4.24,3.37,8.56,4.54,13c0.56,2.22,1.04,4.49,1.08,6.8l0.1,6.87l-0.29-6.86
			c-0.1-2.28-0.64-4.51-1.25-6.71c-1.27-4.38-2.97-8.65-4.86-12.79L222.12,172.03z"/>
	</g>
	<g>
		<path d="M161.99,177.58c-0.34,4.36-0.59,8.74-0.7,13.12c-0.06,2.19-0.09,4.38-0.05,6.57c0.04,2.19,0.13,4.38,0.38,6.56
			c-0.31-2.17-0.46-4.36-0.56-6.56c-0.11-2.19-0.14-4.39-0.14-6.58c-0.01-4.39,0.11-8.78,0.33-13.17L161.99,177.58z"/>
	</g>
	<g>
		<path d="M151.52,178.77c-0.23,1.71-0.41,3.44-0.52,5.17c-0.06,0.87-0.09,1.73-0.09,2.6c0.01,0.87,0.03,1.74,0.24,2.59
			c-0.27-0.83-0.36-1.71-0.43-2.58c-0.06-0.87-0.09-1.74-0.1-2.62c-0.01-1.75,0.04-3.49,0.15-5.24L151.52,178.77z"/>
	</g>
	<g>
		<path d="M111.64,177.52c0.11,1.75,0.16,3.49,0.15,5.24c-0.01,0.87-0.04,1.75-0.1,2.62c-0.07,0.87-0.16,1.75-0.43,2.58
			c0.21-0.85,0.23-1.72,0.24-2.59c0-0.87-0.03-1.73-0.09-2.6c-0.12-1.73-0.29-3.46-0.52-5.17L111.64,177.52z"/>
	</g>
	<g>
		<path d="M65.52,144.96l-0.75,6.63c-0.24,2.21-0.48,4.42-0.66,6.63c-0.21,2.21-0.36,4.42-0.45,6.64c-0.03,1.11-0.06,2.22-0.01,3.32
			c0.02,1.11,0.12,2.21,0.37,3.3c-0.66-2.14-0.72-4.41-0.74-6.63c0.02-2.23,0.17-4.46,0.34-6.68c0.22-2.22,0.46-4.43,0.78-6.63
			C64.71,149.33,65.08,147.14,65.52,144.96z"/>
	</g>
	<g>
		<path d="M72.05,148.12l-0.85,5.37c-0.28,1.79-0.57,3.58-0.8,5.37c-0.27,1.79-0.48,3.59-0.65,5.39c-0.17,1.8-0.31,3.6-0.25,5.42
			c-0.26-1.8-0.22-3.63-0.13-5.45c0.09-1.82,0.31-3.62,0.54-5.43c0.27-1.8,0.56-3.59,0.92-5.37
			C71.18,151.65,71.56,149.87,72.05,148.12z"/>
	</g>
	<g>
		<path d="M76.37,146.61c0.47,4.06,0.69,8.14,0.83,12.22c0.04,2.04,0.07,4.09,0,6.13c-0.12,2.03-0.11,4.13-0.82,6.06l0.19-0.74
			c0.04-0.25,0.06-0.5,0.1-0.76c0.08-0.5,0.07-1.01,0.1-1.52c0.04-1.02,0.06-2.03,0.05-3.05c-0.01-2.04-0.03-4.07-0.11-6.11
			C76.61,154.77,76.42,150.7,76.37,146.61z"/>
	</g>
	<g>
		<path d="M81.89,173.54c-0.37-1.24-0.62-2.51-0.81-3.79c-0.19-1.28-0.29-2.58-0.34-3.87c-0.01-1.3,0.03-2.6,0.2-3.89
			c0.19-1.29,0.48-2.56,0.96-3.76c-0.28,1.26-0.47,2.53-0.58,3.8c-0.08,1.28-0.12,2.56-0.08,3.84c0.02,1.28,0.12,2.56,0.23,3.84
			C81.57,170.98,81.71,172.25,81.89,173.54z"/>
	</g>
	<g>
		<path d="M89.32,148.12c0.07,2.17,0.09,4.34,0.06,6.5c-0.03,2.17-0.12,4.33-0.22,6.5c-0.14,2.16-0.29,4.33-0.56,6.49
			c-0.14,1.08-0.3,2.15-0.51,3.22c-0.12,0.53-0.24,1.06-0.4,1.58c-0.17,0.51-0.33,1.05-0.67,1.48c0.3-0.45,0.43-0.99,0.56-1.51
			c0.12-0.52,0.21-1.06,0.28-1.59c0.16-1.07,0.28-2.14,0.37-3.22c0.19-2.15,0.34-4.31,0.45-6.47c0.14-2.16,0.22-4.32,0.33-6.48
			L89.32,148.12z"/>
	</g>
	<g>
		<path d="M100.75,149.18c-0.46,0.95-0.87,1.93-1.25,2.91c-0.4,0.98-0.77,1.96-1.11,2.96c-0.68,1.99-1.3,4.01-1.75,6.06
			c-0.46,2.05-0.76,4.13-0.9,6.23c-0.08,2.1,0.03,4.2,0.44,6.28c-0.58-2.04-0.84-4.16-0.82-6.29c0.06-2.13,0.36-4.24,0.79-6.32
			c0.49-2.07,1.11-4.1,1.87-6.08C98.8,152.94,99.69,151.01,100.75,149.18z"/>
	</g>
	<g>
		<path d="M105.37,149.18c0.24,1.07,0.39,2.16,0.5,3.26c0.12,1.09,0.18,2.19,0.2,3.29c0.04,2.2-0.07,4.4-0.44,6.57l-0.01-3.28
			l-0.05-3.27C105.53,153.55,105.44,151.37,105.37,149.18z"/>
	</g>
	<g>
		<path d="M109.72,148.12c0.16,2.12,0.28,4.25,0.37,6.37c0.09,2.13,0.13,4.25,0.18,6.38c0.01,2.13,0.03,4.25-0.03,6.38
			c-0.08,2.12-0.09,4.27-0.52,6.36c0.18-1.05,0.13-2.12,0.15-3.18c0.01-1.06,0-2.12-0.01-3.19l-0.09-6.37l-0.06-6.38
			C109.69,152.37,109.7,150.25,109.72,148.12z"/>
	</g>
	<g>
		<path d="M102.93,175.73c-0.37-0.34-0.67-0.73-0.96-1.13c-0.29-0.4-0.53-0.83-0.75-1.28c-0.21-0.45-0.39-0.91-0.49-1.41
			c-0.1-0.49-0.15-1.01,0.01-1.49c0.05,0.49,0.2,0.94,0.36,1.38c0.17,0.44,0.36,0.88,0.57,1.3
			C102.08,173.98,102.54,174.82,102.93,175.73z"/>
	</g>
	<g>
		<path d="M113.49,176.26c0.47-1.07,0.83-2.13,1.12-3.23c0.14-0.55,0.27-1.1,0.38-1.66c0.12-0.56,0.19-1.12,0.31-1.7
			c0.19,1.15,0.09,2.35-0.2,3.49c-0.15,0.57-0.36,1.12-0.62,1.65C114.2,175.32,113.9,175.83,113.49,176.26z"/>
	</g>
	<g>
		<path d="M121.93,149.18c-0.51,2.17-0.86,4.37-1.17,6.58c-0.29,2.2-0.55,4.41-0.66,6.64c-0.16,2.22-0.22,4.44-0.19,6.66
			c0,2.23,0.13,4.45,0.27,6.68c-0.14-1.11-0.32-2.21-0.43-3.32c-0.09-1.11-0.19-2.23-0.22-3.34c-0.11-2.23-0.04-4.47,0.08-6.71
			c0.16-2.23,0.41-4.46,0.78-6.66C120.75,153.49,121.24,151.3,121.93,149.18z"/>
	</g>
	<g>
		<path d="M128.41,150.08c-0.34,2.05-0.63,4.1-0.89,6.16c-0.25,2.06-0.48,4.12-0.6,6.18c-0.3,4.13-0.31,8.28,0.28,12.39
			c-0.51-2.02-0.75-4.1-0.87-6.18c-0.1-2.08-0.03-4.17,0.08-6.25c0.17-2.08,0.39-4.15,0.72-6.2
			C127.48,154.13,127.87,152.09,128.41,150.08z"/>
	</g>
	<g>
		<path d="M134.28,150.08c0.19,2.19,0.33,4.39,0.42,6.59c0.09,2.2,0.12,4.4,0.13,6.6c-0.03,2.2-0.07,4.41-0.25,6.61
			c-0.1,1.1-0.21,2.2-0.39,3.29c-0.1,0.54-0.21,1.09-0.37,1.62c-0.16,0.52-0.34,1.08-0.74,1.47c0.37-0.42,0.5-0.97,0.62-1.5
			c0.12-0.53,0.19-1.08,0.25-1.62c0.13-1.09,0.2-2.18,0.25-3.28c0.1-2.19,0.14-4.39,0.14-6.58c0.03-2.2,0-4.39-0.01-6.59
			L134.28,150.08z"/>
	</g>
	<g>
		<path d="M143.78,150.83c0.29,1.09,0.49,2.2,0.67,3.31c0.18,1.11,0.31,2.23,0.4,3.36c0.08,1.12,0.14,2.25,0.09,3.38
			c-0.04,1.13-0.12,2.26-0.4,3.36c0.07-1.13,0.05-2.24,0.01-3.36c-0.05-1.12-0.12-2.23-0.2-3.35L143.78,150.83z"/>
	</g>
	<g>
		<path d="M150.79,150.83c-0.24,1.07-0.42,2.14-0.58,3.22c-0.17,1.08-0.31,2.16-0.42,3.24c-0.23,2.16-0.37,4.34-0.37,6.51
			c-0.05,2.17,0.07,4.35,0.3,6.51l0.18,1.62l0.27,1.61c0.13,1.08,0.42,2.14,0.63,3.21c-0.63-2.09-1.2-4.22-1.46-6.4
			c-0.3-2.17-0.43-4.37-0.41-6.56C148.99,159.42,149.52,155.02,150.79,150.83z"/>
	</g>
	<g>
		<path d="M156.44,150.83c0.57,2.02,1.08,4.06,1.51,6.12c0.44,2.05,0.8,4.13,1.1,6.21c0.25,2.09,0.5,4.19,0.37,6.31
			c-0.23,2.12-0.66,4.15-1.03,6.23l0.32-3.13c0.11-1.04,0.28-2.09,0.32-3.11c0.04-2.07-0.2-4.16-0.48-6.23
			c-0.26-2.08-0.62-4.14-0.98-6.2C157.2,154.96,156.83,152.9,156.44,150.83z"/>
	</g>
	<g>
		<path d="M165.05,150.83c-0.76,3.26-1.58,6.5-2.15,9.79c-0.3,1.63-0.55,3.29-0.55,4.94c0.04,1.66,0.12,3.34,0.11,5.02
			c-0.2-1.67-0.38-3.32-0.5-5c-0.08-1.7,0.17-3.38,0.44-5.04c0.32-1.65,0.68-3.29,1.13-4.91
			C163.98,154.01,164.47,152.41,165.05,150.83z"/>
	</g>
	<g>
		<path d="M171.38,150.08c0.31,1.82,0.55,3.66,0.76,5.5c0.21,1.84,0.36,3.68,0.51,5.53c0.1,1.85,0.2,3.7,0.2,5.55
			c-0.01,1.85-0.05,3.72-0.44,5.53c0.18-1.84,0.12-3.68,0.05-5.53c-0.08-1.84-0.17-3.68-0.32-5.52L171.38,150.08z"/>
	</g>
	<g>
		<path d="M177.69,150.08c-0.36,1.35-0.68,2.69-0.94,4.04c-0.14,0.67-0.25,1.35-0.36,2.03l-0.31,2.06
			c-0.18-1.39-0.08-2.81,0.19-4.19c0.14-0.69,0.32-1.37,0.55-2.03C177.05,151.33,177.32,150.68,177.69,150.08z"/>
	</g>
	<g>
		<path d="M184.17,149.18c0.58,1.85,1.04,3.74,1.45,5.64c0.4,1.9,0.72,3.82,0.99,5.74c0.22,1.93,0.42,3.87,0.46,5.81
			c0.03,1.94-0.03,3.9-0.34,5.82c0.18-3.88-0.11-7.73-0.62-11.56c-0.23-1.92-0.55-3.83-0.87-5.73
			C184.91,152.98,184.55,151.08,184.17,149.18z"/>
	</g>
	<g>
		<path d="M194.7,148.12c0,4.05-0.14,8.09-0.15,12.13c-0.04,2.02-0.03,4.04,0.04,6.05c-0.02,2.02,0.65,3.94,1.03,5.94
			c-0.57-1.92-1.35-3.85-1.41-5.91c-0.16-2.03-0.15-4.05-0.16-6.08c0.04-2.02,0.09-4.05,0.2-6.07
			C194.36,152.15,194.49,150.13,194.7,148.12z"/>
	</g>
	<g>
		<path d="M203.15,172.23l-0.16-6.4c-0.04-1.06-0.09-2.12-0.18-3.18c-0.06-0.53-0.11-1.05-0.22-1.57c-0.08-0.53-0.24-1.02-0.47-1.51
			c0.65,0.88,0.87,1.98,1.07,3.03c0.18,1.06,0.25,2.14,0.3,3.21C203.55,167.96,203.47,170.11,203.15,172.23z"/>
	</g>
	<g>
		<path d="M206.75,147.22c0.06,3.77-0.02,7.52,0.02,11.28c-0.01,1.88,0.01,3.76,0.07,5.63c0.02,0.94,0.06,1.88,0.14,2.81
			c0.1,0.92,0.12,1.89,0.55,2.73c-0.29-0.38-0.41-0.86-0.52-1.31c-0.11-0.46-0.19-0.93-0.27-1.39c-0.13-0.94-0.21-1.88-0.29-2.82
			c-0.13-1.88-0.16-3.77-0.18-5.65c0.02-1.88,0.04-3.77,0.12-5.65C206.47,150.97,206.57,149.09,206.75,147.22z"/>
	</g>
	<g>
		<path d="M211.86,144.96c0.8,3.74,1.34,7.52,1.82,11.31c0.2,1.9,0.4,3.8,0.5,5.71c0.08,1.91,0.16,3.84-0.16,5.73
			c0.12-1.91-0.06-3.81-0.22-5.7c-0.18-1.9-0.38-3.79-0.61-5.68C212.76,152.54,212.25,148.76,211.86,144.96z"/>
	</g>
	<g>
		<path d="M217.59,144.96c0.38,2.12,0.73,4.24,1.03,6.37c0.31,2.13,0.56,4.26,0.83,6.4c0.22,2.14,0.45,4.28,0.59,6.43
			c0.07,1.07,0.13,2.15,0.15,3.23c0.01,0.54,0,1.08-0.02,1.62c-0.04,0.53-0.02,1.1-0.26,1.59c0.2-0.5,0.14-1.06,0.14-1.59
			c-0.02-0.54-0.06-1.07-0.1-1.6c-0.08-1.07-0.18-2.14-0.29-3.2c-0.22-2.13-0.45-4.27-0.71-6.4l-0.71-6.4
			C218.01,149.24,217.8,147.1,217.59,144.96z"/>
	</g>
	<g>
		<path d="M144.62,178.48c-0.37-0.34-0.67-0.73-0.96-1.13c-0.29-0.4-0.53-0.83-0.75-1.28c-0.21-0.45-0.39-0.91-0.49-1.41
			c-0.1-0.49-0.15-1.01,0.01-1.49c0.05,0.49,0.2,0.94,0.36,1.38c0.17,0.44,0.36,0.88,0.57,1.3
			C143.77,176.73,144.22,177.58,144.62,178.48z"/>
	</g>
	<g>
		<path d="M135.03,178.1c0.47-1.07,0.83-2.13,1.12-3.23c0.14-0.55,0.27-1.1,0.38-1.66c0.12-0.56,0.19-1.12,0.31-1.7
			c0.19,1.15,0.09,2.35-0.2,3.49c-0.15,0.57-0.36,1.12-0.62,1.65C135.75,177.17,135.44,177.68,135.03,178.1z"/>
	</g>
	<g>
		<path d="M160.1,177.36c0.47-1.07,0.83-2.13,1.12-3.23c0.14-0.55,0.27-1.1,0.38-1.66c0.12-0.56,0.19-1.12,0.31-1.7
			c0.19,1.15,0.09,2.35-0.2,3.49c-0.15,0.57-0.36,1.12-0.62,1.65C160.82,176.43,160.51,176.94,160.1,177.36z"/>
	</g>
	<g>
		<path d="M192.34,174.88c-0.37-0.34-0.67-0.73-0.96-1.13c-0.29-0.4-0.53-0.83-0.75-1.28c-0.21-0.45-0.39-0.91-0.49-1.41
			c-0.1-0.49-0.15-1.01,0.01-1.49c0.05,0.49,0.2,0.94,0.36,1.38c0.17,0.44,0.36,0.88,0.57,1.3
			C191.49,173.13,191.94,173.98,192.34,174.88z"/>
	</g>
	<g>
		<path d="M179.15,175.48c0.47-1.07,0.83-2.13,1.12-3.23c0.14-0.55,0.27-1.1,0.38-1.66c0.12-0.56,0.19-1.12,0.31-1.7
			c0.19,1.15,0.09,2.35-0.2,3.49c-0.15,0.57-0.36,1.12-0.62,1.65C179.86,174.55,179.56,175.05,179.15,175.48z"/>
	</g>
	<path class="st1" d="M53.86,198.7"/>
	<path class="st0" d="M223.37,170.78c0,0,18.54,27.41,20.49,88.29c1.6,49.9-3.34,86.41-2,98.94c0.36,3.4,2.3,370.62,2.3,370.62
		s-20.16,10.25-88.88,0c0,0-9.97-389.67-14.71-424.63V178.61L223.37,170.78z"/>
	<path class="st0" d="M37.24,702.06c0,0,35.34,16.71,89.67-1.69"/>
	<path class="st2" d="M37.47,700.74c0,0,35.34,16.71,89.67-1.69"/>
	<path class="st0" d="M244.19,701.4c0,0-35.34,16.71-89.67-1.69"/>
	<path class="st2" d="M243.96,700.08c0,0-35.34,16.71-89.67-1.69"/>
	<path class="st2" d="M59.92,172.18l-9.41,22.15c-13.27,56.92-9.28,40.29-9.96,81.69c-0.49,29.37,1.62,66.21,1.62,66.21l-1.62,48.68
		v109.28v203.18"/>
	<path class="st2" d="M221.1,172.18l9.41,22.15c13.27,56.92,9.28,40.29,9.96,81.69c0.49,29.37-1.62,66.21-1.62,66.21l1.62,48.68
		v109.28v203.18"/>
</g>
<g>
	<path class="st0" d="M290.08,171.18c4.02-32.55,5.63-27.33,5.63-27.33c61.89,12.06,155.92,0,155.92,0s4.42,21.3,4.02,27.33
		c0,0-62.26,8.44-82.77,7.64L290.08,171.18z"/>
	<path class="st0" d="M455.67,171.48c0,0,18.54,27.41,20.49,88.29c1.6,49.9-3.34,86.41-2,98.94c0.36,3.4,2.3,370.62,2.3,370.62
		s-20.16,10.25-88.88,0c0,0-9.97-389.67-14.71-424.63V179.31L455.67,171.48z"/>
	<g>
		<path d="M448.45,172.13c1.85,9.14,3.3,18.35,4.51,27.59c1.21,9.24,2.11,18.52,2.71,27.82c-0.68-9.29-1.66-18.56-2.95-27.78
			c-1.29-9.22-2.83-18.42-4.76-27.52L448.45,172.13z"/>
	</g>
	<g>
		<path d="M433.24,174.53c-0.82,2.16-1.5,4.39-2.1,6.63c-0.59,2.25-1.08,4.52-1.45,6.81c-0.38,2.29-0.59,4.61-0.68,6.93
			c-0.07,2.33,0.07,4.65,0.39,6.96c-0.36-2.3-0.54-4.63-0.51-6.96c0.05-2.33,0.22-4.66,0.56-6.97c0.34-2.31,0.78-4.6,1.34-6.87
			c0.56-2.27,1.2-4.51,2-6.72L433.24,174.53z"/>
	</g>
	<g>
		<path d="M413.16,176.09c3.09,3.8,5.09,8.28,6.55,12.87c1.42,4.62,2.21,9.41,2.42,14.23c0.07,2.41,0.07,4.82,0.01,7.22l-0.1,7.22
			c-0.04,4.81-0.11,9.62,0.06,14.43c-0.21-4.81-0.18-9.62-0.18-14.43l0.04-7.22c0.04-2.41,0.03-4.81-0.07-7.21
			c-0.25-4.79-1.08-9.56-2.53-14.13c-1.48-4.53-3.54-8.99-6.56-12.65L413.16,176.09z"/>
	</g>
	<g>
		<path d="M407.97,176.61l-0.03-0.52l-0.01-0.12l-0.01-0.05c0-0.01,0-0.01,0,0.01l0.02,0.03c-0.06,0.01,0.26,0.19,0.3,0.1
			c0.07-0.01,0.14-0.15,0.13-0.13l0.01-0.01l-0.02,0.2l-0.03,1.05l-0.02,2.11l0,4.23l0.04,8.46l0.04,8.46l0,4.23l-0.02,2.12
			l-0.02,0.53l-0.01,0.13c0,0.02,0,0.04-0.01,0.07c-0.05-0.01-0.02-0.04-0.04-0.06l-0.02-0.26l-0.05-1.06l0.06,1.06l0.03,0.26
			c0,0.02,0.02,0.05,0,0.05l0.01-0.06l0.01-0.13l0.01-0.53l-0.01-2.12l-0.06-4.23l-0.17-8.46l-0.16-8.46l-0.06-4.23l-0.01-2.12
			l0.01-1.07c0.01-0.1,0-0.15,0.03-0.32l0.01-0.03c-0.02,0.02,0.06-0.13,0.14-0.14c0.04-0.09,0.37,0.09,0.31,0.1l0.02,0.05
			c0.01,0.04,0.02,0.06,0.02,0.07l0.01,0.08l0.02,0.14l0.04,0.54L407.97,176.61z"/>
	</g>
	<g>
		<path d="M441.88,173.39c1.04,1.59,1.98,3.22,2.86,4.89c0.88,1.67,1.69,3.37,2.4,5.12c1.41,3.48,2.5,7.16,2.56,10.94
			c-0.14-3.77-1.31-7.41-2.79-10.84c-0.75-1.72-1.6-3.39-2.5-5.03c-0.91-1.63-1.89-3.25-2.94-4.78L441.88,173.39z"/>
	</g>
	<g>
		<path d="M452.18,172.15c0.46,3.78,0.94,7.55,1.46,11.32c0.26,1.88,0.54,3.77,0.84,5.64c0.33,1.87,0.56,3.77,1.18,5.57
			c-0.66-1.79-0.93-3.69-1.3-5.55c-0.34-1.87-0.66-3.75-0.96-5.63c-0.61-3.76-1.17-7.52-1.71-11.29L452.18,172.15z"/>
	</g>
	<g>
		<path d="M397.32,178.07c1.43,9.81,2.72,19.63,3.84,29.48c0.56,4.92,1.06,9.85,1.48,14.79c0.4,4.94,0.76,9.88,0.76,14.84
			c-0.04-4.96-0.44-9.9-0.89-14.83c-0.46-4.93-1-9.86-1.6-14.77c-1.2-9.83-2.58-19.65-4.09-29.43L397.32,178.07z"/>
	</g>
	<g>
		<path d="M390.08,178.93c-1.07,3.82-2.06,7.67-2.93,11.54c-0.44,1.94-0.83,3.88-1.17,5.84c-0.33,1.96-0.63,3.92-0.67,5.91
			c0-1.99,0.25-3.97,0.54-5.93c0.3-1.97,0.65-3.92,1.05-5.87c0.79-3.9,1.69-7.77,2.69-11.62L390.08,178.93z"/>
	</g>
	<g>
		<path d="M378.03,178.8c0.99,4.75,1.85,9.52,2.61,14.31c0.76,4.79,1.41,9.59,1.9,14.42c0.5,4.82,0.75,9.67,0.78,14.52l0.19,14.54
			l-0.32-14.53c-0.07-4.85-0.36-9.68-0.9-14.49c-0.52-4.81-1.22-9.61-2.02-14.38c-0.8-4.77-1.7-9.54-2.73-14.26L378.03,178.8z"/>
	</g>
	<g>
		<path d="M359.4,290.23l33.49,17.53l0.67,0.35l-0.73-0.2l-26.71-7.2c-8.91-2.37-17.8-4.82-26.73-7.11l-0.84-0.2
			c-0.14-0.03-0.28-0.07-0.42-0.09l-0.05-0.01c-0.01,0-0.01,0-0.01,0c-0.03-0.01,0.03,0.04,0.07-0.1c-0.05-0.13-0.01-0.04-0.01-0.06
			l0.04,0.02l0.19,0.08c0.53,0.21,1.08,0.4,1.62,0.59l3.26,1.14l6.53,2.26c4.35,1.52,8.7,3.06,13.02,4.66
			c4.32,1.6,8.63,3.24,12.88,5.04c2.12,0.9,4.23,1.83,6.3,2.86c1.03,0.52,2.05,1.05,3.04,1.66c0.49,0.3,0.97,0.62,1.43,0.98
			c0.44,0.36,0.91,0.74,1.12,1.29c-0.21-0.55-0.69-0.92-1.13-1.28c-0.45-0.35-0.94-0.67-1.43-0.97c-0.99-0.59-2.01-1.13-3.04-1.63
			c-2.07-1.01-4.18-1.93-6.31-2.82c-4.26-1.76-8.57-3.4-12.89-4.99c-4.33-1.59-8.67-3.12-13.03-4.63l-6.54-2.25l-3.27-1.13
			c-0.54-0.19-1.09-0.38-1.63-0.59l-0.2-0.09l-0.05-0.03c-0.03-0.04-0.03,0.04-0.1-0.12c0.06-0.15,0.14-0.1,0.12-0.11
			c0.02,0,0.03,0,0.04,0l0.06,0.01c0.15,0.03,0.29,0.06,0.43,0.1l0.84,0.2c8.94,2.28,17.84,4.68,26.74,7.09l26.69,7.26l-0.06,0.15
			L359.4,290.23z"/>
	</g>
	<g>
		<path d="M437.73,173.84c0.54,5.04,1.05,10.09,1.5,15.14c0.22,2.53,0.45,5.05,0.63,7.58c0.17,2.53,0.36,5.06,0.31,7.6
			c-0.01-2.53-0.27-5.06-0.5-7.58c-0.24-2.52-0.52-5.04-0.81-7.56c-0.58-5.03-1.21-10.06-1.88-15.08L437.73,173.84z"/>
	</g>
	<g>
		<path d="M422.44,175.58c0.96,2.53,1.83,5.08,2.6,7.67c0.39,1.29,0.74,2.59,1.04,3.91c0.29,1.31,0.56,2.64,0.64,3.99
			c-0.14-1.34-0.47-2.65-0.82-3.94c-0.36-1.29-0.77-2.57-1.21-3.84c-0.88-2.53-1.87-5.04-2.94-7.49L422.44,175.58z"/>
	</g>
	<g>
		<path d="M383.15,179.43c-0.23,1.71-0.41,3.44-0.52,5.17c-0.06,0.87-0.09,1.73-0.09,2.6c0.01,0.87,0.03,1.74,0.24,2.59
			c-0.27-0.83-0.36-1.71-0.43-2.58c-0.06-0.87-0.09-1.74-0.1-2.62c-0.01-1.75,0.04-3.49,0.15-5.24L383.15,179.43z"/>
	</g>
	<g>
		<path d="M393.93,178.56c-0.34,4.36-0.59,8.74-0.7,13.12c-0.06,2.19-0.09,4.38-0.05,6.57c0.04,2.19,0.13,4.38,0.38,6.56
			c-0.31-2.17-0.46-4.36-0.56-6.56c-0.11-2.19-0.14-4.39-0.14-6.58c-0.01-4.39,0.11-8.78,0.33-13.17L393.93,178.56z"/>
	</g>
	<g>
		<path d="M297.78,172.24c-1.93,9.1-3.46,18.3-4.76,27.52c-1.29,9.22-2.28,18.49-2.95,27.78c0.59-9.3,1.49-18.58,2.71-27.82
			c1.21-9.24,2.66-18.45,4.51-27.59L297.78,172.24z"/>
	</g>
	<g>
		<path d="M311.83,173.52c0.79,2.21,1.44,4.45,2,6.72c0.55,2.27,1,4.56,1.34,6.87c0.34,2.31,0.51,4.64,0.56,6.97
			c0.03,2.33-0.15,4.66-0.51,6.96c0.32-2.31,0.46-4.63,0.39-6.96c-0.09-2.32-0.3-4.64-0.68-6.93c-0.38-2.29-0.86-4.57-1.45-6.81
			c-0.6-2.24-1.28-4.47-2.1-6.63L311.83,173.52z"/>
	</g>
	<g>
		<path d="M332.95,176.42c-3.03,3.66-5.08,8.11-6.56,12.65c-1.45,4.57-2.28,9.33-2.53,14.13c-0.1,2.4-0.11,4.8-0.07,7.21l0.04,7.22
			c-0.01,4.81,0.03,9.62-0.18,14.43c0.17-4.81,0.09-9.62,0.06-14.43l-0.1-7.22c-0.06-2.4-0.07-4.81,0.01-7.22
			c0.21-4.82,1-9.61,2.42-14.23c1.46-4.59,3.46-9.07,6.55-12.87L332.95,176.42z"/>
	</g>
	<g>
		<path d="M337.27,176.59l0.04-0.54l0.02-0.14l0.01-0.08c0-0.02,0-0.03,0.02-0.07l0.02-0.05c-0.06-0.02,0.27-0.2,0.31-0.1
			c0.07,0.01,0.15,0.16,0.14,0.14l0.01,0.03c0.03,0.17,0.02,0.22,0.03,0.32l0.01,1.07l-0.01,2.12l-0.06,4.23l-0.16,8.46l-0.17,8.46
			l-0.06,4.23l-0.01,2.12l0.01,0.53l0.01,0.13l0.01,0.06c-0.02,0.01,0-0.03,0-0.05l0.03-0.26l0.06-1.06l-0.05,1.06l-0.02,0.26
			c-0.01,0.02,0.01,0.05-0.04,0.06c-0.01-0.03-0.01-0.05-0.01-0.07l-0.01-0.13l-0.02-0.53l-0.02-2.12l0-4.23l0.04-8.46l0.04-8.46
			l0-4.23l-0.02-2.11l-0.03-1.05l-0.02-0.2l0.01,0.01c-0.02-0.02,0.06,0.12,0.13,0.13c0.04,0.09,0.36-0.08,0.3-0.1l0.02-0.03
			c0.01-0.02,0-0.01,0-0.01l-0.01,0.05l-0.01,0.12l-0.03,0.52L337.27,176.59z"/>
	</g>
	<g>
		<path d="M304.6,172.85c-1.06,1.53-2.03,3.14-2.94,4.78c-0.91,1.64-1.76,3.31-2.5,5.03c-1.48,3.43-2.65,7.07-2.79,10.84
			c0.06-3.78,1.15-7.45,2.56-10.94c0.71-1.75,1.53-3.45,2.4-5.12c0.88-1.67,1.82-3.3,2.86-4.89L304.6,172.85z"/>
	</g>
	<g>
		<path d="M294.06,172.22c-0.54,3.77-1.1,7.53-1.71,11.29c-0.3,1.88-0.62,3.76-0.96,5.63c-0.37,1.86-0.65,3.76-1.3,5.55
			c0.62-1.8,0.85-3.7,1.18-5.57c0.3-1.88,0.58-3.76,0.84-5.64c0.53-3.77,1.01-7.54,1.46-11.32L294.06,172.22z"/>
	</g>
	<g>
		<path d="M348.92,177.47c-1.51,9.79-2.89,19.6-4.09,29.43c-0.6,4.92-1.15,9.84-1.6,14.77c-0.45,4.93-0.85,9.87-0.89,14.83
			c0-4.96,0.36-9.9,0.76-14.84c0.41-4.94,0.92-9.87,1.48-14.79c1.12-9.85,2.41-19.67,3.84-29.48L348.92,177.47z"/>
	</g>
	<g>
		<path d="M356.7,178.04c1,3.85,1.9,7.72,2.69,11.62c0.4,1.95,0.75,3.9,1.05,5.87c0.29,1.96,0.55,3.94,0.54,5.93
			c-0.04-1.99-0.33-3.96-0.67-5.91c-0.34-1.96-0.73-3.9-1.17-5.84c-0.87-3.87-1.86-7.72-2.93-11.54L356.7,178.04z"/>
	</g>
	<g>
		<path d="M368.2,178.9c-1.02,4.73-1.93,9.49-2.73,14.26c-0.8,4.78-1.49,9.57-2.02,14.38c-0.54,4.81-0.84,9.65-0.9,14.49
			l-0.32,14.53l0.19-14.54c0.02-4.85,0.28-9.7,0.78-14.52c0.48-4.82,1.14-9.63,1.9-14.42c0.76-4.79,1.62-9.56,2.61-14.31
			L368.2,178.9z"/>
	</g>
	<g>
		<path d="M308.76,172.75c-0.66,5.02-1.29,10.05-1.88,15.08c-0.29,2.52-0.57,5.04-0.81,7.56c-0.23,2.52-0.49,5.05-0.5,7.58
			c-0.05-2.54,0.14-5.07,0.31-7.6c0.18-2.53,0.4-5.05,0.63-7.58c0.46-5.05,0.96-10.09,1.5-15.14L308.76,172.75z"/>
	</g>
	<g>
		<path d="M324,174.95c-1.06,2.46-2.05,4.96-2.94,7.49c-0.44,1.27-0.86,2.55-1.21,3.84c-0.35,1.29-0.68,2.6-0.82,3.94
			c0.08-1.35,0.34-2.67,0.64-3.99c0.3-1.32,0.65-2.62,1.04-3.91c0.77-2.59,1.64-5.13,2.6-7.67L324,174.95z"/>
	</g>
	<g>
		<path d="M342.54,176.22c0.11,1.75,0.16,3.49,0.15,5.24c-0.01,0.87-0.04,1.75-0.1,2.62c-0.07,0.87-0.16,1.75-0.43,2.58
			c0.21-0.85,0.23-1.72,0.24-2.59c0-0.87-0.03-1.73-0.09-2.6c-0.12-1.73-0.29-3.46-0.52-5.17L342.54,176.22z"/>
	</g>
	<g>
		<path d="M292.28,172.34c-1.89,4.14-3.58,8.41-4.86,12.79c-0.61,2.19-1.15,4.43-1.25,6.71l-0.29,6.86l0.1-6.87
			c0.04-2.31,0.52-4.58,1.08-6.8c1.16-4.45,2.74-8.77,4.54-13L292.28,172.34z"/>
	</g>
	<g>
		<path d="M352.48,177.53c0.22,4.39,0.34,8.78,0.33,13.17c-0.01,2.2-0.04,4.39-0.14,6.58c-0.11,2.19-0.25,4.38-0.56,6.56
			c0.25-2.18,0.33-4.37,0.38-6.56c0.04-2.19,0.01-4.38-0.05-6.57c-0.12-4.38-0.36-8.76-0.7-13.12L352.48,177.53z"/>
	</g>
	<g>
		<path d="M362.95,178.7c0.11,1.75,0.16,3.49,0.15,5.24c-0.01,0.87-0.04,1.75-0.1,2.62c-0.07,0.87-0.16,1.75-0.43,2.58
			c0.21-0.85,0.23-1.72,0.24-2.59c0-0.87-0.03-1.73-0.09-2.6c-0.12-1.73-0.29-3.46-0.52-5.17L362.95,178.7z"/>
	</g>
	<g>
		<path d="M402.83,177.6c-0.23,1.71-0.41,3.44-0.52,5.17c-0.06,0.87-0.09,1.73-0.09,2.6c0.01,0.87,0.03,1.74,0.24,2.59
			c-0.27-0.83-0.36-1.71-0.43-2.58c-0.06-0.87-0.09-1.74-0.1-2.62c-0.01-1.75,0.04-3.49,0.15-5.24L402.83,177.6z"/>
	</g>
	<g>
		<path d="M448.2,144.96c0.44,2.18,0.81,4.38,1.13,6.58c0.32,2.2,0.56,4.42,0.78,6.63c0.17,2.22,0.32,4.45,0.34,6.68
			c-0.02,2.22-0.08,4.49-0.74,6.63c0.24-1.09,0.35-2.19,0.37-3.3c0.05-1.11,0.02-2.22-0.01-3.32c-0.1-2.22-0.24-4.43-0.45-6.64
			c-0.18-2.21-0.43-4.42-0.66-6.63L448.2,144.96z"/>
	</g>
	<g>
		<path d="M441.68,148.12c0.48,1.75,0.87,3.53,1.23,5.31c0.36,1.78,0.65,3.57,0.92,5.37c0.23,1.8,0.45,3.61,0.54,5.43
			c0.09,1.81,0.13,3.65-0.13,5.45c0.06-1.82-0.09-3.62-0.25-5.42c-0.17-1.8-0.38-3.6-0.65-5.39c-0.23-1.8-0.52-3.58-0.8-5.37
			L441.68,148.12z"/>
	</g>
	<g>
		<path d="M437.36,146.61c-0.06,4.09-0.25,8.16-0.33,12.23c-0.08,2.04-0.1,4.07-0.11,6.11c-0.01,1.02,0.01,2.04,0.05,3.05
			c0.03,0.51,0.03,1.02,0.1,1.52c0.03,0.25,0.05,0.51,0.1,0.76l0.19,0.74c-0.72-1.93-0.71-4.03-0.82-6.06
			c-0.07-2.04-0.04-4.09,0-6.13C436.67,154.75,436.89,150.67,437.36,146.61z"/>
	</g>
	<g>
		<path d="M431.84,173.54c0.17-1.28,0.32-2.56,0.43-3.84c0.11-1.28,0.21-2.56,0.23-3.84c0.04-1.28,0-2.56-0.08-3.84
			c-0.11-1.28-0.29-2.54-0.58-3.8c0.48,1.2,0.77,2.48,0.96,3.76c0.16,1.29,0.2,2.59,0.2,3.89c-0.06,1.3-0.15,2.59-0.34,3.87
			C432.46,171.02,432.21,172.3,431.84,173.54z"/>
	</g>
	<g>
		<path d="M424.4,148.12l0.32,6.49c0.11,2.16,0.19,4.33,0.33,6.48c0.1,2.16,0.26,4.32,0.45,6.47c0.09,1.08,0.21,2.15,0.37,3.22
			c0.08,0.53,0.16,1.07,0.28,1.59c0.13,0.52,0.25,1.06,0.56,1.51c-0.34-0.43-0.51-0.96-0.67-1.48c-0.17-0.52-0.29-1.05-0.4-1.58
			c-0.21-1.07-0.37-2.14-0.51-3.22c-0.27-2.16-0.42-4.32-0.56-6.49c-0.1-2.17-0.19-4.33-0.22-6.5
			C424.31,152.46,424.33,150.29,424.4,148.12z"/>
	</g>
	<g>
		<path d="M412.98,149.18c1.06,1.83,1.95,3.76,2.71,5.74c0.77,1.98,1.38,4.01,1.87,6.08c0.43,2.08,0.73,4.19,0.79,6.32
			c0.01,2.13-0.24,4.26-0.82,6.29c0.4-2.08,0.52-4.18,0.44-6.28c-0.14-2.1-0.43-4.18-0.9-6.23c-0.45-2.05-1.06-4.07-1.75-6.06
			c-0.34-1-0.71-1.98-1.11-2.96C413.84,151.1,413.43,150.13,412.98,149.18z"/>
	</g>
	<g>
		<path d="M408.36,149.18c-0.08,2.19-0.17,4.37-0.21,6.55L408.1,159l-0.01,3.28c-0.37-2.17-0.48-4.37-0.44-6.57
			c0.03-1.1,0.08-2.2,0.2-3.29C407.97,151.34,408.11,150.25,408.36,149.18z"/>
	</g>
	<g>
		<path d="M404,148.12c0.02,2.13,0.03,4.25,0.02,6.38l-0.06,6.38l-0.09,6.37c-0.02,1.06-0.02,2.12-0.01,3.19
			c0.02,1.06-0.03,2.13,0.15,3.18c-0.43-2.09-0.44-4.24-0.52-6.36c-0.05-2.13-0.04-4.26-0.03-6.38c0.05-2.13,0.09-4.25,0.18-6.38
			C403.72,152.37,403.84,150.24,404,148.12z"/>
	</g>
	<g>
		<path d="M410.79,175.73c0.4-0.91,0.85-1.75,1.25-2.62c0.21-0.43,0.4-0.86,0.57-1.3c0.17-0.44,0.31-0.89,0.36-1.38
			c0.16,0.48,0.1,1,0.01,1.49c-0.1,0.49-0.28,0.96-0.49,1.41c-0.22,0.44-0.46,0.88-0.75,1.28
			C411.46,175,411.16,175.39,410.79,175.73z"/>
	</g>
	<g>
		<path d="M400.24,176.26c-0.41-0.42-0.72-0.93-0.98-1.45c-0.27-0.52-0.47-1.08-0.62-1.65c-0.29-1.14-0.4-2.33-0.2-3.49
			c0.11,0.58,0.19,1.14,0.3,1.7c0.11,0.56,0.24,1.11,0.38,1.66C399.4,174.12,399.77,175.19,400.24,176.26z"/>
	</g>
	<g>
		<path d="M391.8,149.18c0.68,2.13,1.17,4.31,1.55,6.52c0.38,2.2,0.63,4.43,0.78,6.66c0.12,2.23,0.19,4.47,0.08,6.71
			c-0.03,1.12-0.13,2.23-0.22,3.34c-0.1,1.11-0.29,2.22-0.43,3.32c0.14-2.23,0.27-4.45,0.27-6.68c0.03-2.22-0.04-4.45-0.19-6.66
			c-0.11-2.22-0.37-4.43-0.66-6.64C392.66,153.55,392.3,151.35,391.8,149.18z"/>
	</g>
	<g>
		<path d="M385.32,150.08c0.54,2.01,0.93,4.05,1.27,6.11c0.33,2.05,0.55,4.12,0.72,6.2c0.11,2.08,0.18,4.16,0.08,6.25
			c-0.12,2.08-0.36,4.16-0.87,6.18c0.6-4.11,0.58-8.26,0.28-12.39c-0.13-2.07-0.36-4.12-0.6-6.18
			C385.95,154.18,385.65,152.13,385.32,150.08z"/>
	</g>
	<g>
		<path d="M379.44,150.08l-0.04,6.6c-0.01,2.2-0.04,4.4-0.01,6.59c-0.01,2.2,0.04,4.39,0.14,6.58c0.05,1.1,0.12,2.19,0.25,3.28
			c0.06,0.54,0.13,1.09,0.25,1.62c0.12,0.53,0.25,1.08,0.62,1.5c-0.4-0.39-0.58-0.95-0.74-1.47c-0.16-0.53-0.27-1.07-0.37-1.62
			c-0.18-1.09-0.29-2.19-0.39-3.29c-0.18-2.2-0.22-4.4-0.25-6.61c0.01-2.2,0.03-4.4,0.13-6.6
			C379.11,154.47,379.24,152.27,379.44,150.08z"/>
	</g>
	<g>
		<path d="M369.94,150.83l-0.56,6.71c-0.09,1.11-0.16,2.23-0.2,3.35c-0.04,1.12-0.05,2.23,0.01,3.36c-0.27-1.1-0.36-2.23-0.4-3.36
			c-0.05-1.13,0.01-2.26,0.09-3.38c0.09-1.12,0.21-2.24,0.4-3.36C369.46,153.03,369.66,151.92,369.94,150.83z"/>
	</g>
	<g>
		<path d="M362.94,150.83c1.27,4.19,1.8,8.59,1.87,12.96c0.01,2.19-0.11,4.39-0.41,6.56c-0.26,2.18-0.82,4.31-1.46,6.4
			c0.21-1.07,0.5-2.13,0.63-3.21l0.27-1.61l0.18-1.62c0.22-2.16,0.35-4.34,0.3-6.51c0-2.17-0.14-4.35-0.37-6.51
			c-0.12-1.08-0.25-2.16-0.42-3.24C363.36,152.97,363.17,151.9,362.94,150.83z"/>
	</g>
	<g>
		<path d="M357.29,150.83c-0.39,2.06-0.77,4.13-1.14,6.19c-0.36,2.06-0.72,4.13-0.98,6.2c-0.29,2.07-0.53,4.16-0.48,6.23
			c0.04,1.02,0.21,2.07,0.32,3.11l0.32,3.13c-0.36-2.07-0.8-4.11-1.03-6.23c-0.13-2.12,0.12-4.23,0.37-6.31
			c0.3-2.08,0.66-4.15,1.1-6.21C356.21,154.89,356.71,152.85,357.29,150.83z"/>
	</g>
	<g>
		<path d="M348.67,150.83c0.58,1.57,1.07,3.18,1.52,4.79c0.44,1.62,0.81,3.26,1.13,4.91c0.27,1.66,0.52,3.33,0.44,5.04
			c-0.12,1.68-0.29,3.34-0.5,5c0-1.67,0.08-3.35,0.11-5.02c0-1.65-0.24-3.3-0.55-4.94C350.25,157.34,349.43,154.1,348.67,150.83z"/>
	</g>
	<g>
		<path d="M342.34,150.08l-0.77,11.06c-0.14,1.84-0.23,3.68-0.32,5.52c-0.07,1.84-0.12,3.69,0.05,5.53
			c-0.39-1.82-0.43-3.69-0.44-5.53c0-1.85,0.1-3.7,0.2-5.55c0.15-1.84,0.29-3.69,0.51-5.53
			C341.79,153.74,342.03,151.9,342.34,150.08z"/>
	</g>
	<g>
		<path d="M336.04,150.08c0.37,0.6,0.64,1.25,0.88,1.91c0.24,0.66,0.42,1.34,0.55,2.03c0.26,1.38,0.36,2.8,0.19,4.19l-0.31-2.06
			c-0.11-0.68-0.23-1.36-0.36-2.03C336.72,152.77,336.4,151.43,336.04,150.08z"/>
	</g>
	<g>
		<path d="M329.56,149.18c-0.38,1.9-0.74,3.8-1.07,5.71c-0.32,1.91-0.64,3.81-0.87,5.73c-0.51,3.83-0.8,7.69-0.62,11.56
			c-0.3-1.92-0.37-3.87-0.34-5.82c0.05-1.95,0.24-3.88,0.46-5.81c0.27-1.92,0.59-3.84,0.99-5.74
			C328.52,152.92,328.98,151.03,329.56,149.18z"/>
	</g>
	<g>
		<path d="M319.03,148.12c0.21,2.01,0.34,4.03,0.45,6.05c0.11,2.02,0.16,4.04,0.2,6.07c0,2.02,0,4.05-0.16,6.08
			c-0.06,2.06-0.84,3.99-1.41,5.91c0.38-2,1.05-3.92,1.03-5.94c0.08-2.01,0.08-4.03,0.04-6.05
			C319.16,156.21,319.02,152.17,319.03,148.12z"/>
	</g>
	<g>
		<path d="M310.57,172.23c-0.31-2.12-0.4-4.27-0.34-6.42c0.05-1.07,0.12-2.15,0.3-3.21c0.2-1.05,0.42-2.16,1.07-3.03
			c-0.23,0.49-0.38,0.99-0.47,1.51c-0.11,0.52-0.17,1.04-0.22,1.57c-0.09,1.06-0.15,2.12-0.18,3.18L310.57,172.23z"/>
	</g>
	<g>
		<path d="M306.97,147.22c0.18,1.88,0.28,3.76,0.37,5.64c0.08,1.88,0.1,3.76,0.12,5.65c-0.02,1.88-0.05,3.77-0.18,5.65
			c-0.07,0.94-0.15,1.88-0.29,2.82c-0.07,0.47-0.15,0.93-0.27,1.39c-0.11,0.46-0.24,0.93-0.52,1.31c0.43-0.84,0.45-1.81,0.55-2.73
			c0.08-0.93,0.12-1.87,0.14-2.81c0.05-1.88,0.08-3.75,0.07-5.63C306.99,154.74,306.92,150.98,306.97,147.22z"/>
	</g>
	<g>
		<path d="M301.87,144.96c-0.39,3.8-0.9,7.58-1.32,11.37c-0.23,1.89-0.43,3.79-0.61,5.68c-0.16,1.9-0.34,3.8-0.22,5.7
			c-0.33-1.89-0.24-3.82-0.16-5.73c0.1-1.91,0.3-3.81,0.5-5.71C300.53,152.48,301.07,148.69,301.87,144.96z"/>
	</g>
	<g>
		<path d="M296.13,144.96c-0.2,2.14-0.41,4.28-0.65,6.42l-0.71,6.4c-0.26,2.13-0.48,4.27-0.71,6.4c-0.11,1.07-0.21,2.14-0.29,3.2
			c-0.05,0.53-0.08,1.07-0.1,1.6c0,0.53-0.06,1.08,0.14,1.59c-0.24-0.49-0.22-1.05-0.26-1.59c-0.02-0.54-0.03-1.08-0.02-1.62
			c0.03-1.08,0.08-2.15,0.15-3.23c0.14-2.15,0.37-4.29,0.59-6.43c0.26-2.13,0.52-4.27,0.83-6.4
			C295.4,149.19,295.75,147.07,296.13,144.96z"/>
	</g>
	<path class="st0" d="M476.25,695.47"/>
	<g>
		<path d="M369.1,178.48c0.4-0.91,0.85-1.75,1.25-2.62c0.21-0.43,0.4-0.86,0.57-1.3c0.17-0.44,0.31-0.89,0.36-1.38
			c0.16,0.48,0.1,1,0.01,1.49c-0.1,0.49-0.28,0.96-0.49,1.41c-0.22,0.44-0.46,0.88-0.75,1.28
			C369.77,177.76,369.47,178.15,369.1,178.48z"/>
	</g>
	<g>
		<path d="M378.69,178.1c-0.41-0.42-0.72-0.93-0.98-1.45c-0.27-0.52-0.47-1.08-0.62-1.65c-0.29-1.14-0.4-2.33-0.2-3.49
			c0.11,0.58,0.19,1.14,0.31,1.7c0.11,0.56,0.24,1.11,0.38,1.66C377.86,175.97,378.22,177.04,378.69,178.1z"/>
	</g>
	<g>
		<path d="M353.62,177.36c-0.41-0.42-0.72-0.93-0.98-1.45c-0.27-0.52-0.47-1.08-0.62-1.65c-0.29-1.14-0.4-2.33-0.2-3.49
			c0.11,0.58,0.19,1.14,0.3,1.7c0.11,0.56,0.24,1.11,0.38,1.66C352.79,175.23,353.15,176.3,353.62,177.36z"/>
	</g>
	<g>
		<path d="M321.39,174.88c0.4-0.91,0.85-1.75,1.25-2.62c0.21-0.43,0.4-0.86,0.57-1.3c0.17-0.44,0.31-0.89,0.36-1.38
			c0.16,0.48,0.1,1,0.01,1.49c-0.1,0.49-0.28,0.96-0.49,1.41c-0.22,0.44-0.46,0.88-0.75,1.28
			C322.06,174.16,321.75,174.55,321.39,174.88z"/>
	</g>
	<g>
		<path d="M334.57,175.48c-0.41-0.42-0.72-0.93-0.98-1.45c-0.27-0.52-0.47-1.08-0.62-1.65c-0.29-1.14-0.4-2.33-0.2-3.49
			c0.11,0.58,0.19,1.14,0.31,1.7c0.11,0.56,0.24,1.11,0.38,1.66C333.74,173.34,334.11,174.41,334.57,175.48z"/>
	</g>
	<path class="st1" d="M459.86,198.7"/>
	<path class="st0" d="M290.35,170.78c0,0-18.54,27.41-20.49,88.29c-1.6,49.9,3.34,86.41,2,98.94c-0.36,3.4-2.3,370.62-2.3,370.62
		s20.16,10.25,88.88,0c0,0,9.97-389.67,14.71-424.63V178.61L290.35,170.78z"/>
	<path class="st0" d="M476.48,702.06c0,0-35.34,16.71-89.67-1.69"/>
	<path class="st2" d="M476.25,700.74c0,0-35.34,16.71-89.67-1.69"/>
	<path class="st0" d="M269.53,701.4c0,0,35.34,16.71,89.67-1.69"/>
	<path class="st2" d="M269.76,700.08c0,0,35.34,16.71,89.67-1.69"/>
	<path class="st2" d="M453.8,172.18l9.41,22.15c13.27,56.92,9.28,40.29,9.96,81.69c0.49,29.37-1.62,66.21-1.62,66.21l1.62,48.68
		v109.28v203.18"/>
	<path class="st2" d="M292.62,172.18l-9.41,22.15c-13.27,56.92-9.28,40.29-9.96,81.69c-0.49,29.37,1.62,66.21,1.62,66.21
		l-1.62,48.68v109.28v203.18"/>
</g>
</svg>
