<?xml version="1.0" encoding="utf-8"?>
<!-- Generator: Adobe Illustrator 25.2.0, SVG Export Plug-In . SVG Version: 6.00 Build 0)  -->
<svg version="1.1" id="Layer_1" xmlns="http://www.w3.org/2000/svg" xmlns:xlink="http://www.w3.org/1999/xlink" x="0px" y="0px"
	 viewBox="0 0 595.28 841.89" style="enable-background:new 0 0 595.28 841.89;" xml:space="preserve">
<style type="text/css">
	.st0{stroke:#000000;stroke-miterlimit:10;}
	.st1{stroke:#000000;stroke-width:0.5;stroke-miterlimit:10;stroke-dasharray:1;}
	.st2{stroke:#000000;stroke-miterlimit:10;}
	.st3{stroke:#000000;stroke-width:0.5;stroke-miterlimit:10;stroke-dasharray:1;}
	.st4{stroke:#000000;stroke-width:0.5;stroke-miterlimit:10;}
	.st5{}
</style>
<g>
	<g>
		<path class="st0" d="M170.37,368.12c0,0,5.62-0.85,7.66-3.06c2.04-2.21,3.06-2.72,3.06-11.06s-2.32-158.34-2.32-158.34
			s-0.78-5.99-2.4-12.13c-1.66-6.26-10.29-7.84-10.29-7.84s3.43-5.78,1.9-11.14c-1.53-5.36-8.51-10.64-8.51-10.64l-2.37-1.52
			l-10.17,10.6l0,0l-28.99,11.77c0,0,8.51,40.85,6.13,54.47s-6.13,138.89-6.13,138.89H170.37"/>
		<line class="st0" x1="146.94" y1="162.99" x2="166.09" y2="175.69"/>
	</g>
	<path class="st0" d="M117.95,174.76c0,0-14.27,11.58-20.69,65.7s-17.1,113.7-17.1,113.7s-0.34,3.74,4.43,5.45
		c4.77,1.7,29.28,3.4,29.28,3.4l10.21-133.79C124.08,229.23,131.57,215.95,117.95,174.76z"/>
	<line class="st0" x1="82.74" y1="339.22" x2="115.37" y2="343.28"/>
	<line class="st1" x1="82.74" y1="340.25" x2="115.37" y2="344.31"/>
	<g>
		<path class="st0" d="M180.93,369.46c0,0-5.62-0.85-7.66-3.06s-3.06-2.72-3.06-11.06s2.32-158.34,2.32-158.34s0.78-5.99,2.4-12.13
			c1.66-6.26,10.29-7.84,10.29-7.84s-3.43-5.78-1.9-11.14c1.53-5.36,8.51-10.64,8.51-10.64l2.37-1.52l10.17,10.6l0,0l28.99,11.77
			c0,0-8.51,40.85-6.13,54.47c2.38,13.62,6.13,138.89,6.13,138.89H180.93"/>
		<line class="st0" x1="204.37" y1="164.33" x2="185.22" y2="177.03"/>
	</g>
	<path class="st0" d="M233.36,176.1c0,0,14.27,11.58,20.69,65.7s17.1,113.7,17.1,113.7s0.34,3.74-4.43,5.45
		c-4.77,1.7-29.28,3.4-29.28,3.4l-10.21-133.79C227.23,230.57,219.74,217.29,233.36,176.1z"/>
	<line class="st0" x1="268.56" y1="340.56" x2="235.94" y2="344.62"/>
	<line class="st1" x1="268.56" y1="341.59" x2="235.94" y2="345.65"/>
	<path class="st2" d="M157.11,152.39c0,0,11.88-2.34,37.08,1.34"/>
	<path class="st2" d="M181.84,178.08"/>
	<polyline class="st2" points="178.53,368.94 178.57,366.93 181.84,178.08 	"/>
	<path class="st3" d="M181.1,180.97c0,0-4.68,1.53-5.15,4.85c-0.47,3.32-1.75,5.87-2.26,24.26s-1.79,108.51-1.79,108.51
		s-1.02,41.36,0,42.89c0,0,1.87,3.57,6.64,6.64"/>
	<polygon class="st0" points="194.79,210.67 214.29,210.67 214.29,213.91 214.29,233.99 194.79,233.99 194.79,213.91 	"/>
	<line class="st1" x1="214.29" y1="212.23" x2="195.79" y2="212.23"/>
	<line class="st4" x1="200.39" y1="166.96" x2="232.01" y2="180.32"/>
	<line class="st4" x1="151.74" y1="166.96" x2="119.71" y2="180.32"/>
	<circle class="st4" cx="177.86" cy="193.67" r="2.11"/>
	<circle class="st4" cx="177.14" cy="216.16" r="2.11"/>
	<circle class="st4" cx="177.31" cy="236.61" r="2.11"/>
	<circle class="st4" cx="176.59" cy="259.1" r="2.11"/>
	<circle class="st4" cx="176.12" cy="283.48" r="2.11"/>
	<circle class="st4" cx="175.4" cy="305.97" r="2.11"/>
	<circle class="st4" cx="176.02" cy="331.04" r="2.11"/>
	<circle class="st4" cx="175.29" cy="353.53" r="2.11"/>
</g>
<g>
	<g>
		<path class="st0" d="M397.25,366.05h-10.56h-52.43c0,0,3.74-125.28,6.13-138.89c2.38-13.62-6.13-54.47-6.13-54.47L364,162.64l0,0
			l9.87-10.98c0,0,25.64,0.82,37.11,0.12"/>
		<path class="st0" d="M392.69,181.46"/>
		<path class="st0" d="M363.25,160.92"/>
	</g>
	<path class="st0" d="M334.26,172.69c0,0-14.27,11.58-20.69,65.7s-17.1,113.7-17.1,113.7s-0.34,3.74,4.43,5.45
		c4.77,1.7,29.28,3.4,29.28,3.4l10.21-133.79C340.39,227.16,347.88,213.88,334.26,172.69z"/>
	<line class="st0" x1="299.06" y1="337.15" x2="331.68" y2="341.21"/>
	<line class="st1" x1="299.06" y1="338.18" x2="331.68" y2="342.24"/>
	<g>
		<path class="st0" d="M410.62,151.77l10.06,10.48l0,0l28.99,11.77c0,0-8.51,40.85-6.13,54.47c2.38,13.62,6.09,137.55,6.09,137.55
			h-52.39"/>
		<path class="st0" d="M397.25,367.39"/>
		<path class="st0" d="M419.68,162.26"/>
	</g>
	<path class="st0" d="M449.67,174.03c0,0,14.27,11.58,20.69,65.7c6.42,54.13,17.1,113.7,17.1,113.7s0.34,3.74-4.43,5.45
		s-29.28,3.4-29.28,3.4L443.54,228.5C443.54,228.5,436.06,215.22,449.67,174.03z"/>
	<line class="st0" x1="484.88" y1="338.49" x2="452.25" y2="342.55"/>
	<line class="st1" x1="484.88" y1="339.52" x2="452.25" y2="343.58"/>
	<line class="st5" x1="384.3" y1="162.48" x2="400.22" y2="162.26"/>
	<path class="st2" d="M398.16,176.01"/>
	<path class="st0" d="M364,162.64c0,0,29.52,5.04,56.68-0.38"/>
</g>
<line class="st2" x1="168.24" y1="165.72" x2="183.32" y2="165.89"/>
</svg>
