<?xml version="1.0" encoding="utf-8"?>
<!-- Generator: Adobe Illustrator 25.2.0, SVG Export Plug-In . SVG Version: 6.00 Build 0)  -->
<svg version="1.1" id="Layer_1" xmlns="http://www.w3.org/2000/svg" xmlns:xlink="http://www.w3.org/1999/xlink" x="0px" y="0px"
	 viewBox="0 0 595.28 841.89" style="enable-background:new 0 0 595.28 841.89;" xml:space="preserve">
<style type="text/css">
	.st0{stroke:#000000;stroke-miterlimit:10;}
	.st1{stroke:#000000;stroke-width:0.5;stroke-miterlimit:10;stroke-dasharray:1;}
	.st2{stroke:#000000;stroke-width:0.75;stroke-miterlimit:10;}
</style>
<g>
	<path class="st0" d="M248.15,267.74c-4.02-32.55-5.63-27.33-5.63-27.33c-61.89,12.06-155.92,0-155.92,0s-4.42,21.3-4.02,27.33
		c0,0,62.26,8.44,82.77,7.64L248.15,267.74z"/>
	<path class="st0" d="M82.56,268.04c0,0-18.26,26.82-24.59,87.4c-4.98,47.64-8.65,82.04-9.99,94.57c-0.36,3.4-0.56,5.19-0.56,5.19
		s47.32,29.54,116.04,19.29c0,0-2.84-38.28,1.9-73.24V275.88L82.56,268.04z"/>
	<path class="st1" d="M163.14,452.08c0,0-19.27-0.31-40.07-0.01s-46.72-8.74-46.72-8.74s-11.74-4.01-20.02-8.55"/>
	<g>
		<path d="M90.27,268.8c-1.93,9.1-3.46,18.3-4.76,27.52c-1.29,9.22-2.28,18.49-2.95,27.78c0.59-9.3,1.49-18.58,2.71-27.82
			c1.21-9.24,2.66-18.45,4.51-27.59L90.27,268.8z"/>
	</g>
	<g>
		<path d="M105.45,270.92c0.79,2.21,1.44,4.45,2,6.72c0.55,2.27,1,4.56,1.34,6.87c0.34,2.31,0.51,4.64,0.56,6.97
			c0.03,2.33-0.15,4.66-0.51,6.96c0.32-2.31,0.46-4.63,0.39-6.96c-0.09-2.32-0.3-4.64-0.68-6.93c-0.38-2.29-0.86-4.57-1.45-6.81
			c-0.6-2.24-1.28-4.47-2.1-6.63L105.45,270.92z"/>
	</g>
	<g>
		<path d="M125.43,272.99c-3.03,3.66-5.08,8.11-6.56,12.65c-1.45,4.57-2.28,9.33-2.53,14.13c-0.1,2.4-0.11,4.8-0.07,7.21l0.04,7.22
			c-0.01,4.81,0.03,9.62-0.18,14.43c0.17-4.81,0.09-9.62,0.06-14.43l-0.1-7.22c-0.06-2.4-0.07-4.81,0.01-7.22
			c0.21-4.82,1-9.61,2.42-14.23c1.46-4.59,3.46-9.07,6.55-12.87L125.43,272.99z"/>
	</g>
	<g>
		<path d="M129.76,273.16l0.04-0.54l0.02-0.14l0.01-0.08c0-0.02,0-0.03,0.02-0.07l0.02-0.05c-0.06-0.02,0.27-0.2,0.31-0.1
			c0.07,0.01,0.15,0.16,0.14,0.14l0.01,0.03c0.03,0.17,0.02,0.22,0.03,0.32l0.01,1.07l-0.01,2.12l-0.06,4.23l-0.16,8.46l-0.17,8.46
			l-0.06,4.23l-0.01,2.12l0.01,0.53l0.01,0.13l0.01,0.06c-0.02,0.01,0-0.03,0-0.05l0.03-0.26l0.06-1.06l-0.05,1.06l-0.02,0.26
			c-0.01,0.02,0.01,0.05-0.04,0.06c-0.01-0.03-0.01-0.05-0.01-0.07l-0.01-0.13l-0.02-0.53l-0.02-2.12l0-4.23l0.04-8.46l0.04-8.46
			l0-4.23l-0.02-2.11l-0.03-1.05l-0.02-0.2l0.01,0.01c-0.02-0.02,0.06,0.12,0.13,0.13c0.04,0.09,0.36-0.08,0.3-0.1l0.02-0.03
			c0.01-0.02,0-0.01,0-0.01l-0.01,0.05l-0.01,0.12l-0.03,0.52L129.76,273.16z"/>
	</g>
	<g>
		<path d="M96.76,270.24c-1.06,1.53-2.03,3.14-2.94,4.78c-0.91,1.64-1.76,3.31-2.5,5.03c-1.48,3.43-2.65,7.07-2.79,10.84
			c0.06-3.78,1.15-7.45,2.56-10.94c0.71-1.75,1.53-3.45,2.4-5.12c0.88-1.67,1.82-3.3,2.86-4.89L96.76,270.24z"/>
	</g>
	<g>
		<path d="M86.54,268.78c-0.54,3.77-1.1,7.53-1.71,11.29c-0.3,1.88-0.62,3.76-0.96,5.63c-0.37,1.86-0.65,3.76-1.3,5.55
			c0.62-1.8,0.85-3.7,1.18-5.57c0.3-1.88,0.58-3.76,0.84-5.64c0.53-3.77,1.01-7.54,1.46-11.32L86.54,268.78z"/>
	</g>
	<g>
		<path d="M141.4,274.71c-1.51,9.79-2.89,19.6-4.09,29.43c-0.6,4.92-1.15,9.84-1.6,14.77c-0.45,4.93-0.85,9.87-0.89,14.83
			c0-4.96,0.36-9.9,0.76-14.84c0.41-4.94,0.92-9.87,1.48-14.79c1.12-9.85,2.41-19.67,3.84-29.48L141.4,274.71z"/>
	</g>
	<g>
		<path d="M148.63,275.37c1,3.85,1.9,7.72,2.69,11.62c0.4,1.95,0.75,3.9,1.05,5.87c0.29,1.96,0.55,3.94,0.54,5.93
			c-0.04-1.99-0.33-3.96-0.67-5.91c-0.34-1.96-0.73-3.9-1.17-5.84c-0.87-3.87-1.86-7.72-2.93-11.54L148.63,275.37z"/>
	</g>
	<g>
		<path d="M160.69,275.47c-1.02,4.73-1.93,9.49-2.73,14.26c-0.8,4.78-1.49,9.57-2.02,14.38c-0.54,4.81-0.84,9.65-0.9,14.49
			l-0.32,14.53l0.19-14.54c0.02-4.85,0.28-9.7,0.78-14.52c0.48-4.82,1.14-9.63,1.9-14.42c0.76-4.79,1.62-9.56,2.61-14.31
			L160.69,275.47z"/>
	</g>
	<g>
		<path d="M178.83,386.79l-33.42,17.68l-0.06-0.15l26.69-7.26c8.9-2.41,17.8-4.81,26.74-7.09l0.84-0.2c0.14-0.03,0.28-0.07,0.43-0.1
			l0.06-0.01c0.01,0,0.02,0,0.04,0c-0.01,0.01,0.07-0.04,0.12,0.11c-0.07,0.16-0.07,0.08-0.1,0.12l-0.05,0.03l-0.2,0.09
			c-0.54,0.21-1.08,0.4-1.63,0.59l-3.27,1.13l-6.54,2.25c-4.36,1.51-8.7,3.04-13.03,4.63c-4.33,1.59-8.64,3.23-12.89,4.99
			c-2.13,0.89-4.24,1.8-6.31,2.82c-1.03,0.51-2.06,1.04-3.04,1.63c-0.49,0.3-0.98,0.61-1.43,0.97c-0.44,0.36-0.91,0.74-1.13,1.28
			c0.21-0.55,0.68-0.93,1.12-1.29c0.45-0.36,0.94-0.67,1.43-0.98c0.98-0.6,2-1.14,3.04-1.66c2.06-1.03,4.17-1.96,6.3-2.86
			c4.25-1.8,8.56-3.44,12.88-5.04c4.32-1.6,8.67-3.14,13.02-4.66l6.53-2.26l3.26-1.14c0.54-0.19,1.09-0.38,1.62-0.59l0.19-0.08
			l0.04-0.02c0,0.02,0.04-0.07-0.01,0.06c0.04,0.14,0.11,0.09,0.07,0.1c0,0,0,0-0.01,0l-0.05,0.01c-0.13,0.02-0.28,0.06-0.42,0.09
			l-0.84,0.2c-8.93,2.29-17.82,4.74-26.73,7.11l-26.71,7.2l-0.73,0.2l0.67-0.35L178.83,386.79z"/>
	</g>
	<g>
		<path d="M101.24,270.5c-0.66,5.02-1.29,10.05-1.88,15.08c-0.29,2.52-0.57,5.04-0.81,7.56c-0.23,2.52-0.49,5.05-0.5,7.58
			c-0.05-2.54,0.14-5.07,0.31-7.6c0.18-2.53,0.4-5.05,0.63-7.58c0.46-5.05,0.96-10.09,1.5-15.14L101.24,270.5z"/>
	</g>
	<g>
		<path d="M116.48,272.44c-1.06,2.46-2.05,4.96-2.94,7.49c-0.44,1.27-0.86,2.55-1.21,3.84c-0.35,1.29-0.68,2.6-0.82,3.94
			c0.08-1.35,0.34-2.67,0.64-3.99c0.3-1.32,0.65-2.62,1.04-3.91c0.77-2.59,1.64-5.13,2.6-7.67L116.48,272.44z"/>
	</g>
	<g>
		<path d="M155.82,275.92c0.11,1.75,0.16,3.49,0.15,5.24c-0.01,0.87-0.04,1.75-0.1,2.62c-0.07,0.87-0.16,1.75-0.43,2.58
			c0.21-0.85,0.23-1.72,0.24-2.59c0-0.87-0.03-1.73-0.09-2.6c-0.12-1.73-0.29-3.46-0.52-5.17L155.82,275.92z"/>
	</g>
	<g>
		<path d="M145.05,275.07c0.22,4.39,0.34,8.78,0.33,13.17c-0.01,2.2-0.04,4.39-0.14,6.58c-0.11,2.19-0.25,4.38-0.56,6.56
			c0.25-2.18,0.33-4.37,0.38-6.56c0.04-2.19,0.01-4.38-0.05-6.57c-0.12-4.38-0.36-8.76-0.7-13.12L145.05,275.07z"/>
	</g>
	<path class="st0" d="M248.15,268.04c0,0,18.26,26.82,24.59,87.4c4.98,47.64,8.65,82.04,9.99,94.57c0.36,3.4,0.56,5.19,0.56,5.19
		s-47.32,29.54-116.04,19.29c0,0,2.84-38.28-1.9-73.24V275.88L248.15,268.04z"/>
	<path class="st1" d="M167.57,452.08c0,0,19.27-0.31,40.07-0.01s46.72-8.74,46.72-8.74s11.74-4.01,20.02-8.55"/>
	<g>
		<path d="M240.93,268.7c1.85,9.14,3.3,18.35,4.51,27.59c1.21,9.24,2.11,18.52,2.71,27.82c-0.68-9.29-1.66-18.56-2.95-27.78
			c-1.29-9.22-2.83-18.42-4.76-27.52L240.93,268.7z"/>
	</g>
	<g>
		<path d="M226.86,270.27c-0.82,2.16-1.5,4.39-2.1,6.63c-0.59,2.25-1.08,4.52-1.45,6.81c-0.38,2.29-0.59,4.61-0.68,6.93
			c-0.07,2.33,0.07,4.65,0.39,6.96c-0.36-2.3-0.54-4.63-0.51-6.96c0.05-2.33,0.22-4.66,0.56-6.97c0.34-2.31,0.78-4.6,1.34-6.87
			c0.56-2.27,1.2-4.51,2-6.72L226.86,270.27z"/>
	</g>
	<g>
		<path d="M205.65,272.65c3.09,3.8,5.09,8.28,6.55,12.87c1.42,4.62,2.21,9.41,2.42,14.23c0.07,2.41,0.07,4.82,0.01,7.22l-0.1,7.22
			c-0.04,4.81-0.11,9.62,0.06,14.43c-0.21-4.81-0.18-9.62-0.18-14.43l0.04-7.22c0.04-2.41,0.03-4.81-0.07-7.21
			c-0.25-4.79-1.08-9.56-2.53-14.13c-1.48-4.53-3.54-8.99-6.56-12.65L205.65,272.65z"/>
	</g>
	<g>
		<path d="M200.46,273.18l-0.03-0.52l-0.01-0.12l-0.01-0.05c0-0.01,0-0.01,0,0.01l0.02,0.03c-0.06,0.01,0.26,0.19,0.3,0.1
			c0.07-0.01,0.14-0.15,0.13-0.13l0.01-0.01l-0.02,0.2l-0.03,1.05l-0.02,2.11l0,4.23l0.04,8.46l0.04,8.46l0,4.23l-0.02,2.12
			l-0.02,0.53l-0.01,0.13c0,0.02,0,0.04-0.01,0.07c-0.05-0.01-0.02-0.04-0.04-0.06l-0.02-0.26l-0.05-1.06l0.06,1.06l0.03,0.26
			c0,0.02,0.02,0.05,0,0.05l0.01-0.06l0.01-0.13l0.01-0.53l-0.01-2.12l-0.06-4.23l-0.17-8.46l-0.16-8.46l-0.06-4.23l-0.01-2.12
			l0.01-1.07c0.01-0.1,0-0.15,0.03-0.32l0.01-0.03c-0.02,0.02,0.06-0.13,0.14-0.14c0.04-0.09,0.37,0.09,0.31,0.1l0.02,0.05
			c0.01,0.04,0.02,0.05,0.02,0.07l0.01,0.08l0.02,0.14l0.04,0.54L200.46,273.18z"/>
	</g>
	<g>
		<path d="M234.04,269.13c1.04,1.59,1.98,3.22,2.86,4.89c0.88,1.67,1.69,3.37,2.4,5.12c1.41,3.48,2.5,7.16,2.56,10.94
			c-0.14-3.77-1.31-7.41-2.79-10.84c-0.75-1.72-1.6-3.39-2.5-5.03c-0.91-1.63-1.89-3.25-2.94-4.78L234.04,269.13z"/>
	</g>
	<g>
		<path d="M244.67,268.72c0.46,3.78,0.94,7.55,1.46,11.32c0.26,1.88,0.54,3.77,0.84,5.64c0.33,1.87,0.56,3.77,1.18,5.57
			c-0.66-1.79-0.93-3.69-1.3-5.55c-0.34-1.87-0.66-3.75-0.96-5.63c-0.61-3.76-1.17-7.52-1.71-11.29L244.67,268.72z"/>
	</g>
	<g>
		<path d="M189.8,273.96c1.43,9.81,2.72,19.63,3.84,29.48c0.56,4.92,1.06,9.85,1.48,14.79c0.4,4.94,0.76,9.88,0.76,14.84
			c-0.04-4.96-0.44-9.9-0.89-14.83c-0.46-4.93-1-9.86-1.6-14.77c-1.2-9.83-2.58-19.65-4.09-29.43L189.8,273.96z"/>
	</g>
	<g>
		<path d="M182.01,274.74c-1.07,3.82-2.06,7.67-2.93,11.54c-0.44,1.94-0.83,3.88-1.17,5.84c-0.33,1.96-0.63,3.92-0.67,5.91
			c0-1.99,0.25-3.97,0.54-5.93c0.3-1.97,0.65-3.92,1.05-5.87c0.79-3.9,1.69-7.77,2.69-11.62L182.01,274.74z"/>
	</g>
	<g>
		<path d="M170.52,275.36c0.99,4.75,1.85,9.52,2.61,14.31c0.76,4.79,1.41,9.59,1.9,14.42c0.5,4.82,0.75,9.67,0.78,14.52l0.19,14.54
			l-0.32-14.53c-0.07-4.85-0.36-9.68-0.9-14.49c-0.52-4.81-1.22-9.61-2.02-14.38c-0.8-4.77-1.7-9.54-2.73-14.26L170.52,275.36z"/>
	</g>
	<g>
		<path d="M230.21,269.23c0.54,5.04,1.05,10.09,1.5,15.14c0.22,2.53,0.45,5.05,0.63,7.58c0.17,2.53,0.36,5.06,0.31,7.6
			c-0.01-2.53-0.27-5.06-0.5-7.58c-0.24-2.52-0.52-5.04-0.81-7.56c-0.58-5.03-1.21-10.06-1.88-15.08L230.21,269.23z"/>
	</g>
	<g>
		<path d="M214.92,271.23c0.96,2.53,1.83,5.08,2.6,7.67c0.39,1.29,0.74,2.59,1.04,3.91c0.29,1.31,0.56,2.64,0.64,3.99
			c-0.14-1.34-0.47-2.65-0.82-3.94c-0.36-1.29-0.77-2.57-1.21-3.84c-0.88-2.53-1.87-5.04-2.94-7.49L214.92,271.23z"/>
	</g>
	<g>
		<path d="M196.44,272.86c-0.23,1.71-0.41,3.44-0.52,5.17c-0.06,0.87-0.09,1.73-0.09,2.6c0.01,0.87,0.03,1.74,0.24,2.59
			c-0.27-0.83-0.36-1.71-0.43-2.58c-0.06-0.87-0.09-1.74-0.1-2.62c-0.01-1.75,0.04-3.49,0.15-5.24L196.44,272.86z"/>
	</g>
	<g>
		<path d="M246.63,268.6c1.79,4.24,3.37,8.56,4.54,13c0.56,2.22,1.04,4.49,1.08,6.8l0.1,6.87l-0.29-6.86
			c-0.1-2.28-0.64-4.51-1.25-6.71c-1.27-4.38-2.97-8.65-4.86-12.79L246.63,268.6z"/>
	</g>
	<g>
		<path d="M186.5,274.15c-0.34,4.36-0.59,8.74-0.7,13.12c-0.06,2.19-0.09,4.38-0.05,6.57c0.04,2.19,0.13,4.38,0.38,6.56
			c-0.31-2.17-0.46-4.36-0.56-6.56c-0.11-2.19-0.14-4.39-0.14-6.58c-0.01-4.39,0.11-8.78,0.33-13.17L186.5,274.15z"/>
	</g>
	<g>
		<path d="M176.02,275.34c-0.23,1.71-0.41,3.44-0.52,5.17c-0.06,0.87-0.09,1.73-0.09,2.6c0.01,0.87,0.03,1.74,0.24,2.59
			c-0.27-0.83-0.36-1.71-0.43-2.58c-0.06-0.87-0.09-1.74-0.1-2.62c-0.01-1.75,0.04-3.49,0.15-5.24L176.02,275.34z"/>
	</g>
	<g>
		<path d="M136.14,274.09c0.11,1.75,0.16,3.49,0.15,5.24c-0.01,0.87-0.04,1.75-0.1,2.62c-0.07,0.87-0.16,1.75-0.43,2.58
			c0.21-0.85,0.23-1.72,0.24-2.59c0-0.87-0.03-1.73-0.09-2.6c-0.12-1.73-0.29-3.46-0.52-5.17L136.14,274.09z"/>
	</g>
	<g>
		<path d="M90.02,241.52l-0.75,6.63c-0.24,2.21-0.48,4.42-0.66,6.63c-0.21,2.21-0.36,4.42-0.45,6.64c-0.03,1.11-0.06,2.22-0.01,3.32
			c0.02,1.11,0.12,2.21,0.37,3.3c-0.66-2.14-0.72-4.41-0.74-6.63c0.02-2.23,0.17-4.46,0.34-6.68c0.22-2.22,0.46-4.43,0.78-6.63
			C89.21,245.9,89.59,243.7,90.02,241.52z"/>
	</g>
	<g>
		<path d="M96.55,244.69l-0.85,5.37c-0.28,1.79-0.57,3.58-0.8,5.37c-0.27,1.79-0.48,3.59-0.65,5.39c-0.17,1.8-0.31,3.6-0.25,5.42
			c-0.26-1.8-0.22-3.63-0.13-5.45c0.09-1.82,0.31-3.62,0.54-5.43c0.27-1.8,0.56-3.59,0.92-5.37
			C95.68,248.21,96.07,246.44,96.55,244.69z"/>
	</g>
	<g>
		<path d="M100.87,243.18c0.47,4.06,0.69,8.14,0.83,12.22c0.04,2.04,0.07,4.09,0,6.13c-0.12,2.03-0.11,4.13-0.82,6.06l0.19-0.74
			c0.04-0.25,0.06-0.5,0.1-0.76c0.08-0.5,0.07-1.01,0.1-1.52c0.04-1.02,0.06-2.03,0.05-3.05c-0.01-2.04-0.03-4.07-0.11-6.11
			C101.12,251.34,100.93,247.26,100.87,243.18z"/>
	</g>
	<g>
		<path d="M106.39,270.1c-0.37-1.24-0.62-2.51-0.81-3.79c-0.19-1.28-0.29-2.58-0.34-3.87c-0.01-1.3,0.03-2.6,0.2-3.89
			c0.19-1.29,0.48-2.56,0.96-3.76c-0.28,1.26-0.47,2.53-0.58,3.8c-0.08,1.28-0.12,2.56-0.08,3.84c0.02,1.28,0.12,2.56,0.23,3.84
			C106.07,267.54,106.22,268.82,106.39,270.1z"/>
	</g>
	<g>
		<path d="M113.82,244.69c0.07,2.17,0.09,4.34,0.06,6.5c-0.03,2.17-0.12,4.33-0.22,6.5c-0.14,2.16-0.29,4.33-0.56,6.49
			c-0.14,1.08-0.3,2.15-0.51,3.22c-0.12,0.53-0.24,1.06-0.4,1.58c-0.17,0.51-0.33,1.05-0.67,1.48c0.3-0.45,0.43-0.99,0.56-1.51
			c0.12-0.52,0.21-1.06,0.28-1.59c0.16-1.07,0.28-2.14,0.37-3.22c0.19-2.15,0.34-4.31,0.45-6.47c0.14-2.16,0.22-4.32,0.33-6.48
			L113.82,244.69z"/>
	</g>
	<g>
		<path d="M125.25,245.74c-0.46,0.95-0.87,1.93-1.25,2.91c-0.4,0.98-0.77,1.96-1.11,2.96c-0.68,1.99-1.3,4.01-1.75,6.06
			c-0.46,2.05-0.76,4.13-0.9,6.23c-0.08,2.1,0.03,4.2,0.44,6.28c-0.58-2.04-0.84-4.16-0.82-6.29c0.06-2.13,0.36-4.24,0.79-6.32
			c0.49-2.07,1.11-4.1,1.87-6.08C123.3,249.5,124.19,247.57,125.25,245.74z"/>
	</g>
	<g>
		<path d="M129.87,245.74c0.24,1.07,0.39,2.16,0.5,3.26c0.12,1.09,0.18,2.19,0.2,3.29c0.04,2.2-0.07,4.4-0.44,6.57l-0.01-3.28
			l-0.05-3.27C130.04,250.11,129.95,247.94,129.87,245.74z"/>
	</g>
	<g>
		<path d="M134.22,244.69c0.16,2.12,0.28,4.25,0.37,6.37c0.09,2.13,0.13,4.25,0.18,6.38c0.01,2.13,0.03,4.25-0.03,6.38
			c-0.08,2.12-0.09,4.27-0.52,6.36c0.18-1.05,0.13-2.12,0.15-3.18c0.01-1.06,0-2.12-0.01-3.19l-0.09-6.37l-0.06-6.38
			C134.19,248.94,134.2,246.81,134.22,244.69z"/>
	</g>
	<g>
		<path d="M127.44,272.29c-0.37-0.34-0.67-0.73-0.96-1.13c-0.29-0.4-0.53-0.83-0.75-1.28c-0.21-0.45-0.39-0.91-0.49-1.41
			c-0.1-0.49-0.15-1.01,0.01-1.49c0.05,0.49,0.2,0.94,0.36,1.38c0.17,0.44,0.36,0.88,0.57,1.3
			C126.59,270.54,127.04,271.39,127.44,272.29z"/>
	</g>
	<g>
		<path d="M137.99,272.82c0.47-1.07,0.83-2.13,1.12-3.23c0.14-0.55,0.27-1.1,0.38-1.66c0.12-0.56,0.19-1.12,0.31-1.7
			c0.19,1.15,0.09,2.35-0.2,3.49c-0.15,0.57-0.36,1.12-0.62,1.65C138.71,271.89,138.4,272.4,137.99,272.82z"/>
	</g>
	<g>
		<path d="M146.43,245.74c-0.51,2.17-0.86,4.37-1.17,6.58c-0.29,2.2-0.55,4.41-0.66,6.64c-0.16,2.22-0.22,4.44-0.19,6.66
			c0,2.23,0.13,4.45,0.27,6.68c-0.14-1.11-0.32-2.21-0.43-3.32c-0.09-1.11-0.19-2.23-0.22-3.34c-0.11-2.23-0.04-4.47,0.08-6.71
			c0.16-2.23,0.41-4.46,0.78-6.66C145.26,250.05,145.75,247.87,146.43,245.74z"/>
	</g>
	<g>
		<path d="M152.91,246.65c-0.34,2.05-0.63,4.1-0.89,6.16c-0.25,2.06-0.48,4.12-0.6,6.18c-0.3,4.13-0.31,8.28,0.28,12.39
			c-0.51-2.02-0.75-4.1-0.87-6.18c-0.1-2.08-0.03-4.17,0.08-6.25c0.17-2.08,0.39-4.15,0.72-6.2
			C151.98,250.7,152.37,248.65,152.91,246.65z"/>
	</g>
	<g>
		<path d="M158.79,246.65c0.19,2.19,0.33,4.39,0.42,6.59c0.09,2.2,0.12,4.4,0.13,6.6c-0.03,2.2-0.07,4.41-0.25,6.61
			c-0.1,1.1-0.21,2.2-0.39,3.29c-0.1,0.54-0.21,1.09-0.37,1.62c-0.16,0.52-0.34,1.08-0.74,1.47c0.37-0.42,0.5-0.97,0.62-1.5
			c0.12-0.53,0.19-1.08,0.25-1.62c0.13-1.09,0.2-2.18,0.25-3.28c0.1-2.19,0.14-4.39,0.14-6.58c0.03-2.2,0-4.39-0.01-6.59
			L158.79,246.65z"/>
	</g>
	<g>
		<path d="M168.28,247.4c0.29,1.09,0.49,2.2,0.67,3.31c0.18,1.11,0.31,2.23,0.4,3.36c0.08,1.12,0.14,2.25,0.09,3.38
			c-0.04,1.13-0.12,2.26-0.4,3.36c0.07-1.13,0.05-2.24,0.01-3.36c-0.05-1.12-0.12-2.23-0.2-3.35L168.28,247.4z"/>
	</g>
	<g>
		<path d="M175.29,247.4c-0.24,1.07-0.42,2.14-0.58,3.22c-0.17,1.08-0.31,2.16-0.42,3.24c-0.23,2.16-0.37,4.34-0.37,6.51
			c-0.05,2.17,0.07,4.35,0.3,6.51l0.18,1.62l0.27,1.61c0.13,1.08,0.42,2.14,0.63,3.21c-0.63-2.09-1.2-4.22-1.46-6.4
			c-0.3-2.17-0.43-4.37-0.41-6.56C173.49,255.98,174.02,251.59,175.29,247.4z"/>
	</g>
	<g>
		<path d="M180.94,247.4c0.57,2.02,1.08,4.06,1.51,6.12c0.44,2.05,0.8,4.13,1.1,6.21c0.25,2.09,0.5,4.19,0.37,6.31
			c-0.23,2.12-0.66,4.15-1.03,6.23l0.32-3.13c0.11-1.04,0.28-2.09,0.32-3.11c0.04-2.07-0.2-4.16-0.48-6.23
			c-0.26-2.08-0.62-4.14-0.98-6.2C181.71,251.53,181.34,249.46,180.94,247.4z"/>
	</g>
	<g>
		<path d="M189.56,247.4c-0.76,3.26-1.58,6.5-2.15,9.79c-0.3,1.63-0.55,3.29-0.55,4.94c0.04,1.66,0.12,3.34,0.11,5.02
			c-0.2-1.67-0.38-3.32-0.5-5c-0.08-1.7,0.17-3.38,0.44-5.04c0.32-1.65,0.68-3.29,1.13-4.91
			C188.48,250.58,188.97,248.97,189.56,247.4z"/>
	</g>
	<g>
		<path d="M195.88,246.65c0.31,1.82,0.55,3.66,0.76,5.5c0.21,1.84,0.36,3.68,0.51,5.53c0.1,1.85,0.2,3.7,0.2,5.55
			c-0.01,1.85-0.05,3.72-0.44,5.53c0.18-1.84,0.12-3.68,0.05-5.53c-0.08-1.84-0.17-3.68-0.32-5.52L195.88,246.65z"/>
	</g>
	<g>
		<path d="M202.19,246.65c-0.36,1.35-0.68,2.69-0.94,4.04c-0.14,0.67-0.25,1.35-0.36,2.03l-0.31,2.06
			c-0.18-1.39-0.08-2.81,0.19-4.19c0.14-0.69,0.32-1.37,0.55-2.03C201.55,247.9,201.82,247.25,202.19,246.65z"/>
	</g>
	<g>
		<path d="M208.67,245.74c0.58,1.85,1.04,3.74,1.45,5.64c0.4,1.9,0.72,3.82,0.99,5.74c0.22,1.93,0.42,3.87,0.46,5.81
			c0.03,1.94-0.03,3.9-0.34,5.82c0.18-3.88-0.11-7.73-0.62-11.56c-0.23-1.92-0.55-3.83-0.87-5.73
			C209.41,249.55,209.05,247.64,208.67,245.74z"/>
	</g>
	<g>
		<path d="M219.2,244.69c0,4.05-0.14,8.09-0.15,12.13c-0.04,2.02-0.03,4.04,0.04,6.05c-0.02,2.02,0.65,3.94,1.03,5.94
			c-0.57-1.92-1.35-3.85-1.41-5.91c-0.16-2.03-0.15-4.05-0.16-6.08c0.04-2.02,0.09-4.05,0.2-6.07
			C218.86,248.72,218.99,246.7,219.2,244.69z"/>
	</g>
	<g>
		<path d="M227.66,268.8l-0.16-6.4c-0.04-1.06-0.09-2.12-0.18-3.18c-0.06-0.53-0.11-1.05-0.22-1.57c-0.08-0.53-0.24-1.02-0.47-1.51
			c0.65,0.88,0.87,1.98,1.07,3.03c0.18,1.06,0.25,2.14,0.3,3.21C228.05,264.53,227.97,266.67,227.66,268.8z"/>
	</g>
	<g>
		<path d="M231.25,243.78c0.06,3.77-0.02,7.52,0.02,11.28c-0.01,1.88,0.01,3.76,0.07,5.63c0.02,0.94,0.06,1.88,0.14,2.81
			c0.1,0.92,0.12,1.89,0.55,2.73c-0.29-0.38-0.41-0.86-0.52-1.31c-0.11-0.46-0.19-0.93-0.27-1.39c-0.13-0.94-0.21-1.88-0.29-2.82
			c-0.13-1.88-0.16-3.77-0.18-5.65c0.02-1.88,0.04-3.77,0.12-5.65C230.97,247.54,231.07,245.66,231.25,243.78z"/>
	</g>
	<g>
		<path d="M236.36,241.52c0.8,3.74,1.34,7.52,1.82,11.31c0.2,1.9,0.4,3.8,0.5,5.71c0.08,1.91,0.16,3.84-0.16,5.73
			c0.12-1.91-0.06-3.81-0.22-5.7c-0.18-1.9-0.38-3.79-0.61-5.68C237.26,249.1,236.75,245.32,236.36,241.52z"/>
	</g>
	<g>
		<path d="M242.1,241.52c0.38,2.12,0.73,4.24,1.03,6.37c0.31,2.13,0.56,4.26,0.83,6.4c0.22,2.14,0.45,4.28,0.59,6.43
			c0.07,1.07,0.13,2.15,0.15,3.23c0.01,0.54,0,1.08-0.02,1.62c-0.04,0.53-0.02,1.1-0.26,1.59c0.2-0.5,0.14-1.06,0.14-1.59
			c-0.02-0.54-0.06-1.07-0.1-1.6c-0.08-1.07-0.18-2.14-0.29-3.2c-0.22-2.13-0.45-4.27-0.71-6.4l-0.71-6.4
			C242.51,245.8,242.3,243.66,242.1,241.52z"/>
	</g>
	<path class="st0" d="M162.69,455.28c0,0-18.07-0.31-38.87-0.01s-46.72-8.74-46.72-8.74s-19.22-7.21-27.5-11.74"/>
	<path class="st0" d="M168.02,455.26c0,0,18.08-0.29,38.88,0.01s46.72-8.74,46.72-8.74s19.92-7.51,28.19-12.04"/>
	<g>
		<path d="M169.12,275.05c-0.37-0.34-0.67-0.73-0.96-1.13c-0.29-0.4-0.53-0.83-0.75-1.28c-0.21-0.45-0.39-0.91-0.49-1.41
			c-0.1-0.49-0.15-1.01,0.01-1.49c0.05,0.49,0.2,0.94,0.36,1.38c0.17,0.44,0.36,0.88,0.57,1.3
			C168.27,273.3,168.73,274.14,169.12,275.05z"/>
	</g>
	<g>
		<path d="M159.54,274.67c0.47-1.07,0.83-2.13,1.12-3.23c0.14-0.55,0.27-1.1,0.38-1.66c0.12-0.56,0.19-1.12,0.31-1.7
			c0.19,1.15,0.09,2.35-0.2,3.49c-0.15,0.57-0.36,1.12-0.62,1.65C160.25,273.74,159.95,274.25,159.54,274.67z"/>
	</g>
	<g>
		<path d="M184.61,273.93c0.47-1.07,0.83-2.13,1.12-3.23c0.14-0.55,0.27-1.1,0.38-1.66c0.12-0.56,0.19-1.12,0.31-1.7
			c0.19,1.15,0.09,2.35-0.2,3.49c-0.15,0.57-0.36,1.12-0.62,1.65C185.32,273,185.02,273.51,184.61,273.93z"/>
	</g>
	<g>
		<path d="M216.84,271.45c-0.37-0.34-0.67-0.73-0.96-1.13c-0.29-0.4-0.53-0.83-0.75-1.28c-0.21-0.45-0.39-0.91-0.49-1.41
			c-0.1-0.49-0.15-1.01,0.01-1.49c0.05,0.49,0.2,0.94,0.36,1.38c0.17,0.44,0.36,0.88,0.57,1.3
			C215.99,269.7,216.44,270.54,216.84,271.45z"/>
	</g>
	<g>
		<path d="M203.65,272.04c0.47-1.07,0.83-2.13,1.12-3.23c0.14-0.55,0.27-1.1,0.38-1.66c0.12-0.56,0.19-1.12,0.31-1.7
			c0.19,1.15,0.09,2.35-0.2,3.49c-0.15,0.57-0.36,1.12-0.62,1.65C204.37,271.11,204.06,271.62,203.65,272.04z"/>
	</g>
	<path class="st2" d="M78.37,295.27"/>
	<path class="st2" d="M53.4,436.7l6.3-60.09l5.36-45.96c0,0,7.91-29.66,9.45-36.4c1.53-6.75,9.92-25.5,9.92-25.5"/>
	<path class="st1" d="M55.26,436.7l6.3-60.09l5.36-45.96c0,0,7.91-29.66,9.45-36.4c1.53-6.75,9.92-25.5,9.92-25.5"/>
	<path class="st2" d="M277.52,436.7l-6.3-60.09l-5.36-45.96c0,0-7.91-29.66-9.45-36.4c-1.53-6.75-9.92-25.5-9.92-25.5"/>
	<path class="st1" d="M275.65,436.7l-6.3-60.09l-5.36-45.96c0,0-7.91-29.66-9.45-36.4c-1.53-6.75-9.92-25.5-9.92-25.5"/>
</g>
<g>
	<path class="st0" d="M342.32,267.74c4.02-32.55,5.63-27.33,5.63-27.33c61.89,12.06,155.92,0,155.92,0s4.42,21.3,4.02,27.33
		c0,0-62.26,8.44-82.77,7.64L342.32,267.74z"/>
	<path class="st0" d="M507.92,268.04c0,0,18.26,26.82,24.59,87.4c4.98,47.64,8.65,82.04,9.99,94.57c0.36,3.4,0.56,5.19,0.56,5.19
		s-47.32,29.54-116.04,19.29c0,0,2.84-38.28-1.9-73.24V275.88L507.92,268.04z"/>
	<path class="st1" d="M427.33,452.08c0,0,19.27-0.31,40.07-0.01s46.72-8.74,46.72-8.74s11.74-4.01,20.02-8.55"/>
	<g>
		<path d="M500.7,268.7c1.85,9.14,3.3,18.35,4.51,27.59c1.21,9.24,2.11,18.52,2.71,27.82c-0.68-9.29-1.66-18.56-2.95-27.78
			c-1.29-9.22-2.83-18.42-4.76-27.52L500.7,268.7z"/>
	</g>
	<g>
		<path d="M485.49,271.1c-0.82,2.16-1.5,4.39-2.1,6.63c-0.59,2.25-1.08,4.52-1.45,6.81c-0.38,2.29-0.59,4.61-0.68,6.93
			c-0.07,2.33,0.07,4.65,0.39,6.96c-0.36-2.3-0.54-4.63-0.51-6.96c0.05-2.33,0.22-4.66,0.56-6.97c0.34-2.31,0.78-4.6,1.34-6.87
			c0.56-2.27,1.2-4.51,2-6.72L485.49,271.1z"/>
	</g>
	<g>
		<path d="M465.41,272.65c3.09,3.8,5.09,8.28,6.55,12.87c1.42,4.62,2.21,9.41,2.42,14.23c0.07,2.41,0.07,4.82,0.01,7.22l-0.1,7.22
			c-0.04,4.81-0.11,9.62,0.06,14.43c-0.21-4.81-0.18-9.62-0.18-14.43l0.04-7.22c0.04-2.41,0.03-4.81-0.07-7.21
			c-0.25-4.79-1.08-9.56-2.53-14.13c-1.48-4.53-3.54-8.99-6.56-12.65L465.41,272.65z"/>
	</g>
	<g>
		<path d="M460.22,273.18l-0.03-0.52l-0.01-0.12l-0.01-0.05c0-0.01,0-0.01,0,0.01l0.02,0.03c-0.06,0.01,0.26,0.19,0.3,0.1
			c0.07-0.01,0.14-0.15,0.13-0.13l0.01-0.01l-0.02,0.2l-0.03,1.05l-0.02,2.11l0,4.23l0.04,8.46l0.04,8.46l0,4.23l-0.02,2.12
			l-0.02,0.53l-0.01,0.13c0,0.02,0,0.04-0.01,0.07c-0.05-0.01-0.02-0.04-0.04-0.06l-0.02-0.26l-0.05-1.06l0.06,1.06l0.03,0.26
			c0,0.02,0.02,0.05,0,0.05l0.01-0.06l0.01-0.13l0.01-0.53l-0.01-2.12l-0.06-4.23l-0.17-8.46l-0.16-8.46l-0.06-4.23l-0.01-2.12
			l0.01-1.07c0.01-0.1,0-0.15,0.03-0.32l0.01-0.03c-0.02,0.02,0.06-0.13,0.14-0.14c0.04-0.09,0.37,0.09,0.31,0.1l0.02,0.05
			c0.01,0.04,0.02,0.05,0.02,0.07l0.01,0.08l0.02,0.14l0.04,0.54L460.22,273.18z"/>
	</g>
	<g>
		<path d="M494.13,269.96c1.04,1.59,1.98,3.22,2.86,4.89c0.88,1.67,1.69,3.37,2.4,5.12c1.41,3.48,2.5,7.16,2.56,10.94
			c-0.14-3.77-1.31-7.41-2.79-10.84c-0.75-1.72-1.6-3.39-2.5-5.03c-0.91-1.63-1.89-3.25-2.94-4.78L494.13,269.96z"/>
	</g>
	<g>
		<path d="M504.43,268.72c0.46,3.78,0.94,7.55,1.46,11.32c0.26,1.88,0.54,3.77,0.84,5.64c0.33,1.87,0.56,3.77,1.18,5.57
			c-0.66-1.79-0.93-3.69-1.3-5.55c-0.34-1.87-0.66-3.75-0.96-5.63c-0.61-3.76-1.17-7.52-1.71-11.29L504.43,268.72z"/>
	</g>
	<g>
		<path d="M449.57,274.64c1.43,9.81,2.72,19.63,3.84,29.48c0.56,4.92,1.06,9.85,1.48,14.79c0.4,4.94,0.76,9.88,0.76,14.84
			c-0.04-4.96-0.44-9.9-0.89-14.83c-0.46-4.93-1-9.86-1.6-14.77c-1.2-9.83-2.58-19.65-4.09-29.43L449.57,274.64z"/>
	</g>
	<g>
		<path d="M442.33,275.5c-1.07,3.82-2.06,7.67-2.93,11.54c-0.44,1.94-0.83,3.88-1.17,5.84c-0.33,1.96-0.63,3.92-0.67,5.91
			c0-1.99,0.25-3.97,0.54-5.93c0.3-1.97,0.65-3.92,1.05-5.87c0.79-3.9,1.69-7.77,2.69-11.62L442.33,275.5z"/>
	</g>
	<g>
		<path d="M430.28,275.36c0.99,4.75,1.85,9.52,2.61,14.31c0.76,4.79,1.41,9.59,1.9,14.42c0.5,4.82,0.75,9.67,0.78,14.52l0.19,14.54
			l-0.32-14.53c-0.07-4.85-0.36-9.68-0.9-14.49c-0.52-4.81-1.22-9.61-2.02-14.38c-0.8-4.77-1.7-9.54-2.73-14.26L430.28,275.36z"/>
	</g>
	<g>
		<path d="M411.64,386.79l33.49,17.53l0.67,0.35l-0.73-0.2l-26.71-7.2c-8.91-2.37-17.8-4.82-26.73-7.11l-0.84-0.2
			c-0.14-0.03-0.28-0.07-0.42-0.09l-0.05-0.01c-0.01,0-0.01,0-0.01,0c-0.03-0.01,0.03,0.04,0.07-0.1c-0.05-0.13-0.01-0.04-0.01-0.06
			l0.04,0.02l0.19,0.08c0.53,0.21,1.08,0.4,1.62,0.59l3.26,1.14l6.53,2.26c4.35,1.52,8.7,3.06,13.02,4.66
			c4.32,1.6,8.63,3.24,12.88,5.04c2.12,0.9,4.23,1.83,6.3,2.86c1.03,0.52,2.05,1.05,3.04,1.66c0.49,0.3,0.97,0.62,1.43,0.98
			c0.44,0.36,0.91,0.74,1.12,1.29c-0.21-0.55-0.69-0.92-1.13-1.28c-0.45-0.35-0.94-0.67-1.43-0.97c-0.99-0.59-2.01-1.13-3.04-1.63
			c-2.07-1.01-4.18-1.93-6.31-2.82c-4.26-1.76-8.57-3.4-12.89-4.99c-4.33-1.59-8.67-3.12-13.03-4.63l-6.54-2.25l-3.27-1.13
			c-0.54-0.19-1.09-0.38-1.63-0.59l-0.2-0.09l-0.05-0.03c-0.03-0.04-0.03,0.04-0.1-0.12c0.06-0.15,0.14-0.1,0.12-0.11
			c0.02,0,0.03,0,0.04,0l0.06,0.01c0.15,0.03,0.29,0.06,0.43,0.1l0.84,0.2c8.94,2.28,17.84,4.68,26.74,7.09l26.69,7.26l-0.06,0.15
			L411.64,386.79z"/>
	</g>
	<g>
		<path d="M489.98,270.41c0.54,5.04,1.05,10.09,1.5,15.14c0.22,2.53,0.45,5.05,0.63,7.58c0.17,2.53,0.36,5.06,0.31,7.6
			c-0.01-2.53-0.27-5.06-0.5-7.58c-0.24-2.52-0.52-5.04-0.81-7.56c-0.58-5.03-1.21-10.06-1.88-15.08L489.98,270.41z"/>
	</g>
	<g>
		<path d="M474.69,272.15c0.96,2.53,1.83,5.08,2.6,7.67c0.39,1.29,0.74,2.59,1.04,3.91c0.29,1.31,0.56,2.64,0.64,3.99
			c-0.14-1.34-0.47-2.65-0.82-3.94c-0.36-1.29-0.77-2.57-1.21-3.84c-0.88-2.53-1.87-5.04-2.94-7.49L474.69,272.15z"/>
	</g>
	<g>
		<path d="M435.4,275.99c-0.23,1.71-0.41,3.44-0.52,5.17c-0.06,0.87-0.09,1.73-0.09,2.6c0.01,0.87,0.03,1.74,0.24,2.59
			c-0.27-0.83-0.36-1.71-0.43-2.58c-0.06-0.87-0.09-1.74-0.1-2.62c-0.01-1.75,0.04-3.49,0.15-5.24L435.4,275.99z"/>
	</g>
	<g>
		<path d="M446.18,275.12c-0.34,4.36-0.59,8.74-0.7,13.12c-0.06,2.19-0.09,4.38-0.05,6.57c0.04,2.19,0.13,4.38,0.38,6.56
			c-0.31-2.17-0.46-4.36-0.56-6.56c-0.11-2.19-0.14-4.39-0.14-6.58c-0.01-4.39,0.11-8.78,0.33-13.17L446.18,275.12z"/>
	</g>
	<path class="st0" d="M342.32,268.04c0,0-18.26,26.82-24.59,87.4c-4.98,47.64-8.65,82.04-9.99,94.57c-0.36,3.4-0.56,5.19-0.56,5.19
		s47.32,29.54,116.04,19.29c0,0-2.84-38.28,1.9-73.24V275.88L342.32,268.04z"/>
	<path class="st1" d="M422.91,452.08c0,0-19.27-0.31-40.07-0.01s-46.72-8.74-46.72-8.74s-11.74-4.01-20.02-8.55"/>
	<g>
		<path d="M350.03,268.8c-1.93,9.1-3.46,18.3-4.76,27.52c-1.29,9.22-2.28,18.49-2.95,27.78c0.59-9.3,1.49-18.58,2.71-27.82
			c1.21-9.24,2.66-18.45,4.51-27.59L350.03,268.8z"/>
	</g>
	<g>
		<path d="M364.08,270.09c0.79,2.21,1.44,4.45,2,6.72c0.55,2.27,1,4.56,1.34,6.87c0.34,2.31,0.51,4.64,0.56,6.97
			c0.03,2.33-0.15,4.66-0.51,6.96c0.32-2.31,0.46-4.63,0.39-6.96c-0.09-2.32-0.3-4.64-0.68-6.93c-0.38-2.29-0.86-4.57-1.45-6.81
			c-0.6-2.24-1.28-4.47-2.1-6.63L364.08,270.09z"/>
	</g>
	<g>
		<path d="M385.2,272.99c-3.03,3.66-5.08,8.11-6.56,12.65c-1.45,4.57-2.28,9.33-2.53,14.13c-0.1,2.4-0.11,4.8-0.07,7.21l0.04,7.22
			c-0.01,4.81,0.03,9.62-0.18,14.43c0.17-4.81,0.09-9.62,0.06-14.43l-0.1-7.22c-0.06-2.4-0.07-4.81,0.01-7.22
			c0.21-4.82,1-9.61,2.42-14.23c1.46-4.59,3.46-9.07,6.55-12.87L385.2,272.99z"/>
	</g>
	<g>
		<path d="M389.52,273.16l0.04-0.54l0.02-0.14l0.01-0.08c0-0.02,0-0.03,0.02-0.07l0.02-0.05c-0.06-0.02,0.27-0.2,0.31-0.1
			c0.07,0.01,0.15,0.16,0.14,0.14l0.01,0.03c0.03,0.17,0.02,0.22,0.03,0.32l0.01,1.07l-0.01,2.12l-0.06,4.23l-0.16,8.46l-0.17,8.46
			l-0.06,4.23l-0.01,2.12l0.01,0.53l0.01,0.13l0.01,0.06c-0.02,0.01,0-0.03,0-0.05l0.03-0.26l0.06-1.06l-0.05,1.06l-0.02,0.26
			c-0.01,0.02,0.01,0.05-0.04,0.06c-0.01-0.03-0.01-0.05-0.01-0.07l-0.01-0.13l-0.02-0.53l-0.02-2.12l0-4.23l0.04-8.46l0.04-8.46
			l0-4.23l-0.02-2.11l-0.03-1.05l-0.02-0.2l0.01,0.01c-0.02-0.02,0.06,0.12,0.13,0.13c0.04,0.09,0.36-0.08,0.3-0.1l0.02-0.03
			c0.01-0.02,0-0.01,0-0.01l-0.01,0.05l-0.01,0.12l-0.03,0.52L389.52,273.16z"/>
	</g>
	<g>
		<path d="M356.85,269.42c-1.06,1.53-2.03,3.14-2.94,4.78c-0.91,1.64-1.76,3.31-2.5,5.03c-1.48,3.43-2.65,7.07-2.79,10.84
			c0.06-3.78,1.15-7.45,2.56-10.94c0.71-1.75,1.53-3.45,2.4-5.12c0.88-1.67,1.82-3.3,2.86-4.89L356.85,269.42z"/>
	</g>
	<g>
		<path d="M346.3,268.78c-0.54,3.77-1.1,7.53-1.71,11.29c-0.3,1.88-0.62,3.76-0.96,5.63c-0.37,1.86-0.65,3.76-1.3,5.55
			c0.62-1.8,0.85-3.7,1.18-5.57c0.3-1.88,0.58-3.76,0.84-5.64c0.53-3.77,1.01-7.54,1.46-11.32L346.3,268.78z"/>
	</g>
	<g>
		<path d="M401.17,274.04c-1.51,9.79-2.89,19.6-4.09,29.43c-0.6,4.92-1.15,9.84-1.6,14.77c-0.45,4.93-0.85,9.87-0.89,14.83
			c0-4.96,0.36-9.9,0.76-14.84c0.41-4.94,0.92-9.87,1.48-14.79c1.12-9.85,2.41-19.67,3.84-29.48L401.17,274.04z"/>
	</g>
	<g>
		<path d="M408.95,274.61c1,3.85,1.9,7.72,2.69,11.62c0.4,1.95,0.75,3.9,1.05,5.87c0.29,1.96,0.55,3.94,0.54,5.93
			c-0.04-1.99-0.33-3.96-0.67-5.91c-0.34-1.96-0.73-3.9-1.17-5.84c-0.87-3.87-1.86-7.72-2.93-11.54L408.95,274.61z"/>
	</g>
	<g>
		<path d="M420.45,275.47c-1.02,4.73-1.93,9.49-2.73,14.26c-0.8,4.78-1.49,9.57-2.02,14.38c-0.54,4.81-0.84,9.65-0.9,14.49
			l-0.32,14.53l0.19-14.54c0.02-4.85,0.28-9.7,0.78-14.52c0.48-4.82,1.14-9.63,1.9-14.42c0.76-4.79,1.62-9.56,2.61-14.31
			L420.45,275.47z"/>
	</g>
	<g>
		<path d="M361.01,269.32c-0.66,5.02-1.29,10.05-1.88,15.08c-0.29,2.52-0.57,5.04-0.81,7.56c-0.23,2.52-0.49,5.05-0.5,7.58
			c-0.05-2.54,0.14-5.07,0.31-7.6c0.18-2.53,0.4-5.05,0.63-7.58c0.46-5.05,0.96-10.09,1.5-15.14L361.01,269.32z"/>
	</g>
	<g>
		<path d="M376.24,271.52c-1.06,2.46-2.05,4.96-2.94,7.49c-0.44,1.27-0.86,2.55-1.21,3.84c-0.35,1.29-0.68,2.6-0.82,3.94
			c0.08-1.35,0.34-2.67,0.64-3.99c0.3-1.32,0.65-2.62,1.04-3.91c0.77-2.59,1.64-5.14,2.6-7.67L376.24,271.52z"/>
	</g>
	<g>
		<path d="M394.79,272.78c0.11,1.75,0.16,3.49,0.15,5.24c-0.01,0.87-0.04,1.75-0.1,2.62c-0.07,0.87-0.16,1.75-0.43,2.58
			c0.21-0.85,0.23-1.72,0.24-2.59c0-0.87-0.03-1.73-0.09-2.6c-0.12-1.73-0.29-3.46-0.52-5.17L394.79,272.78z"/>
	</g>
	<g>
		<path d="M344.53,268.91c-1.89,4.14-3.58,8.41-4.86,12.79c-0.61,2.19-1.15,4.43-1.25,6.71l-0.29,6.86l0.1-6.87
			c0.04-2.31,0.52-4.58,1.08-6.8c1.16-4.45,2.74-8.77,4.54-13L344.53,268.91z"/>
	</g>
	<g>
		<path d="M404.73,274.1c0.22,4.39,0.34,8.78,0.33,13.17c-0.01,2.2-0.04,4.39-0.14,6.58c-0.11,2.19-0.25,4.38-0.56,6.56
			c0.25-2.18,0.33-4.37,0.38-6.56c0.04-2.19,0.01-4.38-0.05-6.57c-0.12-4.38-0.36-8.76-0.7-13.12L404.73,274.1z"/>
	</g>
	<g>
		<path d="M415.2,275.26c0.11,1.75,0.16,3.49,0.15,5.24c-0.01,0.87-0.04,1.75-0.1,2.62c-0.07,0.87-0.16,1.75-0.43,2.58
			c0.21-0.85,0.23-1.72,0.24-2.59c0-0.87-0.03-1.73-0.09-2.6c-0.12-1.73-0.29-3.46-0.52-5.17L415.2,275.26z"/>
	</g>
	<g>
		<path d="M455.08,274.16c-0.23,1.71-0.41,3.44-0.52,5.17c-0.06,0.87-0.09,1.73-0.09,2.6c0.01,0.87,0.03,1.74,0.24,2.59
			c-0.27-0.83-0.36-1.71-0.43-2.58c-0.06-0.87-0.09-1.74-0.1-2.62c-0.01-1.75,0.04-3.49,0.15-5.24L455.08,274.16z"/>
	</g>
	<g>
		<path d="M500.45,241.52c0.44,2.18,0.81,4.38,1.13,6.58c0.32,2.2,0.56,4.42,0.78,6.63c0.17,2.22,0.32,4.45,0.34,6.68
			c-0.02,2.22-0.08,4.49-0.74,6.63c0.24-1.09,0.35-2.19,0.37-3.3c0.05-1.11,0.02-2.22-0.01-3.32c-0.1-2.22-0.24-4.43-0.45-6.64
			c-0.18-2.21-0.43-4.42-0.66-6.63L500.45,241.52z"/>
	</g>
	<g>
		<path d="M493.93,244.69c0.48,1.75,0.87,3.53,1.23,5.31c0.36,1.78,0.65,3.57,0.92,5.37c0.23,1.8,0.45,3.61,0.54,5.43
			c0.09,1.81,0.13,3.65-0.13,5.45c0.06-1.82-0.09-3.62-0.25-5.42c-0.17-1.8-0.38-3.6-0.65-5.39c-0.23-1.8-0.52-3.58-0.8-5.37
			L493.93,244.69z"/>
	</g>
	<g>
		<path d="M489.61,243.18c-0.06,4.09-0.25,8.16-0.33,12.23c-0.08,2.04-0.1,4.07-0.11,6.11c-0.01,1.02,0.01,2.04,0.05,3.05
			c0.03,0.51,0.03,1.02,0.1,1.52c0.03,0.25,0.05,0.51,0.1,0.76l0.19,0.74c-0.72-1.93-0.71-4.03-0.82-6.06
			c-0.07-2.04-0.04-4.09,0-6.13C488.92,251.32,489.14,247.24,489.61,243.18z"/>
	</g>
	<g>
		<path d="M484.09,270.1c0.17-1.28,0.32-2.56,0.43-3.84c0.11-1.28,0.21-2.56,0.23-3.84c0.04-1.28,0-2.56-0.08-3.84
			c-0.11-1.28-0.29-2.54-0.58-3.8c0.48,1.2,0.77,2.48,0.96,3.76c0.16,1.29,0.2,2.59,0.2,3.89c-0.06,1.3-0.15,2.59-0.34,3.87
			C484.7,267.59,484.46,268.86,484.09,270.1z"/>
	</g>
	<g>
		<path d="M476.65,244.69l0.32,6.49c0.11,2.16,0.19,4.33,0.33,6.48c0.1,2.16,0.26,4.32,0.45,6.47c0.09,1.08,0.21,2.15,0.37,3.22
			c0.08,0.53,0.16,1.07,0.28,1.59c0.13,0.52,0.25,1.06,0.56,1.51c-0.34-0.43-0.51-0.96-0.67-1.48c-0.17-0.52-0.29-1.05-0.4-1.58
			c-0.21-1.07-0.37-2.14-0.51-3.22c-0.27-2.16-0.42-4.32-0.56-6.49c-0.1-2.17-0.19-4.33-0.22-6.5
			C476.56,249.02,476.58,246.85,476.65,244.69z"/>
	</g>
	<g>
		<path d="M465.23,245.74c1.06,1.83,1.95,3.76,2.71,5.74c0.77,1.98,1.38,4.01,1.87,6.08c0.43,2.08,0.73,4.19,0.79,6.32
			c0.01,2.13-0.24,4.26-0.82,6.29c0.4-2.08,0.52-4.18,0.44-6.28c-0.14-2.1-0.43-4.18-0.9-6.23c-0.45-2.05-1.06-4.07-1.75-6.06
			c-0.34-1-0.71-1.98-1.11-2.96C466.09,247.67,465.68,246.7,465.23,245.74z"/>
	</g>
	<g>
		<path d="M460.6,245.74c-0.08,2.19-0.17,4.37-0.21,6.55l-0.05,3.27l-0.01,3.28c-0.37-2.17-0.48-4.37-0.44-6.57
			c0.03-1.1,0.08-2.2,0.2-3.29C460.22,247.9,460.36,246.81,460.6,245.74z"/>
	</g>
	<g>
		<path d="M456.25,244.69c0.02,2.13,0.03,4.25,0.02,6.38l-0.06,6.38l-0.09,6.37c-0.02,1.06-0.02,2.12-0.01,3.19
			c0.02,1.06-0.03,2.13,0.15,3.18c-0.43-2.09-0.44-4.24-0.52-6.36c-0.05-2.13-0.04-4.26-0.03-6.38c0.05-2.13,0.09-4.25,0.18-6.38
			C455.97,248.93,456.09,246.81,456.25,244.69z"/>
	</g>
	<g>
		<path d="M463.04,272.29c0.4-0.91,0.85-1.75,1.25-2.62c0.21-0.43,0.4-0.86,0.57-1.3c0.17-0.44,0.31-0.89,0.36-1.38
			c0.16,0.48,0.1,1,0.01,1.49c-0.1,0.49-0.28,0.96-0.49,1.41c-0.22,0.44-0.46,0.88-0.75,1.28
			C463.71,271.57,463.41,271.95,463.04,272.29z"/>
	</g>
	<g>
		<path d="M452.48,272.82c-0.41-0.42-0.72-0.93-0.98-1.45c-0.27-0.52-0.47-1.08-0.62-1.65c-0.29-1.14-0.4-2.33-0.2-3.49
			c0.11,0.58,0.19,1.14,0.31,1.7c0.11,0.56,0.24,1.11,0.38,1.66C451.65,270.69,452.02,271.75,452.48,272.82z"/>
	</g>
	<g>
		<path d="M444.04,245.74c0.68,2.13,1.17,4.31,1.55,6.52c0.38,2.2,0.63,4.43,0.78,6.66c0.12,2.23,0.19,4.47,0.08,6.71
			c-0.03,1.12-0.13,2.23-0.22,3.34c-0.1,1.11-0.29,2.22-0.43,3.32c0.14-2.23,0.27-4.45,0.27-6.68c0.03-2.22-0.04-4.45-0.19-6.66
			c-0.11-2.22-0.37-4.43-0.66-6.64C444.91,250.11,444.55,247.91,444.04,245.74z"/>
	</g>
	<g>
		<path d="M437.56,246.65c0.54,2.01,0.93,4.05,1.27,6.11c0.33,2.05,0.55,4.12,0.72,6.2c0.11,2.08,0.18,4.16,0.08,6.25
			c-0.12,2.08-0.36,4.16-0.87,6.18c0.6-4.11,0.58-8.26,0.28-12.39c-0.13-2.07-0.36-4.12-0.6-6.18
			C438.2,250.75,437.9,248.7,437.56,246.65z"/>
	</g>
	<g>
		<path d="M431.69,246.65l-0.04,6.6c-0.01,2.2-0.04,4.4-0.01,6.59c-0.01,2.2,0.04,4.39,0.14,6.58c0.05,1.1,0.12,2.19,0.25,3.28
			c0.06,0.54,0.13,1.09,0.25,1.62c0.12,0.53,0.25,1.08,0.62,1.5c-0.4-0.39-0.58-0.95-0.74-1.47c-0.16-0.53-0.27-1.07-0.37-1.62
			c-0.18-1.09-0.29-2.19-0.39-3.29c-0.18-2.2-0.22-4.4-0.25-6.61c0.01-2.2,0.03-4.4,0.13-6.6
			C431.35,251.04,431.49,248.84,431.69,246.65z"/>
	</g>
	<g>
		<path d="M422.19,247.4l-0.56,6.71c-0.09,1.11-0.16,2.23-0.2,3.35c-0.04,1.12-0.05,2.23,0.01,3.36c-0.27-1.1-0.36-2.23-0.4-3.36
			c-0.05-1.13,0.01-2.26,0.09-3.38c0.09-1.12,0.21-2.24,0.4-3.36C421.7,249.6,421.91,248.49,422.19,247.4z"/>
	</g>
	<g>
		<path d="M415.18,247.4c1.27,4.19,1.8,8.59,1.87,12.96c0.01,2.19-0.11,4.39-0.41,6.56c-0.26,2.18-0.82,4.31-1.46,6.4
			c0.21-1.07,0.5-2.13,0.63-3.21l0.27-1.61l0.18-1.62c0.22-2.16,0.35-4.33,0.3-6.51c0-2.17-0.14-4.35-0.37-6.51
			c-0.12-1.08-0.25-2.16-0.42-3.24C415.61,249.54,415.42,248.46,415.18,247.4z"/>
	</g>
	<g>
		<path d="M409.53,247.4c-0.39,2.06-0.77,4.13-1.14,6.19c-0.36,2.06-0.72,4.13-0.98,6.2c-0.29,2.07-0.53,4.16-0.48,6.23
			c0.04,1.02,0.21,2.07,0.32,3.11l0.32,3.13c-0.36-2.07-0.8-4.11-1.03-6.23c-0.13-2.12,0.12-4.23,0.37-6.31
			c0.3-2.08,0.66-4.15,1.1-6.21C408.46,251.46,408.96,249.42,409.53,247.4z"/>
	</g>
	<g>
		<path d="M400.92,247.4c0.58,1.57,1.07,3.18,1.52,4.79c0.44,1.62,0.81,3.26,1.13,4.91c0.27,1.66,0.52,3.33,0.44,5.04
			c-0.12,1.68-0.29,3.34-0.5,5c0-1.67,0.08-3.35,0.11-5.02c0-1.65-0.24-3.3-0.55-4.94C402.5,253.9,401.68,250.66,400.92,247.4z"/>
	</g>
	<g>
		<path d="M394.59,246.65l-0.77,11.06c-0.14,1.84-0.23,3.68-0.32,5.52c-0.07,1.84-0.12,3.69,0.05,5.53
			c-0.39-1.82-0.43-3.69-0.44-5.53c0-1.85,0.1-3.7,0.2-5.55c0.15-1.84,0.29-3.69,0.51-5.53
			C394.04,250.3,394.28,248.47,394.59,246.65z"/>
	</g>
	<g>
		<path d="M388.29,246.65c0.37,0.6,0.64,1.25,0.88,1.91c0.24,0.66,0.42,1.34,0.55,2.03c0.26,1.38,0.36,2.8,0.19,4.19l-0.31-2.06
			c-0.11-0.68-0.23-1.36-0.36-2.03C388.97,249.33,388.64,248,388.29,246.65z"/>
	</g>
	<g>
		<path d="M381.81,245.74c-0.38,1.9-0.74,3.8-1.07,5.71c-0.32,1.91-0.64,3.81-0.87,5.73c-0.51,3.83-0.8,7.69-0.62,11.56
			c-0.3-1.92-0.37-3.87-0.34-5.82c0.05-1.95,0.24-3.88,0.46-5.81c0.27-1.92,0.59-3.84,0.99-5.74
			C380.77,249.48,381.22,247.59,381.81,245.74z"/>
	</g>
	<g>
		<path d="M371.28,244.69c0.21,2.01,0.34,4.03,0.45,6.05c0.11,2.02,0.16,4.04,0.2,6.07c0,2.02,0,4.05-0.16,6.08
			c-0.06,2.06-0.84,3.99-1.41,5.91c0.38-2,1.05-3.92,1.03-5.94c0.08-2.01,0.08-4.03,0.04-6.05
			C371.41,252.77,371.27,248.73,371.28,244.69z"/>
	</g>
	<g>
		<path d="M362.82,268.8c-0.31-2.12-0.4-4.27-0.34-6.42c0.05-1.07,0.12-2.15,0.3-3.21c0.2-1.05,0.42-2.16,1.07-3.03
			c-0.23,0.49-0.38,0.99-0.47,1.51c-0.11,0.52-0.17,1.04-0.22,1.57c-0.09,1.06-0.15,2.12-0.18,3.18L362.82,268.8z"/>
	</g>
	<g>
		<path d="M359.22,243.78c0.18,1.88,0.28,3.76,0.37,5.64c0.08,1.88,0.1,3.76,0.12,5.65c-0.02,1.88-0.05,3.77-0.18,5.65
			c-0.07,0.94-0.15,1.88-0.29,2.82c-0.07,0.47-0.15,0.93-0.27,1.39c-0.11,0.46-0.24,0.93-0.52,1.31c0.43-0.84,0.45-1.81,0.55-2.73
			c0.08-0.93,0.12-1.87,0.14-2.81c0.05-1.88,0.08-3.75,0.07-5.63C359.24,251.31,359.16,247.55,359.22,243.78z"/>
	</g>
	<g>
		<path d="M354.12,241.52c-0.39,3.8-0.9,7.58-1.32,11.37c-0.23,1.89-0.43,3.79-0.61,5.68c-0.16,1.9-0.34,3.8-0.22,5.7
			c-0.33-1.89-0.24-3.82-0.16-5.73c0.1-1.91,0.3-3.81,0.5-5.71C352.77,249.04,353.32,245.26,354.12,241.52z"/>
	</g>
	<g>
		<path d="M348.38,241.52c-0.2,2.14-0.41,4.28-0.65,6.42l-0.71,6.4c-0.26,2.13-0.48,4.27-0.71,6.4c-0.11,1.07-0.21,2.14-0.29,3.2
			c-0.05,0.53-0.08,1.07-0.1,1.6c0,0.53-0.06,1.08,0.14,1.59c-0.24-0.49-0.22-1.05-0.26-1.59c-0.02-0.54-0.03-1.08-0.02-1.62
			c0.03-1.08,0.08-2.15,0.15-3.23c0.14-2.15,0.37-4.29,0.59-6.43c0.26-2.13,0.52-4.27,0.83-6.4
			C347.65,245.76,347.99,243.64,348.38,241.52z"/>
	</g>
	<path class="st0" d="M427.79,455.28c0,0,18.07-0.31,38.87-0.01s46.72-8.74,46.72-8.74s19.22-7.21,27.5-11.74"/>
	<path class="st0" d="M422.45,455.26c0,0-18.08-0.29-38.88,0.01s-46.72-8.74-46.72-8.74s-19.92-7.51-28.19-12.04"/>
	<g>
		<path d="M421.35,275.05c0.4-0.91,0.85-1.75,1.25-2.62c0.21-0.43,0.4-0.86,0.57-1.3c0.17-0.44,0.31-0.89,0.36-1.38
			c0.16,0.48,0.1,1,0.01,1.49c-0.1,0.49-0.28,0.96-0.49,1.41c-0.22,0.44-0.46,0.88-0.75,1.28
			C422.02,274.32,421.72,274.71,421.35,275.05z"/>
	</g>
	<g>
		<path d="M430.94,274.67c-0.41-0.42-0.72-0.93-0.98-1.45c-0.27-0.52-0.47-1.08-0.62-1.65c-0.29-1.14-0.4-2.33-0.2-3.49
			c0.11,0.58,0.19,1.14,0.31,1.7c0.11,0.56,0.24,1.11,0.38,1.66C430.11,272.54,430.47,273.6,430.94,274.67z"/>
	</g>
	<g>
		<path d="M405.87,273.93c-0.41-0.42-0.72-0.93-0.98-1.45c-0.27-0.52-0.47-1.08-0.62-1.65c-0.29-1.14-0.4-2.33-0.2-3.49
			c0.11,0.58,0.19,1.14,0.3,1.7c0.11,0.56,0.24,1.11,0.38,1.66C405.04,271.8,405.4,272.86,405.87,273.93z"/>
	</g>
	<g>
		<path d="M373.64,271.45c0.4-0.91,0.85-1.75,1.25-2.62c0.21-0.43,0.4-0.86,0.57-1.3c0.17-0.44,0.31-0.89,0.36-1.38
			c0.16,0.48,0.1,1,0.01,1.49c-0.1,0.49-0.28,0.96-0.49,1.41c-0.22,0.44-0.46,0.88-0.75,1.28
			C374.31,270.72,374,271.11,373.64,271.45z"/>
	</g>
	<g>
		<path d="M386.82,272.04c-0.41-0.42-0.72-0.93-0.98-1.45c-0.27-0.52-0.47-1.08-0.62-1.65c-0.29-1.14-0.4-2.33-0.2-3.49
			c0.11,0.58,0.19,1.14,0.31,1.7c0.11,0.56,0.24,1.11,0.38,1.66C385.99,269.91,386.36,270.98,386.82,272.04z"/>
	</g>
	<path class="st2" d="M512.11,295.27"/>
	<path class="st2" d="M537.08,436.7l-6.3-60.09l-5.36-45.96c0,0-7.91-29.66-9.45-36.4c-1.53-6.75-9.92-25.5-9.92-25.5"/>
	<path class="st1" d="M535.21,436.7l-6.3-60.09l-5.36-45.96c0,0-7.91-29.66-9.45-36.4c-1.53-6.75-9.92-25.5-9.92-25.5"/>
	<path class="st2" d="M312.96,436.7l6.3-60.09l5.36-45.96c0,0,7.91-29.66,9.45-36.4c1.53-6.75,9.92-25.5,9.92-25.5"/>
	<path class="st1" d="M314.83,436.7l6.3-60.09l5.36-45.96c0,0,7.91-29.66,9.45-36.4c1.53-6.75,9.92-25.5,9.92-25.5"/>
</g>
</svg>
