<svg id="Layer_1" data-name="Layer 1" xmlns="http://www.w3.org/2000/svg" viewBox="0 0 529.58 356.15"><defs>
<style>
.cls-1,.cls-4{}
.cls-1,.cls-3,.cls-5,.cls-6{stroke:#231f20;stroke-miterlimit:10;}
.cls-2{}
.cls-3,.cls-5,.cls-6{}
.cls-3{stroke-width:0.75px;}
.cls-6{stroke-width:0.5px;}
</style></defs><path class="cls-1" d="M244.27,435.11s-13,.47-27.55.9c-25.74.75-62.71,1.38-70.21-.9l47.88,106.21s42.66-14.31,55.34-9.94c2.08.72,3.36,1.94,3.5,3.82,0,0,22,2.55,33.7-12.77C286.93,522.43,272.11,453.49,244.27,435.11Z" transform="translate(-38.56 -186.75)"/><polygon class="cls-2" points="178.52 249.13 213.88 346.29 177.81 249.38 178.52 249.13"/><path class="cls-3" d="M247.63,259.52c-4.6-6.64-10.72-2.56-10.72-2.56V188h10.72Z" transform="translate(-38.56 -186.75)"/><path class="cls-3" d="M252.22,349.39s-6.63-10.73-80.68-11.75c0,0,6.26-35.61,65.37-80.68a7.89,7.89,0,0,1,6.38-.92,7.79,7.79,0,0,1,4.34,3.48c2.58,6,12.43,35.08,12.72,64.67C260.47,335.9,259.33,330.32,252.22,349.39Z" transform="translate(-38.56 -186.75)"/><line class="cls-3" x1="183.68" y1="154.47" x2="186.07" y2="142.34"/><path class="cls-1" d="M79.64,259.52c4.59-6.64,10.72-2.56,10.72-2.56V188H79.64Z" transform="translate(-38.56 -186.75)"/><path class="cls-1" d="M75,349.39s6.64-10.73,80.68-11.75c0,0-6.25-35.61-65.36-80.68A7.91,7.91,0,0,0,84,256a7.71,7.71,0,0,0-4.33,3.48c-2.58,6-12.44,35.08-12.73,64.67C66.8,335.9,67.94,330.32,75,349.39Z" transform="translate(-38.56 -186.75)"/><polygon class="cls-2" points="66.1 154.54 64.08 142.34 66.84 154.4 66.1 154.54"/><path class="cls-1" d="M86,429.49s8.74,2.9,23.31,3.32c25.75.76,60.77,4.4,69.91,3.89L131.65,542.22s-38.08-19.31-50.76-14.94c-2.08.72.29,5.45.15,7.32,0,0-30.19,4-41.94-11.27C39.1,523.33,58.15,447.88,86,429.49Z" transform="translate(-38.56 -186.75)"/><line class="cls-4" x1="79.87" y1="246.36" x2="42.33" y2="340.53"/><polygon class="cls-2" points="80.21 246.5 42.33 340.53 79.52 246.22 80.21 246.5"/><path class="cls-5" d="M252.22,349.39s-4.09,11.47-1.54,16.81,4.54,19.49,1.76,28.63" transform="translate(-38.56 -186.75)"/><line class="cls-6" x1="205.48" y1="245.04" x2="205.48" y2="248.36"/><path class="cls-1" d="M154.75,334.06s6.48-.58,14.73-.64c10.11-.08,22.88.63,29.62,4.15,12.26,6.39,14.56,7.92,28.09,19.92s22.67,30.24,25.25,37.34,4.11,18.58,6.15,26.49,1.77,10.47,1.77,10.47H244s-10.72-3.37-17.87-5.9-41.11-10.18-45.45-8.14c0,0-2.81.77-7.4-11.49S154.75,334.06,154.75,334.06Z" transform="translate(-38.56 -186.75)"/><path class="cls-4" d="M216.72,408.81s-16.59-21.83-23.23-40-15.07-27.57-15.07-27.57l-8.94-7.8" transform="translate(-38.56 -186.75)"/><path class="cls-2" d="M216.42,409c-3.87-5.24-7.49-10.65-10.92-16.18a167.86,167.86,0,0,1-9.34-17.13c-1.35-3-2.53-6-3.66-9.05s-2.43-6-3.86-8.93-3-5.78-4.65-8.55a65.75,65.75,0,0,0-5.6-7.95h0l-8.91-7.83,9,7.76h0a65.05,65.05,0,0,1,5.68,7.93c1.72,2.76,3.29,5.61,4.74,8.52s2.75,5.9,3.94,8.93,2.35,6.05,3.72,9a168,168,0,0,0,9.46,17c3.46,5.48,7.12,10.86,11,16Z" transform="translate(-38.56 -186.75)"/><path class="cls-1" d="M75,349.39s2.53,15.76-2.57,28-2.7,17.23-2.7,17.23,7.82-9.06,35.26-3.19,26.67,2.3,26.67,2.3,19.91-8.56,31.91-21.64l-7.89-34.47S95.74,335.92,75,349.39Z" transform="translate(-38.56 -186.75)"/><path class="cls-4" d="M160.3,357.49l-39.07,10.22s-25,5.92-26-1.51S98,359.79,98,359.79" transform="translate(-38.56 -186.75)"/><path class="cls-2" d="M160.39,357.86l-37,9.47a82.64,82.64,0,0,1-9.37,1.88,67.31,67.31,0,0,1-9.51.82,25.51,25.51,0,0,1-4.77-.38,10.19,10.19,0,0,1-2.28-.7,4.45,4.45,0,0,1-1.87-1.48,4.92,4.92,0,0,1-.58-2.31,13.51,13.51,0,0,1,0-2.38,4.56,4.56,0,0,1,.8-2.23,2.16,2.16,0,0,1,2.14-.76,2.14,2.14,0,0,0-2.12.78,4.56,4.56,0,0,0-.78,2.21,13.51,13.51,0,0,0,0,2.38,4.86,4.86,0,0,0,.58,2.26,6.41,6.41,0,0,0,4.11,2.1,25.88,25.88,0,0,0,4.74.32,67,67,0,0,0,9.47-.91,82.52,82.52,0,0,0,9.32-2l36.87-9.84Z" transform="translate(-38.56 -186.75)"/><path class="cls-4" d="M162.86,368.79A92.93,92.93,0,0,1,123,377.92c-22.72,0-26,2-26,2" transform="translate(-38.56 -186.75)"/><path class="cls-2" d="M163,369.12a87,87,0,0,1-15.88,5.79,93.6,93.6,0,0,1-16.63,2.86c-5.62.48-11.24.19-16.85.39-2.81.06-5.62.19-8.41.42-1.4.11-2.8.25-4.19.45A17.84,17.84,0,0,0,97,380a17.73,17.73,0,0,1,4.08-1c1.39-.21,2.79-.37,4.19-.5,2.8-.26,5.6-.41,8.41-.51,5.62-.26,11.25,0,16.83-.58a91.42,91.42,0,0,0,16.51-3,85.06,85.06,0,0,0,15.68-5.9Z" transform="translate(-38.56 -186.75)"/><path class="cls-1" d="M71.7,392.47s-31.24,34.22-32.6,51.58c0,0,54.05,14.81,57.11,18.38s35.49-68.68,35.49-68.68-18.89,1.53-24-1.28S78.59,386.86,71.7,392.47Z" transform="translate(-38.56 -186.75)"/><polygon class="cls-1" points="317.11 0.5 328 0.5 328 138.71 317.11 137.44 317.11 0.5"/><path class="cls-5" d="M350.26,389.09" transform="translate(-38.56 -186.75)"/><polygon class="cls-1" points="484 0.5 473.11 0.5 473.11 138.71 484 137.44 484 0.5"/><path class="cls-1" d="M438.69,331.59c17.83,0,96.8-10,96.8-10s-9.44,29.62-9.44,32.43-86.94,4.59-86.94,4.59-87.36-1.78-87.36-4.59-9.45-32.43-9.45-32.43S420.86,331.59,438.69,331.59Z" transform="translate(-38.56 -186.75)"/><path class="cls-5" d="M526.47,354.06l2.81,7.15V388l-3.06,1.07,6.89,37.25c-9.19,9-94,7.38-94,7.38s-84.81,1.58-94-7.38l6.9-37.25L348.94,388V361.21l2.81-7.15" transform="translate(-38.56 -186.75)"/><path class="cls-5" d="M529.52,428.29c29.1,34.92,38.06,92,38.06,92-39.06,17.62-128.47,19.92-128.47,19.92s-89.4-2.3-128.47-19.92c0,0,9-57.06,38.06-92" transform="translate(-38.56 -186.75)"/><path class="cls-4" d="M352,389.09c17.06,6.77,30.7,7.48,40.08,6.84,16.19-1.1,23.41-6.47,39.83-6.84A84.16,84.16,0,0,1,466.64,396" transform="translate(-38.56 -186.75)"/><path class="cls-2" d="M352.14,388.75a97.19,97.19,0,0,0,28.27,6.84,79.79,79.79,0,0,0,14.58-.15,94.82,94.82,0,0,0,14.35-2.73,122.51,122.51,0,0,1,14.32-3.1,75.42,75.42,0,0,1,14.64-.48A85.34,85.34,0,0,1,466.64,396a85.39,85.39,0,0,0-28.35-6.71,75.71,75.71,0,0,0-14.59.58,122.93,122.93,0,0,0-14.27,3.19A97.63,97.63,0,0,1,395,395.91a81.69,81.69,0,0,1-14.67.25,97.85,97.85,0,0,1-28.5-6.72Z" transform="translate(-38.56 -186.75)"/><path class="cls-4" d="M526.22,389.09a64.38,64.38,0,0,1-9.11,2.58c-10.3,2.13-19.31,1.37-33.1-1.29a314.87,314.87,0,0,1-38.81-10.11" transform="translate(-38.56 -186.75)"/><path class="cls-2" d="M526.35,389.45a63,63,0,0,1-20.42,3.73,106.66,106.66,0,0,1-20.63-2.36,317.07,317.07,0,0,1-40.1-10.55,316.3,316.3,0,0,0,40.17,10.18,105.44,105.44,0,0,0,20.55,2.16,61.81,61.81,0,0,0,20.17-3.87Z" transform="translate(-38.56 -186.75)"/><path class="cls-4" d="M533.11,426.34s-55.91,3.51-69.53,0" transform="translate(-38.56 -186.75)"/><path class="cls-2" d="M533.14,426.71q-17.4.94-34.82,1.25c-5.81.08-11.61.11-17.42,0-2.9-.09-5.8-.18-8.7-.42a58.16,58.16,0,0,1-8.62-1.16,58.15,58.15,0,0,0,8.63,1.07c2.89.2,5.79.26,8.69.32,5.81.09,11.61,0,17.41-.14q17.4-.48,34.78-1.63Z" transform="translate(-38.56 -186.75)"/></svg>