<?xml version="1.0" encoding="utf-8"?>
<!-- Generator: Adobe Illustrator 25.2.0, SVG Export Plug-In . SVG Version: 6.00 Build 0)  -->
<svg version="1.1" id="Layer_1" xmlns="http://www.w3.org/2000/svg" xmlns:xlink="http://www.w3.org/1999/xlink" x="0px" y="0px"
	 viewBox="0 0 595.28 841.89" style="enable-background:new 0 0 595.28 841.89;" xml:space="preserve">
<style type="text/css">
	.st0{stroke:#000000;stroke-miterlimit:10;}
	.st1{stroke:#000000;stroke-width:0.5;stroke-miterlimit:10;}
	.st2{stroke:#000000;stroke-width:0.5;stroke-miterlimit:10;stroke-dasharray:0.9691,0.9691;}
	.st3{stroke:#000000;stroke-width:0.75;stroke-miterlimit:10;}
	.st4{stroke:#000000;stroke-width:0.5;stroke-miterlimit:10;stroke-dasharray:1;}
</style>
<g>
	<polygon class="st0" points="87.47,289.89 92.99,289.89 105.04,366.35 103.32,366.35 	"/>
	<path class="st0" d="M67.15,534.08c0,0-13.78-5.51-28.59,2.07l1.38-74.67c0,0,3.44-8.34,3.44-11.78s0.69-7.92,1.72-13.09
		c1.03-5.17-0.92-7.81-0.92-7.81s-0.69-2.41,0.57-5.74c1.26-3.33,4.36-20.67,4.36-20.67l6.66-28.64c0,0,1.21-2.93-0.69-5.34
		c-1.89-2.41-6.2-10.5-4.82-16.53c1.38-6.03,2.58-17.22,2.58-17.22s-2.41-12.05-1.21-14.29c1.21-2.24,1.38-7.4,8.09-9.82
		c6.72-2.41,16.25-15.04,16.25-15.04s9.41-7.58,11.48-5.63c2.07,1.95,15.84,76.46,15.84,76.46s-3.67-1.26-14.92,37.08
		s-11.25,33.29-11.25,33.29s-1.15,8.73-1.38,11.02c-0.23,2.3-5.28,6.2-4.82,9.41c0.46,3.21,2.53,5.74,1.15,10.1
		s-2.76,2.76-2.53,10.33C69.79,485.18,67.15,534.08,67.15,534.08z"/>
	<path class="st0" d="M38.57,536.15c0,0,14.01,5.28,28.59-2.07"/>
	<g>
		<g>
			<path class="st1" d="M38.57,531.33c0,0,0.15-0.09,0.44-0.23"/>
			<path class="st2" d="M39.88,530.69c3.1-1.32,11.7-4.05,26.28-1.82"/>
			<path class="st1" d="M66.66,528.95c0.16,0.03,0.33,0.05,0.5,0.08"/>
		</g>
	</g>
	<g>
		<path d="M87.58,297.01c-2.36,1.12-4.62,2.49-6.79,3.97c-2.16,1.5-4.23,3.13-6.1,4.98c-1.86,1.86-3.55,3.89-4.9,6.15
			c-1.3,2.29-2.22,4.79-2.63,7.4c0.37-2.62,1.25-5.14,2.52-7.46c1.33-2.29,3-4.37,4.84-6.27c1.85-1.89,3.92-3.57,6.06-5.11
			c2.16-1.53,4.41-2.93,6.8-4.12L87.58,297.01z"/>
	</g>
	<g>
		<path d="M92.14,311.22c-0.34,2.15-0.89,4.23-1.56,6.28c-0.68,2.04-1.52,4.04-2.54,5.94c-1.04,1.89-2.28,3.66-3.73,5.26
			c-1.48,1.57-3.21,2.88-5.1,3.9c1.87-1.06,3.57-2.39,5.01-3.98c1.4-1.62,2.6-3.4,3.6-5.29c0.97-1.91,1.76-3.9,2.4-5.94
			c0.63-2.04,1.14-4.13,1.42-6.23L92.14,311.22z"/>
	</g>
	<g>
		<path d="M94.46,330.16c0.03-0.32-0.01-0.73-0.15-0.89c-0.08-0.14-0.42-0.02-0.7,0.19c-0.57,0.41-1.06,1-1.53,1.57
			c-0.94,1.16-1.79,2.4-2.61,3.66c-1.64,2.52-3.15,5.13-4.66,7.74l-9.04,15.66l8.82-15.78c1.47-2.63,2.95-5.26,4.56-7.82
			c0.81-1.28,1.64-2.54,2.58-3.73c0.48-0.59,0.96-1.19,1.6-1.67c0.16-0.12,0.34-0.23,0.56-0.31c0.21-0.08,0.57-0.07,0.77,0.17
			c0.33,0.44,0.3,0.85,0.29,1.27L94.46,330.16z"/>
	</g>
	<g>
		<path d="M98.84,343.52c-0.01,1.88-0.18,3.73-0.5,5.56c-0.32,1.83-0.8,3.64-1.5,5.37c-0.35,0.86-0.77,1.69-1.25,2.49
			c-0.5,0.79-1.06,1.53-1.63,2.25l-3.38,4.4l3.28-4.47c0.56-0.74,1.1-1.49,1.57-2.28c0.45-0.8,0.85-1.63,1.18-2.49
			c0.66-1.72,1.08-3.52,1.36-5.33c0.28-1.81,0.41-3.67,0.37-5.49L98.84,343.52z"/>
	</g>
	<g>
		<path d="M101.74,358.33c-0.71-0.09-1.51,0.04-2.23,0.3c-0.73,0.26-1.4,0.68-2,1.17c-0.62,0.49-1.11,1.11-1.59,1.74
			c-0.23,0.32-0.43,0.66-0.65,1l-0.56,1.06l0.5-1.09c0.2-0.35,0.39-0.7,0.6-1.04c0.45-0.66,0.92-1.32,1.53-1.86
			c0.59-0.55,1.27-1.02,2.03-1.34c0.76-0.31,1.56-0.51,2.44-0.44L101.74,358.33z"/>
	</g>
	<g>
		<path d="M53.1,334.59c0.79,2.56,1.52,5.13,2.21,7.71c0.34,1.29,0.66,2.59,0.94,3.9c0.27,1.31,0.55,2.63,0.58,3.96
			c-0.07-1.34-0.39-2.64-0.7-3.94c-0.32-1.29-0.69-2.58-1.06-3.86c-0.76-2.56-1.58-5.1-2.44-7.62L53.1,334.59z"/>
	</g>
	<g>
		<path d="M55.99,373.61c1.58,2.21,2.98,4.53,4.12,6.98c0.58,1.22,1.05,2.5,1.38,3.81c0.32,1.3,0.51,2.69,0.15,4.01
			c0.32-1.32,0.08-2.69-0.27-3.97c-0.37-1.29-0.88-2.53-1.49-3.73c-1.21-2.39-2.68-4.66-4.29-6.78L55.99,373.61z"/>
	</g>
	<path class="st1" d="M45.11,436.61"/>
	<g>
		<polygon points="93.27,388.53 75.76,415.26 92.85,388.26 		"/>
	</g>
	<g>
		<path d="M45.59,434.38c1.31,2.02,2.48,4.11,3.43,6.32c0.47,1.1,0.9,2.22,1.19,3.39c0.29,1.16,0.5,2.35,0.41,3.55
			c0.04-1.2-0.2-2.38-0.53-3.52c-0.33-1.14-0.79-2.24-1.3-3.32c-1.01-2.15-2.25-4.2-3.61-6.13L45.59,434.38z"/>
	</g>
	<g>
		<path d="M73.14,452.39c-2.15,0.69-4.27,1.48-6.33,2.43c-1.02,0.48-2.03,1-2.97,1.63c-0.47,0.31-0.92,0.66-1.31,1.07
			c-0.39,0.4-0.72,0.91-0.72,1.48c-0.02-0.58,0.3-1.11,0.68-1.52c0.38-0.43,0.82-0.79,1.28-1.13c0.92-0.67,1.92-1.23,2.93-1.75
			c2.03-1.03,4.13-1.91,6.28-2.68L73.14,452.39z"/>
	</g>
	<g>
		<path d="M40.1,466.6c-0.12,1.05-0.14,2.14-0.1,3.21c0.05,1.07,0.17,2.15,0.4,3.2c0.24,1.05,0.57,2.08,1.04,3.05
			c0.5,0.96,1.15,1.83,1.94,2.57c-0.83-0.71-1.51-1.56-2.06-2.51c-0.52-0.96-0.9-1.99-1.18-3.05c-0.27-1.06-0.43-2.14-0.53-3.23
			c-0.09-1.09-0.11-2.18-0.03-3.29L40.1,466.6z"/>
	</g>
	<g>
		<path d="M69.96,472.79c-1.76,1.58-3.43,3.29-4.95,5.12c-0.75,0.92-1.46,1.88-2.06,2.9c-0.6,1.02-1.12,2.13-1.13,3.34
			c-0.03-1.2,0.46-2.36,1.03-3.4c0.58-1.05,1.25-2.04,1.98-2.99c1.47-1.89,3.08-3.66,4.81-5.33L69.96,472.79z"/>
	</g>
	<g>
		<polygon class="st0" points="237.42,288.97 231.91,288.97 219.86,365.43 221.58,365.43 		"/>
		<path class="st0" d="M257.74,533.17c0,0,13.78-5.51,28.59,2.07l-1.38-74.67c0,0-3.44-8.34-3.44-11.78s-0.69-7.92-1.72-13.09
			s0.92-7.81,0.92-7.81s0.69-2.41-0.57-5.74c-1.26-3.33-4.36-20.67-4.36-20.67l-6.66-28.64c0,0-1.21-2.93,0.69-5.34
			c1.89-2.41,6.2-10.5,4.82-16.53c-1.38-6.03-2.58-17.22-2.58-17.22s2.41-12.05,1.21-14.29c-1.21-2.24-1.38-7.41-8.09-9.82
			c-6.72-2.41-16.25-15.04-16.25-15.04s-9.41-7.58-11.48-5.63c-2.07,1.95-15.84,76.46-15.84,76.46s3.67-1.26,14.92,37.08
			c11.25,38.35,11.25,33.29,11.25,33.29s1.15,8.73,1.38,11.02c0.23,2.3,5.28,6.2,4.82,9.41c-0.46,3.21-2.53,5.74-1.15,10.1
			s2.76,2.76,2.53,10.33S257.74,533.17,257.74,533.17z"/>
		<path class="st0" d="M286.33,535.23c0,0-14.01,5.28-28.59-2.07"/>
		<g>
			<g>
				<path class="st1" d="M286.33,530.41c0,0-0.15-0.09-0.44-0.23"/>
				<path class="st2" d="M285.02,529.77c-3.1-1.32-11.7-4.05-26.28-1.82"/>
				<path class="st1" d="M258.24,528.03c-0.16,0.03-0.33,0.05-0.5,0.08"/>
			</g>
		</g>
		<g>
			<path d="M237.53,295.63c2.39,1.18,4.63,2.59,6.8,4.12c2.15,1.54,4.21,3.22,6.06,5.11c1.84,1.9,3.51,3.98,4.84,6.27
				c1.27,2.32,2.15,4.85,2.52,7.46c-0.41-2.61-1.33-5.11-2.63-7.4c-1.36-2.26-3.05-4.29-4.9-6.15c-1.87-1.85-3.95-3.48-6.1-4.98
				c-2.17-1.48-4.43-2.85-6.79-3.97L237.53,295.63z"/>
		</g>
		<g>
			<path d="M233.26,310.24c0.29,2.1,0.8,4.19,1.42,6.23c0.64,2.04,1.43,4.03,2.4,5.94c1,1.89,2.19,3.68,3.6,5.29
				c1.44,1.59,3.14,2.92,5.01,3.98c-1.89-1.02-3.62-2.33-5.1-3.9c-1.44-1.6-2.68-3.37-3.73-5.26c-1.01-1.9-1.85-3.89-2.54-5.94
				c-0.67-2.05-1.23-4.13-1.56-6.28L233.26,310.24z"/>
		</g>
		<g>
			<path d="M229.94,329.29c0-0.42-0.04-0.83,0.29-1.27c0.2-0.23,0.56-0.24,0.77-0.17c0.22,0.08,0.4,0.18,0.56,0.31
				c0.64,0.49,1.12,1.08,1.6,1.67c0.94,1.2,1.77,2.46,2.58,3.73c1.61,2.55,3.09,5.18,4.56,7.82l8.82,15.78l-9.04-15.66
				c-1.51-2.61-3.02-5.22-4.66-7.74c-0.82-1.26-1.67-2.5-2.61-3.66c-0.47-0.57-0.96-1.15-1.53-1.57c-0.28-0.21-0.62-0.33-0.7-0.19
				c-0.14,0.16-0.18,0.58-0.15,0.89L229.94,329.29z"/>
		</g>
		<g>
			<path d="M226.56,342.62c-0.03,1.82,0.1,3.67,0.37,5.49c0.28,1.82,0.7,3.62,1.36,5.33c0.33,0.86,0.73,1.69,1.18,2.49
				c0.47,0.78,1.01,1.54,1.57,2.28l3.28,4.47l-3.38-4.4c-0.57-0.73-1.13-1.47-1.63-2.25c-0.48-0.8-0.9-1.63-1.25-2.49
				c-0.7-1.72-1.17-3.54-1.5-5.37c-0.32-1.84-0.49-3.69-0.5-5.56L226.56,342.62z"/>
		</g>
		<g>
			<path d="M223.08,356.92c0.88-0.07,1.68,0.13,2.44,0.44c0.76,0.32,1.43,0.79,2.03,1.34c0.61,0.54,1.08,1.2,1.53,1.86
				c0.21,0.34,0.4,0.69,0.6,1.04l0.5,1.09l-0.56-1.06c-0.21-0.33-0.42-0.67-0.65-1c-0.48-0.63-0.98-1.25-1.59-1.74
				c-0.6-0.5-1.27-0.91-2-1.17c-0.72-0.26-1.52-0.39-2.23-0.3L223.08,356.92z"/>
		</g>
		<g>
			<path d="M272.27,333.83c-0.86,2.52-1.68,5.07-2.44,7.62c-0.37,1.28-0.74,2.57-1.06,3.86c-0.31,1.3-0.63,2.6-0.7,3.94
				c0.03-1.34,0.31-2.66,0.58-3.96c0.28-1.31,0.61-2.6,0.94-3.9c0.68-2.59,1.42-5.16,2.21-7.71L272.27,333.83z"/>
		</g>
		<g>
			<path d="M269.31,372.99c-1.62,2.12-3.09,4.39-4.29,6.78c-0.61,1.19-1.12,2.44-1.49,3.73c-0.35,1.28-0.59,2.65-0.27,3.97
				c-0.36-1.31-0.16-2.7,0.15-4.01c0.33-1.31,0.81-2.58,1.38-3.81c1.14-2.45,2.54-4.77,4.12-6.98L269.31,372.99z"/>
		</g>
		<g>
			<polygon points="232.04,387.34 249.13,414.34 231.62,387.61 			"/>
		</g>
		<g>
			<path d="M279.72,433.75c-1.36,1.94-2.6,3.98-3.61,6.13c-0.51,1.07-0.97,2.17-1.3,3.32c-0.33,1.14-0.58,2.32-0.53,3.52
				c-0.09-1.2,0.12-2.39,0.41-3.55c0.29-1.16,0.72-2.29,1.19-3.39c0.95-2.2,2.12-4.3,3.43-6.32L279.72,433.75z"/>
		</g>
		<g>
			<path d="M251.91,451c2.15,0.78,4.25,1.65,6.28,2.68c1.01,0.52,2.01,1.08,2.93,1.75c0.46,0.33,0.9,0.7,1.28,1.13
				c0.38,0.42,0.7,0.95,0.68,1.52c0-0.58-0.34-1.08-0.72-1.48c-0.39-0.41-0.84-0.75-1.31-1.07c-0.94-0.63-1.95-1.15-2.97-1.63
				c-2.05-0.95-4.18-1.74-6.33-2.43L251.91,451z"/>
		</g>
		<g>
			<path d="M285.29,465.63c0.08,1.11,0.06,2.2-0.03,3.29c-0.09,1.09-0.25,2.17-0.53,3.23c-0.28,1.06-0.66,2.09-1.18,3.05
				c-0.54,0.95-1.23,1.81-2.06,2.51c0.8-0.74,1.45-1.62,1.94-2.57c0.47-0.97,0.81-2,1.04-3.05c0.23-1.05,0.35-2.13,0.4-3.2
				c0.04-1.07,0.02-2.16-0.1-3.21L285.29,465.63z"/>
		</g>
		<g>
			<path d="M255.27,471.5c1.73,1.67,3.34,3.44,4.81,5.33c0.73,0.95,1.4,1.94,1.98,2.99c0.57,1.04,1.05,2.19,1.03,3.4
				c-0.01-1.2-0.54-2.32-1.13-3.34c-0.61-1.02-1.31-1.98-2.06-2.9c-1.52-1.83-3.19-3.54-4.95-5.12L255.27,471.5z"/>
		</g>
	</g>
	<path class="st0" d="M101.77,345.31c22.04-10.33,47.7,10.6,47.7,10.6s0.2,1,0.35,2.18c0.16,1.26,0.26,2.73-0.01,3.44
		c-0.52,1.38,0.69,2.93,0.69,2.93l-1.21,6.03c0,0-0.17,2.93,0.52,3.27s1.72,4.82,0.86,7.32c-0.86,2.5-0.69,14.72-0.52,16.62
		c0.17,1.89,1.38,7.58,1.72,9.13c0.34,1.55-1.55,7.06-2.26,8.44c-0.71,1.38-0.5,6.54-0.15,8.95c0.34,2.41,0,7.91,0,7.91
		c-7.92,6.88-36.48,7.06-36.48,7.06s-0.41-7.23-0.06-8.95c0.35-1.72-1.04-2.76-1.56-4.31c-0.52-1.55,2.07-4.65,1.47-7.4
		c-0.6-2.76-1.98-2.41-1.98-3.8c0-1.39,3.1-3.95,1.55-6.33c-1.55-2.38-0.69-5.88-1.37-8.47c-0.68-2.58-0.18-5.51-0.01-7.51
		s-2.07-6.61-2.57-8.34c-0.51-1.72-0.18-4.31-0.01-6.43c0.17-2.12-1.89-5.45-2.95-6.55c-1.05-1.1-1.35-4.9-1.35-4.9l0.88,0.15
		L101.77,345.31z"/>
	<path class="st0" d="M221.58,345.92c-22.04-10.33-47.01,10.45-47.01,10.45l-0.69,2.16c0,0-0.17,2.09,0.34,3.47
		c0.52,1.38-0.69,2.93-0.69,2.93l1.21,6.03c0,0,0.17,2.93-0.52,3.27c-0.69,0.34-1.72,4.82-0.86,7.32c0.86,2.5,0.69,14.72,0.52,16.62
		c-0.17,1.89-1.38,7.58-1.72,9.13c-0.34,1.55,1.55,7.06,2.26,8.44c0.71,1.38,0.5,6.54,0.15,8.95c-0.34,2.41,0,7.91,0,7.91
		c7.92,6.88,36.48,7.06,36.48,7.06s0.41-7.23,0.06-8.95c-0.35-1.72,1.04-2.76,1.56-4.31c0.52-1.55-2.07-4.65-1.47-7.4
		s1.98-2.41,1.98-3.8s-3.1-3.95-1.55-6.33c1.55-2.38,0.69-5.88,1.37-8.47c0.68-2.58,0.18-5.51,0.01-7.51s2.07-6.61,2.57-8.34
		c0.51-1.72,0.18-4.31,0.01-6.43c-0.17-2.12,1.89-5.45,2.95-6.55c1.05-1.1,1.35-4.9,1.35-4.9l-0.02-1.22l1.72-10.92l1.32-8.35
		L221.58,345.92z"/>
	<path class="st3" d="M173.95,360.83c-3.51,1.52-23.9,8.77-23.9,8.77l22.07,9.16l-20.15,7.69l20.92,7.81l-20.97,9.41l20.19,7.46
		l-22.07,9.27l22.48,8.84l-12.03-0.18l-9.1-0.14l22.48-9.13l-21.95-8.78l19.86-8.43l-20.39-8.04l21.13-8.21l-20.61-7.58l21.95-8.5
		l-22.48-9.43H173.95"/>
	<path class="st3" d="M161.3,429.73c0,0-14.01,14.35-13.09,19.17c0.92,4.82,1.21,9.18,3.19,8.04c1.98-1.15,6.92-10.91,8.07-15.96
		C160.61,435.92,161.3,429.73,161.3,429.73z"/>
	<path class="st3" d="M162.1,429.73c0,0,6.43,6.2,6.77,12.63c0.34,6.43,2.87,13.46,0,14.77c-2.87,1.31-9.3-1.79-8.27-7.76
		C161.64,443.39,162.1,429.73,162.1,429.73z"/>
	<path class="st3" d="M151.28,503l3.45,1.38c0,0-1.99,6.63-2.81,6.97c-0.82,0.34-3.14,0.52-2.8-0.69
		C149.47,509.46,151.28,503,151.28,503z"/>
	<path class="st3" d="M165.36,507.3h3.05c0,0,1.12,7.24,0,8.35c-1.12,1.12-2.92,0-3.05-0.77
		C165.23,514.11,165.36,507.3,165.36,507.3z"/>
	<path class="st3" d="M153.12,503.74l2.81-30.44l-1.2-20.97c0,0,2.32-15.45,3.78-17.78c1.46-2.32,3.19-5.31,3.19-5.31
		s3.01,6.95,3.01,8.93s0.7,16.5,0.65,23.32s-1.51,13.71-0.91,18.96c0.6,5.25,2.38,25.57,2.65,26.86"/>
	<g>
		<path d="M107.57,351.54c2.95-1.14,6.17-1.41,9.33-1.35c3.17,0.07,6.31,0.57,9.39,1.24c1.53,0.38,3.07,0.77,4.57,1.26
			c1.52,0.44,3,0.99,4.48,1.54c1.48,0.55,2.92,1.21,4.37,1.8l4.26,2.05l-4.35-1.83c-1.47-0.55-2.92-1.16-4.41-1.67
			c-2.96-1.04-5.96-1.98-9.02-2.67c-3.05-0.71-6.16-1.19-9.29-1.34c-1.56-0.1-3.13-0.04-4.7,0.08
			C110.62,350.78,109.06,351.05,107.57,351.54z"/>
	</g>
	<g>
		<path d="M107.57,356.25l6.02,1.74c2.01,0.56,4.01,1.14,6.04,1.65c2.02,0.53,4.05,1.01,6.09,1.42c1.02,0.19,2.05,0.38,3.08,0.49
			c1.03,0.14,2.07,0.19,3.12,0.1c-2.07,0.36-4.2,0.09-6.26-0.21c-2.07-0.34-4.11-0.82-6.14-1.32c-2.02-0.55-4.03-1.12-6.02-1.76
			C111.48,357.72,109.51,357.01,107.57,356.25z"/>
	</g>
	<g>
		<path d="M143.96,371.29c-2.54,0.65-5.12,1.12-7.72,1.47c-2.6,0.36-5.22,0.56-7.84,0.68c-2.62,0.09-5.25,0.09-7.87-0.08
			c-2.62-0.13-5.22-0.49-7.8-0.92c1.31,0.11,2.6,0.28,3.91,0.34c1.3,0.1,2.61,0.18,3.91,0.2c2.61,0.09,5.22,0.09,7.83-0.04
			c2.61-0.08,5.21-0.29,7.81-0.56C138.79,372.1,141.39,371.76,143.96,371.29z"/>
	</g>
	<g>
		<path d="M114.8,380.59c2.38,0.31,4.77,0.6,7.15,0.89c2.38,0.27,4.77,0.56,7.16,0.75c2.39,0.22,4.78,0.39,7.17,0.44
			c1.2,0.01,2.39,0.03,3.59-0.07c1.2-0.05,2.38-0.24,3.52-0.63c-2.23,0.94-4.72,1.02-7.11,1.09c-2.41,0.02-4.82-0.15-7.22-0.33
			c-2.39-0.24-4.78-0.51-7.16-0.87C119.52,381.51,117.15,381.08,114.8,380.59z"/>
	</g>
	<g>
		<path d="M115.72,385.52c1.39,0.58,2.74,1.2,4.12,1.74c0.68,0.28,1.38,0.53,2.08,0.75c0.7,0.21,1.42,0.39,2.18,0.38
			c-0.74,0.22-1.53,0.13-2.27-0.01c-0.75-0.14-1.47-0.38-2.18-0.66c-0.7-0.29-1.39-0.6-2.04-0.98
			C116.96,386.38,116.31,385.99,115.72,385.52z"/>
	</g>
	<g>
		<path d="M145.57,388.4c-1.44,0.6-2.91,1.11-4.39,1.59c-1.48,0.48-2.98,0.89-4.49,1.29c-1.52,0.36-3.04,0.7-4.59,0.93
			c-1.54,0.22-3.12,0.39-4.67,0.21c1.56-0.03,3.09-0.29,4.61-0.59c1.52-0.3,3.03-0.63,4.53-1.03
			C139.58,390.07,142.56,389.19,145.57,388.4z"/>
	</g>
	<g>
		<path d="M116.29,398.27c2.25,0.45,4.49,0.87,6.74,1.27c2.25,0.4,4.5,0.79,6.76,1.1c2.26,0.33,4.53,0.58,6.8,0.73l1.71,0.07
			c0.57,0.02,1.14-0.02,1.71-0.02c0.57,0.01,1.13-0.1,1.7-0.14c0.57-0.05,1.11-0.25,1.67-0.37c-2.15,0.84-4.52,0.88-6.8,0.85
			c-2.3-0.07-4.58-0.33-6.86-0.62c-2.27-0.35-4.53-0.74-6.77-1.22C120.72,399.45,118.49,398.9,116.29,398.27z"/>
	</g>
	<g>
		<path d="M144.88,405.16c-3.43,1.4-6.99,2.47-10.59,3.37c-1.81,0.4-3.63,0.78-5.48,0.97c-1.83,0.15-3.78,0.29-5.51-0.43
			c0.9,0.25,1.81,0.35,2.73,0.3c0.92-0.01,1.83-0.13,2.74-0.25c1.82-0.27,3.62-0.64,5.42-1.08
			C137.77,407.2,141.32,406.17,144.88,405.16z"/>
	</g>
	<g>
		<path d="M116.98,412.86c2.94,0.65,5.87,1.3,8.83,1.71c1.48,0.24,2.97,0.36,4.45,0.41c1.48,0.03,3-0.04,4.39-0.63
			c-1.31,0.79-2.89,0.98-4.39,1.02c-1.52,0.04-3.03-0.1-4.53-0.3c-1.49-0.24-2.98-0.52-4.44-0.89
			C119.84,413.81,118.39,413.39,116.98,412.86z"/>
	</g>
	<g>
		<path d="M146.26,413.42c-2.42,2.28-5.1,4.28-7.89,6.1c-1.42,0.87-2.87,1.7-4.41,2.37c-1.53,0.62-3.2,1.21-4.87,0.94
			c0.42-0.03,0.83,0.01,1.23-0.07c0.4-0.1,0.81-0.14,1.19-0.3c0.39-0.14,0.78-0.25,1.16-0.41l1.13-0.5c1.48-0.73,2.91-1.55,4.3-2.45
			C140.9,417.34,143.57,415.38,146.26,413.42z"/>
	</g>
	<g>
		<path d="M116.98,428.12c2.11,0.39,4.23,0.67,6.35,0.92c2.12,0.23,4.25,0.42,6.38,0.44c2.13,0.05,4.27,0.01,6.37-0.29
			c2.1-0.29,4.2-0.75,6.15-1.64c-1.87,1.06-3.98,1.66-6.1,2.02c-2.13,0.38-4.29,0.42-6.44,0.41c-2.15-0.06-4.3-0.24-6.42-0.56
			C121.16,429.1,119.05,428.69,116.98,428.12z"/>
	</g>
	<g>
		<path d="M216.66,351.54c-1.5-0.49-3.05-0.76-4.62-0.89c-1.56-0.12-3.13-0.18-4.7-0.08c-3.13,0.15-6.24,0.63-9.29,1.34
			c-3.06,0.69-6.06,1.63-9.02,2.67c-1.49,0.51-2.94,1.12-4.41,1.67l-4.35,1.83l4.26-2.05c1.46-0.6,2.9-1.25,4.37-1.8
			c1.48-0.55,2.96-1.1,4.48-1.54c1.5-0.49,3.03-0.88,4.57-1.26c3.09-0.67,6.23-1.17,9.39-1.24
			C210.49,350.13,213.71,350.4,216.66,351.54z"/>
	</g>
	<g>
		<path d="M216.66,356.25c-1.95,0.76-3.92,1.47-5.91,2.1c-1.99,0.65-4,1.21-6.02,1.76c-2.03,0.5-4.07,0.98-6.14,1.32
			c-2.06,0.31-4.19,0.57-6.26,0.21c1.04,0.09,2.08,0.04,3.12-0.1c1.03-0.11,2.06-0.3,3.08-0.49c2.04-0.42,4.07-0.89,6.09-1.42
			c2.02-0.51,4.03-1.08,6.04-1.65L216.66,356.25z"/>
	</g>
	<g>
		<path d="M180.27,371.29c2.57,0.48,5.17,0.81,7.77,1.09c2.6,0.27,5.2,0.48,7.81,0.56c2.61,0.13,5.22,0.13,7.83,0.04
			c1.31-0.02,2.61-0.11,3.91-0.2c1.31-0.06,2.6-0.23,3.91-0.34c-2.58,0.43-5.18,0.8-7.8,0.92c-2.62,0.17-5.25,0.17-7.87,0.08
			c-2.62-0.12-5.24-0.32-7.84-0.68C185.39,372.41,182.8,371.94,180.27,371.29z"/>
	</g>
	<g>
		<path d="M209.43,380.59c-2.35,0.49-4.72,0.92-7.1,1.27c-2.38,0.35-4.77,0.63-7.16,0.87c-2.4,0.18-4.8,0.35-7.22,0.33
			c-2.39-0.06-4.88-0.14-7.11-1.09c1.14,0.39,2.32,0.58,3.52,0.63c1.19,0.1,2.39,0.08,3.59,0.07c2.39-0.06,4.79-0.22,7.17-0.44
			c2.39-0.19,4.77-0.48,7.16-0.75C204.66,381.19,207.04,380.9,209.43,380.59z"/>
	</g>
	<g>
		<path d="M208.51,385.52c-0.6,0.47-1.24,0.86-1.9,1.23c-0.65,0.37-1.34,0.69-2.04,0.98c-0.7,0.28-1.43,0.52-2.18,0.66
			c-0.74,0.14-1.53,0.23-2.27,0.01c0.75,0.01,1.47-0.17,2.18-0.38c0.7-0.22,1.4-0.46,2.08-0.75
			C205.77,386.72,207.12,386.1,208.51,385.52z"/>
	</g>
	<g>
		<path d="M178.66,388.4c3.01,0.8,5.99,1.67,9,2.4c1.5,0.4,3.01,0.73,4.53,1.03c1.52,0.3,3.05,0.56,4.61,0.59
			c-1.55,0.18-3.13,0.01-4.67-0.21c-1.55-0.23-3.07-0.56-4.59-0.93c-1.51-0.4-3.01-0.81-4.49-1.29
			C181.57,389.5,180.1,388.99,178.66,388.4z"/>
	</g>
	<g>
		<path d="M207.93,398.27c-2.2,0.63-4.43,1.18-6.67,1.65c-2.24,0.48-4.5,0.86-6.77,1.22c-2.27,0.29-4.56,0.55-6.86,0.62
			c-2.28,0.04-4.65-0.01-6.8-0.85c0.56,0.12,1.1,0.32,1.67,0.37c0.57,0.04,1.13,0.15,1.7,0.14c0.57,0,1.14,0.04,1.71,0.02l1.71-0.07
			c2.27-0.15,4.54-0.4,6.8-0.73c2.26-0.31,4.51-0.7,6.76-1.1C203.44,399.14,205.69,398.72,207.93,398.27z"/>
	</g>
	<g>
		<path d="M179.35,405.16c3.56,1.01,7.11,2.05,10.7,2.88c1.79,0.43,3.6,0.8,5.42,1.08c0.91,0.12,1.82,0.24,2.74,0.25
			c0.92,0.05,1.83-0.05,2.73-0.3c-1.73,0.72-3.68,0.58-5.51,0.43c-1.85-0.19-3.67-0.58-5.48-0.97
			C186.33,407.63,182.78,406.56,179.35,405.16z"/>
	</g>
	<g>
		<path d="M207.25,412.86c-1.41,0.53-2.86,0.94-4.32,1.32c-1.46,0.37-2.95,0.64-4.44,0.89c-1.5,0.2-3.01,0.33-4.53,0.3
			c-1.5-0.04-3.08-0.23-4.39-1.02c1.39,0.59,2.91,0.67,4.39,0.63c1.49-0.04,2.98-0.17,4.45-0.41
			C201.38,414.16,204.31,413.51,207.25,412.86z"/>
	</g>
	<g>
		<path d="M177.97,413.42c2.68,1.96,5.35,3.92,8.15,5.68c1.39,0.89,2.82,1.71,4.3,2.45l1.13,0.5c0.38,0.16,0.77,0.27,1.16,0.41
			c0.38,0.16,0.79,0.19,1.19,0.3c0.4,0.09,0.82,0.04,1.23,0.07c-1.67,0.27-3.34-0.32-4.87-0.94c-1.53-0.67-2.98-1.51-4.41-2.37
			C183.07,417.7,180.39,415.7,177.97,413.42z"/>
	</g>
	<g>
		<path d="M207.25,428.12c-2.07,0.57-4.18,0.99-6.3,1.3c-2.12,0.31-4.27,0.5-6.42,0.56c-2.15,0.01-4.31-0.03-6.44-0.41
			c-2.12-0.36-4.22-0.96-6.1-2.02c1.96,0.89,4.05,1.35,6.15,1.64c2.11,0.3,4.24,0.34,6.37,0.29c2.13-0.01,4.26-0.21,6.38-0.44
			C203.02,428.79,205.14,428.51,207.25,428.12z"/>
	</g>
</g>
<g>
	<g>
		<polygon class="st0" points="370.66,290.59 376.17,290.59 388.22,367.05 386.5,367.05 		"/>
		<path class="st0" d="M350.34,534.78c0,0-13.78-5.51-28.59,2.07l1.38-74.67c0,0,3.44-8.34,3.44-11.78s0.69-7.92,1.72-13.09
			c1.03-5.17-0.92-7.81-0.92-7.81s-0.69-2.41,0.57-5.74c1.26-3.33,4.36-20.67,4.36-20.67l6.66-28.64c0,0,1.21-2.93-0.69-5.34
			c-1.89-2.41-6.2-10.5-4.82-16.53c1.38-6.03,2.58-17.22,2.58-17.22s-2.41-12.05-1.21-14.29s1.38-7.4,8.09-9.82
			c6.72-2.41,16.25-15.04,16.25-15.04s9.41-7.58,11.48-5.63c2.07,1.95,15.84,76.46,15.84,76.46s-3.67-1.26-14.92,37.08
			s-11.25,33.29-11.25,33.29s-1.15,8.73-1.38,11.02c-0.23,2.3-5.28,6.2-4.82,9.41c0.46,3.21,2.53,5.74,1.15,10.1
			s-2.76,2.76-2.53,10.33C352.98,485.88,350.34,534.78,350.34,534.78z"/>
		<path class="st0" d="M321.75,536.85c0,0,14.01,5.28,28.59-2.07"/>
		<g>
			<g>
				<path class="st1" d="M321.75,532.03c0,0,0.15-0.09,0.44-0.23"/>
				<path class="st2" d="M323.06,531.39c3.1-1.32,11.7-4.05,26.28-1.82"/>
				<path class="st1" d="M349.84,529.65c0.16,0.03,0.33,0.05,0.5,0.08"/>
			</g>
		</g>
		<g>
			<path d="M370.76,297.71c-2.36,1.12-4.62,2.49-6.79,3.97c-2.16,1.5-4.23,3.13-6.1,4.98c-1.86,1.86-3.55,3.89-4.9,6.15
				c-1.3,2.29-2.22,4.79-2.63,7.4c0.37-2.62,1.25-5.14,2.52-7.46c1.33-2.29,3-4.37,4.84-6.27c1.85-1.89,3.92-3.57,6.06-5.11
				c2.16-1.53,4.41-2.93,6.8-4.12L370.76,297.71z"/>
		</g>
		<g>
			<path d="M375.32,311.92c-0.34,2.15-0.89,4.23-1.56,6.28c-0.68,2.04-1.52,4.04-2.54,5.94c-1.04,1.89-2.28,3.66-3.73,5.26
				c-1.48,1.57-3.21,2.88-5.1,3.9c1.87-1.06,3.57-2.39,5.01-3.98c1.4-1.62,2.6-3.4,3.6-5.29c0.97-1.91,1.76-3.9,2.4-5.94
				c0.63-2.04,1.14-4.13,1.42-6.23L375.32,311.92z"/>
		</g>
		<g>
			<path d="M377.64,330.86c0.03-0.32-0.01-0.73-0.15-0.89c-0.08-0.14-0.42-0.02-0.7,0.19c-0.57,0.41-1.06,1-1.53,1.57
				c-0.94,1.16-1.79,2.4-2.61,3.66c-1.64,2.52-3.15,5.13-4.66,7.74l-9.04,15.66l8.82-15.78c1.47-2.63,2.95-5.26,4.56-7.82
				c0.81-1.28,1.64-2.54,2.58-3.73c0.48-0.59,0.96-1.19,1.6-1.67c0.16-0.12,0.34-0.23,0.56-0.31c0.21-0.08,0.57-0.07,0.77,0.17
				c0.33,0.44,0.3,0.85,0.29,1.27L377.64,330.86z"/>
		</g>
		<g>
			<path d="M382.02,344.22c-0.01,1.88-0.18,3.73-0.5,5.56c-0.32,1.83-0.8,3.64-1.5,5.37c-0.35,0.86-0.77,1.69-1.25,2.49
				c-0.5,0.79-1.06,1.53-1.63,2.25l-3.38,4.4l3.28-4.47c0.56-0.74,1.1-1.49,1.57-2.28c0.45-0.8,0.85-1.63,1.18-2.49
				c0.66-1.72,1.08-3.52,1.36-5.33c0.28-1.81,0.41-3.67,0.37-5.49L382.02,344.22z"/>
		</g>
		<g>
			<path d="M384.92,359.03c-0.71-0.09-1.51,0.04-2.23,0.3c-0.73,0.26-1.4,0.68-2,1.17c-0.62,0.49-1.11,1.11-1.59,1.74
				c-0.23,0.32-0.43,0.66-0.65,1l-0.56,1.06l0.5-1.09c0.2-0.35,0.39-0.7,0.6-1.04c0.45-0.66,0.92-1.32,1.53-1.86
				c0.59-0.55,1.27-1.02,2.03-1.34c0.76-0.31,1.56-0.51,2.44-0.44L384.92,359.03z"/>
		</g>
		<g>
			<path d="M336.28,335.29c0.79,2.56,1.52,5.13,2.21,7.71c0.34,1.29,0.66,2.59,0.94,3.9c0.27,1.31,0.55,2.63,0.58,3.96
				c-0.07-1.34-0.39-2.64-0.7-3.94c-0.32-1.29-0.69-2.58-1.06-3.86c-0.76-2.56-1.58-5.1-2.44-7.62L336.28,335.29z"/>
		</g>
		<g>
			<path d="M339.17,374.3c1.58,2.21,2.98,4.53,4.12,6.98c0.58,1.22,1.05,2.5,1.38,3.81c0.32,1.3,0.51,2.69,0.15,4.01
				c0.32-1.32,0.08-2.69-0.27-3.97c-0.37-1.29-0.88-2.53-1.49-3.73c-1.21-2.39-2.68-4.66-4.29-6.78L339.17,374.3z"/>
		</g>
		<g>
			<polygon points="376.46,389.23 358.95,415.96 376.04,388.96 			"/>
		</g>
		<g>
			<path d="M328.77,435.08c1.31,2.02,2.48,4.11,3.43,6.32c0.47,1.1,0.9,2.22,1.19,3.39c0.29,1.16,0.5,2.35,0.41,3.55
				c0.04-1.2-0.2-2.38-0.53-3.52c-0.33-1.14-0.79-2.24-1.3-3.32c-1.01-2.15-2.25-4.2-3.61-6.13L328.77,435.08z"/>
		</g>
		<g>
			<path d="M356.33,453.09c-2.15,0.69-4.27,1.48-6.33,2.43c-1.02,0.48-2.03,1-2.97,1.63c-0.47,0.31-0.92,0.66-1.31,1.07
				c-0.39,0.4-0.72,0.91-0.72,1.48c-0.02-0.58,0.3-1.11,0.68-1.52c0.38-0.43,0.82-0.79,1.28-1.13c0.92-0.67,1.92-1.23,2.93-1.75
				c2.03-1.03,4.13-1.91,6.28-2.68L356.33,453.09z"/>
		</g>
		<g>
			<path d="M323.28,467.3c-0.12,1.05-0.14,2.14-0.1,3.21c0.05,1.07,0.17,2.15,0.4,3.2c0.24,1.05,0.57,2.08,1.04,3.05
				c0.5,0.96,1.15,1.83,1.94,2.57c-0.83-0.71-1.51-1.56-2.06-2.51c-0.52-0.96-0.9-1.99-1.18-3.05c-0.27-1.06-0.43-2.14-0.53-3.23
				c-0.09-1.09-0.11-2.18-0.03-3.29L323.28,467.3z"/>
		</g>
		<g>
			<path d="M353.15,473.49c-1.76,1.58-3.43,3.29-4.95,5.12c-0.75,0.92-1.46,1.88-2.06,2.9c-0.6,1.02-1.12,2.13-1.13,3.34
				c-0.03-1.2,0.46-2.36,1.03-3.4c0.58-1.05,1.25-2.04,1.98-2.99c1.47-1.89,3.08-3.66,4.81-5.33L353.15,473.49z"/>
		</g>
	</g>
	<g>
		<polygon class="st0" points="519.7,289.67 514.19,289.67 502.14,366.13 503.86,366.13 		"/>
		<path class="st0" d="M540.02,533.86c0,0,13.78-5.51,28.59,2.07l-1.38-74.67c0,0-3.44-8.34-3.44-11.78s-0.69-7.92-1.72-13.09
			s0.92-7.81,0.92-7.81s0.69-2.41-0.57-5.74c-1.26-3.33-4.36-20.67-4.36-20.67l-6.66-28.64c0,0-1.21-2.93,0.69-5.34
			c1.89-2.41,6.2-10.5,4.82-16.53c-1.38-6.03-2.58-17.22-2.58-17.22s2.41-12.05,1.21-14.29c-1.21-2.24-1.38-7.41-8.09-9.82
			c-6.72-2.41-16.25-15.04-16.25-15.04s-9.41-7.58-11.48-5.63c-2.07,1.95-15.84,76.46-15.84,76.46s3.67-1.26,14.92,37.08
			c11.25,38.35,11.25,33.29,11.25,33.29s1.15,8.73,1.38,11.02c0.23,2.3,5.28,6.2,4.82,9.41s-2.53,5.74-1.15,10.1
			c1.38,4.36,2.76,2.76,2.53,10.33S540.02,533.86,540.02,533.86z"/>
		<path class="st0" d="M568.61,535.93c0,0-14.01,5.28-28.59-2.07"/>
		<g>
			<g>
				<path class="st1" d="M568.61,531.11c0,0-0.15-0.09-0.44-0.23"/>
				<path class="st2" d="M567.3,530.47c-3.1-1.32-11.7-4.05-26.28-1.82"/>
				<path class="st1" d="M540.52,528.73c-0.16,0.03-0.33,0.05-0.5,0.08"/>
			</g>
		</g>
		<g>
			<path d="M519.81,296.33c2.39,1.18,4.63,2.59,6.8,4.12c2.15,1.54,4.21,3.22,6.06,5.11c1.84,1.9,3.51,3.98,4.84,6.27
				c1.27,2.32,2.15,4.85,2.52,7.46c-0.41-2.61-1.33-5.11-2.63-7.4c-1.36-2.26-3.05-4.29-4.9-6.15c-1.87-1.85-3.95-3.48-6.1-4.98
				c-2.17-1.48-4.43-2.85-6.79-3.97L519.81,296.33z"/>
		</g>
		<g>
			<path d="M515.54,310.94c0.29,2.1,0.8,4.19,1.42,6.23c0.64,2.04,1.43,4.03,2.4,5.94c1,1.89,2.19,3.68,3.6,5.29
				c1.44,1.59,3.14,2.92,5.01,3.98c-1.89-1.02-3.62-2.33-5.1-3.9c-1.44-1.6-2.68-3.37-3.73-5.26c-1.01-1.9-1.85-3.89-2.54-5.94
				c-0.67-2.05-1.23-4.13-1.56-6.28L515.54,310.94z"/>
		</g>
		<g>
			<path d="M512.22,329.99c0-0.42-0.04-0.83,0.29-1.27c0.2-0.23,0.56-0.24,0.77-0.17c0.22,0.08,0.4,0.18,0.56,0.31
				c0.64,0.49,1.12,1.08,1.6,1.67c0.94,1.2,1.77,2.46,2.58,3.73c1.61,2.55,3.09,5.18,4.56,7.82l8.82,15.78l-9.04-15.66
				c-1.51-2.61-3.02-5.22-4.66-7.74c-0.82-1.26-1.67-2.5-2.61-3.66c-0.47-0.57-0.96-1.15-1.53-1.57c-0.28-0.21-0.62-0.33-0.7-0.19
				c-0.14,0.16-0.18,0.58-0.15,0.89L512.22,329.99z"/>
		</g>
		<g>
			<path d="M508.84,343.32c-0.03,1.82,0.1,3.67,0.37,5.49c0.28,1.82,0.7,3.62,1.36,5.33c0.33,0.86,0.73,1.69,1.18,2.49
				c0.47,0.78,1.01,1.54,1.57,2.28l3.28,4.47l-3.38-4.4c-0.57-0.73-1.13-1.47-1.63-2.25c-0.48-0.8-0.9-1.63-1.25-2.49
				c-0.7-1.72-1.17-3.54-1.5-5.37c-0.32-1.84-0.49-3.69-0.5-5.56L508.84,343.32z"/>
		</g>
		<g>
			<path d="M505.36,357.62c0.88-0.07,1.68,0.13,2.44,0.44c0.76,0.32,1.43,0.79,2.03,1.34c0.61,0.54,1.08,1.2,1.53,1.86
				c0.21,0.34,0.4,0.69,0.6,1.04l0.5,1.09l-0.56-1.06c-0.21-0.33-0.42-0.67-0.65-1c-0.48-0.63-0.98-1.25-1.59-1.74
				c-0.6-0.5-1.27-0.91-2-1.17c-0.72-0.26-1.52-0.39-2.23-0.3L505.36,357.62z"/>
		</g>
		<g>
			<path d="M554.55,334.52c-0.86,2.52-1.68,5.07-2.44,7.62c-0.37,1.28-0.74,2.57-1.06,3.86c-0.31,1.3-0.63,2.6-0.7,3.94
				c0.03-1.34,0.31-2.66,0.58-3.96c0.28-1.31,0.61-2.6,0.94-3.9c0.68-2.59,1.42-5.16,2.21-7.71L554.55,334.52z"/>
		</g>
		<g>
			<path d="M551.59,373.69c-1.62,2.12-3.09,4.39-4.29,6.78c-0.61,1.19-1.12,2.44-1.49,3.73c-0.35,1.28-0.59,2.65-0.27,3.97
				c-0.36-1.31-0.16-2.7,0.15-4.01c0.33-1.31,0.81-2.58,1.38-3.81c1.14-2.45,2.54-4.77,4.12-6.98L551.59,373.69z"/>
		</g>
		<g>
			<polygon points="514.32,388.04 531.41,415.04 513.9,388.31 			"/>
		</g>
		<g>
			<path d="M562,434.45c-1.36,1.94-2.6,3.98-3.61,6.13c-0.51,1.07-0.97,2.17-1.3,3.32c-0.33,1.14-0.58,2.32-0.53,3.52
				c-0.09-1.2,0.12-2.39,0.41-3.55c0.29-1.16,0.72-2.29,1.19-3.39c0.95-2.2,2.12-4.3,3.43-6.32L562,434.45z"/>
		</g>
		<g>
			<path d="M534.19,451.7c2.15,0.78,4.25,1.65,6.28,2.68c1.01,0.52,2.01,1.08,2.93,1.75c0.46,0.33,0.9,0.7,1.28,1.13
				c0.38,0.42,0.7,0.95,0.68,1.52c0-0.58-0.34-1.08-0.72-1.48c-0.39-0.41-0.84-0.75-1.31-1.07c-0.94-0.63-1.95-1.15-2.97-1.63
				c-2.05-0.95-4.18-1.74-6.33-2.43L534.19,451.7z"/>
		</g>
		<g>
			<path d="M567.57,466.33c0.08,1.11,0.06,2.2-0.03,3.29c-0.09,1.09-0.25,2.17-0.53,3.23c-0.28,1.06-0.66,2.09-1.18,3.05
				c-0.54,0.95-1.23,1.81-2.06,2.51c0.8-0.74,1.45-1.62,1.94-2.57c0.47-0.97,0.81-2,1.04-3.05c0.23-1.05,0.35-2.13,0.4-3.2
				c0.04-1.07,0.02-2.16-0.1-3.21L567.57,466.33z"/>
		</g>
		<g>
			<path d="M537.55,472.2c1.73,1.67,3.34,3.44,4.81,5.33c0.73,0.95,1.4,1.94,1.98,2.99c0.57,1.04,1.05,2.19,1.03,3.4
				c-0.01-1.2-0.54-2.32-1.13-3.34c-0.61-1.02-1.31-1.98-2.06-2.9c-1.52-1.83-3.19-3.54-4.95-5.12L537.55,472.2z"/>
		</g>
	</g>
	<path class="st0" d="M384.98,346.51c0,0,100.86-3.44,118.88,0"/>
	<path class="st0" d="M388.22,367.05c0,0-1.05,2.45,0,3.55s3.12,4.43,2.95,6.55c-0.17,2.12-0.5,4.71,0.01,6.43
		c0.51,1.72,2.75,6.34,2.57,8.34s-0.67,4.92,0.01,7.51c0.68,2.58-0.18,6.08,1.37,8.47c1.55,2.38-1.55,4.94-1.55,6.33
		s1.38,1.04,1.98,3.8c0.6,2.76-1.98,5.86-1.47,7.4c0.52,1.55,1.91,2.58,1.56,4.31c-0.35,1.72,0.06,8.95,0.06,8.95l98.47-0.34
		c0,0,0.41-7.23,0.06-8.95c-0.35-1.72,1.04-2.76,1.56-4.31c0.52-1.55-2.07-4.65-1.47-7.4c0.6-2.76,1.98-2.41,1.98-3.8
		s-3.1-3.95-1.55-6.33c1.55-2.38,0.69-5.88,1.37-8.47c0.68-2.58,0.18-5.51,0.01-7.51s2.07-6.61,2.57-8.34
		c0.51-1.72,0.18-4.31,0.01-6.43s1.89-5.45,2.95-6.55s0-3.55,0-3.55"/>
	<g>
		<path d="M400.52,369.36c3.71,0.39,7.44,0.7,11.16,0.95c3.72,0.28,7.45,0.51,11.18,0.7c7.46,0.36,14.92,0.52,22.39,0.48
			c7.46,0.01,14.93-0.28,22.37-0.79c3.72-0.33,7.44-0.61,11.14-1.12c3.72-0.36,7.39-1.04,11.08-1.59
			c-7.33,1.43-14.75,2.44-22.2,3.04c-7.45,0.57-14.92,0.92-22.4,0.96c-7.47-0.01-14.95-0.22-22.41-0.64
			C415.38,370.93,407.93,370.31,400.52,369.36z"/>
	</g>
	<g>
		<path d="M415.68,379.69c2.71,0.37,5.43,0.67,8.16,0.92c2.72,0.27,5.45,0.5,8.18,0.69c5.46,0.38,10.93,0.62,16.4,0.67
			c5.47,0.11,10.94-0.09,16.4-0.41l4.09-0.31c1.37-0.09,2.72-0.29,4.08-0.43c2.73-0.24,5.42-0.74,8.13-1.13
			c-5.37,1.06-10.81,1.84-16.28,2.25c-5.47,0.4-10.95,0.59-16.43,0.52c-5.48-0.09-10.96-0.33-16.42-0.79
			C426.53,381.22,421.08,380.59,415.68,379.69z"/>
	</g>
	<g>
		<path d="M391.54,384.61l12.27,2.97c4.09,0.97,8.18,1.95,12.29,2.86c4.1,0.93,8.22,1.8,12.35,2.58c2.07,0.37,4.14,0.75,6.22,1.03
			c2.08,0.32,4.17,0.53,6.28,0.56c-4.22,0.12-8.41-0.54-12.56-1.21c-4.15-0.71-8.27-1.58-12.39-2.48c-4.1-0.95-8.2-1.92-12.27-2.97
			C399.64,386.91,395.58,385.8,391.54,384.61z"/>
	</g>
	<g>
		<path d="M394.78,394.63c3.74,1.04,7.45,2.18,11.18,3.2c1.86,0.54,3.74,1.02,5.61,1.49c1.88,0.45,3.77,0.88,5.7,1.04
			c-1.95,0.05-3.88-0.29-5.79-0.67c-1.91-0.39-3.79-0.88-5.66-1.38c-1.86-0.55-3.73-1.09-5.57-1.71
			C398.42,395.99,396.59,395.35,394.78,394.63z"/>
	</g>
	<g>
		<path d="M395.93,402.94c2.34-0.06,4.69-0.04,7.03,0.06c2.34,0.1,4.68,0.29,7.01,0.65c1.16,0.24,2.33,0.39,3.43,1.07
			c0.14,0.08,0.26,0.23,0.37,0.38c0.04,0.1,0.08,0.2,0.09,0.3c-0.01,0.1-0.02,0.21-0.04,0.31c-0.15,0.3-0.31,0.58-0.56,0.79
			c-0.45,0.44-1,0.72-1.55,0.95c-2.23,0.87-4.59,1.13-6.92,1.26c1.16-0.14,2.32-0.33,3.45-0.59c1.14-0.25,2.27-0.55,3.31-1.02
			c0.52-0.24,1.02-0.52,1.4-0.9c0.21-0.18,0.32-0.41,0.44-0.63c0.07-0.16-0.06-0.32-0.27-0.47c-0.91-0.56-2.12-0.74-3.24-0.95
			c-2.29-0.39-4.62-0.57-6.95-0.76C400.61,403.21,398.27,403.06,395.93,402.94z"/>
	</g>
	<g>
		<path d="M397.31,410.92c2.67,1.03,5.35,2.03,8.04,3.01c2.69,0.97,5.38,1.94,8.11,2.81c2.72,0.89,5.46,1.71,8.23,2.4
			c1.39,0.32,2.78,0.63,4.2,0.82c1.41,0.23,2.84,0.3,4.26,0.14c-2.84,0.5-5.75-0.03-8.55-0.59c-2.81-0.62-5.56-1.44-8.29-2.3
			c-2.72-0.91-5.42-1.88-8.09-2.93C402.55,413.25,399.91,412.12,397.31,410.92z"/>
	</g>
	<g>
		<path d="M406.03,427.22c1.65,0.21,3.3,0.4,4.96,0.57c1.65,0.16,3.31,0.3,4.96,0.36c1.65,0.1,3.31,0.09,4.96-0.02
			c1.64-0.12,3.3-0.31,4.87-0.9c-1.49,0.78-3.17,1.09-4.83,1.29c-1.67,0.19-3.35,0.19-5.02,0.13c-1.67-0.09-3.34-0.23-4.99-0.47
			C409.3,427.93,407.65,427.64,406.03,427.22z"/>
	</g>
	<g>
		<path d="M494.99,415.96c-3.04,1.21-6.11,2.36-9.19,3.46c-3.08,1.11-6.18,2.16-9.29,3.18c-3.12,0.99-6.24,1.98-9.41,2.82
			c-3.16,0.81-6.36,1.72-9.64,1.79c0.82-0.06,1.63-0.13,2.43-0.32c0.8-0.14,1.59-0.35,2.39-0.55c1.59-0.39,3.16-0.83,4.72-1.3
			c3.14-0.92,6.25-1.9,9.36-2.93c3.12-0.98,6.21-2.04,9.32-3.07L494.99,415.96z"/>
	</g>
	<g>
		<path d="M494.99,398.52c-4.02,0.88-8.06,1.71-12.1,2.49c-4.04,0.79-8.1,1.5-12.15,2.22c-4.06,0.67-8.13,1.33-12.21,1.87
			c-2.04,0.26-4.09,0.51-6.14,0.7c-1.03,0.08-2.06,0.16-3.09,0.19c-1.03,0.03-2.07,0.06-3.08-0.15c1.02,0.18,2.05,0.1,3.07,0.03
			c1.03-0.07,2.05-0.19,3.07-0.31c2.04-0.24,4.08-0.53,6.11-0.83c4.07-0.61,8.13-1.27,12.18-1.98L494.99,398.52z"/>
	</g>
	<g>
		<path d="M494.99,405.96c-4.03,0.74-8.09,1.28-12.15,1.83c-2.03,0.24-4.07,0.49-6.11,0.7c-2.04,0.2-4.08,0.4-6.13,0.48l6.08-0.86
			l6.09-0.81C486.84,406.81,490.91,406.3,494.99,405.96z"/>
	</g>
	<g>
		<path d="M494.99,388.18l-8.64,1.99c-2.88,0.67-5.76,1.31-8.63,2.03c-1.43,0.35-2.87,0.7-4.28,1.11c-0.71,0.2-1.41,0.41-2.1,0.66
			c-0.34,0.12-0.68,0.26-0.99,0.42c-0.14,0.06-0.31,0.23-0.29,0.19c0.01-0.01-0.01-0.04-0.01-0.04l0.04,0.04l0.07,0.08
			c0.03,0.06,0.1,0.11,0.18,0.15c1.19,0.72,2.72,0.99,4.13,1.32c1.44,0.31,2.9,0.57,4.36,0.78c-1.47-0.13-2.94-0.31-4.41-0.54
			c-1.45-0.29-2.93-0.48-4.31-1.24c-0.09-0.05-0.17-0.1-0.25-0.2l-0.11-0.13l-0.05-0.07c-0.02-0.04-0.04-0.11-0.04-0.17
			c0.04-0.23,0.16-0.29,0.23-0.37c0.09-0.07,0.17-0.12,0.26-0.17c0.34-0.19,0.69-0.33,1.04-0.46c0.7-0.26,1.41-0.48,2.12-0.69
			c1.42-0.42,2.86-0.79,4.29-1.16c2.88-0.69,5.77-1.33,8.67-1.92C489.17,389.2,492.08,388.66,494.99,388.18z"/>
	</g>
	<line class="st4" x1="395.93" y1="436.18" x2="494.28" y2="436.18"/>
</g>
<path class="st4" d="M112.73,437.23c0,0,22.71,0.78,36.8-6.25"/>
<path class="st4" d="M211.72,437.23c-5.28,0.06-25.59-0.38-36.8-6.25"/>
</svg>
