<svg id="Layer_1" data-name="Layer 1" xmlns="http://www.w3.org/2000/svg" viewBox="0 0 401.35 514.72"><defs><style>.cls-1,.cls-2,.cls-3,.cls-4{stroke:#000;stroke-miterlimit:10;}.cls-2{stroke-dasharray:1;}.cls-3{stroke-width:0.5px;}.cls-4{stroke-width:2px;}</style></defs><path class="cls-1" d="M304.93,259.2" transform="translate(-91.83 -170.03)"/><path class="cls-2" d="M304.93,262.63" transform="translate(-91.83 -170.03)"/><path class="cls-1" d="M186.76,204.93l1,89.44L205,550.15s5.18,59.26,4.89,85.73,6,26.47,6,26.47l3.16,21.87h41.15l2-21.29c6.33-5.18,9.78-66.75,9.78-66.75s8.63-290,9.79-312.46c.78-15.39-6.82-60.57-11.67-87.43-2.23-12.29-3.87-20.74-3.87-20.74l-77.08,4.88-78.94-5a95.6,95.6,0,0,0-6.18,20.89c-4.85,26.85-12.46,72-11.67,87.43,1.15,22.45,9.78,312.46,9.78,312.46S105.62,657.78,112,663l2,21.29h41.14l3.17-21.87s6.32,0,6-26.47,4.89-85.74,4.89-85.74l18.5-255.8" transform="translate(-91.83 -170.03)"/><path class="cls-1" d="M104.06,196.32s57.67,8.89,85.58,8.6" transform="translate(-91.83 -170.03)"/><line class="cls-1" x1="20.12" y1="492.93" x2="66.44" y2="492.36"/><line class="cls-2" x1="20.12" y1="499.55" x2="65.4" y2="499.55"/><line class="cls-2" x1="64.24" y1="507.61" x2="21.51" y2="507.61"/><line class="cls-3" x1="22.71" y1="492.93" x2="22.71" y2="514.22"/><line class="cls-3" x1="23.96" y1="492.93" x2="23.96" y2="514.22"/><line class="cls-3" x1="25.11" y1="492.93" x2="25.11" y2="514.22"/><line class="cls-3" x1="26.26" y1="492.93" x2="26.26" y2="514.22"/><line class="cls-3" x1="27.51" y1="492.93" x2="27.51" y2="514.22"/><line class="cls-3" x1="28.66" y1="492.93" x2="28.66" y2="514.22"/><line class="cls-3" x1="29.62" y1="492.93" x2="29.62" y2="514.22"/><line class="cls-3" x1="30.86" y1="492.93" x2="30.86" y2="514.22"/><line class="cls-3" x1="32.01" y1="492.93" x2="32.01" y2="514.22"/><line class="cls-3" x1="33.16" y1="492.93" x2="33.16" y2="514.22"/><line class="cls-3" x1="34.41" y1="492.93" x2="34.41" y2="514.22"/><line class="cls-3" x1="35.56" y1="492.93" x2="35.56" y2="514.22"/><line class="cls-3" x1="36.76" y1="492.93" x2="36.76" y2="514.22"/><line class="cls-3" x1="38.01" y1="492.93" x2="38.01" y2="514.22"/><line class="cls-3" x1="39.16" y1="492.93" x2="39.16" y2="514.22"/><line class="cls-3" x1="40.31" y1="492.93" x2="40.31" y2="514.22"/><line class="cls-3" x1="41.56" y1="492.93" x2="41.56" y2="514.22"/><line class="cls-3" x1="42.71" y1="492.93" x2="42.71" y2="514.22"/><line class="cls-3" x1="40.31" y1="492.74" x2="40.31" y2="514.03"/><line class="cls-3" x1="41.56" y1="492.74" x2="41.56" y2="514.03"/><line class="cls-3" x1="42.71" y1="492.74" x2="42.71" y2="514.03"/><line class="cls-3" x1="43.86" y1="492.74" x2="43.86" y2="514.03"/><line class="cls-3" x1="45.1" y1="492.74" x2="45.1" y2="514.03"/><line class="cls-3" x1="55.41" y1="492.93" x2="55.41" y2="514.22"/><line class="cls-3" x1="56.66" y1="492.74" x2="56.66" y2="514.03"/><line class="cls-3" x1="57.91" y1="492.74" x2="57.91" y2="514.03"/><line class="cls-3" x1="59.06" y1="492.74" x2="59.06" y2="514.03"/><line class="cls-3" x1="60.21" y1="492.74" x2="60.21" y2="514.03"/><line class="cls-3" x1="61.46" y1="492.74" x2="61.46" y2="514.03"/><line class="cls-3" x1="62.61" y1="492.74" x2="62.61" y2="514.03"/><line class="cls-3" x1="48.41" y1="492.93" x2="48.41" y2="514.22"/><line class="cls-3" x1="49.66" y1="492.93" x2="49.66" y2="514.22"/><line class="cls-3" x1="50.81" y1="492.93" x2="50.81" y2="514.22"/><line class="cls-3" x1="51.96" y1="492.93" x2="51.96" y2="514.22"/><line class="cls-3" x1="53.21" y1="492.93" x2="53.21" y2="514.22"/><line class="cls-3" x1="54.36" y1="492.93" x2="54.36" y2="514.22"/><line class="cls-3" x1="46.14" y1="492.74" x2="46.14" y2="514.03"/><line class="cls-3" x1="47.38" y1="492.74" x2="47.38" y2="514.03"/><path class="cls-1" d="M128.07,199.68s-16.91,41.15-34,59.54" transform="translate(-91.83 -170.03)"/><path class="cls-2" d="M131.13,200.62s-20.73,55.13-37,62" transform="translate(-91.83 -170.03)"/><path class="cls-1" d="M270.13,196.29s-57.67,8.89-85.58,8.6" transform="translate(-91.83 -170.03)"/><line class="cls-1" x1="170.4" y1="492.9" x2="124.08" y2="492.33"/><line class="cls-2" x1="170.4" y1="499.52" x2="125.12" y2="499.52"/><line class="cls-2" x1="169.01" y1="507.58" x2="126.28" y2="507.58"/><line class="cls-3" x1="167.81" y1="492.9" x2="167.81" y2="514.19"/><line class="cls-3" x1="166.56" y1="492.9" x2="166.56" y2="514.19"/><line class="cls-3" x1="165.41" y1="492.9" x2="165.41" y2="514.19"/><line class="cls-3" x1="164.26" y1="492.9" x2="164.26" y2="514.19"/><line class="cls-3" x1="163.01" y1="492.9" x2="163.01" y2="514.19"/><line class="cls-3" x1="161.86" y1="492.9" x2="161.86" y2="514.19"/><line class="cls-3" x1="160.9" y1="492.9" x2="160.9" y2="514.19"/><line class="cls-3" x1="159.66" y1="492.9" x2="159.66" y2="514.19"/><line class="cls-3" x1="158.51" y1="492.9" x2="158.51" y2="514.19"/><line class="cls-3" x1="157.36" y1="492.9" x2="157.36" y2="514.19"/><line class="cls-3" x1="156.11" y1="492.9" x2="156.11" y2="514.19"/><line class="cls-3" x1="154.96" y1="492.9" x2="154.96" y2="514.19"/><line class="cls-3" x1="153.76" y1="492.9" x2="153.76" y2="514.19"/><line class="cls-3" x1="152.51" y1="492.9" x2="152.51" y2="514.19"/><line class="cls-3" x1="151.36" y1="492.9" x2="151.36" y2="514.19"/><line class="cls-3" x1="150.21" y1="492.9" x2="150.21" y2="514.19"/><line class="cls-3" x1="148.96" y1="492.9" x2="148.96" y2="514.19"/><line class="cls-3" x1="147.81" y1="492.9" x2="147.81" y2="514.19"/><line class="cls-3" x1="150.21" y1="492.71" x2="150.21" y2="514"/><line class="cls-3" x1="148.96" y1="492.71" x2="148.96" y2="514"/><line class="cls-3" x1="147.81" y1="492.71" x2="147.81" y2="514"/><line class="cls-3" x1="146.66" y1="492.71" x2="146.66" y2="514"/><line class="cls-3" x1="145.42" y1="492.71" x2="145.42" y2="514"/><line class="cls-3" x1="135.11" y1="492.9" x2="135.11" y2="514.19"/><line class="cls-3" x1="133.86" y1="492.71" x2="133.86" y2="514"/><line class="cls-3" x1="132.61" y1="492.71" x2="132.61" y2="514"/><line class="cls-3" x1="131.46" y1="492.71" x2="131.46" y2="514"/><line class="cls-3" x1="130.31" y1="492.71" x2="130.31" y2="514"/><line class="cls-3" x1="129.06" y1="492.71" x2="129.06" y2="514"/><line class="cls-3" x1="127.91" y1="492.71" x2="127.91" y2="514"/><line class="cls-3" x1="142.11" y1="492.9" x2="142.11" y2="514.19"/><line class="cls-3" x1="140.86" y1="492.9" x2="140.86" y2="514.19"/><line class="cls-3" x1="139.71" y1="492.9" x2="139.71" y2="514.19"/><line class="cls-3" x1="138.56" y1="492.9" x2="138.56" y2="514.19"/><line class="cls-3" x1="137.31" y1="492.9" x2="137.31" y2="514.19"/><line class="cls-3" x1="136.16" y1="492.9" x2="136.16" y2="514.19"/><line class="cls-3" x1="144.38" y1="492.71" x2="144.38" y2="514"/><line class="cls-3" x1="143.14" y1="492.71" x2="143.14" y2="514"/><path class="cls-1" d="M246.11,199.65s16.91,41.15,34,59.55" transform="translate(-91.83 -170.03)"/><path class="cls-2" d="M243.05,200.59s20.74,55.13,37,62" transform="translate(-91.83 -170.03)"/><path class="cls-2" d="M107.7,182.09s89.22,16.68,159.81,0" transform="translate(-91.83 -170.03)"/><path class="cls-2" d="M105.89,189.5s90.86,16.68,161.45,0" transform="translate(-91.83 -170.03)"/><line class="cls-3" x1="95.61" y1="10.29" x2="94.93" y2="34.9"/><line class="cls-3" x1="94.57" y1="10.29" x2="93.63" y2="34.87"/><line class="cls-3" x1="58.54" y1="7.95" x2="55.44" y2="31.97"/><line class="cls-3" x1="59.71" y1="7.95" x2="56.61" y2="31.97"/><line class="cls-3" x1="60.67" y1="8.43" x2="57.58" y2="32.46"/><line class="cls-3" x1="61.84" y1="8.43" x2="58.75" y2="32.46"/><line class="cls-3" x1="62.8" y1="8.43" x2="59.71" y2="32.46"/><line class="cls-3" x1="63.98" y1="8.43" x2="60.88" y2="32.46"/><line class="cls-3" x1="64.94" y1="8.43" x2="61.84" y2="32.46"/><line class="cls-3" x1="66.11" y1="8.43" x2="63.01" y2="32.46"/><line class="cls-3" x1="50.12" y1="7.46" x2="47.03" y2="31.01"/><line class="cls-3" x1="51.29" y1="7.46" x2="48.2" y2="31.01"/><line class="cls-3" x1="52.25" y1="7.94" x2="49.16" y2="31.49"/><line class="cls-3" x1="53.43" y1="7.94" x2="50.33" y2="31.49"/><line class="cls-3" x1="54.39" y1="7.94" x2="51.29" y2="31.49"/><line class="cls-3" x1="56.52" y1="7.94" x2="53.43" y2="31.49"/><line class="cls-3" x1="57.69" y1="7.94" x2="54.6" y2="31.49"/><line class="cls-3" x1="41.35" y1="6.98" x2="38.26" y2="30.17"/><line class="cls-3" x1="42.52" y1="6.98" x2="39.43" y2="30.17"/><line class="cls-3" x1="43.48" y1="7.45" x2="40.39" y2="30.64"/><line class="cls-3" x1="44.66" y1="7.45" x2="41.56" y2="30.64"/><line class="cls-3" x1="45.62" y1="7.45" x2="42.52" y2="30.64"/><line class="cls-3" x1="46.79" y1="7.45" x2="43.69" y2="30.64"/><line class="cls-3" x1="47.75" y1="7.45" x2="44.66" y2="30.64"/><line class="cls-3" x1="48.92" y1="7.45" x2="45.83" y2="30.64"/><line class="cls-3" x1="67.07" y1="8.8" x2="63.98" y2="32.83"/><line class="cls-3" x1="68.24" y1="8.8" x2="65.15" y2="32.83"/><line class="cls-3" x1="69.2" y1="9.29" x2="66.11" y2="33.31"/><line class="cls-3" x1="70.38" y1="9.29" x2="67.28" y2="33.31"/><line class="cls-3" x1="71.34" y1="9.29" x2="68.24" y2="33.31"/><line class="cls-3" x1="72.51" y1="9.29" x2="69.41" y2="33.31"/><line class="cls-3" x1="73.47" y1="9.29" x2="70.38" y2="33.31"/><line class="cls-3" x1="74.64" y1="9.29" x2="71.55" y2="33.31"/><line class="cls-3" x1="75.6" y1="9.29" x2="72.51" y2="33.31"/><line class="cls-3" x1="76.78" y1="9.29" x2="73.68" y2="33.31"/><line class="cls-3" x1="77.74" y1="9.77" x2="74.64" y2="33.8"/><line class="cls-3" x1="78.91" y1="9.77" x2="75.81" y2="33.8"/><line class="cls-3" x1="79.87" y1="9.77" x2="76.78" y2="33.8"/><line class="cls-3" x1="81.04" y1="9.77" x2="77.95" y2="33.8"/><line class="cls-3" x1="82" y1="9.77" x2="78.91" y2="33.8"/><line class="cls-3" x1="83.18" y1="9.77" x2="80.08" y2="33.8"/><line class="cls-3" x1="84.16" y1="9.09" x2="81.37" y2="34.17"/><line class="cls-3" x1="85.33" y1="9.07" x2="82.54" y2="34.15"/><line class="cls-3" x1="86.3" y1="9.57" x2="83.51" y2="34.65"/><line class="cls-3" x1="87.47" y1="9.56" x2="84.68" y2="34.64"/><line class="cls-3" x1="88.43" y1="9.55" x2="85.64" y2="34.63"/><line class="cls-3" x1="89.6" y1="9.53" x2="86.81" y2="34.61"/><line class="cls-3" x1="90.57" y1="9.52" x2="88.21" y2="34.61"/><line class="cls-3" x1="91.74" y1="9.51" x2="89.6" y2="34.59"/><line class="cls-3" x1="93.56" y1="10.51" x2="92.43" y2="35.18"/><line class="cls-3" x1="92.43" y1="10.29" x2="90.97" y2="34.81"/><line class="cls-3" x1="34.05" y1="6.23" x2="30.95" y2="29.42"/><line class="cls-3" x1="35.22" y1="6.23" x2="32.12" y2="29.42"/><line class="cls-3" x1="36.18" y1="6.7" x2="33.09" y2="29.89"/><line class="cls-3" x1="37.35" y1="6.7" x2="34.26" y2="29.89"/><line class="cls-3" x1="38.32" y1="6.7" x2="35.22" y2="29.89"/><line class="cls-3" x1="39.49" y1="6.7" x2="36.39" y2="29.89"/><line class="cls-3" x1="40.45" y1="6.7" x2="37.35" y2="29.89"/><line class="cls-3" x1="26.69" y1="5.99" x2="23.59" y2="28.27"/><line class="cls-3" x1="27.86" y1="5.99" x2="24.76" y2="28.27"/><line class="cls-3" x1="28.82" y1="6.44" x2="25.73" y2="28.72"/><line class="cls-3" x1="29.99" y1="6.44" x2="26.9" y2="28.72"/><line class="cls-3" x1="30.95" y1="6.44" x2="27.86" y2="28.72"/><line class="cls-3" x1="32.12" y1="6.44" x2="29.03" y2="28.72"/><line class="cls-3" x1="33.09" y1="6.44" x2="29.99" y2="28.72"/><line class="cls-3" x1="19.83" y1="4.83" x2="14.06" y2="26.57"/><line class="cls-3" x1="20.99" y1="4.98" x2="15.71" y2="26.81"/><line class="cls-3" x1="21.89" y1="5.57" x2="16.83" y2="26.98"/><line class="cls-3" x1="23.05" y1="5.72" x2="18.39" y2="26.89"/><line class="cls-3" x1="24.01" y1="5.84" x2="19.83" y2="26.89"/><line class="cls-3" x1="25.17" y1="5.99" x2="20.79" y2="27.6"/><line class="cls-3" x1="26.12" y1="6.11" x2="22.16" y2="27.45"/><line class="cls-3" x1="96.7" y1="9.99" x2="97.34" y2="34.61"/><line class="cls-3" x1="97.74" y1="9.99" x2="98.75" y2="34.8"/><line class="cls-3" x1="133.77" y1="7.66" x2="136.87" y2="31.43"/><line class="cls-3" x1="132.6" y1="7.66" x2="135.7" y2="31.43"/><line class="cls-3" x1="131.64" y1="8.14" x2="134.73" y2="31.92"/><line class="cls-3" x1="130.47" y1="8.14" x2="133.56" y2="31.92"/><line class="cls-3" x1="129.51" y1="8.14" x2="132.6" y2="31.92"/><line class="cls-3" x1="128.33" y1="8.14" x2="131.43" y2="31.92"/><line class="cls-3" x1="127.37" y1="8.14" x2="130.47" y2="31.92"/><line class="cls-3" x1="126.2" y1="8.14" x2="129.34" y2="32.28"/><line class="cls-3" x1="142.19" y1="7.18" x2="145.28" y2="30.48"/><line class="cls-3" x1="141.02" y1="7.18" x2="144.11" y2="30.48"/><line class="cls-3" x1="140.06" y1="7.65" x2="143.15" y2="30.95"/><line class="cls-3" x1="138.88" y1="7.65" x2="141.98" y2="30.95"/><line class="cls-3" x1="137.92" y1="7.65" x2="141.02" y2="30.95"/><line class="cls-3" x1="136.75" y1="7.65" x2="139.85" y2="30.95"/><line class="cls-3" x1="135.79" y1="7.65" x2="138.88" y2="30.95"/><line class="cls-3" x1="150.96" y1="6.71" x2="154.05" y2="29.65"/><line class="cls-3" x1="149.79" y1="6.71" x2="152.88" y2="29.65"/><line class="cls-3" x1="148.83" y1="7.17" x2="151.92" y2="30.12"/><line class="cls-3" x1="147.65" y1="7.17" x2="150.75" y2="30.12"/><line class="cls-3" x1="146.69" y1="7.17" x2="149.79" y2="30.12"/><line class="cls-3" x1="145.52" y1="7.17" x2="148.62" y2="30.12"/><line class="cls-3" x1="144.56" y1="7.17" x2="147.65" y2="30.12"/><line class="cls-3" x1="143.39" y1="7.17" x2="146.48" y2="30.12"/><line class="cls-3" x1="125.24" y1="8.51" x2="128.33" y2="32.28"/><line class="cls-3" x1="124.07" y1="8.51" x2="127.16" y2="32.28"/><line class="cls-3" x1="123.11" y1="8.99" x2="126.2" y2="32.76"/><line class="cls-3" x1="121.93" y1="8.99" x2="125.03" y2="32.76"/><line class="cls-3" x1="119.8" y1="8.99" x2="122.9" y2="32.76"/><line class="cls-3" x1="118.84" y1="8.99" x2="121.93" y2="32.76"/><line class="cls-3" x1="117.67" y1="8.99" x2="120.83" y2="33.24"/><line class="cls-3" x1="116.71" y1="8.99" x2="119.87" y2="33.31"/><line class="cls-3" x1="115.53" y1="8.99" x2="118.73" y2="33.57"/><line class="cls-3" x1="114.57" y1="9.47" x2="117.67" y2="33.24"/><line class="cls-3" x1="113.4" y1="9.47" x2="116.5" y2="33.24"/><line class="cls-3" x1="112.44" y1="9.47" x2="115.64" y2="34.02"/><line class="cls-3" x1="111.27" y1="9.47" x2="114.41" y2="33.61"/><line class="cls-3" x1="110.31" y1="9.47" x2="113.47" y2="33.8"/><line class="cls-3" x1="109.13" y1="9.47" x2="112.3" y2="33.8"/><line class="cls-3" x1="108.26" y1="9.77" x2="110.94" y2="33.61"/><line class="cls-3" x1="107.07" y1="9.57" x2="109.77" y2="33.59"/><line class="cls-3" x1="106.01" y1="9.27" x2="108.8" y2="34.09"/><line class="cls-3" x1="104.92" y1="9.99" x2="107.63" y2="34.07"/><line class="cls-3" x1="103.94" y1="9.77" x2="106.67" y2="34.06"/><line class="cls-3" x1="102.8" y1="10.06" x2="105.5" y2="34.05"/><line class="cls-3" x1="101.82" y1="10.06" x2="104.1" y2="34.05"/><line class="cls-3" x1="100.64" y1="9.99" x2="102.71" y2="34.02"/><line class="cls-3" x1="98.75" y1="10.2" x2="99.88" y2="34.61"/><line class="cls-3" x1="99.88" y1="9.99" x2="101.34" y2="34.24"/><line class="cls-3" x1="158.26" y1="5.96" x2="161.36" y2="28.91"/><line class="cls-3" x1="157.15" y1="6.43" x2="160.19" y2="28.91"/><line class="cls-3" x1="156.13" y1="6.43" x2="159.22" y2="29.37"/><line class="cls-3" x1="154.96" y1="6.43" x2="158.05" y2="29.37"/><line class="cls-3" x1="153.99" y1="6.43" x2="157.09" y2="29.37"/><line class="cls-3" x1="152.82" y1="6.43" x2="155.92" y2="29.37"/><line class="cls-3" x1="151.86" y1="6.43" x2="154.96" y2="29.37"/><line class="cls-3" x1="165.62" y1="5.73" x2="168.72" y2="27.77"/><line class="cls-3" x1="164.45" y1="5.73" x2="167.55" y2="27.77"/><line class="cls-3" x1="163.49" y1="6.17" x2="166.58" y2="28.22"/><line class="cls-3" x1="162.32" y1="6.17" x2="165.41" y2="28.22"/><line class="cls-3" x1="161.36" y1="6.17" x2="164.45" y2="28.22"/><line class="cls-3" x1="160.19" y1="6.17" x2="163.28" y2="28.22"/><line class="cls-3" x1="159.22" y1="6.17" x2="162.32" y2="28.22"/><line class="cls-3" x1="172.7" y1="5.4" x2="178.25" y2="26.09"/><line class="cls-3" x1="171.49" y1="5.46" x2="176.6" y2="26.33"/><line class="cls-3" x1="170.42" y1="5.31" x2="175.48" y2="26.49"/><line class="cls-3" x1="169.26" y1="5.46" x2="173.92" y2="26.4"/><line class="cls-3" x1="168.31" y1="5.58" x2="172.62" y2="27.11"/><line class="cls-3" x1="167.14" y1="5.72" x2="171.52" y2="27.1"/><line class="cls-3" x1="166.19" y1="5.85" x2="170.15" y2="26.96"/><path class="cls-4" d="M179.3,192.11s2.3,13.24-.66,19.43-2.34,10.36.66,15,3.78,4.6.66,11.94-16.48,13.52-16.2,19.85,1.1,20,5.43,25" transform="translate(-91.83 -170.03)"/><path class="cls-4" d="M194.63,192.42s-2.74,13.62.22,19.81,2.34,10.35-.66,15-3.78,4.6-.66,11.94S210,252.65,209.74,259s-1.11,20-5.44,25" transform="translate(-91.83 -170.03)"/><polygon class="cls-1" points="74.93 114.88 79.97 111.28 83.13 118.33 81.02 120.06 74.93 114.88"/><polygon class="cls-1" points="115.03 116.24 110 112.64 106.83 119.69 108.94 121.42 115.03 116.24"/><polygon points="68.81 33.34 67.73 51.63 67.82 33.29 68.81 33.34"/><path class="cls-1" d="M266.26,175.55c-63.91-11.05-156.58-.19-156-.12,0,0,72.58,4.15,78.94,4.07S273.06,176.72,266.26,175.55Z" transform="translate(-91.83 -170.03)"/><polygon points="95.83 34.81 96.08 11.09 96.33 34.81 95.83 34.81"/><line class="cls-1" x1="88.43" y1="19.71" x2="85.64" y2="24.47"/><line class="cls-1" x1="101.34" y1="19.71" x2="104.15" y2="24.47"/><line class="cls-3" x1="126.28" y1="492.55" x2="126.28" y2="507.23"/><line class="cls-3" x1="64.24" y1="492.55" x2="64.24" y2="507.23"/><line class="cls-3" x1="21.51" y1="492.93" x2="21.51" y2="507.61"/><line class="cls-3" x1="169.01" y1="492.93" x2="169.01" y2="507.61"/><line class="cls-3" x1="134.73" y1="7.9" x2="137.83" y2="31.2"/><line class="cls-3" x1="55.35" y1="7.27" x2="52.25" y2="30.82"/><line class="cls-3" x1="120.9" y1="8.56" x2="123.99" y2="32.33"/><polygon points="123.31 33.29 123.4 51.63 122.31 33.34 123.31 33.29"/><path d="M144.5,201.23q-.7,10.22-1.3,20.43l-.55,10.22c-.16,3.41-.3,6.82-.33,10.23,0-3.41,0-6.83.08-10.24l.3-10.23q.35-10.23.8-20.46Z" transform="translate(-91.83 -170.03)"/><path d="M231.92,201.18q.47,10.23.81,20.46l.29,10.23c.08,3.41.14,6.83.09,10.24,0-3.41-.18-6.82-.34-10.23l-.54-10.22q-.6-10.22-1.31-20.43Z" transform="translate(-91.83 -170.03)"/><path class="cls-1" d="M395.84,180.43l-77.08-4.88s-1.65,8.45-3.87,20.74c-4.86,26.86-12.46,72-11.67,87.43,1.15,22.45,9.78,312.46,9.78,312.46s3.45,61.57,9.78,66.75l2,21.29h41.14l3.16-21.87s6.33,0,6-26.47S380,550.15,380,550.15L397.3,294.37l-.48-89.76" transform="translate(-91.83 -170.03)"/><path class="cls-1" d="M395.84,180.43l78.93-5A95.6,95.6,0,0,1,481,196.32c4.86,26.85,12.46,72,11.67,87.43-1.15,22.45-9.78,312.46-9.78,312.46s-3.45,61.57-9.78,66.75l-2,21.29H429.9l-3.16-21.87s-6.33,0-6-26.47-4.89-85.74-4.89-85.74L397.3,294.37" transform="translate(-91.83 -170.03)"/><path class="cls-1" d="M481,196.32s-57.66,8.89-85.57,8.6" transform="translate(-91.83 -170.03)"/><line class="cls-1" x1="381.23" y1="492.93" x2="334.91" y2="492.36"/><line class="cls-2" x1="381.23" y1="499.55" x2="335.95" y2="499.55"/><line class="cls-2" x1="379.84" y1="507.61" x2="337.11" y2="507.61"/><line class="cls-3" x1="378.64" y1="492.93" x2="378.64" y2="514.22"/><line class="cls-3" x1="377.39" y1="492.93" x2="377.39" y2="514.22"/><line class="cls-3" x1="376.24" y1="492.93" x2="376.24" y2="514.22"/><line class="cls-3" x1="375.09" y1="492.93" x2="375.09" y2="514.22"/><line class="cls-3" x1="373.84" y1="492.93" x2="373.84" y2="514.22"/><line class="cls-3" x1="372.69" y1="492.93" x2="372.69" y2="514.22"/><line class="cls-3" x1="371.73" y1="492.93" x2="371.73" y2="514.22"/><line class="cls-3" x1="370.49" y1="492.93" x2="370.49" y2="514.22"/><line class="cls-3" x1="369.34" y1="492.93" x2="369.34" y2="514.22"/><line class="cls-3" x1="368.18" y1="492.93" x2="368.18" y2="514.22"/><line class="cls-3" x1="366.94" y1="492.93" x2="366.94" y2="514.22"/><line class="cls-3" x1="365.79" y1="492.93" x2="365.79" y2="514.22"/><line class="cls-3" x1="364.59" y1="492.93" x2="364.59" y2="514.22"/><line class="cls-3" x1="363.34" y1="492.93" x2="363.34" y2="514.22"/><line class="cls-3" x1="362.19" y1="492.93" x2="362.19" y2="514.22"/><line class="cls-3" x1="361.04" y1="492.93" x2="361.04" y2="514.22"/><line class="cls-3" x1="359.79" y1="492.93" x2="359.79" y2="514.22"/><line class="cls-3" x1="358.64" y1="492.93" x2="358.64" y2="514.22"/><line class="cls-3" x1="361.04" y1="492.74" x2="361.04" y2="514.03"/><line class="cls-3" x1="359.79" y1="492.74" x2="359.79" y2="514.03"/><line class="cls-3" x1="358.64" y1="492.74" x2="358.64" y2="514.03"/><line class="cls-3" x1="357.49" y1="492.74" x2="357.49" y2="514.03"/><line class="cls-3" x1="356.24" y1="492.74" x2="356.24" y2="514.03"/><line class="cls-3" x1="345.94" y1="492.93" x2="345.94" y2="514.22"/><line class="cls-3" x1="344.69" y1="492.74" x2="344.69" y2="514.03"/><line class="cls-3" x1="343.44" y1="492.74" x2="343.44" y2="514.03"/><line class="cls-3" x1="342.29" y1="492.74" x2="342.29" y2="514.03"/><line class="cls-3" x1="341.14" y1="492.74" x2="341.14" y2="514.03"/><line class="cls-3" x1="339.89" y1="492.74" x2="339.89" y2="514.03"/><line class="cls-3" x1="338.74" y1="492.74" x2="338.74" y2="514.03"/><line class="cls-3" x1="352.94" y1="492.93" x2="352.94" y2="514.22"/><line class="cls-3" x1="351.69" y1="492.93" x2="351.69" y2="514.22"/><line class="cls-3" x1="350.54" y1="492.93" x2="350.54" y2="514.22"/><line class="cls-3" x1="349.39" y1="492.93" x2="349.39" y2="514.22"/><line class="cls-3" x1="348.14" y1="492.93" x2="348.14" y2="514.22"/><line class="cls-3" x1="346.99" y1="492.93" x2="346.99" y2="514.22"/><line class="cls-3" x1="355.21" y1="492.74" x2="355.21" y2="514.03"/><line class="cls-3" x1="353.97" y1="492.74" x2="353.97" y2="514.03"/><path class="cls-1" d="M314.89,196.29s57.67,8.89,85.58,8.6" transform="translate(-91.83 -170.03)"/><line class="cls-1" x1="230.95" y1="492.9" x2="277.27" y2="492.33"/><line class="cls-2" x1="230.95" y1="499.52" x2="276.23" y2="499.52"/><line class="cls-2" x1="232.34" y1="507.58" x2="275.06" y2="507.58"/><line class="cls-3" x1="233.54" y1="492.9" x2="233.54" y2="514.19"/><line class="cls-3" x1="234.79" y1="492.9" x2="234.79" y2="514.19"/><line class="cls-3" x1="235.94" y1="492.9" x2="235.94" y2="514.19"/><line class="cls-3" x1="237.09" y1="492.9" x2="237.09" y2="514.19"/><line class="cls-3" x1="238.34" y1="492.9" x2="238.34" y2="514.19"/><line class="cls-3" x1="239.49" y1="492.9" x2="239.49" y2="514.19"/><line class="cls-3" x1="240.45" y1="492.9" x2="240.45" y2="514.19"/><line class="cls-3" x1="241.69" y1="492.9" x2="241.69" y2="514.19"/><line class="cls-3" x1="242.84" y1="492.9" x2="242.84" y2="514.19"/><line class="cls-3" x1="243.99" y1="492.9" x2="243.99" y2="514.19"/><line class="cls-3" x1="245.24" y1="492.9" x2="245.24" y2="514.19"/><line class="cls-3" x1="246.39" y1="492.9" x2="246.39" y2="514.19"/><line class="cls-3" x1="247.59" y1="492.9" x2="247.59" y2="514.19"/><line class="cls-3" x1="248.84" y1="492.9" x2="248.84" y2="514.19"/><line class="cls-3" x1="249.99" y1="492.9" x2="249.99" y2="514.19"/><line class="cls-3" x1="251.14" y1="492.9" x2="251.14" y2="514.19"/><line class="cls-3" x1="252.39" y1="492.9" x2="252.39" y2="514.19"/><line class="cls-3" x1="253.54" y1="492.9" x2="253.54" y2="514.19"/><line class="cls-3" x1="251.14" y1="492.71" x2="251.14" y2="514"/><line class="cls-3" x1="252.39" y1="492.71" x2="252.39" y2="514"/><line class="cls-3" x1="253.54" y1="492.71" x2="253.54" y2="514"/><line class="cls-3" x1="254.69" y1="492.71" x2="254.69" y2="514"/><line class="cls-3" x1="255.93" y1="492.71" x2="255.93" y2="514"/><line class="cls-3" x1="266.24" y1="492.9" x2="266.24" y2="514.19"/><line class="cls-3" x1="267.49" y1="492.71" x2="267.49" y2="514"/><line class="cls-3" x1="268.74" y1="492.71" x2="268.74" y2="514"/><line class="cls-3" x1="269.89" y1="492.71" x2="269.89" y2="514"/><line class="cls-3" x1="271.04" y1="492.71" x2="271.04" y2="514"/><line class="cls-3" x1="272.29" y1="492.71" x2="272.29" y2="514"/><line class="cls-3" x1="273.44" y1="492.71" x2="273.44" y2="514"/><line class="cls-3" x1="259.24" y1="492.9" x2="259.24" y2="514.19"/><line class="cls-3" x1="260.49" y1="492.9" x2="260.49" y2="514.19"/><line class="cls-3" x1="261.64" y1="492.9" x2="261.64" y2="514.19"/><line class="cls-3" x1="262.79" y1="492.9" x2="262.79" y2="514.19"/><line class="cls-3" x1="264.04" y1="492.9" x2="264.04" y2="514.19"/><line class="cls-3" x1="265.19" y1="492.9" x2="265.19" y2="514.19"/><line class="cls-3" x1="256.96" y1="492.71" x2="256.96" y2="514"/><line class="cls-3" x1="258.21" y1="492.71" x2="258.21" y2="514"/><path class="cls-1" d="M338.9,199.65" transform="translate(-91.83 -170.03)"/><path class="cls-2" d="M342,200.59" transform="translate(-91.83 -170.03)"/><path class="cls-2" d="M477.31,182.09s-89.21,16.68-159.8,0" transform="translate(-91.83 -170.03)"/><path class="cls-2" d="M479.13,189.5s-90.87,16.68-161.46,0" transform="translate(-91.83 -170.03)"/><line class="cls-3" x1="305.74" y1="10.29" x2="306.42" y2="34.9"/><line class="cls-3" x1="306.78" y1="10.29" x2="307.72" y2="34.87"/><line class="cls-3" x1="342.81" y1="7.95" x2="345.91" y2="31.97"/><line class="cls-3" x1="341.64" y1="7.95" x2="344.73" y2="31.97"/><line class="cls-3" x1="340.68" y1="8.43" x2="343.77" y2="32.46"/><line class="cls-3" x1="339.51" y1="8.43" x2="342.6" y2="32.46"/><line class="cls-3" x1="338.54" y1="8.43" x2="341.64" y2="32.46"/><line class="cls-3" x1="337.37" y1="8.43" x2="340.47" y2="32.46"/><line class="cls-3" x1="336.41" y1="8.43" x2="339.51" y2="32.46"/><line class="cls-3" x1="335.24" y1="8.43" x2="338.34" y2="32.46"/><line class="cls-3" x1="351.23" y1="7.46" x2="354.32" y2="31.01"/><line class="cls-3" x1="350.06" y1="7.46" x2="353.15" y2="31.01"/><line class="cls-3" x1="349.09" y1="7.94" x2="352.19" y2="31.49"/><line class="cls-3" x1="347.92" y1="7.94" x2="351.02" y2="31.49"/><line class="cls-3" x1="346.96" y1="7.94" x2="350.06" y2="31.49"/><line class="cls-3" x1="344.83" y1="7.94" x2="347.92" y2="31.49"/><line class="cls-3" x1="343.66" y1="7.94" x2="346.75" y2="31.49"/><line class="cls-3" x1="360" y1="6.98" x2="363.09" y2="30.17"/><line class="cls-3" x1="358.83" y1="6.98" x2="361.92" y2="30.17"/><line class="cls-3" x1="357.86" y1="7.45" x2="360.96" y2="30.64"/><line class="cls-3" x1="356.69" y1="7.45" x2="359.79" y2="30.64"/><line class="cls-3" x1="355.73" y1="7.45" x2="358.83" y2="30.64"/><line class="cls-3" x1="354.56" y1="7.45" x2="357.66" y2="30.64"/><line class="cls-3" x1="353.6" y1="7.45" x2="356.69" y2="30.64"/><line class="cls-3" x1="352.43" y1="7.45" x2="355.52" y2="30.64"/><line class="cls-3" x1="334.28" y1="8.8" x2="337.37" y2="32.83"/><line class="cls-3" x1="333.11" y1="8.8" x2="336.2" y2="32.83"/><line class="cls-3" x1="332.14" y1="9.29" x2="335.24" y2="33.31"/><line class="cls-3" x1="330.97" y1="9.29" x2="334.07" y2="33.31"/><line class="cls-3" x1="330.01" y1="9.29" x2="333.11" y2="33.31"/><line class="cls-3" x1="328.84" y1="9.29" x2="331.94" y2="33.31"/><line class="cls-3" x1="327.88" y1="9.29" x2="330.97" y2="33.31"/><line class="cls-3" x1="326.71" y1="9.29" x2="329.8" y2="33.31"/><line class="cls-3" x1="325.74" y1="9.29" x2="328.84" y2="33.31"/><line class="cls-3" x1="324.57" y1="9.29" x2="327.67" y2="33.31"/><line class="cls-3" x1="323.61" y1="9.77" x2="326.71" y2="33.8"/><line class="cls-3" x1="322.44" y1="9.77" x2="325.54" y2="33.8"/><line class="cls-3" x1="321.48" y1="9.77" x2="324.57" y2="33.8"/><line class="cls-3" x1="320.31" y1="9.77" x2="323.4" y2="33.8"/><line class="cls-3" x1="319.34" y1="9.77" x2="322.44" y2="33.8"/><line class="cls-3" x1="318.17" y1="9.77" x2="321.27" y2="33.8"/><line class="cls-3" x1="317.19" y1="9.09" x2="319.98" y2="34.17"/><line class="cls-3" x1="316.02" y1="9.07" x2="318.81" y2="34.15"/><line class="cls-3" x1="315.05" y1="9.57" x2="317.84" y2="34.65"/><line class="cls-3" x1="313.88" y1="9.56" x2="316.67" y2="34.64"/><line class="cls-3" x1="312.92" y1="9.55" x2="315.71" y2="34.63"/><line class="cls-3" x1="311.75" y1="9.53" x2="314.54" y2="34.61"/><line class="cls-3" x1="310.78" y1="9.52" x2="313.14" y2="34.61"/><line class="cls-3" x1="309.61" y1="9.51" x2="311.75" y2="34.59"/><line class="cls-3" x1="307.79" y1="10.51" x2="308.92" y2="35.18"/><line class="cls-3" x1="308.92" y1="10.29" x2="310.38" y2="34.81"/><line class="cls-3" x1="367.3" y1="6.23" x2="370.4" y2="29.42"/><line class="cls-3" x1="366.13" y1="6.23" x2="369.22" y2="29.42"/><line class="cls-3" x1="365.17" y1="6.7" x2="368.26" y2="29.89"/><line class="cls-3" x1="364" y1="6.7" x2="367.09" y2="29.89"/><line class="cls-3" x1="363.03" y1="6.7" x2="366.13" y2="29.89"/><line class="cls-3" x1="361.86" y1="6.7" x2="364.96" y2="29.89"/><line class="cls-3" x1="360.9" y1="6.7" x2="364" y2="29.89"/><line class="cls-3" x1="374.66" y1="5.99" x2="377.76" y2="28.27"/><line class="cls-3" x1="373.49" y1="5.99" x2="376.59" y2="28.27"/><line class="cls-3" x1="372.53" y1="6.44" x2="375.62" y2="28.72"/><line class="cls-3" x1="371.36" y1="6.44" x2="374.45" y2="28.72"/><line class="cls-3" x1="370.4" y1="6.44" x2="373.49" y2="28.72"/><line class="cls-3" x1="369.22" y1="6.44" x2="372.32" y2="28.72"/><line class="cls-3" x1="368.26" y1="6.44" x2="371.36" y2="28.72"/><line class="cls-3" x1="381.52" y1="4.83" x2="387.29" y2="26.57"/><line class="cls-3" x1="380.35" y1="4.98" x2="385.64" y2="26.81"/><line class="cls-3" x1="379.46" y1="5.57" x2="384.52" y2="26.98"/><line class="cls-3" x1="378.3" y1="5.72" x2="382.95" y2="26.89"/><line class="cls-3" x1="377.34" y1="5.84" x2="381.52" y2="26.89"/><line class="cls-3" x1="376.18" y1="5.99" x2="380.56" y2="27.6"/><line class="cls-3" x1="375.23" y1="6.11" x2="379.19" y2="27.45"/><line class="cls-3" x1="304.65" y1="9.99" x2="303.97" y2="34.33"/><line class="cls-3" x1="303.61" y1="9.99" x2="302.67" y2="34.3"/><line class="cls-3" x1="267.58" y1="7.66" x2="264.48" y2="31.43"/><line class="cls-3" x1="268.75" y1="7.66" x2="265.65" y2="31.43"/><line class="cls-3" x1="269.71" y1="8.14" x2="266.62" y2="31.92"/><line class="cls-3" x1="270.88" y1="8.14" x2="267.79" y2="31.92"/><line class="cls-3" x1="271.84" y1="8.14" x2="268.75" y2="31.92"/><line class="cls-3" x1="273.01" y1="8.14" x2="269.92" y2="31.92"/><line class="cls-3" x1="273.98" y1="8.14" x2="270.88" y2="31.92"/><line class="cls-3" x1="275.15" y1="8.14" x2="272.01" y2="32.28"/><line class="cls-3" x1="259.16" y1="7.18" x2="256.06" y2="30.48"/><line class="cls-3" x1="260.33" y1="7.18" x2="257.24" y2="30.48"/><line class="cls-3" x1="261.29" y1="7.65" x2="258.2" y2="30.95"/><line class="cls-3" x1="262.46" y1="7.65" x2="259.37" y2="30.95"/><line class="cls-3" x1="263.43" y1="7.65" x2="260.33" y2="30.95"/><line class="cls-3" x1="264.6" y1="7.65" x2="261.5" y2="30.95"/><line class="cls-3" x1="265.56" y1="7.65" x2="262.46" y2="30.95"/><line class="cls-3" x1="250.39" y1="6.71" x2="247.29" y2="29.65"/><line class="cls-3" x1="251.56" y1="6.71" x2="248.47" y2="29.65"/><line class="cls-3" x1="252.52" y1="7.17" x2="249.43" y2="30.12"/><line class="cls-3" x1="253.69" y1="7.17" x2="250.6" y2="30.12"/><line class="cls-3" x1="254.66" y1="7.17" x2="251.56" y2="30.12"/><line class="cls-3" x1="255.83" y1="7.17" x2="252.73" y2="30.12"/><line class="cls-3" x1="256.79" y1="7.17" x2="253.69" y2="30.12"/><line class="cls-3" x1="257.96" y1="7.17" x2="254.87" y2="30.12"/><line class="cls-3" x1="276.11" y1="8.51" x2="273.01" y2="32.28"/><line class="cls-3" x1="277.28" y1="8.51" x2="274.19" y2="32.28"/><line class="cls-3" x1="278.24" y1="8.99" x2="275.15" y2="32.76"/><line class="cls-3" x1="279.41" y1="8.99" x2="276.32" y2="32.76"/><line class="cls-3" x1="281.55" y1="8.99" x2="278.45" y2="32.76"/><line class="cls-3" x1="282.51" y1="8.99" x2="279.41" y2="32.76"/><line class="cls-3" x1="283.68" y1="8.99" x2="280.52" y2="33.24"/><line class="cls-3" x1="284.64" y1="8.99" x2="281.48" y2="33.31"/><line class="cls-3" x1="285.81" y1="8.99" x2="282.61" y2="33.57"/><line class="cls-3" x1="286.78" y1="9.47" x2="283.68" y2="33.24"/><line class="cls-3" x1="287.95" y1="9.47" x2="284.85" y2="33.24"/><line class="cls-3" x1="288.91" y1="9.47" x2="285.71" y2="34.02"/><line class="cls-3" x1="290.08" y1="9.47" x2="286.94" y2="33.61"/><line class="cls-3" x1="291.04" y1="9.47" x2="287.88" y2="33.8"/><line class="cls-3" x1="292.21" y1="9.47" x2="289.05" y2="33.8"/><line class="cls-3" x1="293.09" y1="9.77" x2="290.41" y2="33.61"/><line class="cls-3" x1="294.28" y1="9.57" x2="291.58" y2="33.59"/><line class="cls-3" x1="295.34" y1="9.27" x2="292.54" y2="34.09"/><line class="cls-3" x1="296.43" y1="9.99" x2="293.72" y2="34.07"/><line class="cls-3" x1="297.41" y1="9.77" x2="294.68" y2="34.06"/><line class="cls-3" x1="298.55" y1="10.06" x2="295.85" y2="34.05"/><line class="cls-3" x1="299.53" y1="10.06" x2="297.25" y2="34.05"/><line class="cls-3" x1="300.71" y1="9.99" x2="298.64" y2="34.02"/><line class="cls-3" x1="302.6" y1="10.2" x2="301.47" y2="34.61"/><line class="cls-3" x1="301.47" y1="9.99" x2="300.01" y2="34.24"/><line class="cls-3" x1="243.09" y1="5.96" x2="239.99" y2="28.91"/><line class="cls-3" x1="244.2" y1="6.43" x2="241.16" y2="28.91"/><line class="cls-3" x1="245.22" y1="6.43" x2="242.13" y2="29.37"/><line class="cls-3" x1="246.39" y1="6.43" x2="243.3" y2="29.37"/><line class="cls-3" x1="247.35" y1="6.43" x2="244.26" y2="29.37"/><line class="cls-3" x1="248.53" y1="6.43" x2="245.43" y2="29.37"/><line class="cls-3" x1="249.49" y1="6.43" x2="246.39" y2="29.37"/><line class="cls-3" x1="235.73" y1="5.73" x2="232.63" y2="27.77"/><line class="cls-3" x1="236.9" y1="5.73" x2="233.8" y2="27.77"/><line class="cls-3" x1="237.86" y1="6.17" x2="234.76" y2="28.22"/><line class="cls-3" x1="239.03" y1="6.17" x2="235.94" y2="28.22"/><line class="cls-3" x1="239.99" y1="6.17" x2="236.9" y2="28.22"/><line class="cls-3" x1="241.16" y1="6.17" x2="238.07" y2="28.22"/><line class="cls-3" x1="242.13" y1="6.17" x2="239.03" y2="28.22"/><line class="cls-3" x1="228.65" y1="5.4" x2="223.09" y2="26.09"/><line class="cls-3" x1="229.85" y1="5.46" x2="224.75" y2="26.33"/><line class="cls-3" x1="230.93" y1="5.31" x2="225.87" y2="26.49"/><line class="cls-3" x1="232.09" y1="5.46" x2="227.43" y2="26.4"/><line class="cls-3" x1="233.04" y1="5.58" x2="228.73" y2="27.11"/><line class="cls-3" x1="234.21" y1="5.72" x2="229.83" y2="27.1"/><line class="cls-3" x1="235.16" y1="5.85" x2="231.2" y2="26.96"/><polygon points="304.74 34.17 304.99 11.17 305.24 34.17 304.74 34.17"/><line class="cls-3" x1="337.7" y1="492.74" x2="337.7" y2="507.42"/><line class="cls-3" x1="379.84" y1="492.93" x2="379.84" y2="507.61"/><line class="cls-3" x1="232.34" y1="492.74" x2="232.34" y2="507.42"/><line class="cls-3" x1="274.38" y1="492.68" x2="274.38" y2="507.35"/><line class="cls-3" x1="275.73" y1="492.18" x2="275.73" y2="505.31"/><line class="cls-3" x1="336.42" y1="492.93" x2="336.42" y2="505.31"/><path class="cls-1" d="M319.34,175.48c63.91-11,156.58-.18,156-.12,0,0-72.58,4.16-78.94,4.07S312.53,176.66,319.34,175.48Z" transform="translate(-91.83 -170.03)"/><polygon points="280.19 33.34 279.1 51.63 279.19 33.29 280.19 33.34"/><polygon points="334.68 33.29 334.77 51.63 333.68 33.34 334.68 33.29"/><path d="M355.87,201.23q-.71,10.22-1.3,20.43L354,231.88c-.16,3.41-.3,6.82-.33,10.23-.05-3.41,0-6.83.08-10.24l.3-10.23q.35-10.23.8-20.46Z" transform="translate(-91.83 -170.03)"/><path d="M443.29,201.18q.46,10.23.81,20.46l.29,10.23c.08,3.41.14,6.83.09,10.24,0-3.41-.18-6.82-.34-10.23l-.54-10.22q-.6-10.22-1.31-20.43Z" transform="translate(-91.83 -170.03)"/><line class="cls-3" x1="345.95" y1="7.53" x2="349.05" y2="31.08"/><line class="cls-3" x1="280.45" y1="9.47" x2="277.35" y2="33.24"/><line class="cls-3" x1="266.52" y1="8.14" x2="263.43" y2="31.92"/></svg>