<svg id="Layer_1" data-name="Layer 1" xmlns="http://www.w3.org/2000/svg" viewBox="0 0 488.55 282.54"><defs>
<style>.cls-1,.cls-2{stroke:#000;stroke-miterlimit:10;}.cls-2{stroke-width:0.5px;stroke-dasharray:1;}</style></defs><path class="cls-1" d="M417.45,474C358.38,473.4,346,456.32,346,456.32l-.06-5.23-1.59-141.85c8.29-35.78-15.85-77.54-15.85-77.54L381.17,205s25.79,13,71.3.33l49.78,25.19s-26,42.09-15.84,77.54l-1.65,147.08s-9.54,19.13-67.31,18.78" transform="translate(-38.21 -191.93)"/><path class="cls-1" d="M444.4,198.68" transform="translate(-38.21 -191.93)"/><path class="cls-1" d="M486.33,310.86,490,326c10.36,2.72,36.25-8.56,36.25-8.56s-2.12-12.52-5.89-36.53-18.06-50.3-18.06-50.3-8.45,14.54-11.77,25.57-7.65,27.18-6.35,37.56S486.33,310.86,486.33,310.86Z" transform="translate(-38.21 -191.93)"/><path class="cls-1" d="M525.54,314.43s-18.95,9.21-36.33,9.43" transform="translate(-38.21 -191.93)"/><path class="cls-2" d="M525.54,312.52s-18.95,9.21-36.33,9.43" transform="translate(-38.21 -191.93)"/><path class="cls-1" d="M452.47,205.37l-8.07-12.84c-30.09,8.52-57.4,0-57.4,0L381.17,205S408.81,218.47,452.47,205.37Z" transform="translate(-38.21 -191.93)"/><path class="cls-2" d="M484.81,451.09c-38.79,20.68-50.32,16.34-69.43,16.34,0,0-40.54.25-69.44-16.34" transform="translate(-38.21 -191.93)"/><path class="cls-1" d="M344.12,311.58l-3.62,15.11c-10.36,2.71-36.25-8.56-36.25-8.56s2.12-12.53,5.88-36.54,18.06-50.29,18.06-50.29,8.45,14.53,11.78,25.56,7.64,27.18,6.35,37.57S344.12,311.58,344.12,311.58Z" transform="translate(-38.21 -191.93)"/><path class="cls-1" d="M304.91,315.16s18.95,9.2,36.33,9.43" transform="translate(-38.21 -191.93)"/><path class="cls-2" d="M304.91,313.25s18.95,9.2,36.33,9.43" transform="translate(-38.21 -191.93)"/><path class="cls-1" d="M115.45,202.67,62.79,229.32s26,42.09,15.85,77.54l1.64,147.08S92.66,471,151.73,471.59c57.78.35,67.32-18.78,67.32-18.78l1.64-147.09c-10.17-35.45,15.85-77.54,15.85-77.54L186.75,203S176,215.36,168.94,219.58a93.46,93.46,0,0,1-14,7.11c-1.32.43-1.31.05-1.34,4.9l-.45,93.85-4.6,5.07L143,325.9l.63-95.15s1.71-1.74-3.27-3-19.87-10.35-24.94-25.08" transform="translate(-38.21 -191.93)"/><path class="cls-1" d="M153.64,227.12l-.47,98.32-4.6,5.07L143,325.9s.91-71.26.46-89a53.62,53.62,0,0,1,.17-6.17c0-.5.09-1,.15-1.45,1.44-11,6.87-10.14,6.87-10.14,14.29-2.3,28-22.86,28-22.86l8.07,6.71s-8.59,8.86-14.53,14.16a61.56,61.56,0,0,1-15.07,8.74,54.35,54.35,0,0,1-13.34,3.39" transform="translate(-38.21 -191.93)"/><path class="cls-1" d="M143,228.61a36,36,0,0,1-8.59-3.71,51.69,51.69,0,0,1-11.65-10c-4.48-4.82-7.34-12.22-7.34-12.22l4.28-2.89,4.62-3.48s1,9.06,5.73,14c4.93,5.18,16.63,9.28,16.63,9.28h1.89s-2.6,1.6-3.11,3.48-1.68,6.23-1.68,6.23Z" transform="translate(-38.21 -191.93)"/><path class="cls-1" d="M178.68,196.3" transform="translate(-38.21 -191.93)"/><path class="cls-1" d="M173.52,203c-25.82-2.43-40.35-.35-45.27.62-1.28.25-1.91.43-1.91.43l-2-7.76s27-8.47,54.33,0Z" transform="translate(-38.21 -191.93)"/><circle class="cls-1" cx="111.1" cy="32.38" r="1.88"/><circle class="cls-1" cx="111.1" cy="74.15" r="1.88"/><circle class="cls-1" cx="110.39" cy="99.92" r="1.88"/><circle class="cls-1" cx="111.1" cy="51.09" r="1.88"/><line class="cls-1" x1="27.91" y1="44.71" x2="80.65" y2="17.58"/><line class="cls-1" x1="194.59" y1="44.36" x2="142.52" y2="17.58"/><path class="cls-1" d="M78.64,306.86,75,326.14c-10.36,2.72-36.24-8.56-36.24-8.56s2.11-12.52,5.88-36.53,18.14-51.73,18.14-51.73,6.65,11.07,10.08,21,7,18.6,7.57,29.44S81.48,298,78.64,306.86Z" transform="translate(-38.21 -191.93)"/><path class="cls-1" d="M39.43,313.61s19,9.21,36.32,9.43" transform="translate(-38.21 -191.93)"/><path class="cls-2" d="M40.11,312.7C34.57,310,64.24,322,75.75,322.13" transform="translate(-38.21 -191.93)"/><path class="cls-1" d="M220.69,305.72l3.55,18.88c10.35,2.71,36.24-8.56,36.24-8.56s-2.12-12.53-5.88-36.54-18.06-51.32-18.06-51.32-6.59,11.28-9.75,20.15-5.12,12.77-7.66,28.27A72.18,72.18,0,0,0,220.69,305.72Z" transform="translate(-38.21 -191.93)"/><path class="cls-1" d="M259.82,312.07s-18.95,9.2-36.33,9.43" transform="translate(-38.21 -191.93)"/><path class="cls-2" d="M259.82,310.16s-18.95,9.2-36.33,9.43" transform="translate(-38.21 -191.93)"/><path class="cls-1" d="M203.08,297.12l-.91-26.59H171.33v28.54s1,3.22,3.86,3.22,24.55-.23,24.55-.23S203.1,300.11,203.08,297.12Z" transform="translate(-38.21 -191.93)"/><line class="cls-2" x1="133.13" y1="81.96" x2="163.96" y2="81.96"/><line class="cls-1" x1="133.13" y1="82.99" x2="163.96" y2="82.99"/><path class="cls-2" d="M218.48,447.7C179.7,468.38,168.17,464,149.06,464c0,0-40.55.25-69.44-16.34" transform="translate(-38.21 -191.93)"/><path class="cls-1" d="M126.34,204.06s1,5.76,7.66,9.39,12.71,6.13,12.71,6.13a21.14,21.14,0,0,0,6.36-1c2.71-1,10.18-2.69,20.45-15.59,0,0-16.67-1.15-21.14-1.13S133.23,202.43,126.34,204.06Z" transform="translate(-38.21 -191.93)"/><path class="cls-1" d="M115.45,202.67" transform="translate(-38.21 -191.93)"/></svg>