<svg id="Layer_1" data-name="Layer 1" xmlns="http://www.w3.org/2000/svg" viewBox="0 0 491.44 277.02"><defs>
<style>.cls-1,.cls-2,.cls-3,.cls-4{stroke:#231f20;stroke-miterlimit:10;}.cls-2,.cls-4{stroke-width:0.75px;}.cls-2,.cls-3{stroke-dasharray:1;}</style></defs><path class="cls-1" d="M332.17,253.29s19.6,32.82,11.24,72l-1.13,13.41-.13.36-2.63,10.23-37.47-34.73,30.12-61.27" transform="translate(-43.2 -212.68)"/><path class="cls-1" d="M391.41,213.46" transform="translate(-43.2 -212.68)"/><line class="cls-2" x1="262.78" y1="93.9" x2="297.78" y2="126.9"/><path class="cls-1" d="M454.78,225.58l4.4,2.18,44.68,25.53c-.61,1.15-1.2,2.31-1.77,3.45-18.11,36.85-9.46,68.55-9.46,68.55l3.06,163.91H340.34l3.07-163.91s8.64-31.7-9.47-68.55c-.56-1.14-1.15-2.3-1.77-3.45l44.69-25.53,4.65-2.18Z" transform="translate(-43.2 -212.68)"/><path class="cls-1" d="M444.63,213.46c-27.46,6.89-53.22,0-53.22,0l-9.9,12.12h73.27Z" transform="translate(-43.2 -212.68)"/><line class="cls-2" x1="297.23" y1="272.05" x2="452.41" y2="272.05"/><path class="cls-1" d="M503.9,253.29s-19.6,32.82-11.24,72l1.13,13.41.13.36,2.64,10.23L534,314.56,503.9,253.29" transform="translate(-43.2 -212.68)"/><line class="cls-2" x1="486.9" y1="93.9" x2="451.89" y2="126.9"/><path class="cls-1" d="M158.8,276l-25.5-24.45,4.09-6.8-18.81-.68V227.76L73.9,253.29c.61,1.15,1.2,2.31,1.77,3.45,18.1,36.85,9.46,68.55,9.46,68.55L82.07,489.2H237.41l-3.06-163.91s-8.64-31.7,9.46-68.55c.57-1.14,1.16-2.3,1.77-3.45L200.9,227.76V244.1l-18.81.68,4.09,6.8L158.8,276" transform="translate(-43.2 -212.68)"/><polyline class="cls-1" points="115.6 63.35 90.1 38.91 94.19 32.1 75.38 31.42 75.38 11.67 89.93 0.78 116.6 61.34 115.6 63.35"/><line class="cls-2" x1="94.19" y1="32.1" x2="99.47" y2="22.45"/><line class="cls-3" x1="75.38" y1="19.25" x2="32.47" y2="44.06"/><polyline class="cls-1" points="120.06 60.14 142.98 38.91 138.9 32.1 157.71 31.42 157.71 11.67 143.15 0.78 115.6 63.35 120.06 60.14 120.06 265.54 120.06 276.52"/><line class="cls-2" x1="138.9" y1="32.1" x2="133.61" y2="22.45"/><line class="cls-3" x1="157.71" y1="19.25" x2="200.62" y2="44.06"/><path class="cls-4" d="M220.11,333.49V297.71H179.45v37.62s1.34,4.25,5.08,4.25,31.41-.13,31.41-.13A6.09,6.09,0,0,0,220.11,333.49Z" transform="translate(-43.2 -212.68)"/><line class="cls-4" x1="136.25" y1="89.46" x2="176.91" y2="89.46"/><line class="cls-2" x1="136.25" y1="90.82" x2="176.91" y2="90.82"/><path class="cls-1" d="M179.45,228.12c-23.12,9.29-40.32-1-40.32-1l-6-13.62s25.76,6.89,53.22,0Z" transform="translate(-43.2 -212.68)"/><line class="cls-2" x1="38.95" y1="271.73" x2="194.13" y2="271.73"/><polyline class="cls-1" points="115.96 62.35 112.23 66.68 112.23 276.52"/><circle class="cls-1" cx="116.54" cy="70.89" r="2.51"/><circle class="cls-1" cx="116.54" cy="109.1" r="2.51"/><circle class="cls-1" cx="116.54" cy="150.25" r="2.51"/><circle class="cls-1" cx="116.54" cy="187.44" r="2.51"/><circle class="cls-1" cx="116.54" cy="229.22" r="2.51"/><path class="cls-1" d="M139.13,227.08,159.8,274l19.65-45.9S160.15,237.38,139.13,227.08Z" transform="translate(-43.2 -212.68)"/><path class="cls-1" d="M73.94,253.14s19.6,32.82,11.23,72L84,338.55l-.13.36-2.63,10.23L43.81,314.41l30.13-61.27" transform="translate(-43.2 -212.68)"/><line class="cls-2" x1="4.54" y1="93.75" x2="39.55" y2="126.76"/><path class="cls-1" d="M245.66,253.29s-19.6,32.82-11.23,72l1.13,13.41.12.36,2.64,10.23,37.47-34.73-30.13-61.27" transform="translate(-43.2 -212.68)"/><line class="cls-2" x1="227.66" y1="93.9" x2="192.66" y2="126.9"/></svg>