<svg id="Layer_1" data-name="Layer 1" xmlns="http://www.w3.org/2000/svg" viewBox="0 0 553.82 343.51"><defs><style>.cls-1,.cls-2,.cls-3,.cls-4,.cls-5{stroke:#231f20;stroke-miterlimit:10;}.cls-2,.cls-4,.cls-5{stroke-dasharray:1;}.cls-3,.cls-4{stroke-width:0.75px;}.cls-5{stroke-width:0.5px;}</style></defs><path class="cls-1" d="M558.53,349.32l16.71,91.27V465.5l-2.83,104.14-45.64,2.92-3.28-22.27-1.83-44.9-.73-71.56v-9s15.32.82,15.39-4.89-.42-49-.42-49-3.23-15.8-3.59-21.59.32-30.76,1.85-40.13,3.31-19.23,5.61-21.93S555.21,325.36,558.53,349.32Z" transform="translate(-21.91 -229.58)"/><line class="cls-2" x1="551.1" y1="317.61" x2="501.57" y2="320.71"/><line class="cls-2" x1="550.55" y1="337.87" x2="504.54" y2="340.81"/><path class="cls-3" d="M532.82,346.18s16.94,77,17.67,93.09-1.4,117.1-1.4,117.1v15.35" transform="translate(-21.91 -229.58)"/><path class="cls-4" d="M532.82,331.78s19.31,78.38,20.41,91.8S556,438.91,555.69,454s0,95.3,0,95.3" transform="translate(-21.91 -229.58)"/><circle class="cls-1" cx="533.81" cy="331.72" r="3.76"/><line class="cls-1" x1="543.09" y1="331.72" x2="537.52" y2="332.35"/><path class="cls-1" d="M319.94,349.32l-16.7,91.27V465.5l2.83,104.14,45.63,2.92L355,550.29l1.82-44.9.73-71.56v-9s-15.31.82-15.38-4.89.41-49,.41-49,3.24-15.8,3.6-21.59-.33-30.76-1.86-40.13S341,290,338.7,287.26,323.26,325.36,319.94,349.32Z" transform="translate(-21.91 -229.58)"/><line class="cls-2" x1="283.54" y1="317.61" x2="333.07" y2="320.71"/><line class="cls-2" x1="284.1" y1="337.87" x2="330.11" y2="340.81"/><path class="cls-3" d="M345.5,346.09s-16.94,77-17.67,93.09,1.4,117.1,1.4,117.1v15.34" transform="translate(-21.91 -229.58)"/><path class="cls-4" d="M344.43,331.78s-19.31,78.38-20.41,91.8-2.74,15.33-2.46,30.39,0,95.3,0,95.3" transform="translate(-21.91 -229.58)"/><circle class="cls-1" cx="299.62" cy="331.72" r="3.76"/><line class="cls-1" x1="290.34" y1="331.72" x2="295.91" y2="332.35"/><path class="cls-3" d="M407.2,234.65h64.62s.73-1.46,5.11,8.4,10.22,19.16,4.38,18.89-85.06,0-85.06,0-3.29,2.65,0-8.67,5.84-15.33,5.84-15.33S402.09,234.65,407.2,234.65Z" transform="translate(-21.91 -229.58)"/><line class="cls-1" x1="320.91" y1="193.08" x2="317.19" y2="199.9"/><line class="cls-1" x1="330.66" y1="195.04" x2="330.66" y2="205.26"/><line class="cls-1" x1="326.17" y1="194.97" x2="324.29" y2="206.52"/><line class="cls-1" x1="320.7" y1="191.89" x2="315.68" y2="196.24"/><line class="cls-1" x1="323.35" y1="194.12" x2="319.82" y2="204.25"/><line class="cls-1" x1="342.36" y1="194.97" x2="342.36" y2="208.23"/><line class="cls-1" x1="379.33" y1="194.97" x2="379.33" y2="202.74"/><line class="cls-1" x1="398.44" y1="195.18" x2="398.44" y2="206.17"/><line class="cls-1" x1="384.53" y1="194.97" x2="384.53" y2="199.18"/><polyline class="cls-1" points="347.93 194.97 347.93 206.52 347.93 208.23"/><line class="cls-1" x1="351.65" y1="194.97" x2="351.65" y2="205.96"/><line class="cls-1" x1="356.71" y1="194.97" x2="356.71" y2="204.25"/><line class="cls-1" x1="328.37" y1="194.97" x2="326.5" y2="206.52"/><line class="cls-1" x1="324.57" y1="194.55" x2="322.13" y2="204.68"/><line class="cls-1" x1="322.13" y1="193.67" x2="318.41" y2="201.6"/><line class="cls-1" x1="320.91" y1="192.84" x2="317.19" y2="199.65"/><line class="cls-1" x1="340.83" y1="195" x2="340.83" y2="206.52"/><line class="cls-1" x1="338.46" y1="195.43" x2="338.46" y2="206.09"/><line class="cls-1" x1="346.17" y1="195.27" x2="346.17" y2="206.25"/><line class="cls-1" x1="344.26" y1="194.97" x2="344.26" y2="205.2"/><line class="cls-1" x1="403.8" y1="195" x2="403.8" y2="208.25"/><line class="cls-1" x1="402.27" y1="195.02" x2="402.27" y2="206.55"/><line class="cls-1" x1="399.9" y1="195.46" x2="399.9" y2="205.2"/><line class="cls-1" x1="407.61" y1="195.29" x2="407.61" y2="206.27"/><line class="cls-1" x1="405.7" y1="195" x2="405.7" y2="205.22"/><line class="cls-1" x1="392.29" y1="195" x2="392.29" y2="205.22"/><line class="cls-1" x1="390.75" y1="195.02" x2="390.75" y2="204.25"/><line class="cls-1" x1="388.38" y1="195.46" x2="388.38" y2="202.74"/><line class="cls-1" x1="396.09" y1="195.29" x2="396.09" y2="207.56"/><line class="cls-1" x1="394.19" y1="195" x2="394.19" y2="205.22"/><line class="cls-1" x1="373.76" y1="195" x2="373.76" y2="208.25"/><line class="cls-1" x1="372.22" y1="195.02" x2="372.22" y2="206.55"/><line class="cls-1" x1="369.85" y1="195.46" x2="369.85" y2="206.11"/><line class="cls-1" x1="377.56" y1="195.29" x2="377.56" y2="206.27"/><line class="cls-1" x1="375.66" y1="195" x2="375.66" y2="205.22"/><line class="cls-1" x1="386.46" y1="194.97" x2="386.46" y2="204.25"/><line class="cls-1" x1="381.19" y1="194.97" x2="381.19" y2="200.75"/><line class="cls-1" x1="382.86" y1="194.97" x2="382.86" y2="198.85"/><line class="cls-1" x1="367.97" y1="194.98" x2="367.97" y2="202.75"/><line class="cls-1" x1="362.4" y1="195.01" x2="362.4" y2="208.26"/><line class="cls-1" x1="360.87" y1="195.03" x2="360.87" y2="206.56"/><line class="cls-1" x1="358.5" y1="195.47" x2="358.5" y2="206.12"/><line class="cls-1" x1="366.21" y1="195.3" x2="366.21" y2="206.29"/><line class="cls-1" x1="364.3" y1="195.01" x2="364.3" y2="205.23"/><line class="cls-1" x1="355.18" y1="195.01" x2="355.18" y2="205.23"/><line class="cls-1" x1="353.41" y1="194.98" x2="353.41" y2="202.75"/><line class="cls-1" x1="336.46" y1="195.33" x2="336.46" y2="206.32"/><line class="cls-1" x1="334.56" y1="195.04" x2="334.56" y2="205.26"/><line class="cls-1" x1="413.32" y1="195.01" x2="413.32" y2="208.26"/><line class="cls-1" x1="411.79" y1="195.03" x2="411.79" y2="206.56"/><line class="cls-1" x1="409.42" y1="195.47" x2="409.42" y2="206.12"/><line class="cls-1" x1="417.13" y1="195.3" x2="417.13" y2="206.29"/><line class="cls-1" x1="415.23" y1="195.01" x2="415.23" y2="205.23"/><line class="cls-1" x1="422.91" y1="195.01" x2="422.91" y2="208.26"/><line class="cls-1" x1="421.38" y1="195.03" x2="421.38" y2="206.56"/><line class="cls-1" x1="419.01" y1="195.47" x2="419.01" y2="206.12"/><line class="cls-1" x1="426.72" y1="195.3" x2="426.72" y2="206.29"/><line class="cls-1" x1="424.81" y1="195.01" x2="424.81" y2="205.23"/><line class="cls-1" x1="332.56" y1="195.33" x2="332.56" y2="206.32"/><line class="cls-1" x1="329.25" y1="195.04" x2="328.37" y2="204.68"/><line class="cls-1" x1="349.42" y1="195.04" x2="349.42" y2="205.58"/><line class="cls-1" x1="508.52" y1="194.99" x2="510.39" y2="206.54"/><line class="cls-1" x1="514" y1="191.71" x2="519.02" y2="196.07"/><line class="cls-1" x1="511.33" y1="194.14" x2="514.87" y2="204.27"/><line class="cls-1" x1="492.32" y1="194.99" x2="492.32" y2="208.25"/><line class="cls-1" x1="455.36" y1="194.99" x2="455.36" y2="202.75"/><line class="cls-1" x1="436.54" y1="195.37" x2="436.54" y2="206.36"/><line class="cls-1" x1="450.15" y1="194.99" x2="450.15" y2="199.2"/><polyline class="cls-1" points="486.75 194.99 486.75 206.54 486.75 208.25"/><line class="cls-1" x1="483.04" y1="194.99" x2="483.04" y2="205.97"/><line class="cls-1" x1="476.88" y1="194.99" x2="476.88" y2="204.27"/><line class="cls-1" x1="506.31" y1="194.99" x2="508.19" y2="206.54"/><line class="cls-1" x1="510.11" y1="194.56" x2="512.55" y2="204.69"/><line class="cls-1" x1="512.55" y1="193.69" x2="516.28" y2="201.62"/><line class="cls-1" x1="513.62" y1="192.8" x2="517.86" y2="198.88"/><line class="cls-1" x1="493.86" y1="195.01" x2="493.86" y2="206.54"/><line class="cls-1" x1="496.23" y1="195.45" x2="496.23" y2="206.1"/><line class="cls-1" x1="488.52" y1="195.29" x2="488.52" y2="206.27"/><line class="cls-1" x1="490.42" y1="194.99" x2="490.42" y2="205.22"/><line class="cls-1" x1="431.18" y1="195.04" x2="431.18" y2="208.29"/><line class="cls-1" x1="432.72" y1="195.06" x2="432.72" y2="206.59"/><line class="cls-1" x1="435.08" y1="195.5" x2="435.08" y2="206.15"/><line class="cls-1" x1="442.7" y1="195.04" x2="442.7" y2="205.26"/><line class="cls-1" x1="444.23" y1="195.06" x2="444.23" y2="204.29"/><line class="cls-1" x1="446.6" y1="195.5" x2="446.6" y2="202.78"/><line class="cls-1" x1="438.89" y1="195.33" x2="438.89" y2="207.61"/><line class="cls-1" x1="460.93" y1="195.01" x2="460.93" y2="208.27"/><line class="cls-1" x1="462.46" y1="195.04" x2="462.46" y2="206.56"/><line class="cls-1" x1="464.83" y1="195.47" x2="464.83" y2="206.13"/><line class="cls-1" x1="457.12" y1="195.31" x2="457.12" y2="206.29"/><line class="cls-1" x1="459.03" y1="195.01" x2="459.03" y2="205.24"/><line class="cls-1" x1="448.52" y1="195.01" x2="448.52" y2="204.29"/><line class="cls-1" x1="453.5" y1="194.99" x2="453.5" y2="200.77"/><line class="cls-1" x1="451.83" y1="194.99" x2="451.83" y2="198.87"/><line class="cls-1" x1="471.19" y1="195.02" x2="471.19" y2="208.28"/><line class="cls-1" x1="472.73" y1="195.05" x2="472.73" y2="206.58"/><line class="cls-1" x1="475.09" y1="195.49" x2="475.09" y2="206.14"/><line class="cls-1" x1="467.38" y1="195.32" x2="467.38" y2="206.3"/><line class="cls-1" x1="469.29" y1="195.02" x2="469.29" y2="205.25"/><line class="cls-1" x1="479.51" y1="195.02" x2="479.51" y2="205.25"/><line class="cls-1" x1="481.27" y1="195" x2="481.27" y2="202.77"/><line class="cls-1" x1="498.22" y1="195.35" x2="498.22" y2="206.33"/><line class="cls-1" x1="500.13" y1="195.05" x2="500.13" y2="205.28"/><line class="cls-1" x1="428" y1="195.33" x2="428" y2="206.32"/><line class="cls-1" x1="429.9" y1="195.04" x2="429.9" y2="205.26"/><line class="cls-1" x1="502.12" y1="195.35" x2="502.12" y2="206.33"/><line class="cls-1" x1="504.34" y1="195.05" x2="505.22" y2="204.69"/><line class="cls-1" x1="485.27" y1="195.05" x2="485.27" y2="205.59"/><line class="cls-1" x1="440.79" y1="194.73" x2="440.79" y2="202.01"/><path class="cls-1" d="M394.79,257.13a206.29,206.29,0,0,0-56.09,30.13s8.8,24,7.49,51.32-3.63,33.7-3.63,33.7l-.4,47.68s2,4.6,11.3,4.88,170.58,0,170.58,0,6.61.06,8-.73,4.46,2,4.31-12.54-.43-40.69-.43-40.69-6.18-17.07-3.24-43.56,3.12-35.24,7.11-40.09c0,0-27.66-20.94-56.13-30.13,0,0,1.42,4.87-2.33,4.81s-85.71,0-85.71,0S393.39,262.36,394.79,257.13Z" transform="translate(-21.91 -229.58)"/><path class="cls-5" d="M394.68,261.94S355.1,278.81,340,291.51" transform="translate(-21.91 -229.58)"/><polyline class="cls-2" points="323.59 102.2 416.6 102.2 414.22 102.2 507.23 102.2"/><polyline class="cls-5" points="323.59 99.83 416.6 99.83 414.22 99.83 507.23 99.83"/><path class="cls-2" d="M339.62,289.64s24.65-19.14,55.35-31" transform="translate(-21.91 -229.58)"/><path class="cls-5" d="M341.16,285.37s7.54,18.3,7.72,38.93,2.22,38.85-7.38,50.73" transform="translate(-21.91 -229.58)"/><path class="cls-5" d="M483.64,261.94s39.59,16.87,54.65,29.57" transform="translate(-21.91 -229.58)"/><polyline class="cls-1" points="510.91 104.21 493.47 104.21 417.17 104.21 417.33 104.21 341.03 104.21 323.59 104.21"/><path class="cls-2" d="M538.7,289.64S514.93,271,484.23,259.13" transform="translate(-21.91 -229.58)"/><path class="cls-5" d="M537.16,285.37s-7.54,18.3-7.72,38.93-2.22,38.85,7.38,50.73" transform="translate(-21.91 -229.58)"/><line class="cls-1" x1="488.97" y1="104.21" x2="486.96" y2="195.29"/><line class="cls-4" x1="486.05" y1="104.21" x2="484.22" y2="195.29"/><line class="cls-1" x1="351.04" y1="104.21" x2="353.05" y2="195.29"/><line class="cls-4" x1="353.96" y1="104.21" x2="355.79" y2="195.29"/><path class="cls-1" d="M125,238.29s-3.44-5.73-2.79-7,1.67-1.31,17.88-1.15,44.56.15,44.56.15,7.18-.31,8,.18,2.09,2.18-1.84,7.81-27.3,34.19-27.3,34.19H152.26Z" transform="translate(-21.91 -229.58)"/><path class="cls-1" d="M193.6,231.3s7.56,15.71,8.11,21.18-6.57,29.3-10.4,40-7.4,4.11-7.4,4.11l-21.35-23s20.8-23.82,27.92-34.78c2.74-4.21,3-6.37,3.12-7.49.15-1.74-8.32-1-8.32-1H130.47s-8.46-.74-8.31,1c.1,1.12.37,3.28,3.11,7.49,7.12,11,27.93,34.78,27.93,34.78l-21.36,23s-3.56,6.57-7.39-4.11-11-34.5-10.41-40,8.12-21.18,8.12-21.18" transform="translate(-21.91 -229.58)"/><line class="cls-1" x1="112.12" y1="21.04" x2="159.81" y2="21.04"/><path class="cls-5" d="M200.58,261.41s39.59,16.87,54.65,29.57" transform="translate(-21.91 -229.58)"/><path class="cls-1" d="M256.05,287.26" transform="translate(-21.91 -229.58)"/><path class="cls-1" d="M276.31,349.32,293,440.59V465.5l-2.83,104.14-45.64,2.92-3.28-22.27-1.83-44.9-.73-71.56v-9s15.32.82,15.39-4.89-.42-49-.42-49-3.23-15.8-3.59-21.59.32-30.76,1.85-40.13,3.32-19.23,5.61-21.93S273,325.36,276.31,349.32Z" transform="translate(-21.91 -229.58)"/><path class="cls-1" d="M253.68,421.42c1.22-2.87,0-50.51,0-50.51s-9.23-24.22.3-73.79c.31-1.6.63-3.23,1-4.88,0,0,1.83-4.83,2.59-5s-39.62-26.2-55.68-32.83l-.25,1.5s-5.35,21.14-9.59,34.46-8.12,6.18-8.12,6.18l-17-18.42V424.34l72.55.3S252.19,424.93,253.68,421.42Z" transform="translate(-21.91 -229.58)"/><polygon class="cls-1" points="200.37 194.76 168.06 194.76 165.63 121.66 184.31 128.32 203.21 121.44 201.74 159.54 200.37 194.76"/><polyline class="cls-5" points="166.88 159.17 184.42 166.47 201.74 159.54"/><line class="cls-5" x1="199.99" y1="122.61" x2="196.9" y2="194.76"/><line class="cls-5" x1="169.51" y1="123.05" x2="171.35" y2="194.76"/><path class="cls-2" d="M255.64,289.11a223.87,223.87,0,0,0-53.77-30.51" transform="translate(-21.91 -229.58)"/><line class="cls-2" x1="268.89" y1="317.61" x2="219.36" y2="320.71"/><line class="cls-2" x1="268.33" y1="337.87" x2="222.32" y2="340.81"/><line class="cls-2" x1="221" y1="194.76" x2="223.76" y2="320.43"/><line class="cls-5" x1="223.76" y1="194.76" x2="227.25" y2="320.15"/><line class="cls-2" x1="147.97" y1="51.87" x2="147.97" y2="194.76"/><path class="cls-1" d="M166.25,425.62" transform="translate(-21.91 -229.58)"/><line class="cls-1" x1="225.83" y1="194.78" x2="227.67" y2="205.91"/><line class="cls-1" x1="232.18" y1="191.86" x2="237.11" y2="196.06"/><line class="cls-1" x1="228.59" y1="193.96" x2="232.07" y2="203.72"/><line class="cls-1" x1="209.92" y1="194.78" x2="209.92" y2="207.56"/><line class="cls-1" x1="173.59" y1="194.78" x2="173.59" y2="202.26"/><line class="cls-1" x1="155.1" y1="195.15" x2="155.1" y2="205.74"/><line class="cls-1" x1="168.48" y1="194.78" x2="168.48" y2="198.84"/><polyline class="cls-1" points="204.44 194.78 204.44 205.91 204.44 207.56"/><line class="cls-1" x1="200.79" y1="194.78" x2="200.79" y2="205.36"/><line class="cls-1" x1="195.81" y1="194.78" x2="195.81" y2="203.72"/><line class="cls-1" x1="223.66" y1="194.78" x2="225.5" y2="205.91"/><line class="cls-1" x1="227.39" y1="194.37" x2="229.79" y2="204.13"/><line class="cls-1" x1="229.79" y1="193.52" x2="233.45" y2="201.17"/><line class="cls-1" x1="231.62" y1="192.56" x2="235.79" y2="197.34"/><line class="cls-1" x1="230.99" y1="192.95" x2="234.65" y2="199.52"/><line class="cls-1" x1="211.42" y1="194.8" x2="211.42" y2="205.91"/><line class="cls-1" x1="213.75" y1="195.22" x2="213.75" y2="205.49"/><line class="cls-1" x1="206.17" y1="195.06" x2="206.17" y2="205.65"/><line class="cls-1" x1="208.04" y1="194.78" x2="208.04" y2="204.63"/><line class="cls-1" x1="149.84" y1="194.82" x2="149.84" y2="207.6"/><line class="cls-1" x1="151.34" y1="194.85" x2="151.34" y2="205.96"/><line class="cls-1" x1="153.67" y1="195.27" x2="153.67" y2="205.54"/><line class="cls-1" x1="161.15" y1="194.82" x2="161.15" y2="204.68"/><line class="cls-1" x1="162.66" y1="194.85" x2="162.66" y2="203.74"/><line class="cls-1" x1="164.98" y1="195.27" x2="164.98" y2="202.28"/><line class="cls-1" x1="157.41" y1="195.11" x2="157.41" y2="206.94"/><line class="cls-1" x1="159.28" y1="194.82" x2="159.28" y2="204.68"/><line class="cls-1" x1="179.07" y1="194.8" x2="179.07" y2="207.58"/><line class="cls-1" x1="180.57" y1="194.82" x2="180.57" y2="205.94"/><line class="cls-1" x1="182.9" y1="195.25" x2="182.9" y2="205.51"/><line class="cls-1" x1="175.32" y1="195.09" x2="175.32" y2="205.67"/><line class="cls-1" x1="177.2" y1="194.8" x2="177.2" y2="204.66"/><line class="cls-1" x1="166.88" y1="194.8" x2="166.88" y2="203.74"/><line class="cls-1" x1="171.76" y1="194.78" x2="171.76" y2="200.34"/><line class="cls-1" x1="170.12" y1="194.78" x2="170.12" y2="198.52"/><line class="cls-1" x1="184.75" y1="194.79" x2="184.75" y2="202.27"/><line class="cls-1" x1="190.22" y1="194.81" x2="190.22" y2="207.59"/><line class="cls-1" x1="191.73" y1="194.83" x2="191.73" y2="205.95"/><line class="cls-1" x1="194.06" y1="195.26" x2="194.06" y2="205.52"/><line class="cls-1" x1="186.48" y1="195.1" x2="186.48" y2="205.68"/><line class="cls-1" x1="188.35" y1="194.81" x2="188.35" y2="204.67"/><line class="cls-1" x1="197.32" y1="194.81" x2="197.32" y2="204.67"/><line class="cls-1" x1="199.05" y1="194.79" x2="199.05" y2="202.27"/><line class="cls-1" x1="215.71" y1="195.13" x2="215.71" y2="205.71"/><path class="cls-1" d="M239.49,434.28" transform="translate(-21.91 -229.58)"/><line class="cls-1" x1="146.71" y1="195.11" x2="146.71" y2="205.7"/><line class="cls-1" x1="148.58" y1="194.82" x2="148.58" y2="204.68"/><line class="cls-1" x1="219.54" y1="195.13" x2="219.54" y2="205.71"/><line class="cls-1" x1="221.73" y1="194.84" x2="222.59" y2="204.13"/><line class="cls-1" x1="202.98" y1="194.84" x2="202.98" y2="205"/><path class="cls-1" d="M166,582.21" transform="translate(-21.91 -229.58)"/><path class="cls-1" d="M39.11,349.32l-16.7,91.27V465.5l2.83,104.14,45.64,2.92,3.28-22.27L76,505.39l.73-71.56v-9s-15.32.82-15.39-4.89.42-49,.42-49,3.23-15.8,3.59-21.59-.32-30.76-1.85-40.13S60.17,290,57.87,287.26,42.44,325.36,39.11,349.32Z" transform="translate(-21.91 -229.58)"/><path class="cls-1" d="M61.75,421.42c-1.22-2.87,0-50.51,0-50.51s9.23-24.22-.3-73.79c-.31-1.6-.64-3.23-1-4.88,0,0-1.83-4.83-2.6-5s39.63-26.2,55.69-32.83l.24,1.5s5.35,21.14,9.59,34.46,8.13,6.18,8.13,6.18l17-18.42V424.34l-72.56.3S63.24,424.93,61.75,421.42Z" transform="translate(-21.91 -229.58)"/><polygon class="cls-1" points="71.23 194.76 103.54 194.76 105.98 121.66 87.3 128.32 68.39 121.44 69.87 159.54 71.23 194.76"/><polyline class="cls-5" points="104.73 159.17 87.18 166.47 69.87 159.54"/><line class="cls-5" x1="71.61" y1="122.61" x2="74.7" y2="194.76"/><line class="cls-5" x1="102.09" y1="123.05" x2="100.26" y2="194.76"/><path class="cls-2" d="M59.79,289.11a223.62,223.62,0,0,1,53.77-30.51" transform="translate(-21.91 -229.58)"/><path class="cls-5" d="M61.33,284.83s7.54,18.31,7.72,38.93,2.22,38.86-7.38,50.74" transform="translate(-21.91 -229.58)"/><line class="cls-2" x1="2.72" y1="317.61" x2="52.25" y2="320.71"/><line class="cls-2" x1="3.27" y1="337.87" x2="49.28" y2="340.81"/><line class="cls-2" x1="50.61" y1="194.76" x2="47.84" y2="320.43"/><line class="cls-5" x1="47.84" y1="194.76" x2="44.36" y2="320.15"/><line class="cls-2" x1="123.64" y1="51.87" x2="123.64" y2="194.76"/><path class="cls-1" d="M149.18,425.62" transform="translate(-21.91 -229.58)"/><line class="cls-1" x1="45.78" y1="194.78" x2="43.94" y2="205.91"/><line class="cls-1" x1="39.42" y1="191.86" x2="34.49" y2="196.06"/><line class="cls-1" x1="43.01" y1="193.96" x2="39.54" y2="203.72"/><line class="cls-1" x1="61.69" y1="194.78" x2="61.69" y2="207.56"/><line class="cls-1" x1="98.01" y1="194.78" x2="98.01" y2="202.26"/><line class="cls-1" x1="116.5" y1="195.15" x2="116.5" y2="205.74"/><line class="cls-1" x1="103.13" y1="194.78" x2="103.13" y2="198.84"/><polyline class="cls-1" points="67.17 194.78 67.17 205.91 67.17 207.56"/><line class="cls-1" x1="70.82" y1="194.78" x2="70.82" y2="205.36"/><line class="cls-1" x1="75.79" y1="194.78" x2="75.79" y2="203.72"/><line class="cls-1" x1="47.94" y1="194.78" x2="46.1" y2="205.91"/><line class="cls-1" x1="44.21" y1="194.37" x2="41.81" y2="204.13"/><line class="cls-1" x1="41.81" y1="193.52" x2="38.16" y2="201.17"/><line class="cls-1" x1="39.98" y1="192.56" x2="35.81" y2="197.34"/><line class="cls-1" x1="40.61" y1="192.95" x2="36.96" y2="199.52"/><line class="cls-1" x1="60.18" y1="194.8" x2="60.18" y2="205.91"/><line class="cls-1" x1="57.86" y1="195.22" x2="57.86" y2="205.49"/><line class="cls-1" x1="65.43" y1="195.06" x2="65.43" y2="205.65"/><line class="cls-1" x1="63.56" y1="194.78" x2="63.56" y2="204.63"/><line class="cls-1" x1="121.77" y1="194.82" x2="121.77" y2="207.6"/><line class="cls-1" x1="120.26" y1="194.85" x2="120.26" y2="205.96"/><line class="cls-1" x1="117.93" y1="195.27" x2="117.93" y2="205.54"/><line class="cls-1" x1="110.45" y1="194.82" x2="110.45" y2="204.68"/><line class="cls-1" x1="108.95" y1="194.85" x2="108.95" y2="203.74"/><line class="cls-1" x1="106.62" y1="195.27" x2="106.62" y2="202.28"/><line class="cls-1" x1="114.2" y1="195.11" x2="114.2" y2="206.94"/><line class="cls-1" x1="112.33" y1="194.82" x2="112.33" y2="204.68"/><line class="cls-1" x1="92.54" y1="194.8" x2="92.54" y2="207.58"/><line class="cls-1" x1="91.03" y1="194.82" x2="91.03" y2="205.94"/><line class="cls-1" x1="88.7" y1="195.25" x2="88.7" y2="205.51"/><line class="cls-1" x1="96.28" y1="195.09" x2="96.28" y2="205.67"/><line class="cls-1" x1="94.41" y1="194.8" x2="94.41" y2="204.66"/><line class="cls-1" x1="104.73" y1="194.8" x2="104.73" y2="203.74"/><line class="cls-1" x1="99.84" y1="194.78" x2="99.84" y2="200.34"/><line class="cls-1" x1="101.48" y1="194.78" x2="101.48" y2="198.52"/><line class="cls-1" x1="86.86" y1="194.79" x2="86.86" y2="202.27"/><line class="cls-1" x1="81.38" y1="194.81" x2="81.38" y2="207.59"/><line class="cls-1" x1="79.87" y1="194.83" x2="79.87" y2="205.95"/><line class="cls-1" x1="77.55" y1="195.26" x2="77.55" y2="205.52"/><line class="cls-1" x1="85.12" y1="195.1" x2="85.12" y2="205.68"/><line class="cls-1" x1="83.25" y1="194.81" x2="83.25" y2="204.67"/><line class="cls-1" x1="74.28" y1="194.81" x2="74.28" y2="204.67"/><line class="cls-1" x1="72.55" y1="194.79" x2="72.55" y2="202.27"/><line class="cls-1" x1="55.89" y1="195.13" x2="55.89" y2="205.71"/><path class="cls-1" d="M75.93,434.28" transform="translate(-21.91 -229.58)"/><line class="cls-1" x1="124.9" y1="195.11" x2="124.9" y2="205.7"/><line class="cls-1" x1="123.02" y1="194.82" x2="123.02" y2="204.68"/><line class="cls-1" x1="52.06" y1="195.13" x2="52.06" y2="205.71"/><line class="cls-1" x1="49.88" y1="194.84" x2="49.02" y2="204.13"/><line class="cls-1" x1="68.63" y1="194.84" x2="68.63" y2="205"/><polyline class="cls-1" points="227.85 104.68 193.4 104.68 42.68 104.68"/><polyline class="cls-2" points="227.85 101.67 134.84 101.67 137.22 101.67 44.21 101.67"/><polyline class="cls-5" points="227.85 99.29 134.84 99.29 137.22 99.29 44.21 99.29"/><polygon class="cls-1" points="210.41 118.83 203.21 121.44 184.31 128.32 157.66 118.83 157.66 103.68 210.41 103.68 210.41 118.83"/><polyline class="cls-2" points="208.95 104.59 208.95 117.55 184.42 126.31 159.48 117.91 159.48 104.59"/><line class="cls-1" x1="184.03" y1="107.33" x2="184.03" y2="112.62"/><circle class="cls-1" cx="184.22" cy="115.96" r="3.76"/><polygon class="cls-1" points="61.19 118.83 68.39 121.44 87.3 128.32 113.95 118.83 113.95 103.68 61.19 103.68 61.19 118.83"/><polyline class="cls-2" points="62.65 104.59 62.65 117.55 87.18 126.31 112.12 117.91 112.12 104.59"/><line class="cls-1" x1="87.57" y1="107.33" x2="87.57" y2="112.62"/><circle class="cls-1" cx="87.39" cy="115.96" r="3.76"/><polygon class="cls-1" points="126.58 194.76 145.03 194.76 145.03 48.57 141.11 42.9 130.83 42.9 126.58 48.57 126.58 194.76"/><circle class="cls-1" cx="134.11" cy="147.29" r="3.76"/><circle class="cls-1" cx="134.11" cy="99.53" r="3.76"/><circle class="cls-1" cx="134.11" cy="53.12" r="3.76"/><line class="cls-1" x1="143.43" y1="53.12" x2="137.88" y2="53.12"/><line class="cls-1" x1="143.43" y1="99.74" x2="137.67" y2="99.74"/><line class="cls-1" x1="143.43" y1="147.29" x2="137.88" y2="147.29"/><path class="cls-5" d="M254.1,284.83s-7.54,18.31-7.72,38.93-2.22,38.86,7.38,50.74" transform="translate(-21.91 -229.58)"/><line class="cls-1" x1="133.82" y1="194.99" x2="133.82" y2="205.58"/><line class="cls-1" x1="135.25" y1="195.11" x2="135.25" y2="205.38"/><line class="cls-1" x1="127.77" y1="194.67" x2="127.77" y2="204.52"/><line class="cls-1" x1="126.27" y1="194.69" x2="126.27" y2="203.59"/><line class="cls-1" x1="131.51" y1="194.95" x2="131.51" y2="206.78"/><line class="cls-1" x1="129.64" y1="194.67" x2="129.64" y2="204.52"/><line class="cls-1" x1="144.04" y1="194.99" x2="144.04" y2="205.58"/><line class="cls-1" x1="145.47" y1="195.11" x2="145.47" y2="205.38"/><line class="cls-1" x1="137.99" y1="194.67" x2="137.99" y2="204.52"/><line class="cls-1" x1="136.49" y1="194.69" x2="136.49" y2="203.59"/><line class="cls-1" x1="141.74" y1="194.95" x2="141.74" y2="206.78"/><line class="cls-1" x1="139.86" y1="194.67" x2="139.86" y2="204.52"/></svg>