<svg id="Layer_1" data-name="Layer 1" xmlns="http://www.w3.org/2000/svg" viewBox="0 0 429.28 336.74"><defs><style>.cls-1,.cls-2,.cls-3{stroke:#231f20;stroke-miterlimit:10;}.cls-2{stroke-width:0.75px;}.cls-2,.cls-3{stroke-dasharray:1;}.cls-4{fill:#231f20;}</style></defs><path class="cls-1" d="M236.36,497l-2.13-11.6c-.34-7.64-7.13-44.93-7.13-44.93l-2.95-15,5.23-.51s14.75,20.24,19.84,57.86c.12.85.3,2.18.59,4.78C249.81,487.53,240.87,494.84,236.36,497Z" transform="translate(-78.92 -252.14)"/><path class="cls-1" d="M175.43,427.79h27.85s1.95,10.66,2.19,13.15Z" transform="translate(-78.92 -252.14)"/><path class="cls-1" d="M223.1,269.8l34.7,14.45L241.12,354,228,407.86l-21.05.58,3.11-14.59s5.29-28,9-55.24,5.26-66.74,4-68.81" transform="translate(-78.92 -252.14)"/><path class="cls-1" d="M180.62,350s22.89-62.49,22.89-96.36L214.74,268l8.17,2.06h.39s2.39,49.57-16.33,138.42l-6.35-.81Z" transform="translate(-78.92 -252.14)"/><path class="cls-1" d="M130.83,424.89l1.36-19.57s19.57-.08,36.65.71,31.78,1.6,31.78,1.6l8.72,6.56s1.59.41,0,2.26-7.29,7.93-7.29,7.93l1.23,3.41H175.43Z" transform="translate(-78.92 -252.14)"/><path class="cls-1" d="M102.6,284.47l16.68,69.79-14,160-.63,7.18-25.19-2,.38-7.13L88,359l5.45-49.36S95.45,287.53,102.6,284.47Z" transform="translate(-78.92 -252.14)"/><path class="cls-1" d="M79.86,511.64s14.74,2.74,26,2.06" transform="translate(-78.92 -252.14)"/><path class="cls-1" d="M137.3,270l-34.7,14.45,16.68,69.79,12.91,51.06h20.43l-2.3-11.25s-5.29-28-9-55.24-5.27-66.74-4-68.81" transform="translate(-78.92 -252.14)"/><path class="cls-2" d="M249.49,483.81" transform="translate(-78.92 -252.14)"/><path class="cls-1" d="M257.61,284.47l-16.68,69.79,14,160,.63,7.18,25.19-2-.38-7.13L272.25,359l-5.45-49.36S264.76,287.53,257.61,284.47Z" transform="translate(-78.92 -252.14)"/><path class="cls-1" d="M280.35,511.64s-14.74,2.74-26,2.06" transform="translate(-78.92 -252.14)"/><path class="cls-1" d="M180.67,507.68" transform="translate(-78.92 -252.14)"/><path class="cls-1" d="M175.43,427.79" transform="translate(-78.92 -252.14)"/><path class="cls-1" d="M240.93,354.26,228,407.86l-9.66.58c2.76,1.56,3.77,6.73,7.53,25.73,6.56,33.11,11.75,77.47,11.75,77.47l5.1,49.17L228,551.11l.68,37L213.64,582s-4.54-146.21-11.59-157.62l8.52-9.27-9.76-7.25,17.55.58" transform="translate(-78.92 -252.14)"/><path class="cls-2" d="M220,270s-3.92,93.52-16,137.61" transform="translate(-78.92 -252.14)"/><path class="cls-1" d="M200.62,407.63s-43.92-118.4-43.92-154L145.47,268,137.3,270s-3.41,46.45,15.32,135.3C152.62,405.32,191.67,407,200.62,407.63Z" transform="translate(-78.92 -252.14)"/><path class="cls-2" d="M140.19,270s3.92,91.21,16,135.3" transform="translate(-78.92 -252.14)"/><path class="cls-1" d="M203.51,252.64H156.7s1.27,15.52,2.81,22.65S168.84,312,168.84,312l11.78,38,7.16-21.28s6.65-21.85,8.79-30.93,5.53-24,6.19-32.27S203.51,252.64,203.51,252.64Z" transform="translate(-78.92 -252.14)"/><line class="cls-1" x1="79.22" y1="15.81" x2="123.13" y2="15.81"/><path class="cls-1" d="M130.83,424.89" transform="translate(-78.92 -252.14)"/><polygon class="cls-1" points="149.09 155.72 150.46 172.75 145.23 173.26 142.29 160.86 139.44 156.3 149.09 155.72"/><path class="cls-1" d="M207.5,461.46,172.7,521.4c-19.91-3.74-62.3-33.87-62.3-33.87.18-1.62.38-3.21.59-4.78,5.09-37.62,19.84-57.86,19.84-57.86l44.6,2.9,30,13.15Z" transform="translate(-78.92 -252.14)"/><path class="cls-3" d="M207,456.19l-36.75,61.47s-31.55-12.83-59.51-33.85" transform="translate(-78.92 -252.14)"/><line class="cls-2" x1="102.56" y1="175.86" x2="125.09" y2="184.79"/><path class="cls-1" d="M210.57,415.11l2.81,5.83s5.79,38.51,9,53.83S228,551.11,228,551.11" transform="translate(-78.92 -252.14)"/><path class="cls-4" d="M211.69,408.55c2.51-4.69,4.86-9.48,7.1-14.32s4.36-9.73,6.29-14.7c1-2.47,1.86-5,2.76-7.5s1.67-5.07,2.33-7.65a65.18,65.18,0,0,0,2.62-15.74,65.09,65.09,0,0,1-2.44,15.79c-.63,2.59-1.47,5.13-2.24,7.68s-1.71,5.06-2.68,7.55c-1.87,5-3.93,9.94-6.12,14.81s-4.49,9.69-7,14.44Z" transform="translate(-78.92 -252.14)"/><path class="cls-4" d="M207.2,413.35c-3.53,1.27-7.1,2.4-10.73,3.31-1.81.45-3.64.85-5.48,1.16-.93.16-1.85.29-2.78.39-.47.05-.93.09-1.4.11l-.7,0-.35,0a.86.86,0,0,1-.17,0c0-.07.09-.06.13-.08s-.14,0-.13.07a1,1,0,0,0,.17,0h.35c.23,0,.47,0,.7,0,.46,0,.93-.09,1.39-.15.92-.13,1.84-.3,2.75-.48,1.83-.37,3.64-.83,5.43-1.34,3.58-1,7.09-2.27,10.55-3.65Z" transform="translate(-78.92 -252.14)"/><path class="cls-4" d="M207.55,418a2.46,2.46,0,0,0,.44-.34.48.48,0,0,0,.14-.16c0-.05,0,0,0,.09a2,2,0,0,0-.36-.08,3.85,3.85,0,0,0-.59,0,19.82,19.82,0,0,0-2.52.28c-1.67.28-3.36.62-5,1a41.32,41.32,0,0,0-4.91,1.45,18.16,18.16,0,0,0-2.33,1.07,6.74,6.74,0,0,0-1,.72,2,2,0,0,0-.74,1,2,2,0,0,1,.71-1,6.51,6.51,0,0,1,1-.77,16.45,16.45,0,0,1,2.3-1.15,40.1,40.1,0,0,1,4.89-1.64q2.47-.69,5-1.22a19.65,19.65,0,0,1,2.57-.39,4,4,0,0,1,.69,0,1.2,1.2,0,0,1,.84.3.63.63,0,0,1,.06.69,1.38,1.38,0,0,1-.26.34,4,4,0,0,1-.55.47Z" transform="translate(-78.92 -252.14)"/><path class="cls-4" d="M145.9,426.14a75.26,75.26,0,0,0-5.31,8.82,93.75,93.75,0,0,0-4.29,9.4,91.71,91.71,0,0,0-3.27,9.81,94.17,94.17,0,0,0-2.2,10.13,97,97,0,0,1,9.09-29.68,76.16,76.16,0,0,1,5.17-9.07Z" transform="translate(-78.92 -252.14)"/><path class="cls-4" d="M151.67,426.46c-1.95,3.36-3.81,6.79-5.54,10.27-.87,1.74-1.69,3.51-2.44,5.3a27,27,0,0,0-1.8,5.54,27.05,27.05,0,0,1,1.56-5.63q1-2.74,2.23-5.42,2.38-5.36,5.12-10.55Z" transform="translate(-78.92 -252.14)"/><path class="cls-1" d="M210.57,510.11c-3.14,2.11-21.7,10.44-21.7,10.44l-7.59-13.92,26.22-45.17Z" transform="translate(-78.92 -252.14)"/><path class="cls-2" d="M235.4,493.93s9.26-5.25,14.09-10.12" transform="translate(-78.92 -252.14)"/><path class="cls-4" d="M148.22,405.5c-2.46-4.45-4.74-9-6.93-13.56s-4.24-9.22-6.11-13.94c-1-2.34-1.81-4.74-2.69-7.12s-1.62-4.81-2.26-7.27a58.06,58.06,0,0,1-2.45-15,57.85,57.85,0,0,0,2.63,14.92c.67,2.45,1.54,4.83,2.35,7.23s1.77,4.74,2.76,7.07c1.93,4.68,4,9.3,6.28,13.84s4.58,9,7.07,13.43Z" transform="translate(-78.92 -252.14)"/><path class="cls-2" d="M182.28,504.5l7.44,13s18.61-8.88,20.75-10.31" transform="translate(-78.92 -252.14)"/><path class="cls-1" d="M229.38,424.89" transform="translate(-78.92 -252.14)"/><path class="cls-1" d="M235.63,497.34" transform="translate(-78.92 -252.14)"/><path class="cls-1" d="M362.51,270c38.94,15.83,88.13,1,88.13,1l-17.85-17.36c-20.55,7.66-54.62,0-54.62,0Z" transform="translate(-78.92 -252.14)"/><path class="cls-1" d="M328.62,284.47l16.68,69.79-14,160-.63,7.18-25.19-2,.38-7.13L314,359l5.45-49.36S321.47,287.53,328.62,284.47Z" transform="translate(-78.92 -252.14)"/><path class="cls-1" d="M484.53,284.47l-16.68,69.79L482.49,521.4l25.19-2L499.17,359l-5.45-49.36S491.68,287.53,484.53,284.47Z" transform="translate(-78.92 -252.14)"/><path class="cls-1" d="M345.3,354.26l11.91,51.06h0c36.31,4,49.36,4.42,49.36,4.42,16.52.59,25.64-.2,32.73-1.19a159.92,159.92,0,0,0,16.64-3.23l11.91-51.06,16.63-69.56,0-.23L450.64,271c-11.94,5.11-43.84,6.31-43.84,6.31-23.58,2-44.29-7.31-44.29-7.31l-33.89,14.45Z" transform="translate(-78.92 -252.14)"/><path class="cls-1" d="M409,502.68l67.33-8.85c-6.47-58.21-20.42-69.45-20.42-69.45-8.6,3.82-49.37,5.45-49.37,5.45s-42.21-1.36-49.36-5.45c0,0-13.95,11.24-20.42,69.45l67.33,8.85Z" transform="translate(-78.92 -252.14)"/><polygon class="cls-4" points="328.9 157.65 331.06 99.56 329.89 157.68 328.9 157.65"/><polygon class="cls-4" points="354.19 156.96 366.55 115.01 355.15 157.23 354.19 156.96"/><polygon class="cls-4" points="302.75 155.87 291.1 115.01 303.71 155.58 302.75 155.87"/><polygon class="cls-4" points="329.89 177.61 330.23 204.5 328.9 177.64 329.89 177.61"/><polygon class="cls-4" points="363.89 175.01 371.65 195.56 362.96 175.38 363.89 175.01"/><polygon class="cls-4" points="300.66 176.27 291.86 193.52 299.75 175.84 300.66 176.27"/><path class="cls-1" d="M305.88,511.64s14.74,2.74,26,2.06" transform="translate(-78.92 -252.14)"/><path class="cls-1" d="M507.68,512.81s-14.17,2.74-25.4,2.06" transform="translate(-78.92 -252.14)"/><path class="cls-1" d="M357.21,405.32l46.38,4.27,6.39.35s30,.91,46-4.62c0,0,1,11.4,0,19.06,0,0-23.66,5.48-46,5.39s-31.09-1.24-38.8-2.39a114.82,114.82,0,0,1-14-3Z" transform="translate(-78.92 -252.14)"/></svg>