<svg id="Layer_1" data-name="Layer 1" xmlns="http://www.w3.org/2000/svg" viewBox="0 0 477.23 272.14"><defs><style>.cls-1{stroke:#000;stroke-miterlimit:10;}</style></defs><path class="cls-1" d="M93.55,404.27,81.84,455l2.53,67.2c-12.52.81-31.82,1.9-31.82,1.9l-4.83-47.32.41-39.49s.4,1.07,5.79-29.27q1.08-6.06,2.39-11.88c1.22-5.42,2.58-10.67,4-15.72q1.43-5,2.93-9.66a314.91,314.91,0,0,1,21-50.41l1-1.87L118.78,306l7-2.6L111,319l32.16,13.33L111,339.53l43.37,71.34-11.21,29.66V556.44s-30.7,1-55.21-4.59c0,0,1-51.58,4.59-98.55,0,0,1.54-40.35,1-49,0,0,1.74-51.66-11.61-79.53l3.3-6.28,40.54-15.06" transform="translate(-47.22 -284.87)"/><path class="cls-1" d="M220.17,401.77,233.05,455l-2.54,67.2c13.47.87,31.83,1.91,31.83,1.91l4.82-47.33-.41-39.49s.11-2.77-5.79-29.27a425.66,425.66,0,0,0-31.32-89.54L190.34,304" transform="translate(-47.22 -284.87)"/><path class="cls-1" d="M190.34,304l13.06,12.31-31,16.51,30.21,7.84-59.44,99.91,59.44-99.91-30.21-7.84,31-16.51-30.13-28.42s7.2,61.51-30.13,152.68V556.44s58.21,1,82.72-4.59c0,0-1-51.58-4.59-98.55,0,0-1.53-40.35-1-49,0,0-2.81-56.95,12.54-79.2" transform="translate(-47.22 -284.87)"/><path class="cls-1" d="M260,547.63l4.57-23.41-36.09-2,.79,23.06S245.92,549.41,260,547.63Z" transform="translate(-47.22 -284.87)"/><path class="cls-1" d="M192.67,556.52" transform="translate(-47.22 -284.87)"/><path class="cls-1" d="M154.35,410.87,111,339.53l32.16-7.2L111,319l29.54-31.15s0,68.68,17.92,111.26" transform="translate(-47.22 -284.87)"/><path class="cls-1" d="M121.12,556.52" transform="translate(-47.22 -284.87)"/><path class="cls-1" d="M115.06,370.74c2.38,15,7.11,84.77,7.45,101.11" transform="translate(-47.22 -284.87)"/><rect class="cls-1" x="54.9" y="186.98" width="28.94" height="3.06"/><rect class="cls-1" x="133.76" y="186.98" width="28.94" height="3.06"/><polygon class="cls-1" points="58.3 83.83 77.37 80.76 77.37 84.17 58.3 87.57 58.3 83.83"/><path class="cls-1" d="M140.52,287.85c18.88-4.7,24.82-1.54,32.75,0" transform="translate(-47.22 -284.87)"/><path class="cls-1" d="M140.59,300.11s9.39-3.91,33.37,0" transform="translate(-47.22 -284.87)"/><circle class="cls-1" cx="108.99" cy="181.66" r="3.53"/><circle class="cls-1" cx="108.99" cy="223.06" r="3.53"/><line class="cls-1" x1="117.2" y1="181.66" x2="112.52" y2="181.66"/><line class="cls-1" x1="117.2" y1="223.06" x2="112.52" y2="223.06"/><path class="cls-1" d="M154.35,410.87,111,339.53l32.16-7.2L111,319l29.54-31.15s0,68.68,17.92,111.26Z" transform="translate(-47.22 -284.87)"/><path class="cls-1" d="M121.12,556.52" transform="translate(-47.22 -284.87)"/><path class="cls-1" d="M103.8,309.92" transform="translate(-47.22 -284.87)"/><rect class="cls-1" x="54.9" y="186.98" width="28.94" height="3.06"/><rect class="cls-1" x="133.76" y="186.98" width="28.94" height="3.06"/><polygon class="cls-1" points="58.3 83.83 77.37 80.76 77.37 84.17 58.3 87.57 58.3 83.83"/><path class="cls-1" d="M158.44,399.11c-5.77-8.71-10.41-35.62-13.79-55.71s-4.13-55.55-4.13-55.55c18.88-4.7,24.82-1.54,32.75,0,0,0,1.13,36.5-2.35,56.36S159.26,400.34,158.44,399.11Z" transform="translate(-47.22 -284.87)"/><path class="cls-1" d="M140.59,300.11s9.39-3.91,33.37,0" transform="translate(-47.22 -284.87)"/><circle class="cls-1" cx="108.99" cy="181.66" r="3.53"/><circle class="cls-1" cx="108.99" cy="223.06" r="3.53"/><line class="cls-1" x1="117.2" y1="181.66" x2="112.52" y2="181.66"/><line class="cls-1" x1="117.2" y1="223.06" x2="112.52" y2="223.06"/><line class="cls-1" x1="75.29" y1="190.04" x2="75.29" y2="270.78"/><path class="cls-1" d="M103.8,311s8.87,41.18,11.26,56.16" transform="translate(-47.22 -284.87)"/><line class="cls-1" x1="145.45" y1="190.04" x2="142.73" y2="271.64"/><path class="cls-1" d="M54.59,547.63,50,524.22l36.09-2-1.23,23.06S68.69,549.41,54.59,547.63Z" transform="translate(-47.22 -284.87)"/><path class="cls-1" d="M209.9,311.18s-6.33,22.12-8.72,37.09S193,455.72,192.67,472.06" transform="translate(-47.22 -284.87)"/><path class="cls-1" d="M477.58,400.85l12.25,51.06-2.54,67.21c13.47.87,31.83,1.91,31.83,1.91L524,473.7l-.42-39.49s.12-2.77-5.79-29.28a425.7,425.7,0,0,0-31.32-89.53l-40-14.78" transform="translate(-47.22 -284.87)"/><path class="cls-1" d="M381.79,300.62,342,315.4S319.57,355,310.7,404.93c-5.38,30.35-5.79,29.28-5.79,29.28l-.41,39.49L309.33,521s19.3-1.1,31.82-1.9l-2.53-67.21,12.25-51.06" transform="translate(-47.22 -284.87)"/><path class="cls-1" d="M446.38,300.62c-59.3-1.42-64.5,0-64.59,0l13.15-14.88c19.66-.51,25.4-.63,37.4.57Z" transform="translate(-47.22 -284.87)"/><path class="cls-1" d="M490,323c-16.49,17.91-12.45,80.42-12.45,80.42-.51,8.68,1,49,1,49,3.58,47,4.6,98.56,4.6,98.56-24.51,5.61-82.72,4.59-82.72,4.59H428s-58.21,1-82.72-4.59c0,0,1-51.58,4.59-98.56,0,0,1.53-40.34,1-49,0,0,1.82-40.3-12.8-80.42L342,315.4,382.3,300l64.08.58,40,14.78Z" transform="translate(-47.22 -284.87)"/><path class="cls-1" d="M311.37,544.56l-4.57-23.4,36.09-2-1.22,23.06S325.47,546.35,311.37,544.56Z" transform="translate(-47.22 -284.87)"/><path class="cls-1" d="M516.8,544.56l4.57-23.4-36.09-2,.79,23.06S502.7,546.35,516.8,544.56Z" transform="translate(-47.22 -284.87)"/><line class="cls-1" x1="369.34" y1="271.35" x2="366.35" y2="15.17"/></svg>