<svg id="Layer_1" data-name="Layer 1" xmlns="http://www.w3.org/2000/svg" viewBox="0 0 489.06 591.13"><defs><style>.cls-1,.cls-2,.cls-3,.cls-4.cls-1,.cls-3,.cls-4{stroke:#000;stroke-miterlimit:10;}.cls-3{stroke-width:0.75px;}.cls-4{stroke-dasharray:1;}</style></defs><polyline class="cls-1" points="283.61 27.88 264.65 590.63 355.37 590.63 376.45 161.44 376.67 35.52"/><polyline class="cls-1" points="376.52 35.52 376.74 161.44 397.82 590.63 488.55 590.63 469.59 27.88"/><path class="cls-1" d="M322.19,171.18c0-26.22,1.16-26.23,1.16-26.23,69.57,12.06,184.27-1.1,184.27-1.1s1.12,21.3.67,27.33c0,0-70,8.44-93,7.63Z" transform="translate(-38.58 -143.29)"/><path class="cls-2" d="M499.28,171.92a381.69,381.69,0,0,1,8.34,55.36" transform="translate(-38.58 -143.29)"/><path d="M499.52,171.87c2.07,9.12,3.7,18.32,5.05,27.56q1,6.93,1.78,13.9c.53,4.64.92,9.29,1.27,13.95-.4-4.66-.82-9.31-1.39-13.94s-1.19-9.26-1.9-13.87c-1.44-9.22-3.15-18.41-5.29-27.49Z" transform="translate(-38.58 -143.29)"/><path class="cls-2" d="M482.31,174.18s-6.4,14.77-4,27.43" transform="translate(-38.58 -143.29)"/><path d="M482.54,174.28a60.42,60.42,0,0,0-2.33,6.58,66.07,66.07,0,0,0-1.62,6.81,50.59,50.59,0,0,0-.76,7,36.39,36.39,0,0,0,.44,7,36.44,36.44,0,0,1-.57-7,51.16,51.16,0,0,1,.64-7,66.74,66.74,0,0,1,1.51-6.87,61.56,61.56,0,0,1,2.23-6.68Z" transform="translate(-38.58 -143.29)"/><path class="cls-2" d="M459.93,176a27.07,27.07,0,0,1,10.18,22.14c-.34,14.81,0,17.6,0,17.6" transform="translate(-38.58 -143.29)"/><path d="M460.08,175.79a26.25,26.25,0,0,1,6.85,8.27,27,27,0,0,1,3.12,10.24c0,.45.11.89.12,1.34l0,1.35c0,.9,0,1.79,0,2.68l-.12,5.36c0,3.57-.13,7.15.07,10.71-.25-3.56-.2-7.14-.2-10.71l.06-5.36c0-.9,0-1.79,0-2.68l0-1.33c0-.45-.1-.89-.14-1.33a26.91,26.91,0,0,0-3.19-10.09,26.05,26.05,0,0,0-6.82-8Z" transform="translate(-38.58 -143.29)"/><path class="cls-2" d="M454.62,177.34s-.33-6,0,15.67,0,13.87,0,13.87" transform="translate(-38.58 -143.29)"/><path d="M454.37,177.36l0-.52v-.17h0l0,0s.12.16.25.1a.23.23,0,0,0,.16-.12v0s0,.12,0,.19l0,1,0,2.11v4.23l.05,8.47.06,8.46v4.23l0,2.12,0,.53v.13a.11.11,0,0,1,0,.07s0,0,0-.06l0-.27-.05-1.05.07,1.05,0,.27s0,.05,0,.05v-2.84l-.07-4.23-.18-8.46-.17-8.46-.06-4.24,0-2.12,0-1.06a1.85,1.85,0,0,1,0-.34v0a.28.28,0,0,1,.18-.14c.13-.05.3.15.26.12l0,.05a.64.64,0,0,0,0,.07v.08l0,.14,0,.54Z" transform="translate(-38.58 -143.29)"/><path class="cls-2" d="M492,173.27s8.86,11.46,9,20.8" transform="translate(-38.58 -143.29)"/><path d="M492.19,173.12c1.14,1.56,2.18,3.17,3.16,4.82A57.47,57.47,0,0,1,498,183a28.26,28.26,0,0,1,2.92,11,28.15,28.15,0,0,0-3.15-10.93,55.37,55.37,0,0,0-2.78-5,56.9,56.9,0,0,0-3.24-4.71Z" transform="translate(-38.58 -143.29)"/><path class="cls-2" d="M503.45,171.92s3,20.4,4.17,22.51" transform="translate(-38.58 -143.29)"/><path d="M503.69,171.89c.52,3.78,1.06,7.56,1.66,11.33.29,1.88.6,3.77.94,5.65a34.34,34.34,0,0,0,1.33,5.56,33.2,33.2,0,0,1-1.45-5.54c-.38-1.87-.73-3.75-1.07-5.63-.68-3.76-1.3-7.53-1.9-11.3Z" transform="translate(-38.58 -143.29)"/><path class="cls-2" d="M442.17,177.32s7.07,29.41,7.07,42.07" transform="translate(-38.58 -143.29)"/><path d="M442.41,177.26c1.59,6.94,3,13.92,4.29,20.93q1,5.26,1.67,10.56a84.33,84.33,0,0,1,.87,10.64,84,84,0,0,0-1-10.62q-.76-5.29-1.78-10.53c-1.34-7-2.87-14-4.54-20.87Z" transform="translate(-38.58 -143.29)"/><path class="cls-2" d="M434.09,178.61S429,195,429,202" transform="translate(-38.58 -143.29)"/><path d="M434.33,178.68c-1.19,3.8-2.29,7.64-3.25,11.51-.49,1.93-.93,3.88-1.3,5.84A35.87,35.87,0,0,0,429,202a37.16,37.16,0,0,1,.61-6c.34-2,.74-3.93,1.18-5.88.89-3.89,1.91-7.76,3-11.6Z" transform="translate(-38.58 -143.29)"/><path class="cls-2" d="M419.63,178.59s5.72,13.33,6.05,23.14l.34,9.8" transform="translate(-38.58 -143.29)"/><path d="M419.86,178.49c1.07,2.62,2,5.29,2.86,8a82.1,82.1,0,0,1,2.14,8.19,44.11,44.11,0,0,1,.93,8.41l.23,8.46-.35-8.45a44.47,44.47,0,0,0-1.05-8.37,83.09,83.09,0,0,0-2.26-8.13c-.89-2.66-1.86-5.31-3-7.89Z" transform="translate(-38.58 -143.29)"/><path class="cls-2" d="M412.05,290.23l33.45,17.6S395.17,294.15,391,293.24s47.62,15.37,49.28,20.5" transform="translate(-38.58 -143.29)"/><path d="M412.05,290.23l33.49,17.53.68.35-.74-.19-26.7-7.2c-8.91-2.37-17.8-4.82-26.73-7.11l-.84-.2-.41-.09h-.06s0,0,.07-.1,0,0,0,0l0,0,.19.08c.54.21,1.08.4,1.62.59l3.27,1.14,6.53,2.27c4.35,1.52,8.7,3.06,13,4.66s8.64,3.24,12.88,5c2.12.9,4.24,1.84,6.3,2.86,1,.52,2.05,1.06,3,1.66a12.9,12.9,0,0,1,1.43,1,3.32,3.32,0,0,1,1.12,1.29,3.34,3.34,0,0,0-1.13-1.29,15.51,15.51,0,0,0-1.43-1c-1-.6-2-1.13-3-1.64-2.07-1-4.19-1.93-6.31-2.81-4.26-1.76-8.57-3.4-12.9-5s-8.67-3.12-13-4.63l-6.54-2.25L392.59,294c-.55-.19-1.09-.38-1.63-.59l-.21-.09-.05,0s0,0-.09-.13.13-.1.12-.11h.1l.43.1.84.2c8.94,2.28,17.84,4.68,26.74,7.09l26.69,7.25-.07.16Z" transform="translate(-38.58 -143.29)"/><path class="cls-2" d="M487.16,173.63s3.37,24.87,3.15,30.27" transform="translate(-38.58 -143.29)"/><path d="M487.54,173.58q.91,7.56,1.7,15.13c.25,2.53.5,5,.71,7.58s.41,5.07.36,7.61c0-2.54-.3-5.07-.55-7.59s-.58-5-.9-7.55q-1-7.56-2.07-15.08Z" transform="translate(-38.58 -143.29)"/><path class="cls-2" d="M470.12,175.47s4.71,10.19,5.16,15.41" transform="translate(-38.58 -143.29)"/><path d="M470.46,175.31c1.07,2.52,2.05,5.06,2.91,7.64.44,1.29.84,2.6,1.18,3.92a23.77,23.77,0,0,1,.73,4,23.43,23.43,0,0,0-.91-4c-.4-1.3-.86-2.58-1.35-3.84-1-2.53-2.07-5-3.24-7.46Z" transform="translate(-38.58 -143.29)"/><path class="cls-2" d="M426.2,179.13s-.9,7.83,0,10.4" transform="translate(-38.58 -143.29)"/><path d="M426.57,179.17c-.24,1.71-.43,3.44-.56,5.17-.05.87-.09,1.74-.09,2.6a10.28,10.28,0,0,0,.28,2.59,10.28,10.28,0,0,1-.46-2.58c-.07-.87-.1-1.74-.1-2.62,0-1.75.06-3.49.19-5.25Z" transform="translate(-38.58 -143.29)"/><path class="cls-2" d="M438.24,178.27s-1.35,17.24,0,26.29" transform="translate(-38.58 -143.29)"/><path d="M438.61,178.3c-.37,4.36-.64,8.74-.76,13.12-.06,2.19-.09,4.39,0,6.58a62.63,62.63,0,0,0,.43,6.56,65.28,65.28,0,0,1-.62-6.56c-.11-2.19-.14-4.39-.15-6.58,0-4.4.14-8.78.4-13.18Z" transform="translate(-38.58 -143.29)"/><path class="cls-2" d="M331,171.92a381.69,381.69,0,0,0-8.34,55.36" transform="translate(-38.58 -143.29)"/><path d="M331.24,172c-2.14,9.08-3.85,18.27-5.29,27.49q-1.08,6.92-1.9,13.87c-.57,4.63-1,9.28-1.39,13.94.35-4.66.74-9.31,1.26-13.95s1.11-9.28,1.78-13.9c1.36-9.24,3-18.44,5.06-27.56Z" transform="translate(-38.58 -143.29)"/><path class="cls-2" d="M346.7,173.35s6.4,14.77,4,27.43" transform="translate(-38.58 -143.29)"/><path d="M346.93,173.25a63.8,63.8,0,0,1,2.23,6.68,67.32,67.32,0,0,1,1.51,6.87,51.16,51.16,0,0,1,.64,7,37.12,37.12,0,0,1-.57,7,37.11,37.11,0,0,0,.44-7,50.73,50.73,0,0,0-.76-7,65.89,65.89,0,0,0-1.62-6.8,60.58,60.58,0,0,0-2.33-6.59Z" transform="translate(-38.58 -143.29)"/><path class="cls-2" d="M370.34,175s-10.51,8.18-10.17,24.73,0,19.66,0,19.66" transform="translate(-38.58 -143.29)"/><path d="M370.5,175.19a29,29,0,0,0-7,9.31,33.26,33.26,0,0,0-3.07,11.28,26.19,26.19,0,0,0-.15,2.94c0,1,0,2,0,2.95l.05,5.91c0,3.94,0,7.88-.19,11.81.2-3.93.11-7.87.07-11.81l-.12-5.91c0-1-.06-2,0-2.95a26.54,26.54,0,0,1,.12-3,33.67,33.67,0,0,1,3-11.43,29.2,29.2,0,0,1,7-9.53Z" transform="translate(-38.58 -143.29)"/><path class="cls-2" d="M375.65,176.34s.34-6,0,15.67,0,13.87,0,13.87" transform="translate(-38.58 -143.29)"/><path d="M375.4,176.33l.05-.54,0-.14v-.08a.25.25,0,0,1,0-.07l0-.05s.13-.17.25-.12a.24.24,0,0,1,.18.14l0,0a1.65,1.65,0,0,1,0,.34l0,1.06V179l-.06,4.24-.18,8.46-.18,8.46-.06,4.23v2.84s0,0,0-.05l0-.27.06-1.05,0,1.05,0,.27s0,.05,0,.06a.64.64,0,0,0,0-.07v-.66l0-2.12v-4.23l0-8.46.05-8.47V179l0-2.11,0-1c0-.07,0-.21,0-.19v0a.25.25,0,0,0,.17.12c.13.06.29-.14.25-.1l0,0h0v.17l0,.52Z" transform="translate(-38.58 -143.29)"/><path class="cls-2" d="M338.65,172.45s-8.85,11.45-9,20.79" transform="translate(-38.58 -143.29)"/><path d="M338.85,172.6a56.9,56.9,0,0,0-3.24,4.71,55.37,55.37,0,0,0-2.78,5,28.2,28.2,0,0,0-3.15,10.93,28.48,28.48,0,0,1,2.92-11c.8-1.74,1.72-3.43,2.69-5.09s2-3.26,3.16-4.81Z" transform="translate(-38.58 -143.29)"/><path class="cls-2" d="M388.11,176.93s-7.07,32.85-7.07,47" transform="translate(-38.58 -143.29)"/><path d="M388.35,177c-1.67,7.74-3.2,15.53-4.53,23.34q-1,5.86-1.79,11.76a102,102,0,0,0-1,11.84,102.35,102.35,0,0,1,.87-11.86c.46-3.94,1-7.86,1.66-11.78,1.25-7.83,2.7-15.63,4.3-23.41Z" transform="translate(-38.58 -143.29)"/><path class="cls-2" d="M396.8,177.85s5.05,16.42,5.05,23.35" transform="translate(-38.58 -143.29)"/><path d="M397,177.77c1.12,3.85,2.13,7.71,3,11.61q.68,2.91,1.18,5.87a36.05,36.05,0,0,1,.61,5.95,36,36,0,0,0-.74-5.93c-.37-2-.81-3.9-1.3-5.84-1-3.87-2.06-7.71-3.24-11.51Z" transform="translate(-38.58 -143.29)"/><path class="cls-2" d="M409.65,178.59s-5.72,12.27-6.06,21.29l-.33,9" transform="translate(-38.58 -143.29)"/><path d="M409.88,178.69c-1.09,2.36-2.07,4.78-2.95,7.22a69.61,69.61,0,0,0-2.26,7.46,37.87,37.87,0,0,0-1.06,7.72l-.35,7.81.23-7.82a36.84,36.84,0,0,1,.94-7.76,70.2,70.2,0,0,1,2.14-7.53c.86-2.47,1.79-4.91,2.85-7.31Z" transform="translate(-38.58 -143.29)"/><path class="cls-2" d="M343.11,173.45s-3.36,24.87-3.14,30.27" transform="translate(-38.58 -143.29)"/><path d="M343.48,173.5q-1.1,7.53-2.07,15.07c-.31,2.52-.63,5-.89,7.56s-.54,5.05-.55,7.59c-.05-2.54.17-5.08.36-7.61s.46-5.05.71-7.58q.78-7.58,1.7-15.13Z" transform="translate(-38.58 -143.29)"/><path class="cls-2" d="M360.16,174.55S355.45,184.75,355,190" transform="translate(-38.58 -143.29)"/><path d="M360.5,174.71c-1.17,2.43-2.27,4.92-3.24,7.45q-.75,1.91-1.35,3.84a22.61,22.61,0,0,0-.91,4,22.92,22.92,0,0,1,.73-4c.34-1.32.74-2.62,1.17-3.91.87-2.59,1.85-5.13,2.92-7.65Z" transform="translate(-38.58 -143.29)"/><path class="cls-2" d="M380.84,176s.9,7.83,0,10.39" transform="translate(-38.58 -143.29)"/><path d="M381.21,176c.13,1.75.2,3.5.19,5.25,0,.87,0,1.75-.09,2.62a10.6,10.6,0,0,1-.47,2.57,10.16,10.16,0,0,0,.28-2.58c0-.87,0-1.73-.09-2.6-.12-1.73-.31-3.46-.56-5.17Z" transform="translate(-38.58 -143.29)"/><path class="cls-2" d="M392,177.3s1.34,17.24,0,26.28" transform="translate(-38.58 -143.29)"/><path d="M392.32,177.27c.25,4.39.39,8.78.39,13.17,0,2.2,0,4.39-.15,6.59a62.53,62.53,0,0,1-.61,6.55,65.47,65.47,0,0,0,.43-6.56c.05-2.19,0-4.38,0-6.57q-.19-6.57-.77-13.12Z" transform="translate(-38.58 -143.29)"/><path class="cls-2" d="M403.64,178.47s.9,7.84,0,10.4" transform="translate(-38.58 -143.29)"/><path d="M404,178.43c.13,1.75.2,3.5.19,5.25,0,.87,0,1.75-.09,2.62a10.14,10.14,0,0,1-.47,2.57,10.16,10.16,0,0,0,.28-2.58c0-.87,0-1.74-.09-2.6-.12-1.73-.31-3.46-.56-5.17Z" transform="translate(-38.58 -143.29)"/><path class="cls-2" d="M448.18,177.3s-.89,7.83,0,10.39" transform="translate(-38.58 -143.29)"/><path d="M448.56,177.34c-.25,1.71-.44,3.44-.56,5.17-.06.87-.1,1.74-.09,2.6a10.15,10.15,0,0,0,.27,2.58,10.12,10.12,0,0,1-.46-2.57c-.07-.87-.1-1.75-.1-2.62,0-1.75.07-3.49.19-5.25Z" transform="translate(-38.58 -143.29)"/><path class="cls-2" d="M499.93,145s3.78,20.64,1.69,26.52" transform="translate(-38.58 -143.29)"/><path d="M499.93,145q.72,3.25,1.24,6.57c.35,2.2.62,4.41.87,6.63s.37,4.45.39,6.69a20.6,20.6,0,0,1-.81,6.63,14.16,14.16,0,0,0,.43-3.3c.06-1.1,0-2.21,0-3.32-.11-2.22-.27-4.44-.5-6.65s-.49-4.42-.76-6.63Z" transform="translate(-38.58 -143.29)"/><path class="cls-2" d="M492.59,148.12s3.61,14.62,2.88,21.55" transform="translate(-38.58 -143.29)"/><path d="M492.59,148.12c.53,1.74,1,3.51,1.36,5.29s.72,3.57,1,5.37.51,3.61.62,5.43a24.91,24.91,0,0,1-.12,5.46,36.45,36.45,0,0,0-.26-5.43q-.29-2.7-.73-5.39c-.26-1.79-.59-3.58-.9-5.37Z" transform="translate(-38.58 -143.29)"/><path class="cls-2" d="M487.74,146.61s-1.64,21.4,0,24.42" transform="translate(-38.58 -143.29)"/><path d="M487.74,146.61l-.4,12.24q-.12,3.06-.12,6.12c0,1,0,2,.07,3.05,0,.51,0,1,.12,1.52,0,.25.06.51.11.75l.22.74-.29-.72c-.07-.24-.11-.5-.17-.75-.13-.5-.16-1-.24-1.52-.1-1-.17-2-.2-3.06-.08-2,0-4.1,0-6.14C487,154.75,487.24,150.67,487.74,146.61Z" transform="translate(-38.58 -143.29)"/><path class="cls-2" d="M481.53,173.54s2.33-9,0-15.32" transform="translate(-38.58 -143.29)"/><path d="M481.53,173.54q.32-1.92.51-3.84c.13-1.28.24-2.56.26-3.85a35.16,35.16,0,0,0-.09-3.84,24.7,24.7,0,0,0-.68-3.79,15,15,0,0,1,1.06,3.75,26.76,26.76,0,0,1,.21,3.9,33.53,33.53,0,0,1-.38,3.88A24.82,24.82,0,0,1,481.53,173.54Z" transform="translate(-38.58 -143.29)"/><path class="cls-2" d="M473.18,148.12s.18,23.06,2.6,25.77" transform="translate(-38.58 -143.29)"/><path d="M473.18,148.12l.34,6.5c.12,2.17.21,4.34.37,6.5s.29,4.33.51,6.48c.11,1.08.24,2.15.43,3.22a14.26,14.26,0,0,0,.32,1.58,4.19,4.19,0,0,0,.63,1.49,4.35,4.35,0,0,1-.75-1.45,14,14,0,0,1-.44-1.57c-.24-1.07-.42-2.14-.57-3.22-.3-2.16-.47-4.33-.63-6.5s-.22-4.34-.25-6.51S473.11,150.29,473.18,148.12Z" transform="translate(-38.58 -143.29)"/><path class="cls-2" d="M460.33,149.18s8.31,13.61,5.13,24.43" transform="translate(-38.58 -143.29)"/><path d="M460.33,149.18a38.76,38.76,0,0,1,3,5.66,44,44,0,0,1,2.11,6.07,33.3,33.3,0,0,1,.92,6.36,20.22,20.22,0,0,1-.9,6.34,24,24,0,0,0,.51-6.32,34.93,34.93,0,0,0-1-6.26,47.33,47.33,0,0,0-2-6c-.38-1-.8-2-1.25-2.94S460.84,150.11,460.33,149.18Z" transform="translate(-38.58 -143.29)"/><path class="cls-2" d="M455.14,149.18a59.26,59.26,0,0,0-.3,13.11" transform="translate(-38.58 -143.29)"/><path d="M455.14,149.18c-.11,2.19-.22,4.37-.26,6.55,0,1.09,0,2.18-.05,3.27v3.29a32.92,32.92,0,0,1-.46-6.57c0-1.1.09-2.2.22-3.29A27.2,27.2,0,0,1,455.14,149.18Z" transform="translate(-38.58 -143.29)"/><path class="cls-2" d="M450.25,148.12s-.85,22.81,0,25.49" transform="translate(-38.58 -143.29)"/><path d="M450.25,148.12q0,3.19,0,6.38l-.08,6.38-.09,6.37c0,1.06,0,2.13,0,3.19a18.62,18.62,0,0,0,.19,3.17,33.77,33.77,0,0,1-.56-6.35c-.06-2.13,0-4.26,0-6.39s.1-4.25.2-6.38S450.08,150.24,450.25,148.12Z" transform="translate(-38.58 -143.29)"/><path class="cls-2" d="M457.88,175.73s2.72-3.35,2.45-5.31" transform="translate(-38.58 -143.29)"/><path d="M457.88,175.73c.46-.9,1-1.74,1.42-2.6a14.21,14.21,0,0,0,.64-1.3,4.47,4.47,0,0,0,.39-1.41,2.75,2.75,0,0,1,0,1.53,5.79,5.79,0,0,1-.57,1.41,8.72,8.72,0,0,1-1.86,2.37Z" transform="translate(-38.58 -143.29)"/><path class="cls-2" d="M446,176.26a11.18,11.18,0,0,1-2-6.59" transform="translate(-38.58 -143.29)"/><path d="M446,176.26a6.12,6.12,0,0,1-1.06-1.42,7.72,7.72,0,0,1-.7-1.65,7.93,7.93,0,0,1-.27-3.52c.11.58.19,1.15.32,1.72s.26,1.11.43,1.66A19.88,19.88,0,0,0,446,176.26Z" transform="translate(-38.58 -143.29)"/><path class="cls-2" d="M436.53,149.18a64.89,64.89,0,0,1,2,26.55" transform="translate(-38.58 -143.29)"/><path d="M436.53,149.18a43.51,43.51,0,0,1,1.71,6.48,60,60,0,0,1,.87,6.67,58,58,0,0,1,.1,6.72c0,1.12-.14,2.24-.24,3.35s-.32,2.22-.47,3.33c.17-2.23.32-4.46.33-6.69s0-4.45-.21-6.67-.42-4.44-.76-6.64A66.65,66.65,0,0,0,436.53,149.18Z" transform="translate(-38.58 -143.29)"/><path class="cls-2" d="M429.24,150.08s3.73,14.65,1.36,24.73" transform="translate(-38.58 -143.29)"/><path d="M429.24,150.08a57.74,57.74,0,0,1,1.4,6.09c.36,2.05.62,4.12.8,6.2a54.54,54.54,0,0,1,.11,6.26,30.58,30.58,0,0,1-.95,6.18,50.47,50.47,0,0,0,.35-12.4c-.15-2.07-.41-4.13-.69-6.18S429.63,152.12,429.24,150.08Z" transform="translate(-38.58 -143.29)"/><path class="cls-2" d="M422.64,150.08s-1.35,24.08,1.35,26.18" transform="translate(-38.58 -143.29)"/><path d="M422.64,150.08l-.07,6.61c0,2.21-.05,4.41,0,6.61s.05,4.4.17,6.59c.06,1.1.14,2.2.29,3.28a12.48,12.48,0,0,0,.29,1.62,3.08,3.08,0,0,0,.69,1.47,3.14,3.14,0,0,1-.81-1.43,12.81,12.81,0,0,1-.41-1.62c-.21-1.09-.33-2.19-.43-3.29-.2-2.2-.25-4.41-.28-6.62s0-4.41.13-6.62S422.43,152.28,422.64,150.08Z" transform="translate(-38.58 -143.29)"/><path class="cls-2" d="M412,150.83s-1.69,8.74-.84,13.41" transform="translate(-38.58 -143.29)"/><path d="M412,150.83c-.21,2.25-.48,4.47-.66,6.71-.1,1.11-.18,2.23-.22,3.34a29,29,0,0,0,0,3.36,14.59,14.59,0,0,1-.43-3.36,29.54,29.54,0,0,1,.11-3.39c.1-1.12.24-2.24.44-3.35A31.5,31.5,0,0,1,412,150.83Z" transform="translate(-38.58 -143.29)"/><path class="cls-2" d="M397.73,150.83s-3.89,14.32-3,19.59l.84,5.28" transform="translate(-38.58 -143.29)"/><path d="M397.73,150.83c-.45,2.06-.87,4.12-1.29,6.18s-.82,4.12-1.12,6.2a35.43,35.43,0,0,0-.54,6.23c.05,1,.24,2.08.37,3.12l.38,3.14c-.4-2.08-.88-4.11-1.13-6.23a32.71,32.71,0,0,1,.43-6.34c.34-2.08.74-4.15,1.23-6.2S397.1,152.84,397.73,150.83Z" transform="translate(-38.58 -143.29)"/><path class="cls-2" d="M388.05,150.83s3.59,10.35,3.25,15l-.34,4.69" transform="translate(-38.58 -143.29)"/><path d="M388.05,150.83c.64,1.56,1.18,3.16,1.68,4.77s.9,3.24,1.26,4.9a22.43,22.43,0,0,1,.51,5.05c-.13,1.69-.32,3.35-.54,5,0-1.68.11-3.37.15-5a24.55,24.55,0,0,0-.61-4.95c-.31-1.64-.73-3.26-1.14-4.89S388.49,152.46,388.05,150.83Z" transform="translate(-38.58 -143.29)"/><path class="cls-2" d="M380.94,150.08s-2.24,16.8-1.16,22.1" transform="translate(-38.58 -143.29)"/><path d="M380.94,150.08c-.27,3.69-.64,7.37-.9,11-.16,1.84-.26,3.69-.35,5.53a36.32,36.32,0,0,0,.09,5.52,25,25,0,0,1-.47-5.53c0-1.86.11-3.71.23-5.55s.33-3.69.56-5.53S380.6,151.9,380.94,150.08Z" transform="translate(-38.58 -143.29)"/><path class="cls-2" d="M373.85,150.08a20.12,20.12,0,0,1,1.82,8.14" transform="translate(-38.58 -143.29)"/><path d="M373.85,150.08a9,9,0,0,1,.95,1.89,12.18,12.18,0,0,1,.62,2,12.74,12.74,0,0,1,.25,4.22c-.12-.7-.2-1.39-.33-2.07s-.25-1.37-.41-2C374.64,152.75,374.27,151.42,373.85,150.08Z" transform="translate(-38.58 -143.29)"/><path class="cls-2" d="M366.57,149.18s-4.07,13.61-2.88,23" transform="translate(-38.58 -143.29)"/><path d="M366.57,149.18q-.66,2.83-1.23,5.69c-.36,1.91-.72,3.81-1,5.73a55.42,55.42,0,0,0-.67,11.58,30.71,30.71,0,0,1-.36-5.83c.06-1.95.28-3.89.53-5.82s.66-3.84,1.11-5.74A57,57,0,0,1,366.57,149.18Z" transform="translate(-38.58 -143.29)"/><path class="cls-2" d="M354.73,148.12s1,17.18,0,20.65l-1,3.46" transform="translate(-38.58 -143.29)"/><path d="M354.73,148.12c.22,2,.36,4,.48,6.06s.18,4,.22,6.08,0,4.06-.17,6.09a12,12,0,0,1-.58,3l-1,2.87.76-2.94a11.83,11.83,0,0,0,.42-3c.1-2,.1-4,.06-6.06C354.91,156.22,354.75,152.17,354.73,148.12Z" transform="translate(-38.58 -143.29)"/><path class="cls-2" d="M345.22,172.23s-.73-10.25,1.16-12.66" transform="translate(-38.58 -143.29)"/><path d="M345.22,172.23a35.47,35.47,0,0,1-.35-6.43,24.75,24.75,0,0,1,.34-3.22,6.74,6.74,0,0,1,1.17-3,5.37,5.37,0,0,0-.53,1.5,11.81,11.81,0,0,0-.26,1.56c-.11,1.06-.18,2.12-.22,3.19C345.29,168,345.28,170.08,345.22,172.23Z" transform="translate(-38.58 -143.29)"/><path class="cls-2" d="M341.18,147.22s1,20.34-.87,22.45" transform="translate(-38.58 -143.29)"/><path d="M341.18,147.22c.19,1.87.3,3.75.39,5.64s.11,3.77.12,5.65-.05,3.78-.19,5.66c-.08.94-.17,1.88-.32,2.82-.08.47-.17.93-.29,1.39a3.35,3.35,0,0,1-.58,1.29,3.4,3.4,0,0,0,.45-1.32,13.22,13.22,0,0,0,.18-1.39c.09-.93.14-1.87.17-2.81.07-1.88.1-3.76.08-5.64Z" transform="translate(-38.58 -143.29)"/><path class="cls-2" d="M335.44,145s-3.27,18-2.41,22.75" transform="translate(-38.58 -143.29)"/><path d="M335.44,145l-1.51,11.36c-.26,1.89-.48,3.79-.68,5.68-.09.95-.18,1.9-.23,2.85a19.5,19.5,0,0,0,0,2.86,24,24,0,0,1-.16-5.74c.11-1.91.34-3.81.56-5.71C334,152.46,334.57,148.68,335.44,145Z" transform="translate(-38.58 -143.29)"/><path class="cls-2" d="M329,145s-3.78,24.26-2.61,25.61" transform="translate(-38.58 -143.29)"/><path d="M329,145q-.36,3.21-.75,6.41l-.81,6.4c-.29,2.14-.54,4.27-.79,6.41-.12,1.07-.23,2.13-.31,3.2-.06.54-.09,1.08-.11,1.61a3.81,3.81,0,0,0,.16,1.58,4,4,0,0,1-.29-1.58c0-.54,0-1.08,0-1.62,0-1.08.1-2.15.18-3.23.17-2.15.42-4.29.68-6.43s.57-4.27.92-6.39S328.57,147.07,329,145Z" transform="translate(-38.58 -143.29)"/><path class="cls-2" d="M411,178.48s2.72-3.34,2.45-5.3" transform="translate(-38.58 -143.29)"/><path d="M411,178.48c.46-.89,1-1.73,1.42-2.59a14.38,14.38,0,0,0,.64-1.31,4.34,4.34,0,0,0,.39-1.4,2.75,2.75,0,0,1,0,1.53,5.79,5.79,0,0,1-.57,1.41,8.15,8.15,0,0,1-.83,1.27A7.08,7.08,0,0,1,411,178.48Z" transform="translate(-38.58 -143.29)"/><path class="cls-2" d="M421.79,178.1a11.13,11.13,0,0,1-2-6.58" transform="translate(-38.58 -143.29)"/><path d="M421.79,178.1a5.72,5.72,0,0,1-1.06-1.42A7.94,7.94,0,0,1,420,175a8.08,8.08,0,0,1-.27-3.52c.12.58.19,1.15.32,1.71s.27,1.12.43,1.67A19.78,19.78,0,0,0,421.79,178.1Z" transform="translate(-38.58 -143.29)"/><path class="cls-2" d="M406.27,177.36a12,12,0,0,1-1.81-6.58" transform="translate(-38.58 -143.29)"/><path d="M406.27,177.36a6,6,0,0,1-1-1.45,8,8,0,0,1-.62-1.65,8.52,8.52,0,0,1-.21-3.48c.12.57.19,1.14.31,1.7s.24,1.11.38,1.65A22.46,22.46,0,0,0,406.27,177.36Z" transform="translate(-38.58 -143.29)"/><path class="cls-2" d="M357.38,173.88s2.72-3.34,2.46-5.3" transform="translate(-38.58 -143.29)"/><path d="M357.38,173.88c.46-.9,1-1.73,1.43-2.59.24-.43.44-.87.64-1.31a4.69,4.69,0,0,0,.39-1.4,2.71,2.71,0,0,1,0,1.52,6.27,6.27,0,0,1-.56,1.42,9.79,9.79,0,0,1-.83,1.26A7.24,7.24,0,0,1,357.38,173.88Z" transform="translate(-38.58 -143.29)"/><path class="cls-2" d="M372.2,175.48a11.18,11.18,0,0,1-2-6.59" transform="translate(-38.58 -143.29)"/><path d="M372.2,175.48a6.12,6.12,0,0,1-1.06-1.42,8.19,8.19,0,0,1-1-5.17c.12.58.19,1.16.32,1.72s.27,1.11.43,1.66A19.52,19.52,0,0,0,372.2,175.48Z" transform="translate(-38.58 -143.29)"/><path class="cls-3" d="M512.51,198.7" transform="translate(-38.58 -143.29)"/><path class="cls-2" d="M398.88,150.08s3.72,14.66,1.35,24.74" transform="translate(-38.58 -143.29)"/><path d="M398.88,150.08a57.69,57.69,0,0,1,1.39,6.09c.37,2.06.62,4.13.81,6.21a54.46,54.46,0,0,1,.1,6.26,30,30,0,0,1-.95,6.18,49.51,49.51,0,0,0,.35-12.4c-.14-2.07-.4-4.13-.68-6.19S399.27,152.13,398.88,150.08Z" transform="translate(-38.58 -143.29)"/><line class="cls-4" x1="487.8" y1="564.88" x2="396.66" y2="564.88"/><line class="cls-4" x1="356.64" y1="564.88" x2="265.51" y2="564.88"/><line class="cls-1" x1="487.8" y1="567.3" x2="396.83" y2="567.3"/><line class="cls-1" x1="356.64" y1="567.3" x2="265.51" y2="567.3"/><polyline class="cls-1" points="112.54 35.52 112.76 161.44 133.84 590.63 224.57 590.63 205.61 27.88"/><polyline class="cls-1" points="112.54 35.52 112.32 161.44 91.24 590.63 0.52 590.63 19.48 27.88"/><path class="cls-2" d="M67.1,171.92a381.69,381.69,0,0,0-8.34,55.36" transform="translate(-38.58 -143.29)"/><path d="M67.34,172c-2.14,9.08-3.85,18.27-5.29,27.49q-1.08,6.92-1.9,13.87c-.57,4.63-1,9.28-1.39,13.94.35-4.66.73-9.31,1.26-13.95s1.11-9.28,1.78-13.9c1.36-9.24,3-18.44,5-27.56Z" transform="translate(-38.58 -143.29)"/><path class="cls-1" d="M244.19,171.18C244.19,145,243,145,243,145c-69.56,12.06-184.26-1.1-184.26-1.1s-1.13,21.3-.68,27.33c0,0,70,8.44,93,7.63Z" transform="translate(-38.58 -143.29)"/><path class="cls-2" d="M84.07,174.18s6.4,14.77,4,27.43" transform="translate(-38.58 -143.29)"/><path d="M84.3,174.08a63.8,63.8,0,0,1,2.23,6.68,66.7,66.7,0,0,1,1.5,6.87,51.16,51.16,0,0,1,.64,7,37.25,37.25,0,0,1-.56,7,37.21,37.21,0,0,0,.44-7,50.59,50.59,0,0,0-.76-7,66.07,66.07,0,0,0-1.62-6.81,62.61,62.61,0,0,0-2.33-6.58Z" transform="translate(-38.58 -143.29)"/><path class="cls-2" d="M106.44,176a27,27,0,0,0-10.17,22.14c.33,14.81,0,17.6,0,17.6" transform="translate(-38.58 -143.29)"/><path d="M106.58,176.2a26,26,0,0,0-6.81,8,26.91,26.91,0,0,0-3.19,10.09c0,.44-.12.88-.14,1.33l0,1.33c0,.89,0,1.78,0,2.68l.06,5.36c0,3.57,0,7.15-.19,10.71.2-3.56.11-7.14.07-10.71l-.12-5.36c0-.89,0-1.78,0-2.68l0-1.35c0-.45.08-.89.12-1.34a27.2,27.2,0,0,1,3.11-10.24,26.41,26.41,0,0,1,6.86-8.27Z" transform="translate(-38.58 -143.29)"/><path class="cls-2" d="M111.75,177.34s.34-6,0,15.67,0,13.87,0,13.87" transform="translate(-38.58 -143.29)"/><path d="M111.5,177.33l0-.54,0-.14v-.08a.25.25,0,0,1,0-.07l0-.05s.13-.17.26-.12a.24.24,0,0,1,.18.14v0a1.25,1.25,0,0,1,0,.34l0,1.06V180l-.06,4.24-.18,8.46-.18,8.46-.06,4.23v2.84s0,0,0-.05l0-.27.06-1.05,0,1.05,0,.27s0,.05,0,.06a.64.64,0,0,0,0-.07v-.66l0-2.12v-4.23l0-8.46.05-8.47V180l0-2.11,0-1c0-.07,0-.21,0-.19v0a.25.25,0,0,0,.17.12c.12.06.29-.14.25-.1v0h0v.17l0,.52Z" transform="translate(-38.58 -143.29)"/><path class="cls-2" d="M74.39,173.27s-8.86,11.46-9,20.8" transform="translate(-38.58 -143.29)"/><path d="M74.58,173.43c-1.15,1.5-2.22,3.09-3.23,4.71a53.11,53.11,0,0,0-2.79,5,28.32,28.32,0,0,0-3.15,10.93,28.27,28.27,0,0,1,2.93-11A52.64,52.64,0,0,1,71,177.94c1-1.65,2-3.26,3.16-4.82Z" transform="translate(-38.58 -143.29)"/><path class="cls-2" d="M62.93,171.92s-3,20.4-4.17,22.51" transform="translate(-38.58 -143.29)"/><path d="M63.18,172q-.9,5.65-1.9,11.3c-.34,1.88-.69,3.76-1.08,5.63a33.17,33.17,0,0,1-1.44,5.54,33.3,33.3,0,0,0,1.32-5.56c.34-1.88.65-3.77,1-5.65q.88-5.66,1.65-11.33Z" transform="translate(-38.58 -143.29)"/><path class="cls-2" d="M124.21,177.32s-7.07,29.41-7.07,42.07" transform="translate(-38.58 -143.29)"/><path d="M124.45,177.37c-1.67,6.92-3.2,13.88-4.53,20.87-.67,3.49-1.28,7-1.79,10.53a82.22,82.22,0,0,0-1,10.62,82.51,82.51,0,0,1,.87-10.64q.7-5.3,1.66-10.56,1.89-10.51,4.3-20.93Z" transform="translate(-38.58 -143.29)"/><path class="cls-2" d="M132.29,178.61S137.34,195,137.34,202" transform="translate(-38.58 -143.29)"/><path d="M132.53,178.53q1.66,5.76,3,11.6c.45,2,.85,3.91,1.18,5.88a36.07,36.07,0,0,1,.62,6,35.87,35.87,0,0,0-.74-5.93q-.57-2.94-1.3-5.84-1.45-5.81-3.25-11.51Z" transform="translate(-38.58 -143.29)"/><path class="cls-2" d="M146.75,178.59s-5.72,13.33-6.06,23.14l-.33,9.8" transform="translate(-38.58 -143.29)"/><path d="M147,178.69c-1.1,2.58-2.08,5.23-3,7.89a83,83,0,0,0-2.25,8.13,44.47,44.47,0,0,0-1,8.37l-.35,8.45.23-8.46a44.1,44.1,0,0,1,.92-8.41,82.1,82.1,0,0,1,2.14-8.19c.86-2.69,1.8-5.36,2.87-8Z" transform="translate(-38.58 -143.29)"/><path class="cls-2" d="M79.21,173.63s-3.36,24.87-3.14,30.27" transform="translate(-38.58 -143.29)"/><path d="M79.58,173.68c-.73,5-1.43,10-2.07,15.08-.31,2.51-.63,5-.89,7.55s-.54,5.05-.55,7.59c0-2.54.17-5.08.36-7.61s.45-5,.71-7.58q.78-7.58,1.7-15.13Z" transform="translate(-38.58 -143.29)"/><path class="cls-2" d="M96.26,175.47s-4.71,10.19-5.16,15.41" transform="translate(-38.58 -143.29)"/><path d="M96.6,175.62c-1.17,2.44-2.27,4.93-3.24,7.46Q92.61,185,92,186.92a22.5,22.5,0,0,0-.91,4,22.81,22.81,0,0,1,.73-4c.34-1.32.74-2.63,1.17-3.92.87-2.58,1.85-5.12,2.92-7.64Z" transform="translate(-38.58 -143.29)"/><path class="cls-2" d="M140.17,179.13s.9,7.83,0,10.4" transform="translate(-38.58 -143.29)"/><path d="M140.55,179.08c.12,1.76.19,3.5.19,5.25,0,.88,0,1.75-.1,2.62a9.86,9.86,0,0,1-.47,2.58,9.84,9.84,0,0,0,.28-2.59c0-.86,0-1.73-.09-2.6-.12-1.73-.31-3.46-.56-5.17Z" transform="translate(-38.58 -143.29)"/><path class="cls-2" d="M128.14,178.27s1.34,17.24,0,26.29" transform="translate(-38.58 -143.29)"/><path d="M128.51,178.24c.25,4.4.39,8.78.39,13.18,0,2.19,0,4.39-.15,6.58a62.46,62.46,0,0,1-.61,6.56,62.63,62.63,0,0,0,.43-6.56c.05-2.19,0-4.39,0-6.58q-.19-6.57-.77-13.12Z" transform="translate(-38.58 -143.29)"/><path class="cls-2" d="M235.38,171.92a380.92,380.92,0,0,1,8.33,55.36" transform="translate(-38.58 -143.29)"/><path d="M235.62,171.87c2.07,9.12,3.7,18.32,5,27.56q1,6.93,1.78,13.9c.53,4.64.91,9.29,1.26,13.95-.39-4.66-.81-9.31-1.38-13.94s-1.19-9.26-1.9-13.87c-1.44-9.22-3.15-18.41-5.29-27.49Z" transform="translate(-38.58 -143.29)"/><path class="cls-2" d="M219.67,173.35s-6.39,14.77-4,27.43" transform="translate(-38.58 -143.29)"/><path d="M219.9,173.45a62.73,62.73,0,0,0-2.32,6.59,65.89,65.89,0,0,0-1.62,6.8,52.36,52.36,0,0,0-.77,7,37.11,37.11,0,0,0,.44,7,37.12,37.12,0,0,1-.56-7,51.16,51.16,0,0,1,.64-7,64.75,64.75,0,0,1,1.51-6.87,61.5,61.5,0,0,1,2.22-6.68Z" transform="translate(-38.58 -143.29)"/><path class="cls-2" d="M196,175s10.51,8.18,10.18,24.73,0,19.66,0,19.66" transform="translate(-38.58 -143.29)"/><path d="M196.19,174.8a29.34,29.34,0,0,1,7,9.53,33.9,33.9,0,0,1,3,11.43,29.18,29.18,0,0,1,.12,3c0,1,0,2,0,2.95l-.11,5.91c0,3.94-.13,7.88.07,11.81-.24-3.93-.2-7.87-.2-11.81l.06-5.91c0-1,0-2,0-2.95a28.8,28.8,0,0,0-.15-2.94,33.26,33.26,0,0,0-3.07-11.28,29,29,0,0,0-7-9.31Z" transform="translate(-38.58 -143.29)"/><path class="cls-2" d="M190.72,176.34s-.33-6,0,15.67,0,13.87,0,13.87" transform="translate(-38.58 -143.29)"/><path d="M190.47,176.36l0-.52,0-.12v-.05h0l0,0c-.05,0,.12.16.25.1a.23.23,0,0,0,.16-.12v0s0,.12,0,.19l0,1,0,2.11v4.23l.05,8.47.06,8.46v4.23l0,2.12,0,.53v.13a.11.11,0,0,1,0,.07s0,0,0-.06l0-.27-.05-1.05.07,1.05,0,.27s0,.05,0,.05v-2.84l-.07-4.23-.18-8.46-.17-8.46-.07-4.24V176.9l0-1.06a1.85,1.85,0,0,1,0-.34v0a.28.28,0,0,1,.18-.14c.13-.05.3.15.26.12l0,.05a.64.64,0,0,0,0,.07v.08l0,.14,0,.54Z" transform="translate(-38.58 -143.29)"/><path class="cls-2" d="M227.72,172.45s8.86,11.45,9,20.79" transform="translate(-38.58 -143.29)"/><path d="M227.92,172.3a56.08,56.08,0,0,1,3.16,4.81,53.84,53.84,0,0,1,2.69,5.09,28.32,28.32,0,0,1,2.93,11,28.2,28.2,0,0,0-3.15-10.93,53.11,53.11,0,0,0-2.79-5c-1-1.62-2.08-3.21-3.23-4.71Z" transform="translate(-38.58 -143.29)"/><path class="cls-2" d="M178.27,176.93s7.07,32.85,7.07,47" transform="translate(-38.58 -143.29)"/><path d="M178.51,176.88q2.4,11.67,4.3,23.41.94,5.88,1.66,11.78a104.61,104.61,0,0,1,.87,11.86,106.59,106.59,0,0,0-1-11.84c-.51-3.93-1.12-7.85-1.79-11.76-1.33-7.81-2.86-15.6-4.54-23.34Z" transform="translate(-38.58 -143.29)"/><path class="cls-2" d="M169.57,177.85s-5,16.42-5,23.35" transform="translate(-38.58 -143.29)"/><path d="M169.81,177.92q-1.78,5.7-3.25,11.51c-.49,1.94-.92,3.88-1.3,5.84a36,36,0,0,0-.74,5.93,36.07,36.07,0,0,1,.62-5.95c.33-2,.73-3.93,1.18-5.87.88-3.9,1.9-7.76,3-11.61Z" transform="translate(-38.58 -143.29)"/><path class="cls-2" d="M156.73,178.59s5.71,12.27,6.05,21.29l.34,9" transform="translate(-38.58 -143.29)"/><path d="M157,178.48c1.07,2.4,2,4.84,2.85,7.31a70.25,70.25,0,0,1,2.15,7.53,38.2,38.2,0,0,1,.94,7.76l.23,7.82-.36-7.81a36.52,36.52,0,0,0-1.06-7.72,69.56,69.56,0,0,0-2.25-7.46c-.89-2.44-1.86-4.86-2.95-7.22Z" transform="translate(-38.58 -143.29)"/><path class="cls-2" d="M223.26,173.45s3.37,24.87,3.15,30.27" transform="translate(-38.58 -143.29)"/><path d="M223.64,173.4q.92,7.56,1.7,15.13c.25,2.53.5,5.05.71,7.58s.41,5.07.36,7.61c0-2.54-.3-5.07-.55-7.59s-.58-5-.9-7.56q-1-7.55-2.07-15.07Z" transform="translate(-38.58 -143.29)"/><path class="cls-2" d="M206.22,174.55s4.71,10.2,5.16,15.42" transform="translate(-38.58 -143.29)"/><path d="M206.56,174.39c1.06,2.52,2.05,5.06,2.91,7.65.44,1.29.84,2.59,1.18,3.91a23.88,23.88,0,0,1,.73,4,23.54,23.54,0,0,0-.91-4c-.4-1.29-.86-2.57-1.35-3.84-1-2.53-2.08-5-3.25-7.45Z" transform="translate(-38.58 -143.29)"/><path class="cls-2" d="M185.54,176s-.9,7.83,0,10.39" transform="translate(-38.58 -143.29)"/><path d="M185.91,176c-.25,1.71-.44,3.44-.56,5.17-.06.87-.1,1.73-.09,2.6a9.72,9.72,0,0,0,.28,2.58,9.72,9.72,0,0,1-.47-2.57c-.07-.87-.09-1.75-.1-2.62,0-1.75.07-3.5.19-5.25Z" transform="translate(-38.58 -143.29)"/><path class="cls-2" d="M174.43,177.3s-1.35,17.24,0,26.28" transform="translate(-38.58 -143.29)"/><path d="M174.8,177.33c-.37,4.36-.64,8.74-.76,13.12-.06,2.19-.09,4.38,0,6.57a62.63,62.63,0,0,0,.43,6.56,65.36,65.36,0,0,1-.62-6.55c-.11-2.2-.14-4.39-.15-6.59,0-4.39.15-8.78.4-13.17Z" transform="translate(-38.58 -143.29)"/><path class="cls-2" d="M162.73,178.47s-.89,7.84,0,10.4" transform="translate(-38.58 -143.29)"/><path d="M163.11,178.52c-.25,1.71-.44,3.44-.56,5.17-.06.86-.1,1.73-.09,2.6a10.15,10.15,0,0,0,.27,2.58,10.12,10.12,0,0,1-.46-2.57c-.07-.87-.1-1.75-.1-2.62,0-1.75.07-3.5.19-5.25Z" transform="translate(-38.58 -143.29)"/><path class="cls-2" d="M118.19,177.3s.9,7.83,0,10.39" transform="translate(-38.58 -143.29)"/><path d="M118.56,177.25c.13,1.76.2,3.5.19,5.25,0,.87,0,1.75-.09,2.62a10.14,10.14,0,0,1-.47,2.57,10.16,10.16,0,0,0,.28-2.58c0-.86,0-1.73-.09-2.6-.12-1.73-.31-3.46-.56-5.17Z" transform="translate(-38.58 -143.29)"/><path class="cls-2" d="M66.45,145s-3.78,20.64-1.7,26.52" transform="translate(-38.58 -143.29)"/><path d="M66.45,145l-.87,6.62c-.26,2.21-.54,4.42-.75,6.63s-.4,4.43-.5,6.65c0,1.11-.06,2.22,0,3.32a15.31,15.31,0,0,0,.43,3.3,20.88,20.88,0,0,1-.81-6.63c0-2.24.2-4.47.39-6.69s.52-4.43.88-6.63S66,147.13,66.45,145Z" transform="translate(-38.58 -143.29)"/><path class="cls-2" d="M73.78,148.12s-3.6,14.62-2.88,21.55" transform="translate(-38.58 -143.29)"/><path d="M73.78,148.12l-1,5.36c-.32,1.79-.64,3.58-.9,5.37s-.54,3.59-.74,5.39a39.34,39.34,0,0,0-.26,5.43,26.21,26.21,0,0,1-.12-5.46c.11-1.82.36-3.63.62-5.43s.62-3.59,1-5.37S73.25,149.86,73.78,148.12Z" transform="translate(-38.58 -143.29)"/><path class="cls-2" d="M78.64,146.61s1.64,21.4,0,24.42" transform="translate(-38.58 -143.29)"/><path d="M78.64,146.61c.5,4.06.74,8.14.9,12.23,0,2,.08,4.09,0,6.14,0,1-.1,2-.21,3.06-.07.51-.11,1-.23,1.52-.06.25-.1.51-.17.75l-.29.72.21-.74c.05-.24.08-.5.12-.75.08-.5.08-1,.12-1.52,0-1,.07-2,.06-3.05,0-2,0-4.08-.11-6.12Z" transform="translate(-38.58 -143.29)"/><path class="cls-2" d="M84.84,173.54s-2.32-9,0-15.32" transform="translate(-38.58 -143.29)"/><path d="M84.84,173.54a27.44,27.44,0,0,1-.89-3.79,35.89,35.89,0,0,1-.38-3.88,26.77,26.77,0,0,1,.22-3.9,15,15,0,0,1,1-3.75,23.52,23.52,0,0,0-.67,3.79,32.83,32.83,0,0,0-.1,3.84c0,1.29.13,2.57.26,3.85S84.64,172.26,84.84,173.54Z" transform="translate(-38.58 -143.29)"/><path class="cls-2" d="M93.2,148.12s-.18,23.06-2.6,25.77" transform="translate(-38.58 -143.29)"/><path d="M93.2,148.12c.07,2.17.08,4.35,0,6.52S93.1,159,93,161.15s-.33,4.34-.63,6.5c-.16,1.08-.33,2.15-.57,3.22-.13.53-.27,1.06-.45,1.57a4.33,4.33,0,0,1-.74,1.45,4.17,4.17,0,0,0,.62-1.49,14.3,14.3,0,0,0,.33-1.58c.19-1.07.32-2.14.43-3.22q.33-3.22.51-6.48c.15-2.16.25-4.33.37-6.5Z" transform="translate(-38.58 -143.29)"/><path class="cls-2" d="M106,149.18s-8.31,13.61-5.12,24.43" transform="translate(-38.58 -143.29)"/><path d="M106,149.18c-.51.93-1,1.9-1.39,2.87s-.87,1.94-1.25,2.94a49,49,0,0,0-2,6,35.84,35.84,0,0,0-1,6.26,24,24,0,0,0,.52,6.32,19.94,19.94,0,0,1-.9-6.34,32.52,32.52,0,0,1,.92-6.36,41.5,41.5,0,0,1,2.11-6.07A38.7,38.7,0,0,1,106,149.18Z" transform="translate(-38.58 -143.29)"/><path class="cls-2" d="M111.24,149.18a59.26,59.26,0,0,1,.3,13.11" transform="translate(-38.58 -143.29)"/><path d="M111.24,149.18a27.17,27.17,0,0,1,.53,3.25c.13,1.09.2,2.19.23,3.29a32.92,32.92,0,0,1-.46,6.57V159c0-1.09,0-2.18,0-3.27C111.45,153.55,111.35,151.37,111.24,149.18Z" transform="translate(-38.58 -143.29)"/><path class="cls-2" d="M116.13,148.12s.85,22.81,0,25.49" transform="translate(-38.58 -143.29)"/><path d="M116.13,148.12c.17,2.12.3,4.25.39,6.37s.14,4.25.19,6.38,0,4.26,0,6.39a33.77,33.77,0,0,1-.56,6.35,18.62,18.62,0,0,0,.18-3.17c0-1.06,0-2.13,0-3.19l-.1-6.37-.07-6.38Q116.1,151.32,116.13,148.12Z" transform="translate(-38.58 -143.29)"/><path class="cls-2" d="M108.5,175.73s-2.72-3.35-2.46-5.31" transform="translate(-38.58 -143.29)"/><path d="M108.5,175.73a8.31,8.31,0,0,1-1-1.1,9.25,9.25,0,0,1-.83-1.27,6.19,6.19,0,0,1-.56-1.41,2.75,2.75,0,0,1,0-1.53,4.75,4.75,0,0,0,.39,1.41c.2.44.41.87.64,1.3C107.53,174,108,174.83,108.5,175.73Z" transform="translate(-38.58 -143.29)"/><path class="cls-2" d="M120.36,176.26a11.15,11.15,0,0,0,2-6.59" transform="translate(-38.58 -143.29)"/><path d="M120.36,176.26a19.06,19.06,0,0,0,1.29-3.21c.16-.55.31-1.1.43-1.66s.2-1.14.32-1.72a8.08,8.08,0,0,1-.27,3.52,8.89,8.89,0,0,1-.7,1.65A5.89,5.89,0,0,1,120.36,176.26Z" transform="translate(-38.58 -143.29)"/><path class="cls-2" d="M129.85,149.18a65,65,0,0,0-2,26.55" transform="translate(-38.58 -143.29)"/><path d="M129.85,149.18a66.65,66.65,0,0,0-1.33,6.55c-.34,2.2-.63,4.41-.76,6.64s-.25,4.44-.21,6.67.15,4.46.32,6.69c-.15-1.11-.35-2.21-.46-3.33s-.21-2.23-.25-3.35a60.28,60.28,0,0,1,.1-6.72,62.43,62.43,0,0,1,.88-6.67A43.51,43.51,0,0,1,129.85,149.18Z" transform="translate(-38.58 -143.29)"/><path class="cls-2" d="M137.13,150.08s-3.72,14.65-1.35,24.73" transform="translate(-38.58 -143.29)"/><path d="M137.13,150.08c-.39,2-.72,4.09-1,6.15s-.55,4.11-.69,6.18a49.51,49.51,0,0,0,.35,12.4,30.58,30.58,0,0,1-.95-6.18,54.53,54.53,0,0,1,.1-6.26c.19-2.08.44-4.15.81-6.2A57.69,57.69,0,0,1,137.13,150.08Z" transform="translate(-38.58 -143.29)"/><path class="cls-2" d="M143.74,150.08s1.34,24.08-1.36,26.18" transform="translate(-38.58 -143.29)"/><path d="M143.74,150.08q.31,3.3.45,6.6c.1,2.21.12,4.41.13,6.62s-.08,4.42-.28,6.62c-.1,1.1-.23,2.2-.43,3.29a14.81,14.81,0,0,1-.42,1.62,3.06,3.06,0,0,1-.81,1.43,3.09,3.09,0,0,0,.7-1.47c.13-.53.21-1.07.29-1.62.15-1.08.23-2.18.29-3.28q.18-3.28.16-6.59c0-2.2,0-4.4,0-6.61Z" transform="translate(-38.58 -143.29)"/><path class="cls-2" d="M154.41,150.83s1.7,8.74.85,13.41" transform="translate(-38.58 -143.29)"/><path d="M154.41,150.83c.31,1.09.53,2.2.73,3.31s.33,2.23.43,3.35a27.43,27.43,0,0,1,.11,3.39,14.58,14.58,0,0,1-.42,3.36,29,29,0,0,0,0-3.36c-.05-1.11-.12-2.23-.22-3.34C154.89,155.3,154.63,153.08,154.41,150.83Z" transform="translate(-38.58 -143.29)"/><path class="cls-2" d="M168.64,150.83s3.9,14.32,3.05,19.59l-.85,5.28" transform="translate(-38.58 -143.29)"/><path d="M168.64,150.83c.63,2,1.19,4,1.67,6.1s.9,4.12,1.24,6.2a32.71,32.71,0,0,1,.43,6.34c-.25,2.12-.74,4.15-1.14,6.23l.38-3.14c.13-1,.33-2.09.37-3.12a34.5,34.5,0,0,0-.54-6.23c-.29-2.08-.7-4.14-1.11-6.2S169.09,152.89,168.64,150.83Z" transform="translate(-38.58 -143.29)"/><path class="cls-2" d="M178.32,150.83s-3.58,10.35-3.24,15l.34,4.69" transform="translate(-38.58 -143.29)"/><path d="M178.32,150.83c-.44,1.63-.89,3.25-1.3,4.87s-.83,3.25-1.14,4.89a25.3,25.3,0,0,0-.62,4.95c.05,1.66.15,3.35.16,5-.22-1.67-.41-3.33-.54-5a22.43,22.43,0,0,1,.51-5.05c.36-1.66.77-3.29,1.26-4.9S177.69,152.39,178.32,150.83Z" transform="translate(-38.58 -143.29)"/><path class="cls-2" d="M185.44,150.08s2.24,16.8,1.16,22.1" transform="translate(-38.58 -143.29)"/><path d="M185.44,150.08c.34,1.82.6,3.65.83,5.49s.4,3.68.56,5.53.23,3.69.24,5.55a25,25,0,0,1-.47,5.53,36.32,36.32,0,0,0,.08-5.52c-.09-1.84-.19-3.69-.35-5.53C186.08,157.45,185.71,153.77,185.44,150.08Z" transform="translate(-38.58 -143.29)"/><path class="cls-2" d="M192.53,150.08a20.12,20.12,0,0,0-1.82,8.14" transform="translate(-38.58 -143.29)"/><path d="M192.53,150.08c-.43,1.34-.79,2.67-1.09,4-.15.67-.28,1.35-.4,2s-.21,1.37-.33,2.07A12.47,12.47,0,0,1,191,154a14.4,14.4,0,0,1,.62-2A9.6,9.6,0,0,1,192.53,150.08Z" transform="translate(-38.58 -143.29)"/><path class="cls-2" d="M199.81,149.18s4.07,13.61,2.88,23" transform="translate(-38.58 -143.29)"/><path d="M199.81,149.18c.64,1.83,1.14,3.72,1.6,5.61s.8,3.81,1.1,5.74a54,54,0,0,1,.53,5.82,30.71,30.71,0,0,1-.35,5.83A56.1,56.1,0,0,0,202,160.6c-.26-1.92-.62-3.82-1-5.73S200.25,151.07,199.81,149.18Z" transform="translate(-38.58 -143.29)"/><path class="cls-2" d="M211.65,148.12s-1,17.18,0,20.65l1,3.46" transform="translate(-38.58 -143.29)"/><path d="M211.65,148.12c0,4-.18,8.1-.2,12.14,0,2,0,4.05.05,6.06a11.4,11.4,0,0,0,.43,3l.75,2.94-1-2.87a11.54,11.54,0,0,1-.58-3c-.17-2-.17-4.06-.17-6.09s.1-4.06.21-6.08S211.43,150.14,211.65,148.12Z" transform="translate(-38.58 -143.29)"/><path class="cls-2" d="M221.15,172.23s.74-10.25-1.16-12.66" transform="translate(-38.58 -143.29)"/><path d="M221.15,172.23c-.06-2.15-.06-4.28-.15-6.41,0-1.07-.11-2.13-.21-3.19-.07-.52-.14-1-.26-1.56a5.09,5.09,0,0,0-.54-1.5,6.64,6.64,0,0,1,1.18,3,23.12,23.12,0,0,1,.33,3.22A34.59,34.59,0,0,1,221.15,172.23Z" transform="translate(-38.58 -143.29)"/><path class="cls-2" d="M225.2,147.22s-1,20.34.87,22.45" transform="translate(-38.58 -143.29)"/><path d="M225.2,147.22l0,11.29c0,1.88,0,3.76.08,5.64,0,.94.08,1.88.18,2.81a13.22,13.22,0,0,0,.18,1.39,3.4,3.4,0,0,0,.45,1.32,3.08,3.08,0,0,1-.58-1.29c-.13-.46-.21-.92-.3-1.39-.14-.94-.23-1.88-.31-2.82-.14-1.88-.17-3.77-.2-5.66s0-3.77.13-5.65S225,149.09,225.2,147.22Z" transform="translate(-38.58 -143.29)"/><path class="cls-2" d="M230.94,147.07s3.26,18,2.41,22.75" transform="translate(-38.58 -143.29)"/><path d="M230.94,147.07c.87,3.72,1.47,7.5,2,11.3.23,1.9.45,3.8.57,5.71a24.49,24.49,0,0,1-.16,5.74,18.21,18.21,0,0,0,0-2.86c0-1-.13-1.9-.22-2.85-.2-1.89-.42-3.79-.68-5.68Z" transform="translate(-38.58 -143.29)"/><path class="cls-2" d="M237.39,145s3.78,24.26,2.61,25.61" transform="translate(-38.58 -143.29)"/><path d="M237.39,145q.62,3.16,1.13,6.36c.34,2.12.63,4.26.92,6.39s.51,4.28.67,6.43c.08,1.08.15,2.15.18,3.23,0,.54,0,1.08,0,1.62a3.85,3.85,0,0,1-.28,1.58,4,4,0,0,0,.16-1.58c0-.53-.06-1.07-.11-1.61-.08-1.07-.19-2.13-.32-3.2-.25-2.14-.5-4.27-.79-6.41l-.8-6.4Q237.74,148.18,237.39,145Z" transform="translate(-38.58 -143.29)"/><path class="cls-2" d="M155.36,178.48s-2.72-3.34-2.46-5.3" transform="translate(-38.58 -143.29)"/><path d="M155.36,178.48a7.66,7.66,0,0,1-1-1.09,9.9,9.9,0,0,1-.83-1.27,6.19,6.19,0,0,1-.56-1.41,2.75,2.75,0,0,1,0-1.53,4.61,4.61,0,0,0,.39,1.4c.2.44.41.88.64,1.31C154.39,176.75,154.9,177.59,155.36,178.48Z" transform="translate(-38.58 -143.29)"/><path class="cls-2" d="M144.58,178.1a11.13,11.13,0,0,0,2-6.58" transform="translate(-38.58 -143.29)"/><path d="M144.58,178.1a19.83,19.83,0,0,0,1.29-3.2c.16-.55.3-1.1.42-1.67s.21-1.13.32-1.71a8.3,8.3,0,0,1-1,5.16A5.76,5.76,0,0,1,144.58,178.1Z" transform="translate(-38.58 -143.29)"/><path class="cls-2" d="M160.1,177.36a12,12,0,0,0,1.81-6.58" transform="translate(-38.58 -143.29)"/><path d="M160.1,177.36a21.3,21.3,0,0,0,1.12-3.23q.22-.81.39-1.65c.11-.56.19-1.13.3-1.7a8.52,8.52,0,0,1-.2,3.48,8.64,8.64,0,0,1-.63,1.65A5.7,5.7,0,0,1,160.1,177.36Z" transform="translate(-38.58 -143.29)"/><path class="cls-2" d="M209,173.88s-2.72-3.34-2.45-5.3" transform="translate(-38.58 -143.29)"/><path d="M209,173.88a6.72,6.72,0,0,1-1-1.1,8.06,8.06,0,0,1-.83-1.26,5.86,5.86,0,0,1-.57-1.42,2.71,2.71,0,0,1,0-1.52,4.41,4.41,0,0,0,.39,1.4,14.38,14.38,0,0,0,.64,1.31C208,172.15,208.53,173,209,173.88Z" transform="translate(-38.58 -143.29)"/><path class="cls-2" d="M194.17,175.48a11.18,11.18,0,0,0,2-6.59" transform="translate(-38.58 -143.29)"/><path d="M194.17,175.48a19.57,19.57,0,0,0,1.29-3.21c.16-.55.3-1.1.42-1.66s.21-1.14.32-1.72a8,8,0,0,1-.27,3.53,8.14,8.14,0,0,1-.69,1.64A6.16,6.16,0,0,1,194.17,175.48Z" transform="translate(-38.58 -143.29)"/><path class="cls-3" d="M53.86,198.7" transform="translate(-38.58 -143.29)"/><path class="cls-2" d="M167.5,150.08s-3.73,14.66-1.36,24.74" transform="translate(-38.58 -143.29)"/><path d="M167.5,150.08q-.58,3.07-1,6.15c-.28,2.06-.54,4.12-.69,6.19a50.47,50.47,0,0,0,.35,12.4,30.69,30.69,0,0,1-.95-6.18,54.46,54.46,0,0,1,.11-6.26c.18-2.08.44-4.15.8-6.21A57.74,57.74,0,0,1,167.5,150.08Z" transform="translate(-38.58 -143.29)"/><polyline class="cls-1" points="22.38 28.22 19.4 102.09 17 102.09"/><polyline class="cls-1" points="202.86 28.67 205.84 102.54 208.24 102.54"/><line class="cls-4" x1="1.41" y1="564.88" x2="92.56" y2="564.88"/><line class="cls-4" x1="132.58" y1="564.88" x2="223.7" y2="564.88"/><line class="cls-1" x1="1.41" y1="567.3" x2="92.39" y2="567.3"/><line class="cls-1" x1="132.58" y1="567.3" x2="223.7" y2="567.3"/><path class="cls-2" d="M154.33,290.23l-33.46,17.6s50.34-13.68,54.55-14.59-47.62,15.37-49.27,20.5" transform="translate(-38.58 -143.29)"/><path d="M154.33,290.23l-33.42,17.68-.06-.16,26.69-7.25c8.9-2.41,17.8-4.81,26.74-7.09l.84-.2.43-.1h.1s.06,0,.12.11-.07.09-.09.13l-.06,0-.2.09c-.54.21-1.09.4-1.63.59l-3.27,1.13L164,297.42c-4.35,1.51-8.7,3-13,4.63s-8.63,3.23-12.89,5c-2.13.88-4.24,1.8-6.31,2.81-1,.51-2.06,1-3.05,1.64a17,17,0,0,0-1.43,1,3.32,3.32,0,0,0-1.12,1.29,3.24,3.24,0,0,1,1.12-1.29,13.78,13.78,0,0,1,1.42-1c1-.6,2-1.14,3-1.66,2.06-1,4.17-2,6.29-2.86,4.25-1.79,8.56-3.44,12.88-5s8.67-3.14,13-4.66l6.53-2.27,3.26-1.14c.55-.19,1.09-.38,1.62-.59l.19-.08.05,0s0-.07,0,0,.1.09.07.1h-.06l-.42.09-.83.2c-8.93,2.29-17.82,4.74-26.73,7.11l-26.71,7.2-.73.19.67-.35Z" transform="translate(-38.58 -143.29)"/></svg>