<svg id="Layer_1" data-name="Layer 1" xmlns="http://www.w3.org/2000/svg" viewBox="0 0 520.99 374.8"><defs><style>.cls-1,.cls-2{stroke:#000;stroke-miterlimit:10;}.cls-2{stroke-dasharray:1;}</style></defs><path class="cls-1" d="M473.39,311.35" transform="translate(-47.71 -310.43)"/><path class="cls-1" d="M469.67,311.13l16.15,11.39,34.08,18.61s-19.3,38.61-14,82.57c0,0-10.62,41.87-9.91,45.14s1.6,15.15,1.6,15.15l53.14,200.73-80.47-.25H335.39l51.75-210s4-8.91-10.1-50.49c0,0,7.13-48.71-13.07-84.35l24.68-15,19-11.57,3.21-1.94h59.4" transform="translate(-47.71 -310.43)"/><path class="cls-1" d="M377,424,355.28,550.58l-39.2-7.52s17-90.69,26.92-139,21-64.42,21-64.42S382.61,372.51,377,424Z" transform="translate(-47.71 -310.43)"/><line class="cls-2" x1="271.8" y1="219.24" x2="309.85" y2="226.86"/><path class="cls-1" d="M505.94,423.7l1,4.75,22,124.25,39.21-7.53s-17-90.68-26.93-139-21.29-65-21.29-65S502,375.88,505.94,423.7Z" transform="translate(-47.71 -310.43)"/><line class="cls-2" x1="517.62" y1="220.68" x2="478.35" y2="228.52"/><line class="cls-2" x1="291.76" y1="358.21" x2="499.41" y2="359.37"/><line class="cls-1" x1="291.76" y1="360.54" x2="499.41" y2="362.07"/><line class="cls-1" x1="270.71" y1="217.15" x2="310.37" y2="225.09"/><line class="cls-1" x1="517.81" y1="218.92" x2="478.16" y2="226.86"/><path class="cls-1" d="M393.11,321.93s38.76,16.74,92.71.59" transform="translate(-47.71 -310.43)"/><path class="cls-1" d="M387.59,467.49S429.12,481,496,468.84" transform="translate(-47.71 -310.43)"/><path class="cls-1" d="M383.48,489.33s26.12-7.12,115.56,0" transform="translate(-47.71 -310.43)"/><path class="cls-1" d="M201.9,310.93,218,322.32l34.08,18.6s-19.3,38.62-14,82.57c0,0-10.62,41.88-9.91,45.15s1.6,15.15,1.6,15.15L283,684.52l-80.47-.25H67.61l51.75-210s4-8.91-10.1-50.49c0,0,7.13-48.71-13.07-84.35l24.68-15,19-11.58,3.21-1.93h59.4" transform="translate(-47.71 -310.43)"/><path class="cls-1" d="M109.26,423.79,87.5,550.38l-39.2-7.52s17-90.69,26.93-139,21-64.41,21-64.41S114.84,372.31,109.26,423.79Z" transform="translate(-47.71 -310.43)"/><line class="cls-2" x1="4.02" y1="219.04" x2="42.07" y2="226.66"/><path class="cls-1" d="M238.16,423.49l1,4.76,22,124.25L300.34,545s-17-90.69-26.93-139-21.29-65.05-21.29-65.05S234.24,375.67,238.16,423.49Z" transform="translate(-47.71 -310.43)"/><line class="cls-2" x1="249.84" y1="220.47" x2="210.57" y2="228.32"/><line class="cls-1" x1="2.93" y1="216.95" x2="42.59" y2="224.89"/><line class="cls-1" x1="250.03" y1="218.72" x2="210.38" y2="226.66"/><path class="cls-1" d="M181,471.45l-26.68-55.62L152.68,413c-9.77-19.92-32.35-70-31.46-88.36" transform="translate(-47.71 -310.43)"/><path class="cls-1" d="M183,682" transform="translate(-47.71 -310.43)"/><path class="cls-1" d="M206,311.39" transform="translate(-47.71 -310.43)"/><polyline class="cls-1" points="149.81 175 69.21 175 72.46 161.03 72.14 153.15 156.34 163.15"/><line class="cls-1" x1="156.79" y1="174.99" x2="173.08" y2="174.99"/><path class="cls-1" d="M202.52,476.79S184.16,509,184.75,517.88s23.17,6.54,23.17,6.54S200.16,493.2,202.52,476.79Z" transform="translate(-47.71 -310.43)"/><path class="cls-1" d="M216.81,475.43c6.1,3.22,27.05,15,28.83,18.1,1.45,2.52,3,7.76.23,8.3-.93.17-2.34-.18-4.39-1.35C233.32,495.81,216.81,475.43,216.81,475.43Z" transform="translate(-47.71 -310.43)"/><path class="cls-1" d="M247.45,500.48s-10.42,12.36-12.8,12.06S217.19,477,217.19,477,242.43,507.43,247.45,500.48Z" transform="translate(-47.71 -310.43)"/><polyline class="cls-1" points="156.21 213.97 156.51 270.13 178.94 273.1 175.22 243.69"/><line class="cls-2" x1="24.18" y1="358.8" x2="231.33" y2="359.19"/><line class="cls-1" x1="23.76" y1="360.36" x2="231.99" y2="361.89"/><line class="cls-1" x1="151.56" y1="374.5" x2="148.98" y2="213.97"/><line class="cls-1" x1="135.27" y1="175.58" x2="135.27" y2="374.5"/><path class="cls-1" d="M216.81,485.81s16.06,35.41,18.73,60.47l-18.73,10.81s0-64.22-3.54-71.28" transform="translate(-47.71 -310.43)"/><path class="cls-1" d="M203.65,474.09s9,51.49,4.27,50.33" transform="translate(-47.71 -310.43)"/><path class="cls-1" d="M172.54,414.17l36.27-75.92c9.51-17.82-5.94-27.32-5.94-27.32h-59.4a13.09,13.09,0,0,0-3.21,1.93c-11.23,9.32,1.71,33.59-2.14,24.8l60.79,135.15,16.41,1.28,13.31-6.65,1.48,15.44" transform="translate(-47.71 -310.43)"/><path class="cls-1" d="M181,433.22l42.86-95.13a25.57,25.57,0,0,0,2.58-10.69" transform="translate(-47.71 -310.43)"/><path class="cls-1" d="M136.45,329.25s25.72-10.43,75.74-1.16" transform="translate(-47.71 -310.43)"/></svg>