<?xml version="1.0" encoding="utf-8"?>
<!-- Generator: Adobe Illustrator 25.2.0, SVG Export Plug-In . SVG Version: 6.00 Build 0)  -->
<svg version="1.1" id="Layer_1" xmlns="http://www.w3.org/2000/svg" xmlns:xlink="http://www.w3.org/1999/xlink" x="0px" y="0px"
	 viewBox="0 0 595.28 841.89" style="enable-background:new 0 0 595.28 841.89;" xml:space="preserve">
<style type="text/css">
	.st0{stroke:#000000;stroke-miterlimit:10;}
	.st1{fill:none;stroke:#000000;stroke-width:0.75;stroke-miterlimit:10;stroke-dasharray:1;}
	.st2{fill:none;stroke:#000000;stroke-miterlimit:10;stroke-dasharray:1;}
</style>
<path class="st0" d="M350.74,316.23c3.06-4.09,1.36-118.15,1.36-118.15c-20.43-7.15-32.68,0-32.68,0
	c-2.72,29.62,9.53,118.15,9.53,118.15H350.74z"/>
<polygon class="st0" points="318.06,316.23 318.39,319.11 325.04,378 489.13,378 495.56,319.63 495.94,316.23 "/>
<line class="st1" x1="494.4" y1="318.94" x2="319.03" y2="318.94"/>
<line class="st1" x1="325.55" y1="374.77" x2="488.45" y2="374.77"/>
<g>
	<path d="M332.02,316.23l0.5-9.41c0.06-1.57,0.16-3.13,0.19-4.7c0.02-0.78,0.03-1.56,0.02-2.34c0-0.39-0.01-0.78-0.04-1.16
		l-0.03-0.58l-0.02-0.31l0-0.18l0.01-0.08c-0.01,0.04,0.01-0.13,0.14-0.24c0.14-0.1,0.22-0.11,0.4-0.05
		c0.08,0.04,0.14,0.1,0.17,0.15c0.03,0.06,0.01,0.03,0.02,0.04l0.02,0.04l0.02,0.07c0.34,1.63,0.51,3.13,0.75,4.71
		c0.21,1.56,0.45,3.11,0.62,4.67c0.38,3.12,0.74,6.24,1.01,9.37c-0.58-3.09-1.08-6.19-1.58-9.29c-0.51-3.08-0.92-6.26-1.51-9.24
		c0-0.01,0,0,0,0l0,0c0.01,0.01-0.01-0.03,0.02,0.03c0.03,0.05,0.08,0.11,0.16,0.14c0.16,0.05,0.24,0.03,0.37-0.04
		c0.13-0.1,0.14-0.26,0.13-0.21l0,0l0,0.11l0.01,0.28l0.03,0.59c0.02,0.4,0.03,0.8,0.02,1.19c0,0.79-0.02,1.58-0.05,2.37
		c-0.07,1.58-0.15,3.15-0.3,4.71C332.83,310,332.49,313.12,332.02,316.23z"/>
</g>
<g>
	<path d="M337.63,316.11c0.63-2,0.97-4.18,1.22-6.32c0.26-2.15,0.36-4.32,0.42-6.49c0.09-4.34-0.14-8.69-0.55-13.02
		c-0.4-4.33-1.09-8.63-1.71-12.94l-0.98-6.46l-0.51-3.22l-0.28-1.61c-0.05-0.27-0.1-0.54-0.18-0.79c-0.03-0.07-0.02,0.09-0.02,0.13
		l0.01,0.2l0.03,0.41l-0.04-0.41l-0.01-0.2l0-0.1c-0.01-0.03,0.03-0.09,0.04-0.03c0.09,0.26,0.13,0.53,0.19,0.8l0.3,1.61l0.56,3.22
		l1.07,6.44c0.69,4.3,1.44,8.59,1.9,12.93c0.48,4.33,0.76,8.69,0.74,13.06c-0.03,2.18-0.1,4.37-0.33,6.55
		c-0.23,2.18-0.52,4.34-1.17,6.5L337.63,316.11z"/>
</g>
<g>
	<path d="M342.2,316.22c0.13-2.64,0.22-5.3,0.24-7.94c0.04-2.65-0.07-5.29-0.23-7.94c-0.07-1.33-0.13-2.65-0.17-3.98
		c-0.02-1.33-0.11-2.65,0.09-4c0.02-0.09,0.04-0.17,0.09-0.26c0.04-0.04,0.06-0.11,0.17-0.12c0.08,0,0.14,0.05,0.17,0.09
		c0.13,0.15,0.18,0.31,0.25,0.47c0.12,0.31,0.23,0.63,0.32,0.95c0.19,0.64,0.34,1.29,0.46,1.94c0.25,1.31,0.42,2.63,0.52,3.95
		c-0.14-1.32-0.33-2.63-0.61-3.93c-0.14-0.65-0.3-1.29-0.5-1.92c-0.1-0.31-0.22-0.62-0.34-0.93c-0.07-0.14-0.13-0.31-0.22-0.41
		c-0.06-0.04-0.01-0.04-0.05,0c-0.03,0.06-0.05,0.13-0.06,0.21c-0.15,1.29-0.04,2.63,0.01,3.95c0.07,1.32,0.17,2.65,0.27,3.97
		c0.22,2.64,0.4,5.31,0.42,7.97c0.03,2.66,0.01,5.32-0.06,7.98L342.2,316.22z"/>
</g>
<g>
	<path d="M345.77,316.23c0.07-1.6,0.18-3.2,0.36-4.79c0.09-0.8,0.19-1.59,0.34-2.38c0.08-0.39,0.16-0.79,0.28-1.17
		c0.13-0.36,0.23-0.81,0.59-1.02c-0.33,0.24-0.4,0.68-0.5,1.04c-0.09,0.39-0.14,0.78-0.18,1.17c-0.09,0.79-0.13,1.58-0.15,2.38
		c-0.05,1.59-0.03,3.18,0.02,4.76H345.77z"/>
</g>
<path class="st0" d="M459.73,316.23c-3.06-4.09-1.36-118.15-1.36-118.15c20.43-7.15,32.68,0,32.68,0
	c2.72,29.62-9.53,118.15-9.53,118.15H459.73z"/>
<g>
	<path d="M472.14,316.36c-0.8-2.76-1.09-5.54-1.29-8.33c-0.19-2.79-0.2-5.59-0.09-8.38c0.08-2.79,0.33-5.57,0.6-8.34l0.51-4.15
		l0.62-4.13l-0.53,4.14l-0.42,4.16c-0.21,2.78-0.4,5.55-0.41,8.34c-0.04,2.78,0.03,5.56,0.28,8.33c0.26,2.75,0.63,5.55,1.44,8.12
		L472.14,316.36z"/>
</g>
<g>
	<path d="M467.52,316.25c-0.02-4.44,0-8.89,0.37-13.31c-0.13,4.43,0.1,8.87,0.37,13.28L467.52,316.25z"/>
</g>
<g>
	<path d="M463.95,316.23c0.05-1.58,0.07-3.18,0.02-4.76c-0.03-0.79-0.07-1.59-0.15-2.38c-0.04-0.39-0.1-0.79-0.18-1.17
		c-0.1-0.37-0.17-0.81-0.5-1.04c0.35,0.21,0.46,0.66,0.59,1.02c0.12,0.38,0.2,0.78,0.28,1.17c0.15,0.79,0.25,1.58,0.34,2.38
		c0.17,1.59,0.29,3.19,0.36,4.79H463.95z"/>
</g>
<g>
	<path d="M478.45,316.23c-0.46-3.11-0.81-6.24-1.08-9.37c-0.15-1.57-0.23-3.14-0.3-4.71c-0.03-0.79-0.06-1.58-0.05-2.37
		c0-0.4,0-0.79,0.02-1.19l0.03-0.59l0.01-0.28l0-0.11l0,0c-0.01-0.05,0,0.11,0.13,0.21c0.13,0.08,0.21,0.09,0.37,0.04
		c0.07-0.03,0.13-0.09,0.16-0.14c0.03-0.05,0.01-0.02,0.02-0.03l0,0c0,0,0-0.01,0,0c-0.6,2.98-1,6.17-1.51,9.24
		c-0.5,3.1-1,6.2-1.58,9.29c0.27-3.13,0.63-6.25,1.01-9.37c0.18-1.56,0.41-3.12,0.62-4.67c0.24-1.57,0.41-3.08,0.75-4.71l0.02-0.07
		l0.02-0.04c0.01-0.02-0.01,0.01,0.02-0.04c0.03-0.05,0.09-0.12,0.17-0.15c0.17-0.07,0.26-0.05,0.4,0.05
		c0.14,0.11,0.15,0.28,0.14,0.24l0.01,0.08l0,0.18l-0.02,0.31l-0.03,0.58c-0.03,0.38-0.04,0.77-0.04,1.16
		c-0.01,0.78,0,1.56,0.02,2.34c0.03,1.56,0.13,3.13,0.19,4.7L478.45,316.23z"/>
</g>
<path class="st0" d="M103.94,195.79c0,0,13.62-5.79,31.49,0c0,0,1.19,59.23-1.7,80.85l-21.79-10.38
	C111.94,266.26,100.53,209.74,103.94,195.79z"/>
<path class="st0" d="M211.14,309.17c-1.49,5.24-3.81,7.97-5.75,9.51c-1.37,1.08-5.06,3.54-5.11,3.57l0,0
	c-0.38,0.36-0.76,0.71-1.14,1.07c-0.53,0.49-1.05,0.99-1.58,1.48c-1.04,0.85-2.64,2.17-4.57,3.83c-2.88,2.48-4.86,4.31-5.47,4.85
	c-2.34,2.12-6.28,5.19-13.17,9.1c-0.66,0.47-1.69,1.17-3,1.96c-2.5,1.5-8.4,4.71-19.06,6.56c-15.99,2.78-37.4,1.57-39.66,1.44
	l2.89,24.68h84.77l-0.85,0.05h84.77l2.89-24.68c0,0-25.7,2.23-39.66-1.44c-13.96-3.67-19.06-6.56-19.06-6.56
	c-5.01-2.39-10.72-5.89-16.17-11.06c-1.16-1.1-2.23-2.2-3.22-3.3c-0.95-0.95-2.05-2.24-3.08-3.9c-1.43-2.32-2.16-4.51-2.55-6.11"/>
<path class="st0" d="M112.62,352.55c-13.19-36.3-0.68-86.3-0.68-86.3s56.34,26.04,72.34,41.02v1.02h9.02c0,0,1.19-2.21,6.55-2.21
	c4.3,0,9.43,2.21,11.29,3.09c0.46,0.21,3.98-1.78,3.98-1.78c16-14.98,72.34-41.02,72.34-41.02s12.51,50-0.68,86.3"/>
<g>
	<path d="M114.49,267.45l1.24-3.84l1.28-3.82c0.4-1.28,0.84-2.55,1.22-3.83c0.19-0.64,0.39-1.28,0.55-1.91
		c0.09-0.32,0.15-0.63,0.22-0.95l0.05-0.27l0.04-0.16l0.03-0.07l0.02-0.04c0.01-0.02-0.01,0,0.07-0.11
		c0.06-0.08,0.17-0.15,0.26-0.18c0.06-0.05,0.42-0.02,0.54,0.18c0.07,0.11,0.07,0.12,0.07,0.12l0.01,0.03l0.02,0.06
		c0.05,0.34,0.03,0.43,0.04,0.63c-0.09,2.73-0.32,5.39-0.59,8.07l-0.44,4.01c-0.18,1.33-0.34,2.67-0.56,4
		c-0.01-1.35,0.05-2.69,0.07-4.04l0.16-4.03c0.09-2.68,0.29-5.38,0.36-8.03l0-0.38l0.01,0.03l0.01,0.02c0,0-0.01,0,0.06,0.1
		c0.11,0.19,0.47,0.21,0.52,0.17c0.08-0.02,0.18-0.08,0.24-0.15l0.06-0.09c0,0,0.01-0.02,0-0.01l-0.02,0.08l-0.05,0.23
		c-0.08,0.34-0.15,0.69-0.24,1.01c-0.18,0.66-0.38,1.31-0.59,1.95c-0.44,1.28-0.89,2.55-1.4,3.8
		C116.73,262.55,115.67,265.03,114.49,267.45z"/>
</g>
<g>
	<path d="M119.28,269.57c1.09-1.09,2.11-2.32,2.97-3.6c0.86-1.29,1.59-2.7,1.85-4.18c0.17-3.14,0.67-6.35,1.12-9.49
		c0.94-6.31,1.98-12.6,3.05-18.89c-0.9,6.31-1.78,12.63-2.55,18.95c-0.37,3.18-0.78,6.29-0.88,9.53c-0.25,1.68-1,3.18-1.86,4.55
		c-0.88,1.38-1.87,2.64-3.01,3.84L119.28,269.57z"/>
</g>
<g>
	<path d="M123.46,271.92c0.76-4.29,1.58-8.57,2.52-12.82c0.49-2.12,0.95-4.25,1.68-6.32c0.1-0.26,0.17-0.52,0.32-0.77
		c0.13-0.25,0.25-0.5,0.47-0.7c0.17-0.21,0.57-0.38,0.83-0.16c0.25,0.18,0.37,0.44,0.49,0.69c0.42,1.02,0.58,2.11,0.72,3.18
		c-0.17-1.07-0.38-2.15-0.83-3.13c-0.12-0.23-0.26-0.48-0.46-0.61c-0.2-0.15-0.45-0.03-0.61,0.16c-0.19,0.18-0.29,0.43-0.4,0.67
		c-0.13,0.23-0.19,0.5-0.28,0.75c-0.64,2.06-1.02,4.21-1.43,6.34c-0.77,4.27-1.43,8.58-2.02,12.88L123.46,271.92z"/>
</g>
<g>
	<path d="M126.73,273.43c0.66-2.46,1.35-4.9,2.22-7.3c0.22-0.6,0.45-1.19,0.78-1.77c0.09-0.14,0.17-0.29,0.31-0.42
		c0.07-0.06,0.17-0.17,0.35-0.13c0.17,0.03,0.24,0.17,0.27,0.23c0.18,0.29,0.27,0.61,0.36,0.92c0.3,1.26,0.34,2.53,0.32,3.8
		c-0.07-1.26-0.19-2.54-0.56-3.73c-0.1-0.29-0.21-0.59-0.38-0.82c-0.12-0.12-0.01-0.09-0.12-0.02c-0.08,0.08-0.16,0.22-0.22,0.35
		c-0.26,0.55-0.45,1.15-0.63,1.75c-0.7,2.41-1.22,4.9-1.71,7.37L126.73,273.43z"/>
</g>
<path class="st0" d="M295.46,195.9c0,0-13.62-5.79-31.49,0c0,0-1.19,59.23,1.7,80.85l21.79-10.38
	C287.46,266.37,298.86,209.86,295.46,195.9z"/>
<g>
	<path d="M284.91,267.57c-1.19-2.42-2.24-4.9-3.23-7.4c-0.51-1.25-0.96-2.52-1.4-3.8c-0.22-0.64-0.42-1.29-0.59-1.95
		c-0.1-0.33-0.17-0.67-0.24-1.01l-0.05-0.23l-0.02-0.08c0-0.01,0,0.01,0,0.01l0.06,0.09c0.06,0.07,0.15,0.13,0.24,0.15
		c0.05,0.04,0.41,0.03,0.52-0.17c0.07-0.1,0.06-0.1,0.06-0.1l0.01-0.02l0.01-0.03l0,0.38c0.07,2.65,0.27,5.35,0.36,8.03l0.16,4.03
		c0.02,1.35,0.07,2.69,0.07,4.04c-0.22-1.33-0.37-2.67-0.56-4l-0.44-4.01c-0.27-2.68-0.5-5.34-0.59-8.07
		c0.01-0.2-0.02-0.29,0.04-0.63l0.02-0.06l0.01-0.03c0,0-0.01-0.01,0.07-0.12c0.12-0.2,0.49-0.23,0.54-0.18
		c0.09,0.03,0.19,0.09,0.26,0.18c0.08,0.11,0.06,0.1,0.07,0.11l0.02,0.04l0.03,0.07l0.04,0.16l0.05,0.27
		c0.07,0.32,0.13,0.63,0.22,0.95c0.16,0.64,0.36,1.27,0.55,1.91c0.38,1.28,0.82,2.55,1.22,3.83l1.28,3.82L284.91,267.57z"/>
</g>
<g>
	<path d="M279.41,270.39c-1.13-1.19-2.13-2.46-3.01-3.84c-0.86-1.38-1.61-2.88-1.86-4.55c-0.1-3.24-0.5-6.35-0.88-9.53
		c-0.78-6.33-1.65-12.64-2.55-18.95c1.07,6.29,2.11,12.58,3.05,18.89c0.45,3.14,0.95,6.35,1.12,9.49c0.26,1.49,0.99,2.89,1.85,4.18
		c0.87,1.29,1.88,2.52,2.97,3.6L279.41,270.39z"/>
</g>
<g>
	<path d="M274.95,272.19c-0.6-4.3-1.25-8.6-2.02-12.88c-0.41-2.13-0.79-4.28-1.43-6.34c-0.09-0.25-0.15-0.52-0.28-0.75
		c-0.11-0.24-0.22-0.49-0.4-0.67c-0.17-0.19-0.41-0.31-0.61-0.16c-0.2,0.13-0.34,0.38-0.46,0.61c-0.45,0.98-0.66,2.06-0.83,3.13
		c0.14-1.08,0.3-2.16,0.72-3.18c0.12-0.25,0.24-0.51,0.49-0.69c0.26-0.22,0.66-0.05,0.83,0.16c0.22,0.2,0.34,0.45,0.47,0.7
		c0.15,0.25,0.21,0.51,0.32,0.77c0.73,2.07,1.19,4.2,1.68,6.32c0.94,4.26,1.76,8.53,2.52,12.82L274.95,272.19z"/>
</g>
<g>
	<path d="M271.69,273.77c-0.49-2.47-1.02-4.95-1.71-7.37c-0.18-0.6-0.37-1.2-0.63-1.75c-0.07-0.13-0.14-0.27-0.22-0.35
		c-0.11-0.07,0-0.1-0.12,0.02c-0.17,0.23-0.28,0.53-0.38,0.82c-0.37,1.19-0.49,2.47-0.56,3.73c-0.02-1.27,0.02-2.54,0.32-3.8
		c0.09-0.31,0.18-0.63,0.36-0.92c0.03-0.05,0.1-0.2,0.27-0.23c0.18-0.03,0.28,0.08,0.35,0.13c0.15,0.14,0.23,0.28,0.31,0.42
		c0.32,0.58,0.55,1.17,0.78,1.77c0.87,2.4,1.55,4.84,2.22,7.3L271.69,273.77z"/>
</g>
<g>
	<path d="M184.71,308.54c-1.84,3.05-3.9,5.91-6.12,8.66c-2.23,2.74-4.61,5.36-7.22,7.73c-2.6,2.38-5.42,4.54-8.5,6.27
		c-3.07,1.73-6.43,2.99-9.91,3.47c3.48-0.56,6.78-1.89,9.79-3.68c3.01-1.79,5.76-4,8.28-6.42c2.53-2.42,4.83-5.07,6.98-7.83
		c2.13-2.77,4.12-5.68,5.84-8.69L184.71,308.54z"/>
</g>
<g>
	<path d="M203.88,306.8c-4.77,6.34-9.78,12.48-15.14,18.32c-2.69,2.91-5.47,5.74-8.44,8.36c-1.49,1.3-3.04,2.55-4.68,3.67
		c-1.64,1.1-3.38,2.12-5.29,2.63c1.9-0.56,3.61-1.6,5.22-2.74c1.61-1.15,3.12-2.42,4.58-3.75c2.91-2.67,5.62-5.55,8.24-8.51
		c5.22-5.93,10.1-12.17,14.7-18.57L203.88,306.8z"/>
</g>
<g>
	<path d="M193.77,308.47c-0.4,0.94-0.85,1.8-1.35,2.67c-0.5,0.86-1.04,1.69-1.65,2.47c-1.2,1.55-2.72,3-4.62,3.55
		c1.84-0.71,3.17-2.24,4.21-3.84c0.53-0.8,0.99-1.66,1.39-2.53c0.41-0.87,0.78-1.77,1.07-2.66L193.77,308.47z"/>
</g>
<g>
	<path d="M205.32,318.18c7.3-0.84,14.59-1.94,21.82-3.32c3.61-0.7,7.21-1.47,10.78-2.38c3.56-0.92,7.1-1.96,10.53-3.31
		c-3.4,1.43-6.92,2.55-10.46,3.55c-3.55,0.99-7.14,1.85-10.74,2.63c-7.21,1.54-14.48,2.81-21.8,3.82L205.32,318.18z"/>
</g>
<g>
	<path d="M209.65,317.63c6.98,1.27,14,2.38,21.05,3.26c3.52,0.43,7.06,0.81,10.6,1.02c1.77,0.1,3.55,0.18,5.32,0.15
		c1.77-0.04,3.56-0.13,5.26-0.68c-1.68,0.59-3.49,0.72-5.26,0.8c-1.78,0.07-3.56,0.04-5.34-0.02c-3.56-0.13-7.1-0.42-10.64-0.77
		c-7.08-0.72-14.13-1.66-21.16-2.77L209.65,317.63z"/>
</g>
<g>
	<path d="M204.57,318.67c5.28,2.16,10.65,4.12,16.09,5.86c2.73,0.85,5.47,1.63,8.26,2.28c2.78,0.6,5.62,1.15,8.49,0.92
		c-2.85,0.32-5.73-0.15-8.54-0.67c-2.81-0.56-5.59-1.27-8.35-2.04c-5.51-1.58-10.95-3.39-16.32-5.41L204.57,318.67z"/>
</g>
<g>
	<path d="M203.73,320.12c3.29,3.08,6.76,6.01,10.31,8.82c3.55,2.81,7.22,5.47,11.01,7.94c3.8,2.46,7.73,4.74,11.85,6.61
		c4.12,1.86,8.46,3.36,12.98,3.8c-4.53-0.36-8.92-1.78-13.09-3.57c-4.17-1.81-8.16-4.02-12.02-6.42c-3.85-2.41-7.58-5.02-11.2-7.77
		c-3.62-2.76-7.14-5.62-10.53-8.68L203.73,320.12z"/>
</g>
<g>
	<path d="M180.6,314.42c-5.65-1.09-11.25-2.4-16.76-4.02c-2.75-0.82-5.48-1.73-8.14-2.82c-1.33-0.55-2.63-1.15-3.89-1.85
		c-1.25-0.7-2.47-1.49-3.46-2.53c1.02,1.01,2.26,1.76,3.52,2.42c1.27,0.66,2.59,1.22,3.92,1.73c2.68,1.01,5.42,1.83,8.18,2.57
		c5.53,1.46,11.16,2.6,16.79,3.52L180.6,314.42z"/>
</g>
<g>
	<path d="M175.77,320.62c-6.42,1.28-12.87,2.32-19.37,3.04c-3.25,0.35-6.51,0.61-9.78,0.66c-1.63,0.02-3.27-0.01-4.9-0.16
		c-1.62-0.16-3.26-0.4-4.77-1.02c1.53,0.58,3.16,0.78,4.78,0.9c1.62,0.11,3.25,0.1,4.88,0.04c3.25-0.14,6.5-0.48,9.72-0.91
		c6.45-0.88,12.87-2.09,19.21-3.52L175.77,320.62z"/>
</g>
<line class="st2" x1="115.23" y1="374.84" x2="284.48" y2="374.84"/>
</svg>
