<svg id="Layer_1" data-name="Layer 1" xmlns="http://www.w3.org/2000/svg" viewBox="0 0 449.42 375.49"><defs><style>.cls-1,.cls-2,.cls-3,.cls-4{stroke:#231f20;stroke-miterlimit:10;}.cls-2{stroke-width:0.75px;}.cls-2,.cls-3,.cls-4{stroke-dasharray:1;}.cls-4{stroke-width:0.5px;}.cls-5{fill:#231f20;}</style></defs><path class="cls-1" d="M227,235.18" transform="translate(-78.47 -221.19)"/><path class="cls-1" d="M181.13,223.81l43.59-2.09,2.1,12,.21,1.43,51.1,351.87s4.19-1-27.23,4.86c-29.28,5.44-28.89,1.81-36.72.61s-31.9,0-31.9,0l-5.87-269.68-3.76,269.07-30.75.59s-17.65,5.13-20.79,3.28c-.74-.44-.76-1.27.33-2.66,5.41-6.88,30.66-16.86,30.66-16.86l-61.32-94.5,37-245.95,2.21-14S178.52,223.91,181.13,223.81Z" transform="translate(-78.47 -221.19)"/><path class="cls-1" d="M91.14,483.26,120.54,595s3.23-7.6,31.44-18.2Z" transform="translate(-78.47 -221.19)"/><line class="cls-1" x1="60.23" y1="360.96" x2="19.43" y2="287.45"/><path class="cls-1" d="M118.31,587.42c-9.52-3.29-39.34,2.39-39.34,2.39,0-5.72,12.17-106.55,12.17-106.55Z" transform="translate(-78.47 -221.19)"/><polyline class="cls-1" points="20.29 290.67 13.55 354.47 12.3 366.22"/><line class="cls-2" x1="34.99" y1="346.14" x2="1.76" y2="349.2"/><path class="cls-2" d="M115.61,576.06s3.54-7.81,25.27-17.09" transform="translate(-78.47 -221.19)"/><path class="cls-2" d="M150.27,573.08a173.08,173.08,0,0,1,23.38-4.3" transform="translate(-78.47 -221.19)"/><polygon class="cls-1" points="22.85 276.81 24.04 262.07 21.79 262.07 12.78 261.57 22.85 276.81"/><line class="cls-3" x1="21.2" y1="272.46" x2="22.38" y2="262.07"/><polyline class="cls-1" points="97.93 16.77 97.93 81.65 97.93 101.64"/><path class="cls-4" d="M187.29,238s.75,55.15.18,56.71c-1.82,5-8.23,8.66-9.95,7.39" transform="translate(-78.47 -221.19)"/><path class="cls-1" d="M189,238s.4,56,0,57.56-6,10.19-12.58,8.79" transform="translate(-78.47 -221.19)"/><line class="cls-4" x1="99.59" y1="16.79" x2="98.84" y2="104.96"/><path class="cls-4" d="M150.07,236.73s-5,23.2-11,26.21-15.38,0-15.38,0" transform="translate(-78.47 -221.19)"/><path class="cls-1" d="M152.1,236.73s-5,24.6-11,27.8-17.41.37-17.41.37l4.19-29.72Z" transform="translate(-78.47 -221.19)"/><path class="cls-4" d="M203.93,237.1s5,22,11,25,15.38,0,15.38,0" transform="translate(-78.47 -221.19)"/><path class="cls-1" d="M201.9,237.1s5,23.34,11,26.54,18.38.64,18.38.64l-4.41-29.58-24.95,2.4" transform="translate(-78.47 -221.19)"/><circle class="cls-1" cx="103.69" cy="9.71" r="3.48"/><polygon class="cls-1" points="77.49 2.24 75.96 22.49 79.72 22.49 80.49 2.42 77.49 2.24"/><polygon class="cls-1" points="120.15 2.24 121.68 22.49 117.92 22.49 117.15 2.42 120.15 2.24"/><path class="cls-5" d="M176.48,322.32a65.27,65.27,0,0,0-8.87,3.58,31.61,31.61,0,0,0-4.14,2.4,12.71,12.71,0,0,0-3.47,3.27,13,13,0,0,1,3.4-3.38,33.5,33.5,0,0,1,4.09-2.52,65.3,65.3,0,0,1,8.84-3.82Z" transform="translate(-78.47 -221.19)"/><path class="cls-5" d="M176.61,324.89q-4.89,13-9.33,26.13c-1.46,4.39-2.89,8.79-4.19,13.23-.64,2.23-1.28,4.45-1.82,6.7a52.5,52.5,0,0,0-1.27,6.82,52.79,52.79,0,0,1,1.21-6.83c.52-2.26,1.14-4.49,1.76-6.72,1.26-4.45,2.65-8.87,4.07-13.27q4.32-13.2,9.11-26.24Z" transform="translate(-78.47 -221.19)"/><path class="cls-5" d="M176.37,319.73c2.82-.3,5.64-.49,8.47-.52,1.42,0,2.83,0,4.24.12a21.78,21.78,0,0,1,4.18.65,21.84,21.84,0,0,0-4.19-.53c-1.4-.07-2.81-.05-4.22,0-2.81.11-5.63.39-8.41.77Z" transform="translate(-78.47 -221.19)"/><path class="cls-5" d="M177.53,322.73q3.19,6.6,6.23,13.28c1,2.23,2,4.46,2.93,6.72a49.77,49.77,0,0,1,2.48,6.9,50.47,50.47,0,0,0-2.59-6.85c-1-2.24-2-4.46-3.05-6.67q-3.14-6.62-6.44-13.16Z" transform="translate(-78.47 -221.19)"/><path class="cls-2" d="M182.05,571.34s29.72,5.07,38.75,4.51,52.37-9,52.37-9h2" transform="translate(-78.47 -221.19)"/><circle class="cls-1" cx="24.04" cy="286.9" r="2.26"/><circle class="cls-1" cx="41.55" cy="316.14" r="2.26"/><circle class="cls-1" cx="57.98" cy="344.94" r="2.26"/><line class="cls-1" x1="16.3" y1="283.84" x2="15.72" y2="289.15"/><line class="cls-1" x1="8.49" y1="349.74" x2="7.89" y2="354.27"/><line class="cls-1" x1="11.6" y1="317.65" x2="11.6" y2="322.76"/><polyline class="cls-1" points="184.99 264.82 175.28 264.82 173.78 264.82 188.66 367.89"/><line class="cls-2" x1="190.63" y1="367.89" x2="175.28" y2="264.82"/><circle class="cls-1" cx="192.92" cy="354.7" r="2.26"/><circle class="cls-1" cx="188.03" cy="320.61" r="2.26"/><circle class="cls-1" cx="182.96" cy="286.25" r="2.26"/><line class="cls-1" x1="98.33" y1="16.77" x2="117.15" y2="16.25"/><line class="cls-1" x1="121.68" y1="15.9" x2="147.93" y2="13.51"/><line class="cls-1" x1="98.84" y1="16.81" x2="80.1" y2="15.86"/><line class="cls-1" x1="75.96" y1="15.54" x2="49.42" y2="13.99"/><line class="cls-1" x1="110.69" y1="16.34" x2="110.22" y2="2.61"/><path class="cls-1" d="M488.06,587.48c9.52-3.29,39.33,2.39,39.33,2.39,0-5.72-12.16-106.55-12.16-106.55Z" transform="translate(-78.47 -221.19)"/><path class="cls-1" d="M379.45,235.24" transform="translate(-78.47 -221.19)"/><path class="cls-1" d="M428.16,224.58l-46.08-2.86-2.1,12-.21,1.43L327.23,585.23s15.33,6,28.67,6.68c29.74,1.61,28.9,1.81,36.72.6s31.91,0,31.91,0l5.86-269.67,3.77,269.07,32.46.62s15.93,5.09,19.07,3.25c.74-.44.76-1.28-.33-2.66-5.41-6.89-30.66-16.86-30.66-16.86L516,481.75,479,235.8l-2.2-14-44.37,2.77h-4.27" transform="translate(-78.47 -221.19)"/><polyline class="cls-1" points="429.25 290.73 435.99 354.53 437.23 366.29"/><line class="cls-2" x1="414.54" y1="346.21" x2="447.78" y2="349.26"/><path class="cls-2" d="M456.21,573.15a172.28,172.28,0,0,0-23.38-4.31" transform="translate(-78.47 -221.19)"/><polyline class="cls-1" points="426.69 276.87 425.49 262.13 429.51 262.13 436.87 262.13"/><line class="cls-3" x1="428.33" y1="272.52" x2="427.15" y2="262.13"/><polyline class="cls-1" points="351.6 23.73 351.6 81.71 351.6 101.71"/><line class="cls-4" x1="350" y1="23.73" x2="350.7" y2="105.02"/><polygon class="cls-1" points="380.3 2.3 381.82 22.55 378.06 22.55 377.3 2.48 380.3 2.3"/><polygon class="cls-1" points="321.13 2.3 319.6 22.55 323.37 22.55 324.13 2.48 321.13 2.3"/><path class="cls-5" d="M430.15,321.91a64.11,64.11,0,0,1,8.84,3.83,32,32,0,0,1,4.1,2.52,12.79,12.79,0,0,1,3.39,3.37,12.71,12.71,0,0,0-3.47-3.27,31,31,0,0,0-4.14-2.4,64.7,64.7,0,0,0-8.87-3.57Z" transform="translate(-78.47 -221.19)"/><path class="cls-5" d="M430.34,324.77q4.77,13.05,9.1,26.24c1.42,4.4,2.82,8.82,4.08,13.27.61,2.23,1.23,4.46,1.75,6.72a49.59,49.59,0,0,1,1.21,6.83,49.61,49.61,0,0,0-1.27-6.82c-.54-2.25-1.18-4.47-1.81-6.69-1.3-4.44-2.74-8.84-4.2-13.23q-4.43-13.15-9.33-26.14Z" transform="translate(-78.47 -221.19)"/><path class="cls-5" d="M430,320.29c-2.78-.38-5.59-.66-8.41-.77-1.4,0-2.81-.07-4.22,0a21.84,21.84,0,0,0-4.19.53,21.78,21.78,0,0,1,4.18-.65c1.41-.11,2.83-.13,4.24-.12,2.83,0,5.65.22,8.47.52Z" transform="translate(-78.47 -221.19)"/><path class="cls-5" d="M429.4,323q-3.3,6.54-6.45,13.17c-1,2.21-2.07,4.42-3.05,6.66a50.93,50.93,0,0,0-2.58,6.85,48.46,48.46,0,0,1,2.47-6.9c.94-2.26,1.93-4.49,2.93-6.72q3-6.68,6.23-13.28Z" transform="translate(-78.47 -221.19)"/><path class="cls-2" d="M424.44,571.4s-29.73,5.08-38.76,4.51-52.37-9-52.37-9h-3.57" transform="translate(-78.47 -221.19)"/><circle class="cls-1" cx="437.91" cy="322.93" r="2.26"/><circle class="cls-1" cx="441.35" cy="357.02" r="2.26"/><circle class="cls-1" cx="433.44" cy="286.31" r="2.26"/><polyline class="cls-1" points="263.33 264.88 274.25 264.88 275.75 264.88 260.88 367.95"/><line class="cls-2" x1="258.9" y1="367.95" x2="274.25" y2="264.88"/><circle class="cls-1" cx="256.62" cy="354.76" r="2.26"/><circle class="cls-1" cx="261.51" cy="320.67" r="2.26"/><circle class="cls-1" cx="266.58" cy="286.31" r="2.26"/><polygon class="cls-1" points="352.79 3.45 353.74 23.73 349.13 23.73 349.37 3.45 352.79 3.45"/><line class="cls-1" x1="301.46" y1="13.59" x2="320.13" y2="15.61"/><line class="cls-1" x1="323.61" y1="16.19" x2="348.78" y2="16.79"/><line class="cls-1" x1="399.96" y1="13.59" x2="381.82" y2="15.25"/><line class="cls-1" x1="377.8" y1="15.65" x2="353.64" y2="16.83"/><path class="cls-1" d="M515.35,482.78l-29.41,111.7s-3.22-7.6-31.44-18.2Z" transform="translate(-78.47 -221.19)"/><line class="cls-1" x1="389.3" y1="361.02" x2="430.1" y2="287.52"/><path class="cls-2" d="M490.87,576.12s-3.54-7.81-25.27-17.09" transform="translate(-78.47 -221.19)"/><line class="cls-1" x1="427.15" y1="284.05" x2="424.34" y2="288.57"/><line class="cls-1" x1="410.04" y1="311.54" x2="407.34" y2="316.81"/><line class="cls-1" x1="390.94" y1="344.35" x2="387.13" y2="349.26"/></svg>