<?xml version="1.0" encoding="utf-8"?>
<!-- Generator: Adobe Illustrator 25.2.0, SVG Export Plug-In . SVG Version: 6.00 Build 0)  -->
<svg version="1.1" id="Layer_1" xmlns="http://www.w3.org/2000/svg" xmlns:xlink="http://www.w3.org/1999/xlink" x="0px" y="0px"
	 viewBox="0 0 595.28 841.89" style="enable-background:new 0 0 595.28 841.89;" xml:space="preserve">
<style type="text/css">
	.st0{stroke:#000000;stroke-miterlimit:10;}
	.st1{stroke:#000000;stroke-width:0.75;stroke-miterlimit:10;stroke-dasharray:1;}
	.st2{stroke:#000000;stroke-width:0.5;stroke-miterlimit:10;stroke-dasharray:1;}
	.st3{stroke:#000000;stroke-miterlimit:10;}
</style>
<g>
	<path class="st0" d="M134.49,179.36c0,0-17.11,66.13-19.66,71.23s-4.09,11.23-4.6,67.91c-0.51,56.68,5.62,297.19,5.62,297.19
		l32.68,3.06l29.11-8.68l13.91-309.96L190.91,186C190.91,186,159.77,188.13,134.49,179.36z"/>
	<path class="st0" d="M159.77,201.06c0,0-18.38,77.62-18.38,98.04s7.15,319.66,7.15,319.66"/>
	<polyline class="st0" points="134.49,197.49 115.85,255.7 113.04,255.7 	"/>
	<path class="st0" d="M200.47,202.6V270c0,0,0.91,8.68-8.92,6.13"/>
	<path class="st1" d="M199.09,202.26v67.06c0,0,0.6,7.32-7.53,5.62"/>
	<polyline class="st2" points="136.28,197.49 116.31,257.4 113.11,257.4 	"/>
	<path class="st0" d="M248.62,179.36c0,0,14.98,66.13,17.53,71.23s4.09,11.23,4.6,67.91s-5.62,297.19-5.62,297.19l-32.68,3.06
		l-29.11-8.68l-11.79-311.23L190.91,186C190.91,186,220.38,188.04,248.62,179.36z"/>
	<path class="st0" d="M221.21,201.06c0,0,18.38,77.62,18.38,98.04s-7.15,319.66-7.15,319.66"/>
	<polyline class="st0" points="246.49,197.49 265.13,255.7 267.94,255.7 	"/>
	<polyline class="st2" points="244.7,197.49 264.67,257.4 267.87,257.4 	"/>
	<path class="st0" d="M252.4,195.83c0,0-28.3,7.27-62.42,6.42"/>
	<polyline class="st2" points="115.8,613.66 148.48,616.71 177.73,608.06 	"/>
	<polyline class="st2" points="265.76,613.66 233.07,616.71 203.83,608.06 	"/>
	<path class="st3" d="M134.49,179.36c0,0,7.4,7.79,56.43,7.9c62.44,0.15,57.08-7.92,56.34-7.9H134.49z"/>
	<path class="st3" d="M165.34,186.24l35.15,1.35l4.72,7.53l-4.85,7.13h-18.47c0,0-10.92-0.34-14.11-0.59
		c-3.19-0.26-11.84-0.89-19.77-2.26c-7.93-1.37-17.83-3.56-17.83-3.56l4.3-16.47l-4.3,16.47c0,0,11.74,3.2,29.59,5.1
		c9.07,0.97,19.73,1.6,31.23,1.32"/>
	<circle class="st3" cx="194.89" cy="194.82" r="3.98"/>
	<polygon class="st3" points="161.78,184.38 157.21,203.45 162.15,204.04 166.15,184.98 	"/>
	<polygon class="st3" points="219.8,184.38 224.37,203.45 219.43,204.04 215.43,184.98 	"/>
</g>
<g>
	<path class="st0" d="M362.28,179.36c0,0-17.11,66.13-19.66,71.23s-4.09,11.23-4.6,67.91s5.62,297.19,5.62,297.19l32.68,3.06
		l29.11-8.68l13.91-309.96L418.7,186C418.7,186,387.56,188.13,362.28,179.36z"/>
	<path class="st0" d="M387.56,201.06c0,0-18.38,77.62-18.38,98.04s7.15,319.66,7.15,319.66"/>
	<path class="st0" d="M475.26,179.62c0,0,16.12,65.87,18.67,70.98s4.09,11.23,4.6,67.91s-5.62,297.19-5.62,297.19l-32.68,3.06
		l-29.11-8.68l-11.79-311.23L418.7,186C418.7,186,447.03,188.3,475.26,179.62z"/>
	<path class="st0" d="M449,201.06c0,0,18.38,77.62,18.38,98.04s-7.15,319.66-7.15,319.66"/>
	<polyline class="st2" points="343.59,613.66 376.27,616.71 405.52,608.06 	"/>
	<polyline class="st2" points="493.55,613.66 460.86,616.71 431.62,608.06 	"/>
	<path class="st3" d="M363.21,179.36c2.04,2.99,34.19,7.87,57.3,7.9c23.35,0.03,40.62-3.73,54.24-7.65c0.01,0,0-0.01,0-0.01
		C329.63,179.59,400.21,179.36,363.21,179.36z"/>
	<path class="st0" d="M358.26,195.83c0,0,28.3,7.27,62.42,6.42h-2.92c34.12,0.85,61.54-6.33,61.54-6.33"/>
	<polygon class="st3" points="416.87,186 416.33,205.67 421.13,205.67 421.3,186 	"/>
	<polygon class="st3" points="385.57,183.38 381,202.45 385.94,203.04 389.94,183.98 	"/>
	<polygon class="st3" points="450.59,184.38 455.16,203.45 450.22,204.04 446.22,184.98 	"/>
</g>
</svg>
