<svg id="Layer_1" data-name="Layer 1" xmlns="http://www.w3.org/2000/svg" viewBox="0 0 569.24 296.39"><defs><style>.cls-1,.cls-2,.cls-3{stroke:#000;stroke-miterlimit:10;}.cls-2,.cls-3{stroke-dasharray:1;}.cls-3{stroke-width:0.75px;}</style></defs><path class="cls-1" d="M513.49,436.9l20.08,46.55,2.74,2.29,8.21,19.16,34.69-6.84s-2.74-11.87-3.2-17.8-5.93-29.66-5.93-29.66L546.81,350.2s-16.43-70.28-17.35-78-6.84-16.43-6.84-16.43-9.93-15.37-19.17-18.71c-7-2.54-9.76-2.3-9.76-2.3s-15.35,27.92-18.4,33.32-13.47,14.88-13.47,14.88L453,290.41c-16.24,16.82-35.91-1.35-43.38-7s-20.75-26.72-23.17-30.91-9.39-17.61-9.39-17.61h-.83a39.58,39.58,0,0,0-7,2.14c-9.2,3.47-19.17,18.71-19.17,18.71s-5.93,8.67-6.84,16.43-17.34,78-17.34,78L302.65,450.6s-5.48,23.73-5.93,29.66-3.2,17.8-3.2,17.8l34.69,6.84,8.21-19.16,2.74-2.29,20.08-46.55.08-18.29s97.14,5.46,154,.63Z" transform="translate(-10.57 -209.59)"/><path class="cls-1" d="M350.11,255.73s8.25,21.15,13.94,59.4" transform="translate(-10.57 -209.59)"/><path class="cls-1" d="M522.62,255.73s-8.25,21.15-13.94,59.4" transform="translate(-10.57 -209.59)"/><path class="cls-1" d="M534.68,484.38c6.48-5,24.31-8.7,40.46-9.92" transform="translate(-10.57 -209.59)"/><path class="cls-2" d="M534,483s18.73-9.35,41-9.48" transform="translate(-10.57 -209.59)"/><path class="cls-2" d="M536.19,485.88s.61-6.08,39.32-9.61" transform="translate(-10.57 -209.59)"/><path class="cls-1" d="M512.57,419.16c-36.07,5.24-152.41,0-152.41,0l.77,22.41s64.79,2.74,74,2.84,56-2.21,56-2.21,20.38-3.06,20.48-3.37S512.57,419.16,512.57,419.16Z" transform="translate(-10.57 -209.59)"/><path class="cls-2" d="M360.93,416.84s116.34,5.23,152.41,0" transform="translate(-10.57 -209.59)"/><path class="cls-2" d="M360.16,421.49s116.34,5.23,152.41,0" transform="translate(-10.57 -209.59)"/><line class="cls-1" x1="351.25" y1="209.65" x2="351.25" y2="231.88"/><line class="cls-1" x1="352.63" y1="210.05" x2="352.63" y2="232.02"/><line class="cls-1" x1="354.37" y1="209.65" x2="354.37" y2="231.88"/><line class="cls-1" x1="356.45" y1="210.05" x2="356.45" y2="232.28"/><line class="cls-1" x1="357.82" y1="210.11" x2="357.82" y2="232.26"/><line class="cls-1" x1="359.57" y1="210.05" x2="359.57" y2="232.28"/><line class="cls-1" x1="361.34" y1="209.75" x2="361.34" y2="232.42"/><line class="cls-1" x1="362.72" y1="210.4" x2="362.72" y2="232.71"/><line class="cls-1" x1="364.46" y1="210.34" x2="364.46" y2="232.58"/><line class="cls-1" x1="366.54" y1="210.15" x2="366.54" y2="232.38"/><line class="cls-1" x1="367.91" y1="210.3" x2="367.91" y2="232.71"/><line class="cls-1" x1="369.66" y1="210.15" x2="369.66" y2="232.83"/><line class="cls-1" x1="371.22" y1="210.3" x2="371.22" y2="233.17"/><line class="cls-1" x1="372.59" y1="210.46" x2="372.59" y2="233.17"/><line class="cls-1" x1="374.34" y1="210.46" x2="374.34" y2="233.17"/><line class="cls-1" x1="375.82" y1="210.74" x2="375.82" y2="232.97"/><line class="cls-1" x1="377.19" y1="210.8" x2="377.19" y2="232.97"/><line class="cls-1" x1="378.94" y1="210.74" x2="378.94" y2="232.97"/><line class="cls-1" x1="380.51" y1="210.8" x2="380.51" y2="233.27"/><line class="cls-1" x1="381.88" y1="210.84" x2="381.88" y2="233.07"/><line class="cls-1" x1="383.63" y1="211.04" x2="383.63" y2="233.27"/><line class="cls-1" x1="385.71" y1="210.84" x2="385.71" y2="233.33"/><line class="cls-1" x1="387.08" y1="210.9" x2="387.08" y2="233.49"/><line class="cls-1" x1="388.83" y1="210.84" x2="388.83" y2="233.33"/><line class="cls-1" x1="390.02" y1="211.1" x2="390.02" y2="233.33"/><line class="cls-1" x1="391.39" y1="211.2" x2="391.39" y2="233.47"/><line class="cls-1" x1="393.13" y1="211.1" x2="393.13" y2="233.71"/><line class="cls-1" x1="395.21" y1="211.2" x2="395.21" y2="233.73"/><line class="cls-1" x1="396.59" y1="211.18" x2="396.59" y2="233.71"/><line class="cls-1" x1="398.33" y1="211.5" x2="398.33" y2="233.73"/><line class="cls-1" x1="400.11" y1="211.2" x2="400.11" y2="233.87"/><line class="cls-1" x1="401.48" y1="211.56" x2="401.48" y2="233.87"/><line class="cls-1" x1="403.23" y1="211.5" x2="403.23" y2="234.02"/><line class="cls-1" x1="405.31" y1="211.59" x2="405.31" y2="234.28"/><line class="cls-1" x1="406.68" y1="211.42" x2="406.68" y2="234.16"/><line class="cls-1" x1="408.42" y1="211.6" x2="408.42" y2="234.28"/><line class="cls-1" x1="409.98" y1="211.75" x2="409.98" y2="234.62"/><line class="cls-1" x1="411.36" y1="211.56" x2="411.36" y2="234.62"/><line class="cls-1" x1="413.1" y1="211.5" x2="413.1" y2="234.62"/><line class="cls-1" x1="414.58" y1="211.75" x2="414.58" y2="234.42"/><line class="cls-1" x1="415.96" y1="211.59" x2="415.96" y2="234.42"/><line class="cls-1" x1="417.7" y1="211.9" x2="417.7" y2="234.42"/><line class="cls-1" x1="419.28" y1="211.75" x2="419.28" y2="234.72"/><line class="cls-1" x1="420.65" y1="211.56" x2="420.65" y2="234.52"/><line class="cls-1" x1="422.39" y1="211.9" x2="422.39" y2="234.72"/><line class="cls-1" x1="423.88" y1="211.85" x2="423.88" y2="234.52"/><line class="cls-1" x1="425.85" y1="211.9" x2="425.85" y2="234.94"/><line class="cls-1" x1="427.59" y1="211.9" x2="427.59" y2="234.52"/><line class="cls-1" x1="499.72" y1="209.9" x2="499.72" y2="229.52"/><line class="cls-1" x1="497.94" y1="209.87" x2="497.94" y2="229.81"/><line class="cls-1" x1="496.57" y1="210.26" x2="496.57" y2="230.07"/><line class="cls-1" x1="494.83" y1="210.2" x2="494.83" y2="230.36"/><line class="cls-1" x1="492.75" y1="210.35" x2="492.75" y2="231.04"/><line class="cls-1" x1="491.37" y1="210.6" x2="491.37" y2="230.91"/><line class="cls-1" x1="489.63" y1="210.8" x2="489.63" y2="230.97"/><line class="cls-1" x1="488.07" y1="210.7" x2="488.07" y2="231.43"/><line class="cls-1" x1="486.7" y1="210.96" x2="486.7" y2="231.58"/><line class="cls-1" x1="484.95" y1="211.09" x2="484.95" y2="231.91"/><line class="cls-1" x1="483.47" y1="211.09" x2="483.47" y2="232.13"/><line class="cls-1" x1="482.09" y1="211.23" x2="482.09" y2="232.57"/><line class="cls-1" x1="480.35" y1="211.31" x2="480.35" y2="232.83"/><line class="cls-1" x1="478.78" y1="211.61" x2="478.78" y2="232.69"/><line class="cls-1" x1="477.4" y1="211.61" x2="477.4" y2="232.93"/><line class="cls-1" x1="475.66" y1="211.31" x2="475.66" y2="233.13"/><line class="cls-1" x1="473.58" y1="211.65" x2="473.58" y2="233.19"/><line class="cls-1" x1="472.21" y1="211.65" x2="472.21" y2="232.93"/><line class="cls-1" x1="470.77" y1="211.61" x2="470.46" y2="233.19"/><line class="cls-1" x1="469.27" y1="211.61" x2="469.27" y2="233.19"/><line class="cls-1" x1="467.9" y1="211.83" x2="467.9" y2="233.33"/><line class="cls-1" x1="466.15" y1="211.83" x2="466.15" y2="233.57"/><line class="cls-1" x1="464.07" y1="211.71" x2="464.07" y2="233.58"/><line class="cls-1" x1="462.7" y1="211.61" x2="462.7" y2="233.57"/><line class="cls-1" x1="460.96" y1="211.91" x2="460.96" y2="233.35"/><line class="cls-1" x1="459.18" y1="211.83" x2="459.18" y2="233.73"/><line class="cls-1" x1="457.81" y1="211.76" x2="457.81" y2="233.73"/><line class="cls-1" x1="456.06" y1="211.76" x2="456.06" y2="233.88"/><line class="cls-1" x1="453.98" y1="211.65" x2="453.98" y2="233.84"/><line class="cls-1" x1="452.61" y1="211.89" x2="452.61" y2="234.02"/><line class="cls-1" x1="450.86" y1="211.76" x2="450.86" y2="234.13"/><line class="cls-1" x1="449.3" y1="211.61" x2="449.3" y2="234.13"/><line class="cls-1" x1="447.93" y1="211.9" x2="447.93" y2="234.09"/><line class="cls-1" x1="446.19" y1="211.9" x2="446.19" y2="234.48"/><line class="cls-1" x1="444.7" y1="211.61" x2="444.7" y2="234.28"/><line class="cls-1" x1="443.33" y1="211.9" x2="443.33" y2="234.28"/><line class="cls-1" x1="441.59" y1="211.76" x2="441.59" y2="234.28"/><line class="cls-1" x1="440.01" y1="211.61" x2="440.01" y2="234.58"/><line class="cls-1" x1="438.64" y1="211.76" x2="438.64" y2="234.38"/><line class="cls-1" x1="436.89" y1="211.76" x2="436.89" y2="234.58"/><line class="cls-1" x1="435.41" y1="211.71" x2="435.41" y2="234.38"/><line class="cls-1" x1="434.04" y1="211.76" x2="434.04" y2="234.8"/><line class="cls-1" x1="432.29" y1="211.76" x2="432.29" y2="234.38"/><line class="cls-1" x1="430.35" y1="211.97" x2="430.35" y2="234.59"/><line class="cls-1" x1="428.97" y1="212" x2="428.97" y2="234.62"/><path class="cls-1" d="M336.66,485.26c-9-4.15-23.38-7.09-39.53-8.31" transform="translate(-10.57 -209.59)"/><path class="cls-2" d="M338.62,483.91s-19.05-8.36-41.31-8.49" transform="translate(-10.57 -209.59)"/><path class="cls-2" d="M336,486.73s-2.09-2.57-39.2-8.53" transform="translate(-10.57 -209.59)"/><path class="cls-1" d="M294.51,498.25" transform="translate(-10.57 -209.59)"/><path class="cls-1" d="M298.4,477.05" transform="translate(-10.57 -209.59)"/><line class="cls-1" x1="288.44" y1="267.4" x2="284.45" y2="288.74"/><line class="cls-1" x1="290.51" y1="267.7" x2="286.22" y2="289.11"/><line class="cls-1" x1="292.09" y1="267.86" x2="287.82" y2="289.43"/><line class="cls-1" x1="293.4" y1="268" x2="289.21" y2="289.91"/><line class="cls-1" x1="295.35" y1="268.22" x2="290.51" y2="289.96"/><line class="cls-1" x1="324.93" y1="275.16" x2="316.55" y2="295.1"/><line class="cls-1" x1="323.66" y1="274.63" x2="315.27" y2="294.85"/><line class="cls-1" x1="309.13" y1="270.44" x2="302.87" y2="292.4"/><line class="cls-1" x1="310.83" y1="270.81" x2="304.61" y2="292.75"/><line class="cls-1" x1="313" y1="271.52" x2="306.93" y2="293.2"/><line class="cls-1" x1="314.58" y1="271.72" x2="308.51" y2="293.2"/><line class="cls-1" x1="316.55" y1="272.25" x2="310.34" y2="293.87"/><line class="cls-1" x1="318.4" y1="272.88" x2="311.55" y2="293.87"/><line class="cls-1" x1="320" y1="273.31" x2="313" y2="294.4"/><line class="cls-1" x1="321.69" y1="273.89" x2="314.13" y2="294.62"/><line class="cls-1" x1="301.71" y1="269.09" x2="296.26" y2="291.1"/><line class="cls-1" x1="302.87" y1="269.28" x2="297.63" y2="291.1"/><line class="cls-1" x1="304.61" y1="269.57" x2="298.98" y2="291.63"/><line class="cls-1" x1="305.82" y1="270.07" x2="300.25" y2="291.88"/><line class="cls-1" x1="307.31" y1="270.07" x2="301.71" y2="292.17"/><line class="cls-1" x1="298.64" y1="268.61" x2="293.52" y2="290.3"/><path class="cls-1" d="M304.84,500.29" transform="translate(-10.57 -209.59)"/><path class="cls-1" d="M310.06,478.35" transform="translate(-10.57 -209.59)"/><line class="cls-1" x1="300.25" y1="269.28" x2="295.35" y2="290.7"/><line class="cls-1" x1="296.87" y1="268.76" x2="291.71" y2="290.2"/><path class="cls-1" d="M578.23,498.25" transform="translate(-10.57 -209.59)"/><path class="cls-1" d="M573.9,474.46" transform="translate(-10.57 -209.59)"/><line class="cls-1" x1="562.59" y1="264.68" x2="567.01" y2="288.59"/><line class="cls-1" x1="560.65" y1="265.13" x2="565" y2="289.07"/><line class="cls-1" x1="559.06" y1="265.3" x2="563.41" y2="289.5"/><line class="cls-1" x1="557.75" y1="265.46" x2="561.94" y2="289.6"/><line class="cls-1" x1="555.76" y1="265.74" x2="560.69" y2="290.13"/><line class="cls-1" x1="526.22" y1="273.35" x2="534.6" y2="295.31"/><line class="cls-1" x1="527.49" y1="272.77" x2="535.89" y2="295.03"/><line class="cls-1" x1="542.02" y1="268.15" x2="548.28" y2="292.34"/><line class="cls-1" x1="540.32" y1="268.56" x2="546.54" y2="292.72"/><line class="cls-1" x1="538.1" y1="269.12" x2="544.17" y2="293.01"/><line class="cls-1" x1="536.57" y1="269.55" x2="542.73" y2="293.58"/><line class="cls-1" x1="534.6" y1="270.14" x2="540.82" y2="293.96"/><line class="cls-1" x1="532.75" y1="270.84" x2="539.61" y2="293.96"/><line class="cls-1" x1="531.15" y1="271.31" x2="538.15" y2="294.54"/><line class="cls-1" x1="529.46" y1="271.94" x2="537.03" y2="294.79"/><line class="cls-1" x1="549.44" y1="266.67" x2="554.9" y2="290.9"/><line class="cls-1" x1="547.92" y1="267.2" x2="553.83" y2="291.67"/><line class="cls-1" x1="546.54" y1="267.2" x2="552.17" y2="291.49"/><line class="cls-1" x1="545.34" y1="267.75" x2="550.9" y2="291.77"/><line class="cls-1" x1="543.84" y1="267.75" x2="549.44" y2="292.09"/><line class="cls-1" x1="552.51" y1="266.14" x2="557.75" y2="290.6"/><line class="cls-1" x1="550.86" y1="266.68" x2="556.31" y2="290.9"/><line class="cls-1" x1="554.24" y1="266.11" x2="559.45" y2="289.94"/><path class="cls-1" d="M436.37,220.24l-23.25-1s-8.72-8.12-30.63-8.12,1,35.9,1,35.9,13.79,27.79,30,39.56,22.85,10.95,22.85,10.95,5.35,2.43,15.89-6.49,20.49-16.43,26.37-29,16.84-27.78,20.49-39.75c0,0,3.24-11.76-9.33-12.17s-31.64,9.53-31.64,9.53Z" transform="translate(-10.57 -209.59)"/><path class="cls-2" d="M373,218.21s12.52,6.09,32.2,7.91,46.85,2,59.63,0,26.1-3.59,34.35-9.7" transform="translate(-10.57 -209.59)"/><path class="cls-1" d="M436.37,297.52c1.54-4.46,0-77.28,0-77.28" transform="translate(-10.57 -209.59)"/><path class="cls-3" d="M434,220.14s1.43,44.93.82,77.38" transform="translate(-10.57 -209.59)"/><path class="cls-3" d="M438.47,220.24s2.64,71.19,0,77.58" transform="translate(-10.57 -209.59)"/><path class="cls-1" d="M382.49,211.11s-5.68,2.64-3,4.06,33.67,4.06,33.67,4.06" transform="translate(-10.57 -209.59)"/><path class="cls-1" d="M489.79,210.1s4.87,3.45-1.83,5.07-29.81,4.46-29.81,4.46" transform="translate(-10.57 -209.59)"/><path class="cls-1" d="M359.32,418.61s-1-35.15-.08-44.71,7.3-81.21,5.7-86.23" transform="translate(-10.57 -209.59)"/><path class="cls-1" d="M507.79,287.67c-1.6,5,4.79,76.67,5.7,86.23s-.15,45.34-.15,45.34" transform="translate(-10.57 -209.59)"/><path class="cls-1" d="M147.68,210.1l41.67.73s20.06,1.36,6.82,12.27-34.86,27.26-34.86,27.26S151,256.54,148.24,265.6c-2.73-9.06-14.84-15.48-14.84-15.48s-21.62-16.36-34.86-27.26,6.82-12.27,6.82-12.27l42.74-.49" transform="translate(-10.57 -209.59)"/><path class="cls-1" d="M222.36,440.13l19.28,44.69,2.63,2.19,7.88,18.4,33.3-6.57s-2.63-11.39-3.06-17.09-5.7-28.48-5.7-28.48l-22.35-96.39S238.57,289.41,237.7,282s-6.58-15.77-6.58-15.77-9.64-14.46-18.4-18S200.89,246,200.89,246l-52.35,19.82h-.61L95.74,246s-3.07-1.31-11.83,2.19-18.4,18-18.4,18-5.7,8.32-6.57,15.77-16.65,74.92-16.65,74.92L19.94,453.27s-5.26,22.78-5.7,28.48-3.06,17.09-3.06,17.09l33.3,6.57L52.36,487,55,484.82l19.28-44.69-.1-17s125,4.95,148,0Z" transform="translate(-10.57 -209.59)"/><path class="cls-1" d="M74.17,423.1s-.78-34.28.1-43.46,7-78,5.48-82.78" transform="translate(-10.57 -209.59)"/><path class="cls-1" d="M216.88,296.86c-1.53,4.82,4.6,73.6,5.48,82.78s-.15,42.34-.15,42.34" transform="translate(-10.57 -209.59)"/><path class="cls-1" d="M65.51,266.19s7.92,20.3,13.38,57" transform="translate(-10.57 -209.59)"/><path class="cls-1" d="M231.12,266.19s-7.92,20.3-13.38,57" transform="translate(-10.57 -209.59)"/><path class="cls-1" d="M242.7,485.7c6.22-4.76,23.34-8.35,38.85-9.52" transform="translate(-10.57 -209.59)"/><path class="cls-2" d="M242,484.37s18-9,39.35-9.1" transform="translate(-10.57 -209.59)"/><path class="cls-2" d="M244.15,487.14s.59-5.83,37.76-9.22" transform="translate(-10.57 -209.59)"/><path class="cls-1" d="M221.47,423.1c-34.62,5-146.31,0-146.31,0l.74,21.5s62.19,2.63,71,2.73,53.75-2.12,53.75-2.12,19.57-2.94,19.66-3.23S221.47,423.1,221.47,423.1Z" transform="translate(-10.57 -209.59)"/><path class="cls-2" d="M75.9,420.86s111.69,5,146.31,0" transform="translate(-10.57 -209.59)"/><path class="cls-2" d="M75.16,425.33s111.69,5,146.31,0" transform="translate(-10.57 -209.59)"/><line class="cls-1" x1="66.18" y1="213.58" x2="66.18" y2="234.92"/><line class="cls-1" x1="67.5" y1="213.96" x2="67.5" y2="235.05"/><line class="cls-1" x1="69.17" y1="213.58" x2="69.17" y2="234.92"/><line class="cls-1" x1="71.17" y1="213.96" x2="71.17" y2="235.3"/><line class="cls-1" x1="72.49" y1="214.02" x2="72.49" y2="235.28"/><line class="cls-1" x1="74.16" y1="213.96" x2="74.16" y2="235.3"/><line class="cls-1" x1="75.87" y1="213.67" x2="75.87" y2="235.44"/><line class="cls-1" x1="77.19" y1="214.3" x2="77.19" y2="235.72"/><line class="cls-1" x1="78.86" y1="214.25" x2="78.86" y2="235.59"/><line class="cls-1" x1="80.86" y1="214.05" x2="80.86" y2="235.4"/><line class="cls-1" x1="82.17" y1="214.21" x2="82.17" y2="235.72"/><line class="cls-1" x1="83.85" y1="214.06" x2="83.85" y2="235.83"/><line class="cls-1" x1="85.35" y1="214.21" x2="85.35" y2="236.16"/><line class="cls-1" x1="86.67" y1="214.36" x2="86.67" y2="236.16"/><line class="cls-1" x1="88.34" y1="214.36" x2="88.34" y2="236.16"/><line class="cls-1" x1="89.77" y1="214.62" x2="89.77" y2="235.97"/><line class="cls-1" x1="91.08" y1="214.68" x2="91.08" y2="235.97"/><line class="cls-1" x1="92.76" y1="214.62" x2="92.76" y2="235.97"/><line class="cls-1" x1="94.27" y1="214.68" x2="94.27" y2="236.25"/><line class="cls-1" x1="95.59" y1="214.72" x2="95.59" y2="236.06"/><line class="cls-1" x1="97.26" y1="214.91" x2="97.26" y2="236.25"/><line class="cls-1" x1="99.26" y1="214.72" x2="99.26" y2="236.31"/><line class="cls-1" x1="100.58" y1="214.78" x2="100.58" y2="236.47"/><line class="cls-1" x1="102.25" y1="214.72" x2="102.25" y2="236.31"/><line class="cls-1" x1="103.4" y1="214.97" x2="103.4" y2="236.31"/><line class="cls-1" x1="104.71" y1="215.06" x2="104.71" y2="236.45"/><line class="cls-1" x1="106.39" y1="214.97" x2="106.39" y2="236.68"/><line class="cls-1" x1="108.38" y1="215.06" x2="108.38" y2="236.69"/><line class="cls-1" x1="109.7" y1="215.05" x2="109.7" y2="236.68"/><line class="cls-1" x1="111.38" y1="215.35" x2="111.38" y2="236.69"/><line class="cls-1" x1="113.08" y1="215.06" x2="113.08" y2="236.83"/><line class="cls-1" x1="114.4" y1="215.41" x2="114.4" y2="236.83"/><line class="cls-1" x1="116.08" y1="215.35" x2="116.08" y2="236.98"/><line class="cls-1" x1="118.07" y1="215.45" x2="118.07" y2="237.22"/><line class="cls-1" x1="119.39" y1="215.28" x2="119.39" y2="237.11"/><line class="cls-1" x1="121.07" y1="215.45" x2="121.07" y2="237.22"/><line class="cls-1" x1="122.57" y1="215.6" x2="122.57" y2="237.55"/><line class="cls-1" x1="123.88" y1="215.41" x2="123.88" y2="237.55"/><line class="cls-1" x1="125.56" y1="215.35" x2="125.56" y2="237.55"/><line class="cls-1" x1="126.98" y1="215.6" x2="126.98" y2="237.36"/><line class="cls-1" x1="128.3" y1="215.45" x2="128.3" y2="237.36"/><line class="cls-1" x1="129.98" y1="215.74" x2="129.98" y2="237.36"/><line class="cls-1" x1="131.49" y1="215.6" x2="131.49" y2="237.65"/><line class="cls-1" x1="132.8" y1="215.41" x2="132.8" y2="237.45"/><line class="cls-1" x1="134.48" y1="215.74" x2="134.48" y2="237.65"/><line class="cls-1" x1="135.9" y1="215.69" x2="135.9" y2="237.45"/><line class="cls-1" x1="137.79" y1="215.74" x2="137.79" y2="237.86"/><line class="cls-1" x1="139.47" y1="215.74" x2="139.47" y2="237.45"/><line class="cls-1" x1="208.72" y1="213.82" x2="208.72" y2="232.65"/><line class="cls-1" x1="207.01" y1="213.79" x2="207.01" y2="232.93"/><line class="cls-1" x1="205.69" y1="214.16" x2="205.69" y2="233.18"/><line class="cls-1" x1="204.02" y1="214.11" x2="204.02" y2="233.46"/><line class="cls-1" x1="202.02" y1="214.25" x2="202.02" y2="234.11"/><line class="cls-1" x1="200.71" y1="214.49" x2="200.71" y2="233.99"/><line class="cls-1" x1="199.03" y1="214.69" x2="199.03" y2="234.04"/><line class="cls-1" x1="197.53" y1="214.58" x2="197.53" y2="234.49"/><line class="cls-1" x1="196.21" y1="214.83" x2="196.21" y2="234.63"/><line class="cls-1" x1="194.54" y1="214.96" x2="194.54" y2="234.95"/><line class="cls-1" x1="193.11" y1="214.96" x2="193.11" y2="235.16"/><line class="cls-1" x1="191.8" y1="215.09" x2="191.8" y2="235.58"/><line class="cls-1" x1="190.12" y1="215.17" x2="190.12" y2="235.83"/><line class="cls-1" x1="188.61" y1="215.46" x2="188.61" y2="235.7"/><line class="cls-1" x1="187.29" y1="215.46" x2="187.29" y2="235.93"/><line class="cls-1" x1="185.62" y1="215.17" x2="185.62" y2="236.12"/><line class="cls-1" x1="183.62" y1="215.5" x2="183.62" y2="236.17"/><line class="cls-1" x1="182.3" y1="215.5" x2="182.3" y2="235.93"/><line class="cls-1" x1="180.92" y1="215.46" x2="180.63" y2="236.17"/><line class="cls-1" x1="179.48" y1="215.46" x2="179.48" y2="236.17"/><line class="cls-1" x1="178.17" y1="215.67" x2="178.17" y2="236.31"/><line class="cls-1" x1="176.49" y1="215.67" x2="176.49" y2="236.54"/><line class="cls-1" x1="174.49" y1="215.55" x2="174.49" y2="236.56"/><line class="cls-1" x1="173.18" y1="215.46" x2="173.18" y2="236.54"/><line class="cls-1" x1="171.5" y1="215.75" x2="171.5" y2="236.33"/><line class="cls-1" x1="169.8" y1="215.67" x2="169.8" y2="236.69"/><line class="cls-1" x1="168.48" y1="215.6" x2="168.48" y2="236.69"/><line class="cls-1" x1="166.8" y1="215.6" x2="166.8" y2="236.84"/><line class="cls-1" x1="164.81" y1="215.5" x2="164.81" y2="236.8"/><line class="cls-1" x1="163.49" y1="215.73" x2="163.49" y2="236.97"/><line class="cls-1" x1="161.81" y1="215.6" x2="161.81" y2="237.08"/><line class="cls-1" x1="160.31" y1="215.46" x2="160.31" y2="237.08"/><line class="cls-1" x1="159" y1="215.74" x2="159" y2="237.05"/><line class="cls-1" x1="157.32" y1="215.74" x2="157.32" y2="237.41"/><line class="cls-1" x1="155.9" y1="215.46" x2="155.9" y2="237.22"/><line class="cls-1" x1="154.58" y1="215.74" x2="154.58" y2="237.22"/><line class="cls-1" x1="152.9" y1="215.6" x2="152.9" y2="237.22"/><line class="cls-1" x1="151.39" y1="215.46" x2="151.39" y2="237.51"/><line class="cls-1" x1="150.08" y1="215.6" x2="150.08" y2="237.32"/><line class="cls-1" x1="148.4" y1="215.6" x2="148.4" y2="237.51"/><line class="cls-1" x1="146.98" y1="215.55" x2="146.98" y2="237.32"/><line class="cls-1" x1="145.66" y1="215.6" x2="145.66" y2="237.72"/><line class="cls-1" x1="143.98" y1="215.6" x2="143.98" y2="237.32"/><line class="cls-1" x1="142.12" y1="215.8" x2="142.12" y2="237.52"/><line class="cls-1" x1="140.79" y1="215.84" x2="140.79" y2="237.55"/><path class="cls-1" d="M52.59,486.55c-8.6-4-22.44-6.8-37.95-8" transform="translate(-10.57 -209.59)"/><path class="cls-2" d="M54.47,485.25s-18.29-8-39.66-8.15" transform="translate(-10.57 -209.59)"/><path class="cls-2" d="M52,488s-2-2.46-37.64-8.19" transform="translate(-10.57 -209.59)"/><path class="cls-1" d="M94.65,214.49S90.56,221.3,90,226s-2.33,10.52-2.33,14.8,1.24,5.78,1.24,5.78S93,244,102.59,248.63s45.65,17,45.65,17-3.27-7.27-7.88-10.67-35.59-26.69-39.89-30.49S92.91,218.57,94.65,214.49Z" transform="translate(-10.57 -209.59)"/><path class="cls-1" d="M90.46,223.71s6.33,7.33,11,10.25,15.39,10.71,15.39,10.71L127.17,254l5.66,6" transform="translate(-10.57 -209.59)"/><path class="cls-2" d="M147,215.65H122s-16.4,1.76-19.1,2.54-5.7,3.06-4.77,3.87" transform="translate(-10.57 -209.59)"/><circle class="cls-1" cx="124.08" cy="47.63" r="2.04"/><polygon class="cls-1" points="118.93 111.61 124.08 113.63 120.29 118.62 118.93 118.62 118.93 111.61"/><path class="cls-1" d="M206.18,246.18s.89-.88.89-5.17-1.75-10.12-2.33-14.8-4.68-11.49-4.68-11.49,3.55,2.48-6.05,10.14-32.7,25.5-32.7,25.5-12.24,8.26-13.07,15.24l42.9-15.88s8.22-3.46,9.75-3.69A32.57,32.57,0,0,1,206.18,246.18Z" transform="translate(-10.57 -209.59)"/><path class="cls-1" d="M204.18,223.71s-6.26,7.57-10.93,10.49-15.39,10.71-15.39,10.71l-10.32,9.34L161.17,261" transform="translate(-10.57 -209.59)"/><path class="cls-2" d="M147,215.65l25.81.24s16.46,1.75,19.17,2.53,5.72,3.07,4.8,3.87" transform="translate(-10.57 -209.59)"/><circle class="cls-1" cx="149.48" cy="47.87" r="2.04"/><polygon class="cls-1" points="154.58 111.61 149.43 113.63 153.22 118.62 154.58 118.62 154.58 111.61"/><line class="cls-1" x1="136.07" y1="0.5" x2="136.07" y2="38.47"/><line class="cls-3" x1="137.62" y1="0.5" x2="137.62" y2="38.47"/><line class="cls-3" x1="134.7" y1="0.5" x2="134.7" y2="38.47"/><line class="cls-1" x1="120.11" y1="38.47" x2="153.98" y2="38.47"/><line class="cls-1" x1="127.67" y1="44.12" x2="146.36" y2="44.12"/><line class="cls-3" x1="121.42" y1="39.47" x2="152.59" y2="39.47"/><line class="cls-3" x1="126.41" y1="42.83" x2="147.91" y2="42.83"/><path class="cls-1" d="M12.12,499" transform="translate(-10.57 -209.59)"/><path class="cls-1" d="M15.86,478.67" transform="translate(-10.57 -209.59)"/><line class="cls-1" x1="5.89" y1="269.06" x2="2.06" y2="289.55"/><line class="cls-1" x1="7.86" y1="269.31" x2="3.74" y2="289.87"/><line class="cls-1" x1="9.38" y1="269.46" x2="5.28" y2="290.17"/><line class="cls-1" x1="10.64" y1="269.59" x2="6.61" y2="290.64"/><line class="cls-1" x1="12.5" y1="269.81" x2="7.86" y2="290.68"/><line class="cls-1" x1="40.91" y1="276.47" x2="32.87" y2="295.62"/><line class="cls-1" x1="39.69" y1="275.97" x2="31.63" y2="295.37"/><line class="cls-1" x1="25.74" y1="271.94" x2="19.73" y2="293.02"/><line class="cls-1" x1="27.37" y1="272.3" x2="21.4" y2="293.35"/><line class="cls-1" x1="29.45" y1="272.98" x2="23.62" y2="293.79"/><line class="cls-1" x1="30.97" y1="273.17" x2="25.14" y2="293.79"/><line class="cls-1" x1="32.87" y1="273.68" x2="26.9" y2="294.44"/><line class="cls-1" x1="34.64" y1="274.28" x2="28.06" y2="294.44"/><line class="cls-1" x1="36.18" y1="274.69" x2="29.45" y2="294.94"/><line class="cls-1" x1="37.8" y1="275.25" x2="30.53" y2="295.16"/><line class="cls-1" x1="18.61" y1="270.65" x2="13.38" y2="291.77"/><line class="cls-1" x1="19.73" y1="270.83" x2="14.7" y2="291.77"/><line class="cls-1" x1="21.4" y1="271.11" x2="16" y2="292.29"/><line class="cls-1" x1="22.56" y1="271.59" x2="17.22" y2="292.53"/><line class="cls-1" x1="23.99" y1="271.59" x2="18.61" y2="292.8"/><line class="cls-1" x1="15.67" y1="270.19" x2="10.76" y2="291.01"/><path class="cls-1" d="M22,501" transform="translate(-10.57 -209.59)"/><path class="cls-1" d="M27.05,479.92" transform="translate(-10.57 -209.59)"/><line class="cls-1" x1="17.22" y1="270.83" x2="12.5" y2="291.39"/><line class="cls-1" x1="13.97" y1="270.33" x2="9.01" y2="290.91"/><path class="cls-1" d="M284.52,499" transform="translate(-10.57 -209.59)"/><path class="cls-1" d="M280.36,476.18" transform="translate(-10.57 -209.59)"/><line class="cls-1" x1="268.82" y1="266.7" x2="273.06" y2="289.66"/><line class="cls-1" x1="267.21" y1="266.84" x2="271.39" y2="289.82"/><line class="cls-1" x1="265.69" y1="267.01" x2="269.86" y2="290.24"/><line class="cls-1" x1="264.43" y1="267.16" x2="268.46" y2="290.34"/><line class="cls-1" x1="262.52" y1="267.43" x2="267.25" y2="290.85"/><line class="cls-1" x1="234.16" y1="274.73" x2="242.2" y2="295.82"/><line class="cls-1" x1="235.38" y1="274.17" x2="243.44" y2="295.55"/><line class="cls-1" x1="249.33" y1="269.74" x2="255.34" y2="292.97"/><line class="cls-1" x1="247.7" y1="270.13" x2="253.67" y2="293.33"/><line class="cls-1" x1="245.57" y1="270.68" x2="251.4" y2="293.61"/><line class="cls-1" x1="244.1" y1="271.09" x2="250.01" y2="294.16"/><line class="cls-1" x1="242.2" y1="271.66" x2="248.17" y2="294.52"/><line class="cls-1" x1="240.43" y1="272.32" x2="247.01" y2="294.52"/><line class="cls-1" x1="238.89" y1="272.77" x2="245.62" y2="295.08"/><line class="cls-1" x1="237.27" y1="273.38" x2="244.54" y2="295.31"/><line class="cls-1" x1="256.46" y1="268.32" x2="261.69" y2="291.59"/><line class="cls-1" x1="255" y1="268.83" x2="260.67" y2="292.33"/><line class="cls-1" x1="253.67" y1="268.83" x2="259.07" y2="292.15"/><line class="cls-1" x1="252.51" y1="269.35" x2="257.85" y2="292.42"/><line class="cls-1" x1="251.08" y1="269.35" x2="256.46" y2="292.72"/><line class="cls-1" x1="259.4" y1="267.81" x2="264.43" y2="291.3"/><line class="cls-1" x1="257.81" y1="268.33" x2="263.04" y2="291.59"/><line class="cls-1" x1="261.06" y1="267.78" x2="266.07" y2="290.66"/><polygon class="cls-1" points="135.45 124.81 192.99 124.81 189.93 207.25 82.17 207.25 82.17 177.97 135.45 124.81"/><line class="cls-2" x1="137.58" y1="124.81" x2="82.17" y2="180.12"/><line class="cls-2" x1="145.26" y1="124.81" x2="82.17" y2="186.32"/><line class="cls-1" x1="147.63" y1="125.07" x2="82.17" y2="188.25"/><polyline class="cls-2" points="146.21 126.44 190.25 126.44 188.39 205.58 83.87 205.58 83.87 186.62"/><path class="cls-1" d="M135.67,255.74s-6.71,7.9-6.71,10.43-2.92,11.88,2.53,20.65,7.77,8.17,6.22,16.55-5.63,19.1-5.63,19.1" transform="translate(-10.57 -209.59)"/><path class="cls-1" d="M159,256s6.71,7.9,6.71,10.43,2.92,11.88-2.53,20.64-7.77,8.18-6.22,16.55,5.63,19.11,5.63,19.11" transform="translate(-10.57 -209.59)"/></svg>